<svg width="32" height="32" viewBox="0 0 32 32" fill="none" xmlns="http://www.w3.org/2000/svg">
    <path d="M27 8H22C22 6.4087 21.3679 4.88258 20.2426 3.75736C19.1174 2.63214 17.5913 2 16 2C14.4087 2 12.8826 2.63214 11.7574 3.75736C10.6321 4.88258 10 6.4087 10 8H5C4.46957 8 3.96086 8.21071 3.58579 8.58579C3.21071 8.96086 3 9.46957 3 10V25C3 25.5304 3.21071 26.0391 3.58579 26.4142C3.96086 26.7893 4.46957 27 5 27H27C27.5304 27 28.0391 26.7893 28.4142 26.4142C28.7893 26.0391 29 25.5304 29 25V10C29 9.46957 28.7893 8.96086 28.4142 8.58579C28.0391 8.21071 27.5304 8 27 8ZM16 4C17.0609 4 18.0783 4.42143 18.8284 5.17157C19.5786 5.92172 20 6.93913 20 8H12C12 6.93913 12.4214 5.92172 13.1716 5.17157C13.9217 4.42143 14.9391 4 16 4Z" fill="currentColor"/>
</svg>
