<svg width="32" height="32" viewBox="0 0 32 32" fill="none" xmlns="http://www.w3.org/2000/svg">
<path d="M29.2 24.4499L24.025 5.12494C23.8874 4.61278 23.5519 4.17627 23.0925 3.91138C22.633 3.6465 22.0872 3.57494 21.575 3.71244L17.7125 4.74994L17.5875 4.78744C17.4012 4.54303 17.161 4.34484 16.8857 4.20827C16.6104 4.0717 16.3073 4.00041 16 3.99994H12C11.6481 4.00089 11.3029 4.09583 11 4.27494C10.6971 4.09583 10.3519 4.00089 10 3.99994H6C5.46957 3.99994 4.96086 4.21065 4.58579 4.58573C4.21071 4.9608 4 5.46951 4 5.99994V25.9999C4 26.5304 4.21071 27.0391 4.58579 27.4142C4.96086 27.7892 5.46957 27.9999 6 27.9999H10C10.3519 27.999 10.6971 27.9041 11 27.7249C11.3029 27.9041 11.6481 27.999 12 27.9999H16C16.5304 27.9999 17.0391 27.7892 17.4142 27.4142C17.7893 27.0391 18 26.5304 18 25.9999V13.5499L21.475 26.5124C21.5882 26.9396 21.8398 27.3172 22.1903 27.5863C22.5408 27.8554 22.9706 28.0009 23.4125 27.9999C23.585 27.9969 23.7568 27.976 23.925 27.9374L27.7875 26.8999C28.2997 26.7623 28.7362 26.4269 29.0011 25.9674C29.2659 25.508 29.3375 24.9621 29.2 24.4499ZM22.0875 5.64994L22.875 8.53744L19.0125 9.57494L18.225 6.68744L22.0875 5.64994ZM16 5.99994V20.9999H12V5.99994H16ZM10 5.99994V8.99994H6V5.99994H10ZM16 25.9999H12V22.9999H16V25.9999ZM27.275 24.9624L23.4125 25.9999L22.625 23.0999L26.5 22.0624L27.275 24.9624Z" fill="currentColor"/>
</svg>
