<svg width="32" height="32" viewBox="0 0 32 32" fill="none" xmlns="http://www.w3.org/2000/svg">
<path d="M26 7H22.5375L20.8375 4.45C20.747 4.31057 20.6229 4.19623 20.4765 4.11757C20.3301 4.03891 20.1662 3.99847 20 4H12C11.8338 3.99847 11.6699 4.03891 11.5235 4.11757C11.3771 4.19623 11.253 4.31057 11.1625 4.45L9.4625 7H6C5.20536 7.00329 4.44421 7.32041 3.88231 7.88231C3.32042 8.44421 3.00329 9.20536 3 10V24C3.00329 24.7946 3.32042 25.5558 3.88231 26.1177C4.44421 26.6796 5.20536 26.9967 6 27H26C26.7946 26.9967 27.5558 26.6796 28.1177 26.1177C28.6796 25.5558 28.9967 24.7946 29 24V10C28.9967 9.20536 28.6796 8.44421 28.1177 7.88231C27.5558 7.32041 26.7946 7.00329 26 7ZM20.5 16.5C20.5 17.39 20.2361 18.26 19.7416 19.0001C19.2471 19.7401 18.5443 20.3169 17.7221 20.6575C16.8998 20.998 15.995 21.0872 15.1221 20.9135C14.2492 20.7399 13.4474 20.3113 12.818 19.682C12.1887 19.0526 11.7601 18.2508 11.5865 17.3779C11.4128 16.505 11.5019 15.6002 11.8425 14.7779C12.1831 13.9557 12.7599 13.2528 13.4999 12.7584C14.24 12.2639 15.11 12 16 12C17.1935 12 18.3381 12.4741 19.182 13.318C20.0259 14.1619 20.5 15.3065 20.5 16.5Z" fill="currentColor"/>
</svg>
