<svg width="32" height="32" viewBox="0 0 32 32" fill="none" xmlns="http://www.w3.org/2000/svg">
<path d="M16.5 3C13.1859 3.00364 10.0086 4.32177 7.66518 6.66518C5.32177 9.0086 4.00364 12.1859 4 15.5V26.0413C4.00066 26.5605 4.20724 27.0584 4.57444 27.4256C4.94163 27.7928 5.43946 27.9993 5.95875 28H16.5C19.8152 28 22.9946 26.683 25.3388 24.3388C27.683 21.9946 29 18.8152 29 15.5C29 12.1848 27.683 9.00537 25.3388 6.66117C22.9946 4.31696 19.8152 3 16.5 3ZM16.5 26H6V15.5C6 13.4233 6.61581 11.3932 7.76957 9.66651C8.92332 7.9398 10.5632 6.59399 12.4818 5.79926C14.4004 5.00454 16.5116 4.79661 18.5484 5.20175C20.5852 5.6069 22.4562 6.60693 23.9246 8.07538C25.3931 9.54383 26.3931 11.4148 26.7982 13.4516C27.2034 15.4884 26.9955 17.5996 26.2007 19.5182C25.406 21.4368 24.0602 23.0767 22.3335 24.2304C20.6068 25.3842 18.5767 26 16.5 26ZM18 16C18 16.2967 17.912 16.5867 17.7472 16.8334C17.5824 17.08 17.3481 17.2723 17.074 17.3858C16.7999 17.4993 16.4983 17.5291 16.2074 17.4712C15.9164 17.4133 15.6491 17.2704 15.4393 17.0607C15.2296 16.8509 15.0867 16.5836 15.0288 16.2926C14.9709 16.0017 15.0006 15.7001 15.1142 15.426C15.2277 15.1519 15.42 14.9176 15.6666 14.7528C15.9133 14.588 16.2033 14.5 16.5 14.5C16.8978 14.5 17.2794 14.658 17.5607 14.9393C17.842 15.2206 18 15.6022 18 16ZM12.5 16C12.5 16.2967 12.412 16.5867 12.2472 16.8334C12.0824 17.08 11.8481 17.2723 11.574 17.3858C11.2999 17.4993 10.9983 17.5291 10.7074 17.4712C10.4164 17.4133 10.1491 17.2704 9.93934 17.0607C9.72956 16.8509 9.5867 16.5836 9.52882 16.2926C9.47094 16.0017 9.50065 15.7001 9.61418 15.426C9.72771 15.1519 9.91997 14.9176 10.1666 14.7528C10.4133 14.588 10.7033 14.5 11 14.5C11.3978 14.5 11.7794 14.658 12.0607 14.9393C12.342 15.2206 12.5 15.6022 12.5 16ZM23.5 16C23.5 16.2967 23.412 16.5867 23.2472 16.8334C23.0824 17.08 22.8481 17.2723 22.574 17.3858C22.2999 17.4993 21.9983 17.5291 21.7074 17.4712C21.4164 17.4133 21.1491 17.2704 20.9393 17.0607C20.7296 16.8509 20.5867 16.5836 20.5288 16.2926C20.4709 16.0017 20.5007 15.7001 20.6142 15.426C20.7277 15.1519 20.92 14.9176 21.1666 14.7528C21.4133 14.588 21.7033 14.5 22 14.5C22.3978 14.5 22.7794 14.658 23.0607 14.9393C23.342 15.2206 23.5 15.6022 23.5 16Z" fill="currentColor"/>
</svg>
