<svg width="32" height="32" viewBox="0 0 32 32" fill="none" xmlns="http://www.w3.org/2000/svg">
<path d="M21.2 9.07498C20.2965 6.95396 18.6878 5.21029 16.6463 4.1391C14.6048 3.06792 12.2559 2.73503 9.99715 3.19678C7.73841 3.65853 5.70859 4.88655 4.25127 6.67298C2.79396 8.45942 1.99866 10.6945 2 13V21.25C2 21.7141 2.18438 22.1592 2.51256 22.4874C2.84075 22.8156 3.28587 23 3.75 23H10.8375C11.6183 24.781 12.9001 26.2965 14.527 27.3618C16.1538 28.4271 18.0554 28.9963 20 29H28.25C28.7141 29 29.1593 28.8156 29.4874 28.4874C29.8156 28.1592 30 27.7141 30 27.25V19C30.0048 16.5546 29.1111 14.1926 27.4887 12.3628C25.8664 10.5331 23.6284 9.36303 21.2 9.07498ZM28 27H20C18.5855 26.9984 17.1965 26.623 15.9738 25.9118C14.7511 25.2005 13.7381 24.1788 13.0375 22.95C15.4952 22.688 17.7695 21.5274 19.4237 19.6909C21.078 17.8544 21.9954 15.4716 22 13C21.9972 12.4006 21.9428 11.8025 21.8375 11.2125C23.5918 11.6265 25.1549 12.6208 26.2734 14.0343C27.3919 15.4477 28.0003 17.1975 28 19V27Z" fill="currentColor"/>
</svg>
