<svg width="32" height="32" viewBox="0 0 32 32" fill="none" xmlns="http://www.w3.org/2000/svg">
<path d="M28 6H4C3.73478 6 3.48043 6.10536 3.29289 6.29289C3.10536 6.48043 3 6.73478 3 7V24C3 24.5304 3.21071 25.0391 3.58579 25.4142C3.96086 25.7893 4.46957 26 5 26H27C27.5304 26 28.0391 25.7893 28.4142 25.4142C28.7893 25.0391 29 24.5304 29 24V7C29 6.73478 28.8946 6.48043 28.7071 6.29289C28.5196 6.10536 28.2652 6 28 6ZM27 24H5V9.275L15.325 18.7375C15.5093 18.9061 15.7501 18.9997 16 18.9997C16.2499 18.9997 16.4907 18.9061 16.675 18.7375L27 9.275V24Z" fill="currentColor"/>
</svg>
