<svg width="32" height="32" viewBox="0 0 32 32" fill="none" xmlns="http://www.w3.org/2000/svg">
<path d="M12.5 14.2375L13.8875 17H11.1125L12.5 14.2375ZM29 7V27C29.001 27.1706 28.9578 27.3386 28.8746 27.4876C28.7913 27.6366 28.6709 27.7614 28.525 27.85C28.3803 27.941 28.2147 27.9933 28.044 28.0021C27.8733 28.0108 27.7033 27.9757 27.55 27.9L24 26.1125L20.45 27.9C20.3091 27.9659 20.1555 28 20 28C19.8445 28 19.6909 27.9659 19.55 27.9L16 26.1125L12.45 27.9C12.3096 27.9676 12.1558 28.0027 12 28.0027C11.8442 28.0027 11.6904 27.9676 11.55 27.9L8.00002 26.1125L4.45002 27.9C4.29677 27.9757 4.12669 28.0108 3.956 28.0021C3.78531 27.9933 3.61972 27.941 3.47502 27.85C3.32915 27.7614 3.20872 27.6366 3.12547 27.4876C3.04222 27.3386 2.999 27.1706 3.00002 27V7C3.00002 6.46957 3.21073 5.96086 3.5858 5.58579C3.96088 5.21071 4.46958 5 5.00002 5H27C27.5305 5 28.0392 5.21071 28.4142 5.58579C28.7893 5.96086 29 6.46957 29 7ZM17.4 19.55L13.4 11.55C13.3148 11.3847 13.1858 11.2461 13.027 11.1493C12.8683 11.0525 12.6859 11.0013 12.5 11.0013C12.3141 11.0013 12.1317 11.0525 11.973 11.1493C11.8142 11.2461 11.6852 11.3847 11.6 11.55L7.60002 19.55C7.48067 19.7887 7.46103 20.065 7.54542 20.3182C7.62982 20.5714 7.81132 20.7807 8.05002 20.9C8.28871 21.0193 8.56504 21.039 8.81822 20.9546C9.07139 20.8702 9.28067 20.6887 9.40002 20.45L10.1125 19H14.8875L15.6 20.45C15.685 20.6155 15.814 20.7544 15.9727 20.8514C16.1315 20.9485 16.3139 20.9999 16.5 21C16.6551 20.9967 16.8081 20.9627 16.95 20.9C17.1852 20.777 17.3635 20.5676 17.4475 20.3158C17.5314 20.064 17.5144 19.7895 17.4 19.55ZM25.5 16C25.5 15.7348 25.3947 15.4804 25.2071 15.2929C25.0196 15.1054 24.7652 15 24.5 15H23V13.5C23 13.2348 22.8947 12.9804 22.7071 12.7929C22.5196 12.6054 22.2652 12.5 22 12.5C21.7348 12.5 21.4804 12.6054 21.2929 12.7929C21.1054 12.9804 21 13.2348 21 13.5V15H19.5C19.2348 15 18.9804 15.1054 18.7929 15.2929C18.6054 15.4804 18.5 15.7348 18.5 16C18.5 16.2652 18.6054 16.5196 18.7929 16.7071C18.9804 16.8946 19.2348 17 19.5 17H21V18.5C21 18.7652 21.1054 19.0196 21.2929 19.2071C21.4804 19.3946 21.7348 19.5 22 19.5C22.2652 19.5 22.5196 19.3946 22.7071 19.2071C22.8947 19.0196 23 18.7652 23 18.5V17H24.5C24.7652 17 25.0196 16.8946 25.2071 16.7071C25.3947 16.5196 25.5 16.2652 25.5 16Z" fill="currentColor"/>
</svg>
