<svg width="32" height="32" viewBox="0 0 32 32" fill="none" xmlns="http://www.w3.org/2000/svg">
<path fill-rule="evenodd" clip-rule="evenodd" d="M1.59961 15.9996C1.59961 23.1196 6.79961 29.0396 13.5996 30.2396L13.6799 30.1754C13.6531 30.1702 13.6264 30.165 13.5996 30.1596V19.9996H9.99961V15.9996H13.5996V12.7996C13.5996 9.19961 15.9196 7.19961 19.1996 7.19961C20.2396 7.19961 21.3596 7.35961 22.3996 7.51961V11.1996H20.5596C18.7996 11.1996 18.3996 12.0796 18.3996 13.1996V15.9996H22.2396L21.5996 19.9996H18.3996V30.1596C18.3729 30.165 18.3461 30.1702 18.3193 30.1754L18.3996 30.2396C25.1996 29.0396 30.3996 23.1196 30.3996 15.9996C30.3996 8.07961 23.9196 1.59961 15.9996 1.59961C8.07961 1.59961 1.59961 8.07961 1.59961 15.9996Z" fill="currentColor"/>
</svg>
