<svg width="32" height="32" viewBox="0 0 32 32" fill="none" stroke="currentColor" xmlns="http://www.w3.org/2000/svg">
<path d="M12 17.5714H12.01M20 17.5714H20.01M11 13.381H21C23.2091 13.381 25 15.2571 25 17.5714V18.619C25 20.9334 23.2091 22.8095 21 22.8095H11C8.79086 22.8095 7 20.9334 7 18.619V17.5714C7 15.2571 8.79086 13.381 11 13.381ZM3 8.14286C3 7.30932 3.31607 6.50992 3.87868 5.92052C4.44129 5.33112 5.20435 5 6 5C6.79565 5 7.55871 5.33112 8.12132 5.92052C8.68393 6.50992 9 7.30932 9 8.14286H23C23 7.30932 23.3161 6.50992 23.8787 5.92052C24.4413 5.33112 25.2044 5 26 5C26.7956 5 27.5587 5.33112 28.1213 5.92052C28.6839 6.50992 29 7.30932 29 8.14286V18.619C28.9967 20.8408 28.1528 22.9705 26.6532 24.5415C25.1536 26.1124 23.1207 26.9965 21 27H11C8.87928 26.9965 6.84637 26.1124 5.3468 24.5415C3.84722 22.9705 3.00331 20.8408 3 18.619V8.14286Z" stroke-width="1.5" stroke-linecap="round" stroke-linejoin="round"/>
</svg>
