<svg width="32" height="32" viewBox="0 0 32 32" fill="none" stroke="currentColor" xmlns="http://www.w3.org/2000/svg">
<path d="M16 22C19.3137 22 22 19.3137 22 16C22 12.6863 19.3137 10 16 10C12.6863 10 10 12.6863 10 16C10 19.3137 12.6863 22 16 22Z" stroke-width="1.5" stroke-linecap="round" stroke-linejoin="round"/>
<path d="M22.9627 8.13751C23.2794 8.42918 23.5794 8.72918 23.8627 9.03751L27.2752 9.52501C27.8312 10.4906 28.2598 11.5242 28.5502 12.6L26.4752 15.3625C26.4752 15.3625 26.5127 16.2125 26.4752 16.6375L28.5502 19.4C28.2611 20.4762 27.8325 21.51 27.2752 22.475L23.8627 22.9625C23.8627 22.9625 23.2752 23.575 22.9627 23.8625L22.4752 27.275C21.5096 27.831 20.476 28.2596 19.4002 28.55L16.6377 26.475C16.2135 26.5125 15.7869 26.5125 15.3627 26.475L12.6002 28.55C11.524 28.2609 10.4902 27.8323 9.5252 27.275L9.0377 23.8625C8.72936 23.5708 8.42936 23.2708 8.1377 22.9625L4.7252 22.475C4.16917 21.5094 3.74061 20.4758 3.4502 19.4L5.5252 16.6375C5.5252 16.6375 5.4877 15.7875 5.5252 15.3625L3.4502 12.6C3.73926 11.5238 4.1679 10.49 4.7252 9.52501L8.1377 9.03751C8.42936 8.72918 8.72936 8.42918 9.0377 8.13751L9.5252 4.72501C10.4908 4.16899 11.5244 3.74042 12.6002 3.45001L15.3627 5.52501C15.7869 5.4875 16.2135 5.4875 16.6377 5.52501L19.4002 3.45001C20.4764 3.73908 21.5102 4.16771 22.4752 4.72501L22.9627 8.13751Z" stroke-width="1.5" stroke-linecap="round" stroke-linejoin="round"/>
</svg>
