<svg width="32" height="32" viewBox="0 0 32 32" fill="none" xmlns="http://www.w3.org/2000/svg">
<path d="M29.3499 18.8001L27.4874 16.3251C27.4999 16.1001 27.4874 15.8626 27.4874 15.6876L29.3499 13.2001C29.4425 13.0791 29.5054 12.938 29.5336 12.7882C29.5619 12.6384 29.5546 12.4841 29.5124 12.3376C29.1973 11.1852 28.7396 10.0766 28.1499 9.03761C28.0738 8.90563 27.9692 8.79226 27.8438 8.70577C27.7184 8.61928 27.5753 8.56183 27.4249 8.53761L24.3624 8.10011L23.8999 7.63761L23.4624 4.57511C23.4379 4.42635 23.3817 4.2846 23.2976 4.1595C23.2135 4.03439 23.1034 3.92887 22.9749 3.85011C21.9304 3.2625 20.818 2.80494 19.6624 2.48761C19.5159 2.44539 19.3616 2.4381 19.2118 2.46632C19.062 2.49454 18.9209 2.55749 18.7999 2.65011L16.3249 4.50011H15.6749L13.1999 2.65011C13.0788 2.55749 12.9377 2.49454 12.7879 2.46632C12.6381 2.4381 12.4838 2.44539 12.3374 2.48761C11.1849 2.80263 10.0764 3.26034 9.03736 3.85011C8.90538 3.9262 8.79202 4.03076 8.70553 4.15617C8.61904 4.28158 8.56159 4.4247 8.53736 4.57511L8.09986 7.63761L7.63736 8.10011L4.57486 8.53761C4.42446 8.56183 4.28134 8.61928 4.15593 8.70577C4.03051 8.79226 3.92596 8.90563 3.84986 9.03761C3.2601 10.0766 2.80239 11.1852 2.48736 12.3376C2.44515 12.4841 2.43785 12.6384 2.46608 12.7882C2.4943 12.938 2.55724 13.0791 2.64986 13.2001L4.51236 15.6751V16.3126L2.64986 18.8001C2.55724 18.9212 2.4943 19.0623 2.46608 19.212C2.43785 19.3618 2.44515 19.5161 2.48736 19.6626C2.80239 20.815 3.2601 21.9236 3.84986 22.9626C3.92596 23.0946 4.03051 23.2079 4.15593 23.2944C4.28134 23.3809 4.42446 23.4384 4.57486 23.4626L7.63736 23.9001L8.09986 24.3626L8.53736 27.4251C8.56159 27.5755 8.61904 27.7186 8.70553 27.844C8.79202 27.9695 8.90538 28.074 9.03736 28.1501C10.0764 28.7399 11.1849 29.1976 12.3374 29.5126C12.4227 29.5373 12.511 29.5499 12.5999 29.5501C12.8167 29.5529 13.0281 29.4825 13.1999 29.3501L15.6749 27.5001H16.3249L18.7999 29.3501C18.9209 29.4427 19.062 29.5057 19.2118 29.5339C19.3616 29.5621 19.5159 29.5548 19.6624 29.5126C20.8156 29.1998 21.9244 28.742 22.9624 28.1501C23.0943 28.074 23.2077 27.9695 23.2942 27.844C23.3807 27.7186 23.4381 27.5755 23.4624 27.4251L23.8999 24.3501C24.0499 24.2001 24.2249 24.0376 24.3499 23.9001L27.4249 23.4626C27.5753 23.4384 27.7184 23.3809 27.8438 23.2944C27.9692 23.2079 28.0738 23.0946 28.1499 22.9626C28.7396 21.9236 29.1973 20.815 29.5124 19.6626C29.5546 19.5161 29.5619 19.3618 29.5336 19.212C29.5054 19.0623 29.4425 18.9212 29.3499 18.8001ZM15.9999 21.5001C14.9121 21.5001 13.8487 21.1775 12.9442 20.5732C12.0398 19.9688 11.3348 19.1099 10.9185 18.1049C10.5022 17.0999 10.3933 15.994 10.6055 14.9271C10.8178 13.8602 11.3416 12.8802 12.1108 12.111C12.88 11.3418 13.86 10.818 14.9269 10.6058C15.9938 10.3936 17.0996 10.5025 18.1046 10.9188C19.1096 11.3351 19.9686 12.04 20.5729 12.9445C21.1773 13.8489 21.4999 14.9123 21.4999 16.0001C21.4999 17.4588 20.9204 18.8577 19.889 19.8892C18.8575 20.9206 17.4586 21.5001 15.9999 21.5001Z" fill="currentColor"/>
</svg>
