<svg width="32" height="32" viewBox="0 0 32 32" fill="none" xmlns="http://www.w3.org/2000/svg">
<path d="M22.5002 26.2001C23.1928 25.8971 23.8614 25.5419 24.5002 25.1376V30.0001C24.5002 30.2653 24.3948 30.5196 24.2073 30.7072C24.0197 30.8947 23.7654 31.0001 23.5002 31.0001C23.2349 31.0001 22.9806 30.8947 22.7931 30.7072C22.6055 30.5196 22.5002 30.2653 22.5002 30.0001V26.2001ZM15.1127 11.5251C14.9915 11.7614 14.9669 12.0355 15.0438 12.2896C15.1207 12.5438 15.2933 12.7581 15.5252 12.8876L21.3752 16.0001L23.5002 14.8626L16.4752 11.1126C16.2389 10.9915 15.9648 10.9668 15.7106 11.0437C15.4565 11.1207 15.2421 11.2932 15.1127 11.5251ZM31.4752 11.1126L16.4752 3.11258C16.3277 3.03886 16.165 3.00049 16.0002 3.00049C15.8353 3.00049 15.6727 3.03886 15.5252 3.11258L0.52516 11.1126C0.366145 11.1999 0.23351 11.3283 0.141125 11.4845C0.0487407 11.6406 0 11.8187 0 12.0001C0 12.1815 0.0487407 12.3596 0.141125 12.5157C0.23351 12.6718 0.366145 12.8003 0.52516 12.8876L3.50016 14.4626V20.6876C3.49828 21.1168 3.63897 21.5345 3.90016 21.8751C4.88766 23.2001 8.68766 27.5001 16.0002 27.5001C18.2345 27.5187 20.4482 27.0717 22.5002 26.1876V16.6001L21.3752 16.0001L16.0002 18.8626L4.97516 12.9876L3.12516 12.0001L16.0002 5.13758L28.8752 12.0001L27.0252 12.9876L23.5002 14.8626L23.9752 15.1126C24.1443 15.2102 24.2828 15.3531 24.3752 15.5251C24.4583 15.6695 24.5014 15.8334 24.5002 16.0001V25.1376C25.8814 24.2686 27.0998 23.1644 28.1002 21.8751C28.3613 21.5345 28.502 21.1168 28.5002 20.6876V14.4626L31.4752 12.8876C31.6342 12.8003 31.7668 12.6718 31.8592 12.5157C31.9516 12.3596 32.0003 12.1815 32.0003 12.0001C32.0003 11.8187 31.9516 11.6406 31.8592 11.4845C31.7668 11.3283 31.6342 11.1999 31.4752 11.1126Z" fill="currentColor"/>
</svg>
