<svg width="32" height="32" viewBox="0 0 32 32" fill="none" xmlns="http://www.w3.org/2000/svg">
<path d="M27.3503 12.9625L17.3503 3.87495C16.9816 3.53765 16.5 3.35059 16.0003 3.35059C15.5006 3.35059 15.019 3.53765 14.6503 3.87495L4.65027 12.9625C4.44552 13.1498 4.282 13.3776 4.17009 13.6316C4.05819 13.8855 4.00035 14.16 4.00027 14.4375V25.95C3.99214 26.4542 4.17015 26.9437 4.50027 27.325C4.68763 27.538 4.91843 27.7085 5.17716 27.8249C5.43589 27.9413 5.71655 28.001 6.00027 28H12.0003C12.2655 28 12.5198 27.8946 12.7074 27.7071C12.8949 27.5195 13.0003 27.2652 13.0003 27V21C13.0003 20.7347 13.1056 20.4804 13.2932 20.2928C13.4807 20.1053 13.7351 20 14.0003 20H18.0003C18.2655 20 18.5198 20.1053 18.7074 20.2928C18.8949 20.4804 19.0003 20.7347 19.0003 21V27C19.0003 27.2652 19.1056 27.5195 19.2932 27.7071C19.4807 27.8946 19.7351 28 20.0003 28H26.0003C26.332 28.0029 26.659 27.9211 26.9503 27.7625C27.2673 27.5898 27.532 27.3351 27.7167 27.025C27.9014 26.715 27.9994 26.3609 28.0003 26V14.4375C28.0002 14.16 27.9423 13.8855 27.8304 13.6316C27.7185 13.3776 27.555 13.1498 27.3503 12.9625Z" fill="currentColor"/>
</svg>
