<svg version="1.1" id="Layer_1" xmlns="http://www.w3.org/2000/svg" xmlns:xlink="http://www.w3.org/1999/xlink" x="0px" y="0px"
	 viewBox="0 0 512 512" style="enable-background:new 0 0 512 512;" xml:space="preserve">
<g>
	<path d="M255.9,170.6c-47,0-85.4,38.4-85.4,85.4c0,47,38.4,85.4,85.4,85.4s85.4-38.4,85.4-85.4C341.3,209,302.9,170.6,255.9,170.6z
		 M512,256c0-35.4,0.3-70.4-1.7-105.7C508.3,109.3,499,73,469,43C439,13,402.7,3.7,361.7,1.7C326.3-0.3,291.3,0,256,0
		c-35.4,0-70.4-0.3-105.7,1.7C109.3,3.7,73,13,43,43C13,73,3.7,109.3,1.7,150.3C-0.3,185.7,0,220.7,0,256s-0.3,70.4,1.7,105.7
		C3.7,402.7,13,439,43,469c30,30,66.3,39.3,107.3,41.3c35.4,2,70.4,1.7,105.7,1.7c35.4,0,70.4,0.3,105.7-1.7
		c41-2,77.4-11.3,107.3-41.3c30-30,39.3-66.3,41.3-107.3C512.4,326.4,512,291.4,512,256z M255.9,387.4
		c-72.7,0-131.4-58.7-131.4-131.4s58.7-131.4,131.4-131.4S387.3,183.3,387.3,256S328.6,387.4,255.9,387.4z M392.7,149.9
		c-17,0-30.7-13.7-30.7-30.7s13.7-30.7,30.7-30.7s30.7,13.7,30.7,30.7C423.4,136.2,409.7,149.9,392.7,149.9L392.7,149.9z" fill="currentColor"/>
</g>
</svg>
