<svg width="32" height="32" viewBox="0 0 32 32" fill="none" xmlns="http://www.w3.org/2000/svg">
  <path d="M30.7874 15.105L25.7874 5.10501C25.6222 4.77237 25.3673 4.4926 25.0514 4.29732C24.7355 4.10204 24.3713 3.99905 23.9999 4.00001H7.99991C7.62853 3.99905 7.2643 4.10204 6.94841 4.29732C6.63251 4.4926 6.37757 4.77237 6.21241 5.10501L1.21241 15.105C1.05987 15.4098 0.98777 15.7486 1.00296 16.0892C1.01816 16.4297 1.12014 16.7607 1.29923 17.0507C1.47831 17.3408 1.72856 17.5802 2.02621 17.7464C2.32386 17.9125 2.65903 17.9998 2.99991 18H14.9999V26H11.9999C11.7347 26 11.4803 26.1054 11.2928 26.2929C11.1053 26.4804 10.9999 26.7348 10.9999 27C10.9999 27.2652 11.1053 27.5196 11.2928 27.7071C11.4803 27.8946 11.7347 28 11.9999 28H19.9999C20.2651 28 20.5195 27.8946 20.707 27.7071C20.8946 27.5196 20.9999 27.2652 20.9999 27C20.9999 26.7348 20.8946 26.4804 20.707 26.2929C20.5195 26.1054 20.2651 26 19.9999 26H16.9999V18H28.9999C29.3409 18 29.6762 17.9129 29.974 17.7468C30.2719 17.5808 30.5223 17.3414 30.7015 17.0513C30.8807 16.7612 30.9828 16.4301 30.9981 16.0895C31.0133 15.7488 30.9412 15.4099 30.7887 15.105H30.7874ZM23.9999 15H7.99991C7.73469 15 7.48034 14.8946 7.2928 14.7071C7.10527 14.5196 6.99991 14.2652 6.99991 14C6.99991 13.7348 7.10527 13.4804 7.2928 13.2929C7.48034 13.1054 7.73469 13 7.99991 13H23.9999C24.2651 13 24.5195 13.1054 24.707 13.2929C24.8946 13.4804 24.9999 13.7348 24.9999 14C24.9999 14.2652 24.8946 14.5196 24.707 14.7071C24.5195 14.8946 24.2651 15 23.9999 15Z" fill="currentColor"/>
</svg>
