<svg width="32" height="32" viewBox="0 0 32 32" fill="none" xmlns="http://www.w3.org/2000/svg">
<path d="M25.2742 25.1C27.6621 22.673 29.0004 19.4047 29.0004 16C29.0004 12.5952 27.6621 9.32692 25.2742 6.89996C25.2518 6.86479 25.2219 6.83493 25.1867 6.81246C25.1643 6.77729 25.1344 6.74743 25.0992 6.72496C22.6723 4.33706 19.404 2.99878 15.9992 2.99878C12.5945 2.99878 9.32619 4.33706 6.89923 6.72496C6.86406 6.74743 6.8342 6.77729 6.81173 6.81246C6.77656 6.83493 6.7467 6.86479 6.72423 6.89996C4.33632 9.32692 2.99805 12.5952 2.99805 16C2.99805 19.4047 4.33632 22.673 6.72423 25.1L6.81173 25.1875C6.8342 25.2226 6.86406 25.2525 6.89923 25.275C9.32619 27.6629 12.5945 29.0011 15.9992 29.0011C19.404 29.0011 22.6723 27.6629 25.0992 25.275C25.1344 25.2525 25.1643 25.2226 25.1867 25.1875C25.2219 25.165 25.2518 25.1351 25.2742 25.1ZM11.9992 16C11.9992 15.2088 12.2338 14.4355 12.6734 13.7777C13.1129 13.1199 13.7376 12.6072 14.4685 12.3044C15.1994 12.0017 16.0037 11.9225 16.7796 12.0768C17.5555 12.2312 18.2682 12.6121 18.8277 13.1715C19.3871 13.7309 19.768 14.4437 19.9224 15.2196C20.0767 15.9955 19.9975 16.7998 19.6947 17.5307C19.392 18.2616 18.8793 18.8863 18.2215 19.3258C17.5637 19.7654 16.7904 20 15.9992 20C14.9394 19.9967 13.9239 19.5742 13.1744 18.8247C12.425 18.0753 12.0025 17.0598 11.9992 16ZM23.0367 7.54996L19.4742 11.1125C18.4597 10.3894 17.245 10.0009 15.9992 10.0009C14.7535 10.0009 13.5387 10.3894 12.5242 11.1125L8.96173 7.54996C10.9369 5.90264 13.4273 5.0004 15.9992 5.0004C18.5712 5.0004 21.0616 5.90264 23.0367 7.54996ZM8.96173 24.45L12.5242 20.8875C13.5387 21.6105 14.7535 21.999 15.9992 21.999C17.245 21.999 18.4597 21.6105 19.4742 20.8875L23.0367 24.45C21.0616 26.0973 18.5712 26.9995 15.9992 26.9995C13.4273 26.9995 10.9369 26.0973 8.96173 24.45Z" fill="currentColor"/>
</svg>
