<svg width="32" height="32" viewBox="0 0 32 32" fill="none" xmlns="http://www.w3.org/2000/svg">
<path d="M28.0004 16C28.0004 16.2652 27.895 16.5195 27.7075 16.7071C27.5199 16.8946 27.2656 17 27.0004 17H13.0004C12.7352 17 12.4808 16.8946 12.2933 16.7071C12.1057 16.5195 12.0004 16.2652 12.0004 16C12.0004 15.7347 12.1057 15.4804 12.2933 15.2929C12.4808 15.1053 12.7352 15 13.0004 15H27.0004C27.2656 15 27.5199 15.1053 27.7075 15.2929C27.895 15.4804 28.0004 15.7347 28.0004 16ZM13.0004 8.99996H27.0004C27.2656 8.99996 27.5199 8.89461 27.7075 8.70707C27.895 8.51953 28.0004 8.26518 28.0004 7.99996C28.0004 7.73475 27.895 7.48039 27.7075 7.29286C27.5199 7.10532 27.2656 6.99996 27.0004 6.99996H13.0004C12.7352 6.99996 12.4808 7.10532 12.2933 7.29286C12.1057 7.48039 12.0004 7.73475 12.0004 7.99996C12.0004 8.26518 12.1057 8.51953 12.2933 8.70707C12.4808 8.89461 12.7352 8.99996 13.0004 8.99996ZM27.0004 23H13.0004C12.7352 23 12.4808 23.1053 12.2933 23.2929C12.1057 23.4804 12.0004 23.7347 12.0004 24C12.0004 24.2652 12.1057 24.5195 12.2933 24.7071C12.4808 24.8946 12.7352 25 13.0004 25H27.0004C27.2656 25 27.5199 24.8946 27.7075 24.7071C27.895 24.5195 28.0004 24.2652 28.0004 24C28.0004 23.7347 27.895 23.4804 27.7075 23.2929C27.5199 23.1053 27.2656 23 27.0004 23ZM5.45037 8.39996L6.00037 8.11246V13.5C6.00037 13.7652 6.10573 14.0195 6.29327 14.2071C6.4808 14.3946 6.73516 14.5 7.00037 14.5C7.26559 14.5 7.51994 14.3946 7.70748 14.2071C7.89502 14.0195 8.00037 13.7652 8.00037 13.5V6.49996C8.00139 6.32931 7.95817 6.16132 7.87492 6.01235C7.79167 5.86338 7.67124 5.73853 7.52537 5.64996C7.38067 5.559 7.21508 5.50665 7.04439 5.49789C6.8737 5.48914 6.70362 5.52428 6.55037 5.59996L4.55037 6.59996C4.43218 6.65906 4.32679 6.74085 4.24021 6.84068C4.15363 6.9405 4.08756 7.05641 4.04578 7.18176C3.96139 7.43494 3.98102 7.71127 4.10037 7.94996C4.21972 8.18866 4.429 8.37017 4.68217 8.45456C4.93535 8.53895 5.21168 8.51931 5.45037 8.39996ZM9.02537 21.2875C9.33703 20.8355 9.50279 20.2989 9.50037 19.75C9.50387 19.1131 9.28624 18.4949 8.88464 18.0006C8.48304 17.5064 7.92236 17.1669 7.29831 17.04C6.67425 16.9131 6.0255 17.0068 5.4628 17.3049C4.90009 17.6031 4.45832 18.0873 4.21287 18.675C4.10844 18.9203 4.10575 19.1971 4.20537 19.4444C4.305 19.6917 4.4988 19.8893 4.74412 19.9937C4.98945 20.0981 5.26621 20.1008 5.51352 20.0012C5.76084 19.9016 5.95844 19.7078 6.06287 19.4625C6.11649 19.3244 6.21112 19.206 6.33404 19.1233C6.45696 19.0406 6.60225 18.9976 6.75037 19C6.94928 19 7.14005 19.079 7.2807 19.2196C7.42135 19.3603 7.50037 19.5511 7.50037 19.75C7.50345 19.8915 7.46428 20.0308 7.38787 20.15L4.20037 24.4C4.08894 24.5485 4.02109 24.7252 4.00441 24.9102C3.98773 25.0951 4.02289 25.2811 4.10594 25.4472C4.189 25.6133 4.31667 25.753 4.47464 25.8506C4.63262 25.9482 4.81466 26 5.00037 26H8.50037C8.76559 26 9.01994 25.8946 9.20748 25.7071C9.39501 25.5195 9.50037 25.2652 9.50037 25C9.50037 24.7347 9.39501 24.4804 9.20748 24.2929C9.01994 24.1053 8.76559 24 8.50037 24H7.00037L9.00037 21.325L9.02537 21.2875Z" fill="currentColor"/>
</svg>
