<svg width="32" height="32" viewBox="0 0 32 32" fill="none" xmlns="http://www.w3.org/2000/svg">
  <path d="M26 4H6C5.46957 4 4.96086 4.21071 4.58579 4.58579C4.21071 4.96086 4 5.46957 4 6V26C4 26.5304 4.21071 27.0391 4.58579 27.4142C4.96086 27.7893 5.46957 28 6 28H26C26.5304 28 27.0391 27.7893 27.4142 27.4142C27.7893 27.0391 28 26.5304 28 26V6C28 5.46957 27.7893 4.96086 27.4142 4.58579C27.0391 4.21071 26.5304 4 26 4ZM8.5 23.5C8.20333 23.5 7.91332 23.412 7.66664 23.2472C7.41997 23.0824 7.22771 22.8481 7.11418 22.574C7.00065 22.2999 6.97094 21.9983 7.02882 21.7074C7.0867 21.4164 7.22956 21.1491 7.43934 20.9393C7.64912 20.7296 7.91639 20.5867 8.20736 20.5288C8.49834 20.4709 8.79994 20.5007 9.07403 20.6142C9.34811 20.7277 9.58238 20.92 9.7472 21.1666C9.91203 21.4133 10 21.7033 10 22C10 22.3978 9.84196 22.7794 9.56066 23.0607C9.27936 23.342 8.89782 23.5 8.5 23.5ZM8.5 17.5C8.20333 17.5 7.91332 17.412 7.66664 17.2472C7.41997 17.0824 7.22771 16.8481 7.11418 16.574C7.00065 16.2999 6.97094 15.9983 7.02882 15.7074C7.0867 15.4164 7.22956 15.1491 7.43934 14.9393C7.64912 14.7296 7.91639 14.5867 8.20736 14.5288C8.49834 14.4709 8.79994 14.5006 9.07403 14.6142C9.34811 14.7277 9.58238 14.92 9.7472 15.1666C9.91203 15.4133 10 15.7033 10 16C10 16.3978 9.84196 16.7794 9.56066 17.0607C9.27936 17.342 8.89782 17.5 8.5 17.5ZM8.5 11.5C8.20333 11.5 7.91332 11.412 7.66664 11.2472C7.41997 11.0824 7.22771 10.8481 7.11418 10.574C7.00065 10.2999 6.97094 9.99834 7.02882 9.70736C7.0867 9.41639 7.22956 9.14912 7.43934 8.93934C7.64912 8.72956 7.91639 8.5867 8.20736 8.52882C8.49834 8.47094 8.79994 8.50065 9.07403 8.61418C9.34811 8.72771 9.58238 8.91997 9.7472 9.16665C9.91203 9.41332 10 9.70333 10 10C10 10.3978 9.84196 10.7794 9.56066 11.0607C9.27936 11.342 8.89782 11.5 8.5 11.5ZM24 23H13C12.7348 23 12.4804 22.8946 12.2929 22.7071C12.1054 22.5196 12 22.2652 12 22C12 21.7348 12.1054 21.4804 12.2929 21.2929C12.4804 21.1054 12.7348 21 13 21H24C24.2652 21 24.5196 21.1054 24.7071 21.2929C24.8946 21.4804 25 21.7348 25 22C25 22.2652 24.8946 22.5196 24.7071 22.7071C24.5196 22.8946 24.2652 23 24 23ZM24 17H13C12.7348 17 12.4804 16.8946 12.2929 16.7071C12.1054 16.5196 12 16.2652 12 16C12 15.7348 12.1054 15.4804 12.2929 15.2929C12.4804 15.1054 12.7348 15 13 15H24C24.2652 15 24.5196 15.1054 24.7071 15.2929C24.8946 15.4804 25 15.7348 25 16C25 16.2652 24.8946 16.5196 24.7071 16.7071C24.5196 16.8946 24.2652 17 24 17ZM24 11H13C12.7348 11 12.4804 10.8946 12.2929 10.7071C12.1054 10.5196 12 10.2652 12 10C12 9.73478 12.1054 9.48043 12.2929 9.29289C12.4804 9.10536 12.7348 9 13 9H24C24.2652 9 24.5196 9.10536 24.7071 9.29289C24.8946 9.48043 25 9.73478 25 10C25 10.2652 24.8946 10.5196 24.7071 10.7071C24.5196 10.8946 24.2652 11 24 11Z" fill="currentColor"/>
</svg>
