<svg width="32" height="32" viewBox="0 0 32 32" fill="none" xmlns="http://www.w3.org/2000/svg">
<path d="M28.0369 18.7874C27.9725 18.5797 27.8429 18.3983 27.6673 18.2699C27.4917 18.1416 27.2794 18.0732 27.0619 18.0749L26.7869 18.1249C24.9965 18.6191 23.107 18.6295 21.3113 18.1551C19.5155 17.6807 17.8777 16.7384 16.565 15.4244C15.2523 14.1105 14.3116 12.4718 13.8389 10.6755C13.3663 8.87934 13.3785 6.98988 13.8744 5.19994C13.8989 5.12744 13.9116 5.05147 13.9119 4.97494C13.9238 4.81363 13.8959 4.65186 13.8306 4.50387C13.7653 4.35587 13.6647 4.22618 13.5375 4.12619C13.4104 4.0262 13.2606 3.95897 13.1014 3.93042C12.9422 3.90187 12.7784 3.91287 12.6244 3.96244C10.5229 4.55147 8.61229 5.68045 7.08255 7.23708C5.55281 8.79371 4.45729 10.7237 3.90496 12.8352C3.35263 14.9466 3.36275 17.1658 3.9343 19.2721C4.50586 21.3784 5.61893 23.2984 7.1628 24.841C8.70667 26.3836 10.6275 27.4951 12.7343 28.065C14.8411 28.6348 17.0603 28.6431 19.1713 28.0891C21.2823 27.5351 23.2114 26.438 24.7668 24.907C26.3222 23.376 27.4496 21.4644 28.0369 19.3624C28.0998 19.1759 28.0998 18.974 28.0369 18.7874Z" fill="currentColor"/>
</svg>
