<svg width="32" height="32" viewBox="0 0 32 32" fill="none" stroke="currentColor" xmlns="http://www.w3.org/2000/svg">
<path d="M27.0877 19.075C25.1243 19.6255 23.0498 19.6436 21.0772 19.1272C19.1046 18.6109 17.305 17.5789 15.8631 16.137C14.4213 14.6952 13.3892 12.8955 12.8729 10.9229C12.3566 8.95031 12.3746 6.87581 12.9252 4.91248C10.9895 5.45124 9.22875 6.48775 7.81833 7.91877C6.40791 9.34978 5.39704 11.1254 4.88639 13.0686C4.37574 15.0119 4.38315 17.0551 4.90787 18.9946C5.43259 20.9341 6.45631 22.7023 7.87706 24.1231C9.29781 25.5438 11.066 26.5675 13.0055 27.0923C14.9451 27.617 16.9882 27.6244 18.9315 27.1137C20.8748 26.6031 22.6503 25.5922 24.0814 24.1818C25.5124 22.7714 26.5489 21.0106 27.0877 19.075Z" stroke-width="2" stroke-linecap="round" stroke-linejoin="round"/>
</svg>
