<svg width="32" height="32" viewBox="0 0 32 32" fill="none" xmlns="http://www.w3.org/2000/svg">
  <path d="M28 16.0001V26.0001C28 26.5305 27.7893 27.0392 27.4142 27.4143C27.0391 27.7893 26.5304 28.0001 26 28.0001H6C5.46957 28.0001 4.96086 27.7893 4.58579 27.4143C4.21071 27.0392 4 26.5305 4 26.0001V6.00005C4 5.46962 4.21071 4.96091 4.58579 4.58584C4.96086 4.21077 5.46957 4.00005 6 4.00005H16C16.2652 4.00005 16.5196 4.10541 16.7071 4.29295C16.8946 4.48048 17 4.73484 17 5.00005C17 5.26527 16.8946 5.51962 16.7071 5.70716C16.5196 5.8947 16.2652 6.00005 16 6.00005H6V26.0001H26V16.0001C26 15.7348 26.1054 15.4805 26.2929 15.2929C26.4804 15.1054 26.7348 15.0001 27 15.0001C27.2652 15.0001 27.5196 15.1054 27.7071 15.2929C27.8946 15.4805 28 15.7348 28 16.0001ZM28.7075 8.70755L16.7075 20.7076C16.6146 20.8004 16.5042 20.874 16.3829 20.9242C16.2615 20.9744 16.1314 21.0002 16 21.0001H12C11.7348 21.0001 11.4804 20.8947 11.2929 20.7072C11.1054 20.5196 11 20.2653 11 20.0001V16.0001C10.9999 15.8687 11.0257 15.7386 11.0759 15.6172C11.1261 15.4958 11.1997 15.3855 11.2925 15.2926L23.2925 3.29255C23.3854 3.19958 23.4957 3.12582 23.6171 3.07549C23.7385 3.02517 23.8686 2.99927 24 2.99927C24.1314 2.99927 24.2615 3.02517 24.3829 3.07549C24.5043 3.12582 24.6146 3.19958 24.7075 3.29255L28.7075 7.29255C28.8005 7.38543 28.8742 7.49572 28.9246 7.61711C28.9749 7.73851 29.0008 7.86864 29.0008 8.00005C29.0008 8.13147 28.9749 8.2616 28.9246 8.38299C28.8742 8.50439 28.8005 8.61468 28.7075 8.70755ZM26.5825 8.00005L24 5.4138L22.4137 7.00005L25 9.5863L26.5825 8.00005Z" fill="currentColor"/>
</svg>
