<svg width="32" height="32" viewBox="0 0 32 32" fill="none" xmlns="http://www.w3.org/2000/svg">
<path d="M28.9998 15.9863C29.0008 16.3426 28.9065 16.6927 28.7267 17.0004C28.5469 17.3081 28.2882 17.5621 27.9773 17.7363L6.98858 29.7375C6.68703 29.9085 6.3465 29.9989 5.99983 30C5.68014 29.9994 5.36527 29.9221 5.0816 29.7747C4.79793 29.6272 4.55373 29.414 4.36948 29.1527C4.18523 28.8915 4.06629 28.5898 4.02264 28.2731C3.97899 27.9564 4.01189 27.6339 4.11858 27.3325L7.53733 17.3388C7.57102 17.2399 7.63483 17.1541 7.7198 17.0933C7.80477 17.0325 7.90663 16.9999 8.01108 17H16.9998C17.1369 17.0003 17.2726 16.9724 17.3985 16.9181C17.5243 16.8637 17.6377 16.7841 17.7314 16.6841C17.8252 16.5841 17.8974 16.4659 17.9436 16.3368C17.9898 16.2078 18.0089 16.0706 17.9998 15.9338C17.9772 15.6766 17.8582 15.4375 17.6667 15.2644C17.4753 15.0913 17.2255 14.9968 16.9673 15H8.01984C7.91553 15.0002 7.81378 14.9678 7.72883 14.9073C7.64388 14.8467 7.57998 14.7612 7.54608 14.6625L4.11608 4.66253C3.98251 4.27934 3.96866 3.86459 4.07638 3.47334C4.18409 3.0821 4.40827 2.73288 4.71914 2.47205C5.03002 2.21123 5.41288 2.05114 5.81689 2.01304C6.2209 1.97495 6.62694 2.06066 6.98108 2.25878L27.9811 14.245C28.29 14.4189 28.5471 14.6718 28.7261 14.9778C28.9051 15.2838 28.9996 15.6318 28.9998 15.9863Z" fill="currentColor"/>
</svg>
