<svg width="32" height="32" viewBox="0 0 32 32" fill="none" xmlns="http://www.w3.org/2000/svg">
    <path d="M28.2375 9.3475L22.6513 3.76125C22.4888 3.59873 22.2958 3.46981 22.0835 3.38185C21.8712 3.29389 21.6436 3.24862 21.4138 3.24862C21.1839 3.24862 20.9563 3.29389 20.744 3.38185C20.5317 3.46981 20.3388 3.59873 20.1763 3.76125L4.7625 19.1763C4.59967 19.3385 4.47056 19.5314 4.3826 19.7438C4.29464 19.9562 4.24958 20.1839 4.25 20.4138V26C4.25 26.4641 4.43438 26.9092 4.76257 27.2374C5.09075 27.5656 5.53587 27.75 6 27.75H11.5863C11.8161 27.7504 12.0438 27.7054 12.2562 27.6174C12.4686 27.5294 12.6615 27.4003 12.8238 27.2375L28.2375 11.8225C28.4 11.66 28.5289 11.4671 28.6169 11.2547C28.7049 11.0424 28.7501 10.8148 28.7501 10.585C28.7501 10.3552 28.7049 10.1276 28.6169 9.91526C28.5289 9.70293 28.4 9.51 28.2375 9.3475ZM11.7625 26.1763C11.7158 26.2232 11.6525 26.2497 11.5863 26.25H6C5.9337 26.25 5.87011 26.2237 5.82323 26.1768C5.77634 26.1299 5.75 26.0663 5.75 26V20.4138C5.75028 20.3476 5.7768 20.2842 5.82375 20.2375L17 9.06L22.9388 15L11.7625 26.1763ZM27.1763 10.7625L24 13.9388L18.0613 8L21.2375 4.8225C21.2607 4.79926 21.2883 4.78082 21.3186 4.76824C21.349 4.75565 21.3815 4.74918 21.4144 4.74918C21.4472 4.74918 21.4798 4.75565 21.5101 4.76824C21.5405 4.78082 21.568 4.79926 21.5913 4.8225L27.1763 10.4087C27.1995 10.432 27.2179 10.4595 27.2305 10.4899C27.2431 10.5202 27.2496 10.5528 27.2496 10.5856C27.2496 10.6185 27.2431 10.651 27.2305 10.6814C27.2179 10.7117 27.1995 10.7393 27.1763 10.7625Z" fill="currentColor" />
</svg>
