<svg width="32" height="32" viewBox="0 0 32 32" fill="none" xmlns="http://www.w3.org/2000/svg">
<path d="M27.7125 16.7125L22.4625 21.9625C22.2705 22.146 22.0155 22.2489 21.75 22.25C21.6212 22.2503 21.4937 22.2248 21.375 22.175C21.1907 22.1004 21.0327 21.9726 20.9214 21.8078C20.8101 21.6431 20.7504 21.4489 20.75 21.25V17H13C12.7348 17 12.4804 16.8946 12.2929 16.7071C12.1054 16.5196 12 16.2652 12 16C12 15.7348 12.1054 15.4804 12.2929 15.2929C12.4804 15.1054 12.7348 15 13 15H20.75V10.75C20.7504 10.5511 20.8101 10.3569 20.9214 10.1922C21.0327 10.0274 21.1907 9.89957 21.375 9.825C21.5576 9.75248 21.7571 9.73396 21.9499 9.77163C22.1427 9.80931 22.3207 9.90159 22.4625 10.0375L27.7125 15.2875C27.9003 15.4771 28.0056 15.7332 28.0056 16C28.0056 16.2668 27.9003 16.5229 27.7125 16.7125ZM13 26H6V6H13C13.2652 6 13.5196 5.89464 13.7071 5.70711C13.8946 5.51957 14 5.26522 14 5C14 4.73478 13.8946 4.48043 13.7071 4.29289C13.5196 4.10536 13.2652 4 13 4H6C5.46957 4 4.96086 4.21071 4.58579 4.58579C4.21071 4.96086 4 5.46957 4 6V26C4 26.5304 4.21071 27.0391 4.58579 27.4142C4.96086 27.7893 5.46957 28 6 28H13C13.2652 28 13.5196 27.8946 13.7071 27.7071C13.8946 27.5196 14 27.2652 14 27C14 26.7348 13.8946 26.4804 13.7071 26.2929C13.5196 26.1054 13.2652 26 13 26Z" fill="currentColor"/>
</svg>
