<svg width="32" height="32" viewBox="0 0 32 32" fill="none" xmlns="http://www.w3.org/2000/svg">
<path d="M16 3C13.4288 3 10.9154 3.76244 8.77759 5.1909C6.63975 6.61935 4.97351 8.64968 3.98957 11.0251C3.00563 13.4006 2.74819 16.0144 3.2498 18.5362C3.75141 21.0579 4.98953 23.3743 6.80762 25.1924C8.6257 27.0105 10.9421 28.2486 13.4638 28.7502C15.9856 29.2518 18.5995 28.9944 20.9749 28.0104C23.3503 27.0265 25.3807 25.3603 26.8091 23.2224C28.2376 21.0846 29 18.5712 29 16C28.9934 12.5542 27.6216 9.25145 25.1851 6.81491C22.7486 4.37837 19.4458 3.00661 16 3ZM20.5 12C20.7967 12 21.0867 12.088 21.3334 12.2528C21.58 12.4176 21.7723 12.6519 21.8858 12.926C21.9994 13.2001 22.0291 13.5017 21.9712 13.7926C21.9133 14.0836 21.7704 14.3509 21.5607 14.5607C21.3509 14.7704 21.0836 14.9133 20.7926 14.9712C20.5017 15.0291 20.2001 14.9994 19.926 14.8858C19.6519 14.7723 19.4176 14.58 19.2528 14.3334C19.088 14.0867 19 13.7967 19 13.5C19 13.1022 19.158 12.7206 19.4393 12.4393C19.7207 12.158 20.1022 12 20.5 12ZM11.5 12C11.7967 12 12.0867 12.088 12.3334 12.2528C12.58 12.4176 12.7723 12.6519 12.8858 12.926C12.9994 13.2001 13.0291 13.5017 12.9712 13.7926C12.9133 14.0836 12.7704 14.3509 12.5607 14.5607C12.3509 14.7704 12.0836 14.9133 11.7926 14.9712C11.5017 15.0291 11.2001 14.9994 10.926 14.8858C10.6519 14.7723 10.4176 14.58 10.2528 14.3334C10.088 14.0867 10 13.7967 10 13.5C10 13.1022 10.158 12.7206 10.4393 12.4393C10.7206 12.158 11.1022 12 11.5 12ZM22.0625 19.5C21.4482 20.5643 20.5645 21.4481 19.5003 22.0626C18.4361 22.6771 17.2289 23.0006 16 23.0006C14.7711 23.0006 13.5639 22.6771 12.4997 22.0626C11.4355 21.4481 10.5518 20.5643 9.93751 19.5C9.85924 19.3865 9.80531 19.258 9.77909 19.1226C9.75288 18.9872 9.75494 18.8478 9.78517 18.7133C9.81539 18.5788 9.87312 18.4519 9.95471 18.3407C10.0363 18.2296 10.14 18.1365 10.2593 18.0673C10.3786 17.9982 10.5109 17.9544 10.648 17.9389C10.785 17.9233 10.9237 17.9362 11.0555 17.9769C11.1873 18.0175 11.3092 18.0849 11.4137 18.175C11.5182 18.265 11.6029 18.3757 11.6625 18.5C12.1029 19.2604 12.7355 19.8916 13.4967 20.3305C14.258 20.7693 15.1213 21.0003 16 21.0003C16.8787 21.0003 17.742 20.7693 18.5033 20.3305C19.2646 19.8916 19.8971 19.2604 20.3375 18.5C20.4804 18.2928 20.6961 18.147 20.9417 18.0918C21.1873 18.0367 21.4446 18.0762 21.6624 18.2024C21.8801 18.3286 22.0423 18.5323 22.1165 18.7729C22.1906 19.0134 22.1714 19.2731 22.0625 19.5Z" fill="currentColor"/>
</svg>
