<svg width="32" height="32" viewBox="0 0 32 32" fill="none" xmlns="http://www.w3.org/2000/svg">
<path d="M16.0002 23.6362L22.8402 27.8424C23.0177 27.9502 23.2231 28.0029 23.4305 27.9939C23.6379 27.9849 23.838 27.9147 24.0055 27.792C24.173 27.6693 24.3004 27.4997 24.3715 27.3047C24.4427 27.1097 24.4544 26.8979 24.4052 26.6962L22.5452 18.8474L28.6327 13.5974C28.7879 13.4612 28.8998 13.2824 28.9546 13.0833C29.0094 12.8841 29.0046 12.6733 28.941 12.4768C28.8773 12.2803 28.7575 12.1067 28.5963 11.9776C28.4351 11.8484 28.2396 11.7693 28.034 11.7499L20.0452 11.0999L16.9677 3.64995C16.8893 3.45775 16.7553 3.29327 16.583 3.17749C16.4107 3.06171 16.2078 2.99988 16.0002 2.99988C15.7926 2.99988 15.5897 3.06171 15.4174 3.17749C15.2451 3.29327 15.1112 3.45775 15.0327 3.64995L11.9552 11.0999L3.96647 11.7499C3.75943 11.7681 3.56233 11.8469 3.39981 11.9765C3.23728 12.106 3.11654 12.2806 3.05265 12.4784C2.98877 12.6761 2.98459 12.8884 3.04062 13.0885C3.09666 13.2886 3.21043 13.4678 3.36772 13.6037L9.45522 18.8537L7.59522 26.6962C7.54605 26.8979 7.55777 27.1097 7.62891 27.3047C7.70005 27.4997 7.82742 27.6693 7.99491 27.792C8.1624 27.9147 8.3625 27.9849 8.56991 27.9939C8.77733 28.0029 8.98275 27.9502 9.16022 27.8424L16.0002 23.6362Z" stroke="currentColor" stroke-width="2" stroke-linecap="round" stroke-linejoin="round"/>
</svg>
