<svg width="32" height="32" viewBox="0 0 32 32" fill="none" xmlns="http://www.w3.org/2000/svg">
<path d="M28.3162 7.05132L16.3162 3.05132C16.111 2.98289 15.889 2.98289 15.6838 3.05132L3.68375 7.05132C3.48463 7.1177 3.31145 7.24505 3.18873 7.41533C3.06601 7.58561 2.99998 7.79018 3 8.00007V18.0001C3 18.2653 3.10536 18.5196 3.29289 18.7072C3.48043 18.8947 3.73478 19.0001 4 19.0001C4.26522 19.0001 4.51957 18.8947 4.70711 18.7072C4.89464 18.5196 5 18.2653 5 18.0001V9.38757L9.19875 10.7863C8.0832 12.5886 7.72846 14.7599 8.21242 16.8235C8.69638 18.887 9.97949 20.6742 11.78 21.7926C9.53 22.6751 7.585 24.2713 6.1625 26.4538C6.08852 26.5638 6.03713 26.6873 6.01133 26.8173C5.98552 26.9473 5.98581 27.0811 6.01218 27.211C6.03854 27.3409 6.09046 27.4642 6.16492 27.5739C6.23937 27.6835 6.33488 27.7772 6.44588 27.8496C6.55688 27.922 6.68117 27.9717 6.81151 27.9956C6.94185 28.0195 7.07566 28.0173 7.20514 27.9891C7.33463 27.9609 7.45722 27.9072 7.56577 27.8312C7.67433 27.7552 7.7667 27.6583 7.8375 27.5463C9.72125 24.6563 12.6962 23.0001 16 23.0001C19.3037 23.0001 22.2788 24.6563 24.1625 27.5463C24.3092 27.7643 24.5357 27.9158 24.7932 27.9681C25.0507 28.0204 25.3184 27.9692 25.5385 27.8257C25.7586 27.6821 25.9133 27.4578 25.9692 27.2011C26.0252 26.9443 25.9779 26.6759 25.8375 26.4538C24.415 24.2713 22.4625 22.6751 20.22 21.7926C22.0188 20.6743 23.3007 18.8882 23.7846 16.8262C24.2684 14.7641 23.9148 12.5943 22.8013 10.7926L28.3162 8.95507C28.5154 8.88873 28.6886 8.7614 28.8114 8.59112C28.9342 8.42084 29.0002 8.21624 29.0002 8.00632C29.0002 7.79641 28.9342 7.59181 28.8114 7.42153C28.6886 7.25125 28.5154 7.12391 28.3162 7.05757V7.05132ZM22 15.0001C22.0003 15.9486 21.7756 16.8838 21.3445 17.7287C20.9134 18.5736 20.2881 19.3043 19.5199 19.8608C18.7517 20.4173 17.8625 20.7837 16.9253 20.93C15.9881 21.0763 15.0295 20.9983 14.1283 20.7024C13.2271 20.4065 12.4088 19.9011 11.7407 19.2277C11.0726 18.5544 10.5737 17.7322 10.2849 16.8287C9.99607 15.9251 9.92559 14.966 10.0792 14.0299C10.2329 13.0939 10.6063 12.2076 11.1687 11.4438L15.6838 12.9438C15.889 13.0123 16.111 13.0123 16.3162 12.9438L20.8312 11.4438C21.591 12.4738 22.0006 13.7202 22 15.0001ZM16 10.9463L7.1625 8.00007L16 5.05382L24.8375 8.00007L16 10.9463Z" fill="currentColor"/>
</svg>
