<svg width="32" height="32" viewBox="0 0 32 32" fill="none" xmlns="http://www.w3.org/2000/svg">
<path d="M16 24.5C20.6944 24.5 24.5 20.6944 24.5 16C24.5 11.3056 20.6944 7.5 16 7.5C11.3056 7.5 7.5 11.3056 7.5 16C7.5 20.6944 11.3056 24.5 16 24.5Z" fill="currentColor"/>
<path d="M16 5.5C16.2652 5.5 16.5196 5.39464 16.7071 5.20711C16.8946 5.01957 17 4.76522 17 4.5V2C17 1.73478 16.8946 1.48043 16.7071 1.29289C16.5196 1.10536 16.2652 1 16 1C15.7348 1 15.4804 1.10536 15.2929 1.29289C15.1054 1.48043 15 1.73478 15 2V4.5C15 4.76522 15.1054 5.01957 15.2929 5.20711C15.4804 5.39464 15.7348 5.5 16 5.5Z" fill="currentColor"/>
<path d="M7.16273 8.57499C7.35177 8.75901 7.60517 8.86198 7.86898 8.86198C8.1328 8.86198 8.3862 8.75901 8.57523 8.57499C8.76225 8.38752 8.86727 8.13354 8.86727 7.86874C8.86727 7.60394 8.76225 7.34996 8.57523 7.16249L6.81273 5.38749C6.72307 5.27824 6.61153 5.18898 6.48529 5.12544C6.35905 5.06189 6.22091 5.02549 6.07975 5.01855C5.93859 5.01162 5.79754 5.03432 5.66568 5.08518C5.53382 5.13605 5.41407 5.21395 5.31413 5.31389C5.2142 5.41382 5.13629 5.53357 5.08543 5.66543C5.03456 5.79729 5.01186 5.93834 5.0188 6.0795C5.02573 6.22066 5.06214 6.35881 5.12568 6.48505C5.18922 6.61129 5.27849 6.72283 5.38773 6.81249L7.16273 8.57499Z" fill="currentColor"/>
<path d="M5.5 16C5.5 15.7348 5.39464 15.4804 5.20711 15.2929C5.01957 15.1054 4.76522 15 4.5 15H2C1.73478 15 1.48043 15.1054 1.29289 15.2929C1.10536 15.4804 1 15.7348 1 16C1 16.2652 1.10536 16.5196 1.29289 16.7071C1.48043 16.8946 1.73478 17 2 17H4.5C4.76522 17 5.01957 16.8946 5.20711 16.7071C5.39464 16.5196 5.5 16.2652 5.5 16Z" fill="currentColor"/>
<path d="M7.16188 23.425L5.38688 25.1875C5.19909 25.3771 5.09375 25.6331 5.09375 25.9C5.09375 26.1668 5.19909 26.4229 5.38688 26.6125C5.5802 26.7938 5.83433 26.8964 6.09938 26.9C6.36492 26.8988 6.61992 26.7959 6.81188 26.6125L8.57438 24.8375C8.74673 24.6472 8.83934 24.398 8.83302 24.1414C8.82671 23.8848 8.72195 23.6404 8.54043 23.4589C8.35892 23.2774 8.11456 23.1726 7.85794 23.1663C7.60132 23.16 7.3521 23.2526 7.16188 23.425Z" fill="currentColor"/>
<path d="M16 26.5C15.7348 26.5 15.4804 26.6054 15.2929 26.7929C15.1054 26.9804 15 27.2348 15 27.5V30C15 30.2652 15.1054 30.5196 15.2929 30.7071C15.4804 30.8946 15.7348 31 16 31C16.2652 31 16.5196 30.8946 16.7071 30.7071C16.8946 30.5196 17 30.2652 17 30V27.5C17 27.2348 16.8946 26.9804 16.7071 26.7929C16.5196 26.6054 16.2652 26.5 16 26.5Z" fill="currentColor"/>
<path d="M24.8375 23.425C24.6472 23.2527 24.398 23.1601 24.1414 23.1664C23.8848 23.1727 23.6404 23.2775 23.4589 23.459C23.2774 23.6405 23.1726 23.8848 23.1663 24.1415C23.16 24.3981 23.2526 24.6473 23.425 24.8375L25.1875 26.6125C25.3794 26.796 25.6344 26.8989 25.9 26.9C26.165 26.8964 26.4191 26.7939 26.6125 26.6125C26.8002 26.4229 26.9056 26.1669 26.9056 25.9C26.9056 25.6332 26.8002 25.3771 26.6125 25.1875L24.8375 23.425Z" fill="currentColor"/>
<path d="M30 15H27.5C27.2348 15 26.9804 15.1054 26.7929 15.2929C26.6054 15.4804 26.5 15.7348 26.5 16C26.5 16.2652 26.6054 16.5196 26.7929 16.7071C26.9804 16.8946 27.2348 17 27.5 17H30C30.2652 17 30.5196 16.8946 30.7071 16.7071C30.8946 16.5196 31 16.2652 31 16C31 15.7348 30.8946 15.4804 30.7071 15.2929C30.5196 15.1054 30.2652 15 30 15Z" fill="currentColor"/>
<path d="M24.1374 8.8625C24.2673 8.86365 24.3962 8.8388 24.5164 8.78943C24.6366 8.74006 24.7457 8.66715 24.8373 8.575L26.6123 6.8125C26.7718 6.6182 26.8533 6.37154 26.841 6.12049C26.8286 5.86944 26.7234 5.63194 26.5456 5.45421C26.3679 5.27647 26.1304 5.1712 25.8794 5.15887C25.6283 5.14654 25.3816 5.22804 25.1873 5.3875L23.4248 7.1625C23.2378 7.34996 23.1328 7.60395 23.1328 7.86875C23.1328 8.13355 23.2378 8.38753 23.4248 8.575C23.5179 8.66868 23.6291 8.74247 23.7516 8.79189C23.8741 8.84131 24.0053 8.86533 24.1374 8.8625Z" fill="currentColor"/>
</svg>
