<svg width="32" height="32" viewBox="0 0 32 32" fill="none" xmlns="http://www.w3.org/2000/svg">
<path d="M28.6108 3.27376C28.4559 3.13997 28.2674 3.051 28.0656 3.01641C27.8638 2.98183 27.6565 3.00296 27.4658 3.07751L2.1333 12.9913C1.77429 13.1309 1.47033 13.3833 1.26721 13.7106C1.06409 14.0379 0.972783 14.4224 1.00705 14.806C1.04131 15.1897 1.19929 15.5519 1.4572 15.838C1.7151 16.1241 2.05898 16.3187 2.43705 16.3925L9.0008 17.6813V25C8.99951 25.3987 9.11798 25.7885 9.34086 26.119C9.56373 26.4496 9.88074 26.7055 10.2508 26.8538C10.6203 27.0046 11.0266 27.0409 11.417 26.9577C11.8073 26.8746 12.1636 26.6759 12.4396 26.3875L15.6046 23.105L20.6258 27.5C20.9881 27.8213 21.4553 27.9992 21.9396 28C22.1518 27.9998 22.3626 27.9665 22.5646 27.9013C22.8945 27.7966 23.1912 27.6073 23.4252 27.3522C23.6593 27.0971 23.8224 26.7852 23.8983 26.4475L28.9721 4.37501C29.0174 4.17595 29.0078 3.96829 28.9442 3.77429C28.8805 3.58029 28.7653 3.40727 28.6108 3.27376ZM20.9683 7.77376L9.76955 15.7938L3.56955 14.5775L20.9683 7.77376ZM11.0008 25V19.065L14.0996 21.7825L11.0008 25ZM21.9421 26L11.6071 16.9375L26.4821 6.27626L21.9421 26Z" fill="currentColor"/>
</svg>
