<svg width="32" height="32" viewBox="0 0 32 32" fill="none" xmlns="http://www.w3.org/2000/svg">
<g clip-path="url(#clip0_654_8135)">
<path fill-rule="evenodd" clip-rule="evenodd" d="M2.71521 15.0578C10.9839 11.4552 16.4976 9.08025 19.2564 7.93277C27.1333 4.65648 28.7701 4.08735 29.8369 4.06856C30.0716 4.06443 30.5962 4.12258 30.936 4.39833C31.223 4.63117 31.3019 4.9457 31.3397 5.16646C31.3775 5.38721 31.4245 5.8901 31.3871 6.28305C30.9603 10.768 29.1133 21.6519 28.1736 26.6752C27.776 28.8007 26.9932 29.5134 26.2352 29.5832C24.5881 29.7347 23.3373 28.4946 21.742 27.4489C19.2456 25.8124 17.8353 24.7938 15.4121 23.1969C12.6117 21.3515 14.4271 20.3372 16.023 18.6796C16.4407 18.2458 23.6981 11.6447 23.8385 11.0459C23.8561 10.971 23.8724 10.6918 23.7065 10.5444C23.5407 10.397 23.2959 10.4474 23.1193 10.4875C22.8689 10.5443 18.8809 13.1803 11.1552 18.3953C10.0232 19.1726 8.99793 19.5513 8.07928 19.5315C7.06655 19.5096 5.11845 18.9589 3.67024 18.4881C1.89395 17.9107 0.482186 17.6054 0.605119 16.6248C0.669149 16.1141 1.37251 15.5917 2.71521 15.0578Z" fill="currentColor"/>
</g>
<defs>
<clipPath id="clip0_654_8135">
<rect width="32" height="32" rx="6" fill="white"/>
</clipPath>
</defs>
</svg>
