<svg width="32" height="32" viewBox="0 0 32 32" fill="none" xmlns="http://www.w3.org/2000/svg">
<path d="M16 20.5C19.0376 20.5 21.5 18.0376 21.5 15C21.5 11.9624 19.0376 9.5 16 9.5C12.9624 9.5 10.5 11.9624 10.5 15C10.5 18.0376 12.9624 20.5 16 20.5Z" fill="currentColor"/>
<path d="M16 3C13.4288 3 10.9154 3.76244 8.77759 5.1909C6.63975 6.61935 4.97351 8.64968 3.98957 11.0251C3.00563 13.4006 2.74819 16.0144 3.2498 18.5362C3.75141 21.0579 4.98953 23.3743 6.80762 25.1924C8.6257 27.0105 10.9421 28.2486 13.4638 28.7502C15.9856 29.2518 18.5995 28.9944 20.9749 28.0104C23.3503 27.0265 25.3807 25.3603 26.8091 23.2224C28.2376 21.0846 29 18.5712 29 16C28.9934 12.5542 27.6216 9.25145 25.1851 6.81491C22.7486 4.37837 19.4458 3.00661 16 3ZM24.225 23.3C23.4155 22.1388 22.3724 21.1596 21.1625 20.425C19.7733 21.7559 17.9238 22.4989 16 22.4989C14.0762 22.4989 12.2267 21.7559 10.8375 20.425C9.62759 21.1596 8.58448 22.1388 7.77501 23.3C6.36723 21.7147 5.44757 19.7564 5.12671 17.6607C4.80585 15.565 5.09746 13.4212 5.96644 11.4873C6.83543 9.55346 8.24477 7.91192 10.0248 6.76028C11.8049 5.60863 13.8799 4.99593 16 4.99593C18.1201 4.99593 20.1951 5.60863 21.9752 6.76028C23.7552 7.91192 25.1646 9.55346 26.0336 11.4873C26.9026 13.4212 27.1942 15.565 26.8733 17.6607C26.5524 19.7564 25.6328 21.7147 24.225 23.3Z" fill="currentColor"/>
</svg>
