<svg width="32" height="32" viewBox="0 0 32 32" fill="none" xmlns="http://www.w3.org/2000/svg">
  <path d="M21.5 15C21.5 16.0878 21.1774 17.1512 20.5731 18.0556C19.9687 18.9601 19.1098 19.6651 18.1048 20.0813C17.0998 20.4976 15.9939 20.6065 14.927 20.3943C13.8601 20.1821 12.8801 19.6583 12.1109 18.8891C11.3417 18.1199 10.8179 17.1399 10.6057 16.073C10.3935 15.0061 10.5024 13.9002 10.9187 12.8952C11.3349 11.8902 12.0399 11.0313 12.9444 10.4269C13.8488 9.82257 14.9122 9.5 16 9.5C17.4587 9.5 18.8576 10.0795 19.8891 11.1109C20.9205 12.1424 21.5 13.5413 21.5 15ZM28 6V26C28 26.5304 27.7893 27.0391 27.4142 27.4142C27.0391 27.7893 26.5304 28 26 28H6C5.46957 28 4.96086 27.7893 4.58579 27.4142C4.21071 27.0391 4 26.5304 4 26V6C4 5.46957 4.21071 4.96086 4.58579 4.58579C4.96086 4.21071 5.46957 4 6 4H26C26.5304 4 27.0391 4.21071 27.4142 4.58579C27.7893 4.96086 28 5.46957 28 6ZM26 26V6H6V26H6.45875C7.054 24.1218 8.18701 22.4595 9.7175 21.2188C9.97417 21.0121 10.2392 20.8196 10.5125 20.6413C10.6036 20.5818 10.7115 20.5537 10.82 20.5611C10.9285 20.5686 11.0317 20.6112 11.1138 20.6825C12.4718 21.8548 14.206 22.4998 16 22.4998C17.794 22.4998 19.5282 21.8548 20.8862 20.6825C20.9683 20.6112 21.0715 20.5686 21.18 20.5611C21.2885 20.5537 21.3964 20.5818 21.4875 20.6413C21.7608 20.8204 22.0258 21.0129 22.2825 21.2188C23.813 22.4595 24.946 24.1218 25.5413 26H26Z" fill="currentColor"/>
</svg>
