<svg width="32" height="32" viewBox="0 0 32 32" fill="none" xmlns="http://www.w3.org/2000/svg">
  <path d="M8.01501 18.475C8.0184 18.5427 8.00798 18.6105 7.98438 18.674C7.96077 18.7376 7.92448 18.7957 7.87771 18.8448C7.83094 18.8939 7.77466 18.933 7.71231 18.9597C7.64996 18.9864 7.58283 19.0001 7.51501 19H2.00001C1.77431 19.0003 1.55512 18.9243 1.37811 18.7843C1.20109 18.6443 1.07664 18.4485 1.02501 18.2288C0.992865 18.0784 0.994347 17.9227 1.02935 17.773C1.06436 17.6232 1.13203 17.4831 1.22751 17.3625C2.10977 16.1925 3.28038 15.2712 4.62501 14.6888C4.03467 14.1505 3.5819 13.4786 3.30461 12.7294C3.02732 11.9802 2.9336 11.1755 3.03128 10.3826C3.12897 9.58968 3.41522 8.83175 3.86606 8.17224C4.31691 7.51273 4.91922 6.97085 5.62255 6.59198C6.32588 6.21312 7.10976 6.0083 7.90852 5.99468C8.70729 5.98107 9.49769 6.15904 10.2135 6.51371C10.9294 6.86838 11.5498 7.38941 12.0229 8.03316C12.4959 8.67692 12.8079 9.42466 12.9325 10.2138C12.9486 10.3199 12.9296 10.4283 12.8784 10.5227C12.8272 10.617 12.7465 10.692 12.6488 10.7363C11.2618 11.3775 10.0871 12.4021 9.2634 13.6891C8.4397 14.9761 8.00133 16.4719 8.00001 18C8.00001 18.16 8.00001 18.3175 8.01501 18.475ZM30.765 17.3613C29.8848 16.1926 28.7169 15.2719 27.375 14.6888C27.9654 14.1505 28.4181 13.4786 28.6954 12.7294C28.9727 11.9802 29.0664 11.1755 28.9687 10.3826C28.8711 9.58968 28.5848 8.83175 28.134 8.17224C27.6831 7.51273 27.0808 6.97085 26.3775 6.59198C25.6741 6.21312 24.8903 6.0083 24.0915 5.99468C23.2927 5.98107 22.5023 6.15904 21.7865 6.51371C21.0707 6.86838 20.4502 7.38941 19.9772 8.03316C19.5041 8.67692 19.1922 9.42466 19.0675 10.2138C19.0514 10.3199 19.0704 10.4283 19.1216 10.5227C19.1729 10.617 19.2535 10.692 19.3513 10.7363C20.7383 11.3775 21.9129 12.4021 22.7366 13.6891C23.5603 14.9761 23.9987 16.4719 24 18C24 18.16 24 18.3175 23.985 18.475C23.9816 18.5427 23.992 18.6105 24.0157 18.674C24.0393 18.7376 24.0755 18.7957 24.1223 18.8448C24.1691 18.8939 24.2254 18.933 24.2877 18.9597C24.3501 18.9864 24.4172 19.0001 24.485 19H30C30.2257 19.0003 30.4449 18.9243 30.6219 18.7843C30.7989 18.6443 30.9234 18.4485 30.975 18.2288C31.0074 18.0781 31.0059 17.9221 30.9706 17.7721C30.9354 17.6221 30.8673 17.4818 30.7713 17.3613H30.765ZM19.64 22.7588C20.6357 21.9962 21.3674 20.9408 21.7323 19.741C22.0972 18.5411 22.0769 17.257 21.6744 16.0692C21.2718 14.8815 20.5071 13.8497 19.4879 13.119C18.4686 12.3882 17.246 11.9952 15.9919 11.9952C14.7377 11.9952 13.5151 12.3882 12.4959 13.119C11.4766 13.8497 10.712 14.8815 10.3094 16.0692C9.90683 17.257 9.88657 18.5411 10.2515 19.741C10.6164 20.9408 11.3481 21.9962 12.3438 22.7588C10.5769 23.5243 9.1016 24.8354 8.13376 26.5C8.04599 26.652 7.99978 26.8245 7.99979 27.0001C7.9998 27.1756 8.04603 27.3481 8.13382 27.5001C8.22161 27.6521 8.34788 27.7784 8.49993 27.8661C8.65199 27.9539 8.82446 28 9.00001 28H23C23.1756 28 23.348 27.9539 23.5001 27.8661C23.6521 27.7784 23.7784 27.6521 23.8662 27.5001C23.954 27.3481 24.0002 27.1756 24.0002 27.0001C24.0002 26.8245 23.954 26.652 23.8663 26.5C22.8964 24.8343 21.4183 23.5231 19.6488 22.7588H19.64Z" fill="currentColor"/>
</svg>
