<svg width="32" height="32" viewBox="0 0 32 32" fill="none" xmlns="http://www.w3.org/2000/svg">
<path d="M22 11.5V23.5C22 24.0304 21.7893 24.5391 21.4142 24.9142C21.0391 25.2893 20.5304 25.5 20 25.5H6C5.34339 25.5 4.69321 25.3707 4.08658 25.1194C3.47995 24.8681 2.92876 24.4998 2.46447 24.0355C1.52678 23.0979 1 21.8261 1 20.5V8.5C1 7.96957 1.21071 7.46086 1.58579 7.08579C1.96086 6.71071 2.46957 6.5 3 6.5H17C18.3261 6.5 19.5979 7.02678 20.5355 7.96447C21.4732 8.90215 22 10.1739 22 11.5ZM30.5 9.1375C30.3493 9.04589 30.1763 8.99744 30 8.99744C29.8237 8.99744 29.6507 9.04589 29.5 9.1375L24.5 11.9875C24.3467 12.076 24.2196 12.2037 24.1317 12.3574C24.0439 12.5111 23.9984 12.6854 24 12.8625V19.1375C23.9984 19.3146 24.0439 19.4889 24.1317 19.6426C24.2196 19.7963 24.3467 19.924 24.5 20.0125L29.5 22.8625C29.6523 22.9499 29.8244 22.9972 30 23C30.1759 22.9989 30.3483 22.9515 30.5 22.8625C30.6532 22.777 30.7806 22.6518 30.8686 22.5C30.9566 22.3482 31.002 22.1755 31 22V10C31.002 9.82455 30.9566 9.65181 30.8686 9.50001C30.7806 9.34821 30.6532 9.22297 30.5 9.1375Z" fill="currentColor"/>
</svg>
