<svg width="32" height="32" viewBox="0 0 32 32" fill="none" xmlns="http://www.w3.org/2000/svg">
<path d="M29.5881 23.4999L18.6006 4.49992C18.3376 4.04296 17.9588 3.66339 17.5023 3.39947C17.0458 3.13554 16.5279 2.99658 16.0006 2.99658C15.4734 2.99658 14.9554 3.13554 14.499 3.39947C14.0425 3.66339 13.6637 4.04296 13.4006 4.49992L2.41313 23.4999C2.14622 23.9546 2.00437 24.4717 2.00198 24.9989C1.9996 25.5261 2.13677 26.0446 2.39957 26.5016C2.66237 26.9587 3.04143 27.338 3.49826 27.6012C3.95509 27.8643 4.47343 28.0019 5.00063 27.9999H27.0006C27.5278 28.0019 28.0462 27.8643 28.503 27.6012C28.9598 27.338 29.3389 26.9587 29.6017 26.5016C29.8645 26.0446 30.0017 25.5261 29.9993 24.9989C29.9969 24.4717 29.855 23.9546 29.5881 23.4999ZM15.0006 12.9999C15.0006 12.7347 15.106 12.4803 15.2935 12.2928C15.4811 12.1053 15.7354 11.9999 16.0006 11.9999C16.2658 11.9999 16.5202 12.1053 16.7077 12.2928C16.8953 12.4803 17.0006 12.7347 17.0006 12.9999V17.9999C17.0006 18.2651 16.8953 18.5195 16.7077 18.707C16.5202 18.8946 16.2658 18.9999 16.0006 18.9999C15.7354 18.9999 15.4811 18.8946 15.2935 18.707C15.106 18.5195 15.0006 18.2651 15.0006 17.9999V12.9999ZM16.0006 23.9999C15.704 23.9999 15.4139 23.9119 15.1673 23.7471C14.9206 23.5823 14.7283 23.348 14.6148 23.0739C14.5013 22.7999 14.4716 22.4983 14.5295 22.2073C14.5873 21.9163 14.7302 21.649 14.94 21.4393C15.1497 21.2295 15.417 21.0866 15.708 21.0287C15.999 20.9709 16.3006 21.0006 16.5747 21.1141C16.8487 21.2276 17.083 21.4199 17.2478 21.6666C17.4127 21.9132 17.5006 22.2032 17.5006 22.4999C17.5006 22.8977 17.3426 23.2793 17.0613 23.5606C16.78 23.8419 16.3985 23.9999 16.0006 23.9999Z" fill="currentColor"/>
</svg>
