<svg width="32" height="32" viewBox="0 0 32 32" fill="none" xmlns="http://www.w3.org/2000/svg">
<path fill-rule="evenodd" clip-rule="evenodd" d="M6.86902 6.86853C7.49386 6.24369 8.50692 6.24369 9.13176 6.86853L16.0004 13.7372L22.869 6.86853C23.4939 6.24369 24.5069 6.24369 25.1318 6.86853C25.7566 7.49337 25.7566 8.50643 25.1318 9.13127L18.2631 15.9999L25.1318 22.8685C25.7566 23.4934 25.7566 24.5064 25.1318 25.1313C24.5069 25.7561 23.4939 25.7561 22.869 25.1313L16.0004 18.2626L9.13176 25.1313C8.50692 25.7561 7.49386 25.7561 6.86902 25.1313C6.24418 24.5064 6.24418 23.4934 6.86902 22.8685L13.7376 15.9999L6.86902 9.13127C6.24418 8.50643 6.24418 7.49337 6.86902 6.86853Z" fill="currentColor"/>
</svg>
