<svg xmlns="http://www.w3.org/2000/svg" width="299.426" height="299.589" viewBox="0 0 280.7115 280.86464"><path d="M122.806 280.65c-14.05-2.566-18.89-3.711-26.921-6.371-21.069-6.977-38.448-17.851-55.025-34.428-20.309-20.308-32.515-42.554-38.87-70.841C.264 161.337 0 157.514 0 140.356c0-17.073.27-21 1.96-28.515C8.335 83.503 20.61 61.1 40.855 40.855 61.1 20.61 83.503 8.335 111.84 1.96 119.355.27 123.283 0 140.356 0c17.072 0 21 .27 28.514 1.96 28.339 6.375 50.742 18.65 70.987 38.895 20.245 20.245 32.52 42.648 38.894 70.986 1.69 7.514 1.96 11.442 1.96 28.515 0 17.158-.265 20.981-1.989 28.654-6.356 28.287-18.562 50.533-38.87 70.841-20.191 20.191-42.627 32.546-70.382 38.758-6.639 1.486-12.212 1.943-26.414 2.167-9.9.157-19.013.1-20.25-.126zm40.05-4.412c4.455-.71 11.117-2.135 14.804-3.165 9.21-2.573 21.526-7.529 19.622-7.896-.86-.165-4.097.714-7.195 1.953-33.097 13.241-72.157 12.446-104.644-2.13-3.185-1.429-5.999-2.26-6.254-1.849-.634 1.026 12.685 6.644 22.508 9.494 7.633 2.215 20.287 4.511 29.209 5.3 6.537.58 23.203-.311 31.95-1.707zm-3.15-3.224c8.417-1.22 15.3-2.798 15.3-3.507 0-.337-1.024-1.079-2.276-1.649-1.25-.57-2.51-1.648-2.796-2.394-.818-2.133-2.733-1.6-4.828 1.342-2.276 3.196-4.925 3.46-7.784.774-1.974-1.855-2.136-1.868-4.429-.366-1.807 1.184-2.627 1.307-3.408.512-.775-.79-.505-1.477 1.095-2.784 2.753-2.25 6.256-2.21 8.715.1 1.955 1.838 1.955 1.838 3.442-.43.817-1.248 2.798-2.94 4.402-3.762 1.604-.822 4.24-2.647 5.858-4.055 2.88-2.51 3.01-2.534 6.37-1.19 4.114 1.646 7.388.736 9.622-2.674.813-1.24 2.214-2.489 3.114-2.774.9-.286 1.865-1.117 2.145-1.846.444-1.156.194-1.165-1.941-.068-2.986 1.533-21.408 6.863-23.72 6.863-4.738 0-15.76 5.827-23.356 12.347-5.046 4.332-4.946 4.341-13.53-1.147-3.274-2.094-6.848-4.286-7.942-4.872-1.815-.971-1.908-.912-1.058.676.512.958 1.96 2.415 3.218 3.24 2.44 1.598 3.094 4.156 1.062 4.156-.673 0-2.728-1.02-4.566-2.268-3.342-2.268-3.342-2.268-4.881-.367-3.416 4.218-17.296.924-23.092-5.48-1.227-1.356-2.771-1.785-6.426-1.785-7.122 0-6.202 1.894 2.615 5.386 21.548 8.532 45.981 11.37 69.075 8.022zm32.408-8.913c1.362-.729 1.694-1.353 1.058-1.99-.637-.636-1.726-.373-3.472.838-3.91 2.71-5.55 3.04-8.67 1.745-7.346-3.05-11.156-2.364-4.224.762 1.98.893 3.6 1.945 3.6 2.338 0 .75 8.297-1.867 11.708-3.693zm-48.628-.424c3.832-4.08 14.032-9.385 22.651-11.782 31.076-8.643 42.142-14.134 48.608-24.122 1.88-2.905 3.677-6.656 3.992-8.335.748-3.985 1.758-4.496 3.533-1.787 1.357 2.071 1.308 2.47-.818 6.664-2.796 5.52-14.416 16.472-21.246 20.028-4.281 2.228-4.618 2.582-2.492 2.62 2.956.051 14.192-5.315 14.192-6.779 0-2.288 3.88-5.783 7.473-6.733 5.357-1.415 11.947-5.856 13.209-8.901.59-1.425 1.407-4.074 1.816-5.885.697-3.093.647-3.208-.824-1.877-1.882 1.704-5.988 1.816-9.074.248-1.604-.815-2.27-1.91-2.318-3.812-.037-1.467-.73-3.883-1.539-5.368-1.292-2.371-1.476-2.462-1.507-.747-.02 1.074-1.287 5.53-2.815 9.9-2.084 5.959-3.716 8.925-6.525 11.857-5.285 5.517-12.804 10.381-18.596 12.03-29.096 8.28-37.427 11.46-46.96 17.924-5.11 3.464-5.11 3.464-15.786-2.668-9.21-5.291-12.71-6.713-25.49-10.361-23.458-6.696-24.538-7.202-32.929-15.435-4.036-3.96-8.051-8.82-8.922-10.8-1.147-2.607-1.69-3.16-1.969-2.004-.606 2.515 2.884 8.705 8.355 14.817 3.8 4.247 6.596 6.355 11.487 8.662 6.69 3.156 18.495 6.828 29.164 9.072 8.352 1.757 12.79 3.804 22.292 10.284 4.45 3.035 8.734 5.519 9.518 5.519.784 0 2.368-1.003 3.52-2.23zm-27.345-.577c.943-1.049 2.482-2.193 3.42-2.544 1.337-.499.46-1.147-4.05-2.994-3.165-1.297-6.66-2.608-7.768-2.914-1.787-.493-1.7-.244.78 2.237 2.276 2.275 2.695 3.286 2.26 5.457-.467 2.34-.278 2.664 1.556 2.664 1.148 0 2.86-.858 3.802-1.906zm-8.635-1.717c0-3.53-3.303-4.998-8.55-3.8-3.6.822-3.6.822 2.25 3.671 3.217 1.568 5.951 2.85 6.075 2.851.124 0 .225-1.224.225-2.722zm80.55-1.324c2.7-2.238 2.7-2.238-.838-.816-1.945.783-4.578 1.194-5.85.914-1.272-.28-3.325-.735-4.562-1.013-1.238-.278-.428.277 1.8 1.235 5.412 2.326 6.294 2.296 9.45-.32zm12.086.505c.708-.448 1.375-1.414 1.483-2.147.154-1.054-.344-1.178-2.383-.593-3.49 1.001-4.564 1.747-3.948 2.744.655 1.06 3.17 1.058 4.848-.004zM70.986 258.48c-.254-.619-3.78-3.353-7.835-6.075-9.268-6.223-24.308-20.631-31.424-30.106-5.5-7.322-10.163-11.736-6.635-6.281 9.601 14.847 26.397 31.353 41.464 40.747 5.206 3.246 5.033 3.179 4.43 1.715zm81.07-8.554c3.478-1.707 18.306-6.519 29.95-9.72 9.932-2.73 5.318-2.398-7.033.506-11.507 2.706-20.687 6.474-29.815 12.236-3.674 2.32-5.38 2.825-3.632 1.077.81-.81 1.08-12.065 1.08-45.11 0-39.263-.148-43.908-1.366-42.897-1.189.986-1.36 6.921-1.317 45.774.034 31.366-.242 44.738-.93 44.967-.537.179-2.678-.738-4.757-2.037-2.857-1.786-3.137-1.862-1.147-.315 1.449 1.126 3.271 2.682 4.05 3.457 1.287 1.28 1.87 1.062 6.367-2.38 2.722-2.085 6.57-4.586 8.55-5.558zm-62.175 6.199c.265-.429-.33-1.515-1.324-2.415-1.709-1.546-1.891-1.55-3.354-.087-1.356 1.355-1.38 1.653-.197 2.4 1.697 1.074 4.242 1.127 4.875.102zm11.775-1.948c3.414-.05 3.261-.162-2.946-2.172-3.6-1.166-7.65-2.834-9-3.708-2.048-1.325-1.858-.902 1.146 2.552 2.556 2.94 4.121 4.03 5.4 3.76.99-.209 3.42-.403 5.4-.432zm124.53-6.118c11.044-8.706 23.095-21.994 30.158-33.253 3.93-6.265-.14-2.78-4.838 4.144-5.267 7.76-19.977 23.021-28.435 29.5-3.666 2.807-6.665 5.473-6.665 5.924 0 1.166 1.6.133 9.78-6.315zm-149.67 1.763c-1.045-2.02-1.809-2.491-3.517-2.165-1.2.23-2.456-.026-2.79-.567-.336-.542-1.04-.985-1.567-.985-.603 0-.543.498.164 1.35.616.742 1.836 1.35 2.71 1.35.875 0 2.546.796 3.715 1.77 2.788 2.322 2.855 2.283 1.286-.753zm48.99-.587c-2.342-1.36-16.105-5.874-17.597-5.772-.47.032 3.138 1.425 8.017 3.095 4.878 1.67 9.097 3.264 9.375 3.542.277.277.943.49 1.48.473.536-.018-.038-.62-1.275-1.338zm9.9-41.38c0-35.123-.215-42.75-1.206-42.75-1.47 0-3.294 3.774-3.294 6.815 0 1.758-.572 2.344-2.7 2.77-1.795.359-2.7 1.08-2.7 2.152 0 .887-1.093 2.409-2.43 3.382-2.346 1.71-2.388 1.89-1.247 5.348.65 1.967 2.763 5.559 4.698 7.98 3.517 4.403 3.517 4.403-6.766 14.303-5.656 5.445-13.003 13.463-16.327 17.817-3.324 4.355-6.204 7.757-6.399 7.562-.195-.195.453-2.972 1.44-6.17 1.986-6.43 8.787-18.336 13.856-24.258 3.466-4.048 4.356-8.001 1.802-8.001-.81 0-4.143 2.936-7.407 6.525-11.174 12.288-17.994 18.859-18.957 18.264-1.526-.944-1.184-1.847 2.459-6.483 1.882-2.396 4.787-6.786 6.455-9.756 1.669-2.97 4.179-7.093 5.578-9.162 2.616-3.867 3.344-7.488 1.507-7.488-.571 0-4.52 3.16-8.775 7.023-11.761 10.676-25.287 20.112-25.287 17.64 0-.295 3.285-4.041 7.3-8.325 8.69-9.27 10.827-12.263 16.983-23.784 2.572-4.815 5.058-8.754 5.523-8.754.465 0 3.252 1.215 6.194 2.7s5.584 2.7 5.87 2.7c.288 0 .934-1.178 1.436-2.618.55-1.58 1.758-2.83 3.049-3.153 1.7-.427 2.194-1.226 2.416-3.908.264-3.198.464-3.394 3.879-3.821 3.125-.39 3.637-.777 3.885-2.925.284-2.475.284-2.475-31.649-2.475-35.425 0-32.203-1.743-33.287 18-.15 2.722-.245-24.413-.21-60.3l.06-65.25 18.757-.244c14.85-.193 18.677-.005 18.376.9-.286.86-4.63 1.204-17.491 1.388l-17.111.244-.587 14.156c-.323 7.786-.589 27.42-.59 43.63-.003 29.476-.003 29.476 4.947 29.476 2.722 0 4.956-.304 4.964-.675.008-.371-1.699-2.148-3.791-3.948-3.542-3.046-3.731-3.436-2.734-5.625.893-1.959 1.667-2.352 4.63-2.352 2.864 0 3.68-.383 4.18-1.957.4-1.258.161-2.302-.668-2.925-5.941-4.463-6.176-4.783-5.264-7.181.793-2.087 1.371-2.337 5.393-2.337 4.089 0 4.56-.214 5.086-2.315.46-1.832-.021-2.936-2.306-5.294-2.59-2.672-2.765-3.176-1.698-4.885 1.408-2.254 2.075-2.314 6.866-.624 3.332 1.176 3.76 1.145 5.127-.366 1.398-1.545 1.347-1.88-.807-5.292-2.3-3.643-2.3-3.643-.313-5.033 2.62-1.836 3.575-1.759 6.479.526 2.11 1.66 2.723 1.764 4.565.778 2.094-1.12 2.105-1.198.686-4.745-1.362-3.404-1.35-3.675.228-4.828 2.248-1.644 2.56-1.584 5.774 1.121 2.03 1.709 3.385 2.193 5 1.788 2.041-.512 2.173-.862 1.68-4.461-.488-3.557-.346-3.957 1.594-4.479 1.657-.446 2.627.025 4.379 2.126 3.364 4.036 6.532 3.687 8.34-.917 1.136-2.89 1.868-3.6 3.712-3.6 1.835 0 2.448.587 3.054 2.923.418 1.614 1.438 3.055 2.276 3.216 1.384.267 1.518-1.344 1.518-18.333 0-14.756-.234-18.45-1.125-17.775-.619.469-3.58 2.746-6.581 5.06-5.456 4.209-5.456 4.209-14.4 4.214-8.944.006-8.944.006-10.548 2.823-1.484 2.607-1.494 2.938-.137 4.438 1.945 2.149.926 3.883-1.515 2.577-3.026-1.62-3.5-4.488-1.36-8.227 1.246-2.177 1.597-3.62 1.012-4.156-1.302-1.195-6.962-2.137-6.288-1.047.353.57-5.728.887-17.055.887H59.806v68.496c0 64.863-.084 68.465-1.575 67.897-1.263-.481-1.352-.375-.45.533 1.677 1.69 1.36 4.781-.679 6.627-1.792 1.622-1.786 1.643.915 3.285 2.078 1.264 2.676 2.237 2.539 4.132-.099 1.364.327 3.416.947 4.56.953 1.762.846 2.62-.7 5.584-1.24 2.381-1.44 3.354-.623 3.04.775-.297 2.393 1.715 4.557 5.667 4.463 8.152 8.767 13.297 13.35 15.956 4.052 2.35 18.46 7.281 19.179 6.563.24-.24-3.13-1.719-7.488-3.287-12.998-4.678-18.308-9.11-23.621-19.721-2.07-4.135-3.596-7.687-3.39-7.893.206-.207 2.21 2.784 4.454 6.645 2.244 3.861 5.712 8.496 7.707 10.298 6.351 5.738 17.765 10.463 39.778 16.466 4.702 1.282 10.98 3.495 13.95 4.918 2.97 1.423 5.703 2.62 6.075 2.66.371.04.675-19.164.675-42.676zm33.1 32.507c6.336-1.682 7.35-2.175 5.452-2.651-1.386-.348-4.424-3.143-7.494-6.896-2.84-3.47-5.724-6.31-6.41-6.31-2.532 0-1.298-3.407 1.599-4.417 2.768-.965 2.988-.84 7.965 4.504 5.628 6.045 8.317 6.765 8.824 2.363.225-1.95-.814-3.738-4.835-8.317-2.816-3.208-5.861-5.833-6.765-5.833-.905 0-2.754-1.454-4.109-3.231s-4.848-4.85-7.761-6.828c-3.91-2.655-5.732-4.611-6.957-7.47-3.397-7.924-3.61-6.442-3.61 25.135v30.212l8.16-4.098c4.487-2.253 11.66-5.027 15.94-6.163zm55.266 4.994c7.464-5.951 20.337-19.263 25.02-25.873 3.002-4.236 3.03-4.343.633-2.465-2.104 1.65-2.93 1.815-5.164 1.036-1.462-.51-2.884-1.292-3.16-1.738-.276-.446-.89-.811-1.367-.811-.475 0-.047 1.604.953 3.564 3.152 6.177 2.066 9.936-2.87 9.936-1.558 0-3.13.777-4.095 2.025-.861 1.114-3.664 4.131-6.227 6.706-3.695 3.711-5.746 4.98-9.9 6.126-2.882.795-6.818 2.118-8.747 2.94-3.507 1.495-3.507 1.495.9 2.542 6.857 1.629 7.045 1.575 14.024-3.988zm-163.598-4.394c-2.075-1.096-5.171-3.627-6.882-5.625-2.539-2.966-3.69-3.632-6.276-3.632-4.383 0-7.47-2.703-8.71-7.627-.842-3.344-1.395-4.073-3.083-4.073-1.132 0-2.624-.506-3.317-1.125-.693-.619.303.9 2.213 3.375 4.866 6.305 14.284 15.973 21.156 21.717 5.82 4.865 5.82 4.865 7.246 1.924 1.426-2.941 1.426-2.941-2.347-4.934zm10.882-1.624c-4.56-3.812-5.751-4.3-5.181-2.12.27 1.036 1.75 2.43 3.286 3.1 4.245 1.848 4.882 1.518 1.895-.98zm148.986-.452c3.435-1.752 4.765-2.995 2.439-2.278-.619.19-2.194.58-3.501.864-1.307.284-2.61 1.128-2.897 1.875-.675 1.76-.31 1.717 3.959-.46zm-35.136-2.273c7.167-1.102 17.886-8.841 23.225-16.768 1.663-2.47 3.23-4.286 3.48-4.035.598.598-6.099 10.385-8.83 12.906-1.169 1.08-4.531 3.408-7.472 5.175-6.767 4.067-5.856 4.119 2.085.12 10.428-5.252 16.448-13.937 18.995-27.404.577-3.053.917-33.296.917-81.675V48.106H197.85c-19.012 0-19.444-.041-18.984-1.8.305-1.17.027-1.8-.795-1.8-.781 0-1.267.948-1.267 2.475 0 2.475 0 2.475 19.8 2.216l19.8-.258-.078 72.708c-.043 39.99-.394 74.734-.78 77.209-.446 2.864-.744-3.927-.82-18.675l-.121-23.175h-29.81c-27.476 0-29.715.115-28.59 1.47 1.028 1.24 2.54 1.39 9.673.965 9.005-.537 11.867.07 15.297 3.25 3.46 3.205 4.109 5.903 4.145 17.218.035 10.71.044 10.755 2.285 11.305 1.894.464 2.206 1 1.97 3.394-.335 3.423 3.2 9.887 7.29 13.328 2.344 1.973 3.445 2.29 6.673 1.927 3.495-.394 3.867-.25 3.867 1.504 0 1.191-2.23 4.151-5.775 7.665-6.878 6.816-8.625 6.877-8.625.299 0-4.087-.292-4.616-5.175-9.383-2.846-2.779-6.491-5.713-8.1-6.52-1.609-.808-2.925-1.938-2.925-2.512 0-1.679-3.767-5.21-5.557-5.21-2.214 0-2.123 2.887.157 4.95 1.256 1.136 1.8 2.772 1.8 5.41 0 3.366.592 4.426 5.417 9.692 9.369 10.224 9.967 15.36 2.34 20.08-2.039 1.263-2.897 2.094-1.907 1.847.99-.246 3.622-.728 5.85-1.07zM60.483 235.08c-.738-1.114-2.104-2.144-3.035-2.29-1.352-.21-1.184.197.833 2.025 3.121 2.83 3.97 2.932 2.202.265zm1.001-5.433c-2.291-1.925-6.474-9.047-5.742-9.778.197-.197-1.44-.349-3.636-.337-2.197.013-3.996.199-3.997.414-.002.215.822 2.095 1.83 4.177 1.632 3.372 2.26 3.851 5.728 4.371 2.143.322 4.66 1.163 5.592 1.87 2.679 2.027 2.848 1.487.225-.717zm-14.758-3.117c-.37-.866-1.32-3.398-2.114-5.625-1.812-5.09-1.755-5.011-2.858-3.909-1.307 1.308.446 8.513 2.423 9.959 2.212 1.617 3.34 1.429 2.55-.425zm-28.564-26.045c-10.429-22.47-13.705-37.143-13.627-61.03.06-18.4 1.564-27.545 7.202-43.783 6.408-18.457 15.48-33.23 29.761-48.467 9.385-10.013 12.669-12.81 24.104-20.528C91.66 9.088 126.599.879 157.006 5.204c12.376 1.76 26.757 4.887 29.648 6.447 1.266.682 6.334 3.103 11.263 5.379 14.423 6.66 25.576 14.632 38.349 27.41 16.24 16.249 25.668 31.03 32.727 51.309 5.614 16.129 7.124 25.315 7.184 43.707.076 23.54-3.153 38.285-13.16 60.086-2.47 5.382-4.274 10-4.01 10.264.797.798 9.345-17.595 12.199-26.25 10.876-32.98 8.787-69.883-5.706-100.8-19.72-42.07-57.436-70.774-103.084-78.457-11.277-1.898-32.843-1.898-44.12 0-45.648 7.683-83.364 36.388-103.084 78.457-14.305 30.517-16.5 66.377-6.11 99.874 2.328 7.507 12.729 29.75 13.534 28.945.253-.253-1.76-5.243-4.474-11.09zm22.643 5.345c-.101-6.075-.101-6.075-1.13-1.198-.997 4.718-2.48 6.577-3.69 4.62-.863-1.397-3.18-1.152-3.18.337 0 1.38 1.691 2.045 5.626 2.211 2.475.105 2.475.105 2.374-5.97zm193.45.9c-.124-4.219-.22-4.512-.518-1.587-.2 1.974-.737 4.036-1.19 4.583-.454.547-.56 1.26-.233 1.587 1.515 1.515 2.08.183 1.94-4.583zm6.392-8.62c1.331-3.502 1.198-4.048-.422-1.734-.78 1.112-1.55 4.635-1.766 8.075-.384 6.104-.384 6.104.422 1.143.444-2.729 1.238-6.096 1.766-7.484zm-191.802 4.57c1.263-1.361 1.798-2.475 1.188-2.475-1.88 0-5.529 4.302-5.5 6.484.027 1.995.061 2.004 1.02.266.547-.99 2.028-2.914 3.292-4.275zm-23.766 1.48c1.147-.44 1.314-1.45.867-5.248-.512-4.356-.345-4.939 2.254-7.899 1.543-1.758 2.806-3.586 2.806-4.063 0-1.665-3.337-3.864-7.935-5.23-2.577-.765-5.04-2.135-5.55-3.086-1.623-3.034-1.062-7.164 1.294-9.52 1.313-1.314 1.727-2.21 1.021-2.21-2.632 0-5.69-3.569-6.334-7.393-1.663-9.889-1.666-9.8.375-12.56 1.093-1.478 1.85-2.773 1.683-2.878-.167-.105-1.52-.58-3.004-1.056-1.701-.546-3.2-1.94-4.05-3.77-.743-1.597-1.654-2.912-2.025-2.923-.866-.025-.837 1.73.239 14.718 1.368 16.518 5.184 31.054 12.136 46.238 3.457 7.55 3.72 7.84 6.223 6.88zm237.974-9.58c6.63-15.15 10.243-30.64 11.386-48.825.55-8.767.524-8.942-1.018-6.75-2.104 2.991-4.024 4.436-5.94 4.471-1.923.035-2.033 1.229-.249 2.709 2.202 1.828 2.7 7.025 1.012 10.565-.825 1.73-1.268 3.873-.985 4.764.355 1.118-.307 2.205-2.134 3.506-1.456 1.036-3.09 1.885-3.633 1.885-1.234 0-1.291 1.505-.086 2.25 1.49.921 1.026 6.357-.675 7.89-.866.78-2.79 1.702-4.275 2.047-6.595 1.532-8.938 5.972-4.638 8.79 3.23 2.116 4.688 6.44 3.577 10.605-.957 3.585-.6 4.196 2.538 4.347 1.025.049 2.591-2.475 5.12-8.254zm-77.41 3.08c.159-1.076-.096-1.955-.564-1.955-1.38 0-3.08 2.536-2.418 3.608.928 1.502 2.66.542 2.982-1.654zm38.33-8.518c-2.366-2.812-2.643-3.837-1.265-4.688.51-.316.665-2.04.355-3.975-.494-3.09-.274-3.611 2.296-5.44 1.912-1.362 3.71-1.897 5.494-1.635 2.637.387 2.653.361 2.682-4.18.025-3.888 1.464-9.405 3.89-14.92.47-1.07-.148-1.358-2.986-1.392-6.47-.078-10.644-6.425-8.97-13.638 1.118-4.817.957-5.66-.48-2.52-1.07 2.336-1.247-3.34-1.31-41.978-.063-38.403-.259-44.75-1.394-45.186-1.152-.441-1.378 7.675-1.761 63.13-.242 34.999-.519 65.457-.615 67.685-.096 2.227.14 6.33.526 9.117.7 5.067.7 5.067 3.203 3.631 2.502-1.436 2.502-1.436.335-4.011zm-.367-31.175c0-6.47.17-11.762.376-11.762.208 0 1.24 2.594 2.296 5.765 1.35 4.059 1.838 7.455 1.648 11.475-.243 5.14-.473 5.738-2.295 5.997-2.012.286-2.025.209-2.025-11.475zm-184.12 22.867c.839-1.28 2.109-2.55 2.822-2.824.964-.37 1.295-2.152 1.289-6.927-.007-5.132-.496-7.426-2.424-11.378-2.415-4.95-2.415-4.95-2.934.32-.404 4.093-1 5.658-2.675 7.014-1.247 1.01-2.756 1.495-3.582 1.153-3.398-1.409-4.333-1.223-7.99 1.588-2.937 2.257-3.8 3.488-3.6 5.133.213 1.75 1.125 2.412 4.764 3.457 5.935 1.705 8.29 4.055 10.113 10.093 1.507 4.992 1.507 4.992 2.1-.155.326-2.831 1.279-6.194 2.117-7.474zm195.25 3.677c-1.386-4.066-3.93-7.284-3.93-4.97 0 1.18 4.284 8.964 4.933 8.964.197 0-.255-1.798-1.003-3.994zm11.37-.402c0-4.177 2.655-6.95 8.229-8.594 4.431-1.307 5.193-2.895 2.803-5.847-1.677-2.071-4.865-2.69-7.617-1.477-1.058.465-2.248-.037-3.825-1.614-1.841-1.841-2.29-3.17-2.29-6.778 0-2.469-.415-4.744-.922-5.057-1.57-.971-4.458 7.155-5.056 14.227-.529 6.257-.438 6.778 1.274 7.321 2.49.79 4.54 4.125 5.245 8.535.71 4.442 2.159 3.962 2.159-.716zm-66.6-5.143c0-4.455-4.681-9.906-10.36-12.065-2.068-.786-1.548.064 3.032 4.96 3.04 3.25 5.528 6.502 5.528 7.227 0 .724.405 1.317.9 1.317s.9-.648.9-1.44zm-122.4-66.2c0-63.983-.002-64.039-1.8-62.411-1.682 1.521-1.802 2.792-1.829 19.264-.024 14.99-.21 17.396-1.242 16.036-1.06-1.396-1.155-1.076-.75 2.513.382 3.394.116 4.482-1.526 6.23-1.275 1.357-1.641 2.332-1.02 2.715.531.329.995 1.89 1.03 3.47.035 1.58.411 3.682.837 4.672.652 1.517.783 1.349.837-1.072.034-1.58.468-3.122.963-3.428.585-.362.9 4.49.9 13.897 0 7.949-.324 14.453-.72 14.453-.396 0-1.156-.436-1.688-.968-.691-.691-.842-.305-.526 1.35.279 1.454 1.04 2.318 2.042 2.318 2.01 0 2.667 1.712 3.312 8.618.407 4.36.183 5.992-1.087 7.932-2.264 3.455-6.294 5.332-9.968 4.643-3.017-.566-3.017-.566-.797 3.746 2.573 4.996 4.209 12.652 3.48 16.291-.486 2.432-.386 2.513 2.644 2.159 1.732-.202 3.893.065 4.803.594.91.53 1.756.974 1.88.99.124.014.225-28.791.225-64.013zm-5.71 58.793c-1.126-1.243-1.49-3.41-1.49-8.86 0-6.072.285-7.473 1.8-8.844 1.79-1.62 1.8-1.572 1.8 8.86 0 5.77-.14 10.49-.31 10.49-.172 0-.982-.74-1.8-1.646zm74.235-3.832c-2.215-1.795-3.725-2.213-3.725-1.03 0 .932 4.806 3.802 5.388 3.217.254-.255-.494-1.24-1.663-2.187zm55.993-12.556c32.982.095 32.982.095 32.982-5.786 0-5.88 0-5.88-32.206-5.88s-32.206 0-37.094-4.95c-2.689-2.723-5.108-4.95-5.376-4.95-.268 0-3.042 2.227-6.163 4.95-5.676 4.95-5.676 4.95-38.469 4.95-32.792 0-32.792 0-32.792 5.85s0 5.85 31.553 5.85c19.245 0 31.351-.327 31.035-.838-.285-.46-.095-1.099.42-1.418.517-.319 3.865 2.06 7.44 5.286 6.502 5.865 6.502 5.865 11.095 1.353 4.593-4.511 4.593-4.511 37.575-4.417zm-48.769.246l-6.58-6.062 6.845-6.75c6.846-6.75 6.846-6.75 9.974-3.15 9.333 10.742 9.125 9.34 2.38 16.033-6.038 5.992-6.038 5.992-12.619-.07zm15.15-5.35c0-.144-1.822-.262-4.05-.262-4.05 0-4.05 0-4.05 4.237 0 4.238 0 4.238 4.05.263 2.228-2.186 4.05-4.093 4.05-4.238zm0-2.325c0-.144-1.822-2.051-4.05-4.237-4.05-3.975-4.05-3.975-4.05.262 0 4.238 0 4.238 4.05 4.238 2.228 0 4.05-.118 4.05-.263zM27.856 159.45c.99.026 2.67.334 3.733.683 1.784.585 1.958.28 2.25-3.947.25-3.616.033-4.58-1.032-4.572-2.426.017-10.513 4.245-11.114 5.81-1.086 2.83-.681 3.404 1.889 2.678 1.361-.385 3.285-.678 4.275-.652zm222.425-3.344c.25 0 2.35 1.05 4.666 2.332 3.813 2.112 3.955 2.136 1.51.25-4.344-3.35-7.505-6.998-7.92-9.14-.212-1.096-.435.033-.495 2.508-.061 2.475.185 5.512.546 6.75.657 2.25.657 2.25.947-.225.16-1.361.496-2.475.746-2.475zm-7.687-11.475c1.58-2.351 4.057-5.538 5.504-7.08 2.03-2.166 2.334-2.92 1.331-3.304-.799-.307-1.677.333-2.283 1.662-.552 1.211-1.505 1.961-2.17 1.707-.747-.287-1.504.628-2.052 2.483-.587 1.99-1.667 3.215-3.344 3.797-2.171.752-2.867.481-5.625-2.192-3.148-3.051-3.148-3.051-3.148.615 0 4.118 1.028 5.349 4.95 5.922 1.485.217 2.984.456 3.332.53.347.074 1.924-1.789 3.505-4.14zM30.46 139.084c-.852-1.442-4.005-4.075-7.006-5.85-5.432-3.214-8.943-4.035-9.992-2.337-.563.912 2.187 2.326 9.534 4.902 2.277.799 5.081 2.454 6.232 3.68 2.755 2.932 3.127 2.813 1.232-.395zm81.83 1.948c-9-.146-23.986-.147-33.3 0-9.313.146-1.948.266 16.367.266s25.935-.119 16.934-.266zm102.317-.676c0-1.176-4.32-1.35-33.472-1.35-29.624 0-33.271.152-31.725 1.321 2.652 2.006 65.197 2.033 65.197.029zm-97.2-3.6c0-1.255-.522-2.25-1.179-2.25-.648 0-6.217-1.86-12.375-4.132-6.158-2.272-11.804-4.196-12.546-4.275-1.683-.179-5.4 6.978-5.4 10.397 0 2.51 0 2.51 15.75 2.51s15.75 0 15.75-2.25zm15.932-.627c3.72-3.606 3.72-4.323-.002-4.323-3.633 0-5.13 1.366-5.13 4.68 0 3.287 1.478 3.185 5.132-.357zm-51.932-4.163c0-10.11 5.178-19.933 16.318-30.956 8.82-8.727 19.902-13.896 33.407-15.581 2.9-.362 4.275-.955 4.275-1.846 0-.884-.66-1.175-2.025-.894-1.114.23-4.05.672-6.525.983-16.008 2.008-29.572 10.722-40.478 26.006-4.518 6.33-7.245 13.742-8.216 22.327-.554 4.89-.474 5.2 1.328 5.2 1.735 0 1.916-.493 1.916-5.239zm133.2-37.942V50.842l-19.125-.243c-14.669-.187-20.056.057-23.12 1.045-2.997.965-4.085 1.021-4.35.225-.225-.673-2.514-1.063-6.233-1.063-5.78 0-5.966-.077-11.208-4.618-2.931-2.54-5.132-4.815-4.89-5.056.241-.242 2.614 1.419 5.273 3.69 4.834 4.13 4.834 4.13 12.419 4.239 9.56.137 10.734-.315 10.734-4.127 0-1.638.407-3.113.904-3.278.498-.165-2.71-.16-7.13.012-8.035.312-8.035.312-14.764-4.665-3.701-2.737-6.985-5.39-7.297-5.895-.312-.505-1.77-1.775-3.24-2.822-2.632-1.873-2.673-1.875-2.673-.111 0 1.166 3.048 4.327 8.741 9.06 8.741 7.27 8.741 7.27 16.2 7.27 6.859 0 7.459.145 7.459 1.8 0 1.669-.6 1.8-8.178 1.8-8.178 0-8.178 0-14.175-5.6-13.323-12.443-10.755-12.101-20.205-2.691-8.326 8.292-8.326 8.292-16.184 8.292-4.322 0-7.858-.17-7.858-.377s-.246-1.017-.547-1.8c-.472-1.232.53-1.423 7.46-1.423 8.004 0 8.004 0 16.745-7.27 5.503-4.576 8.742-7.911 8.742-9 0-.952-.242-1.73-.538-1.73-.725 0-16.751 12.52-18.011 14.07-.76.935-3.567 1.186-11.7 1.047-9.27-.16-9.689-.225-3.136-.49 8.623-.347 7.487.256 23.769-12.633 12.12-9.595 9.004-9.926 25.115 2.67 7.652 5.982 11.395 7.703 10.247 4.712-.3-.783-.546-2.613-.546-4.067 0-2.372-.232-2.586-2.257-2.077-2.581.648-6.326-1.4-7.117-3.891-.28-.884-1.425-2.009-2.543-2.5-3.003-1.317-2.573-4.222.881-5.947 1.603-.801 3.465-1.913 4.138-2.472.674-.559 3.918-1.119 7.21-1.244 3.29-.126 5.985-.505 5.986-.843 0-.338.878-.892 1.948-1.232 3.06-.971.434-1.956-9.705-3.638-16.7-2.771-39.235-1.7-55.691 2.647-4.088 1.08-4.294 1.254-2.25 1.895 1.237.388 2.857 1.196 3.6 1.796.742.6 3.758 1.168 6.702 1.265 2.983.097 5.972.716 6.75 1.397.769.672 2.256 1.483 3.304 1.801 4.775 1.452 5.903 6.147 1.728 7.195-1.235.31-2.315 1.438-2.648 2.767-.619 2.465-3.702 3.702-7.102 2.848-1.877-.47-2.036-.253-1.741 2.378.178 1.593-.232 3.645-.913 4.56-1.086 1.462-1.99 1.585-7.376 1.008-6.682-.715-9.504-2.518-9.504-6.071 0-1.848-.354-2.015-3.6-1.706-3.887.371-4.706 1.483-1.776 2.412 2.428.77 4.56 4.162 4.264 6.783-.187 1.658.344 2.292 2.462 2.942 4.134 1.268 5.321 1.995 6.3 3.856.803 1.528 1.81 1.684 9.37 1.451 8.471-.26 8.471-.26 16.397-7.496 4.359-3.98 8.343-6.977 8.854-6.661.62.383.929 16.404.929 48.11 0 41.4.176 47.684 1.365 48.67 1.219 1.012 1.34-4.016 1.125-46.657-.196-38.944-.026-47.577.917-46.634.914.914 1.147 10.787 1.11 46.964-.03 26.972.282 45.448.756 44.936 8.434-9.128 10.927-12.58 10.927-15.134 0-2.183 1.119-3.919 5.175-8.028 5.175-5.242 5.175-5.242 2.977-6.91-2.198-1.668-2.198-1.668 3.467-8.059 3.117-3.515 5.948-6.39 6.293-6.39.345 0 1.139.506 1.764 1.125.91.9 1.31.816 2.01-.426.784-1.388 1.427-1.153 6.14 2.242 4.75 3.423 5.184 4.004 4.444 5.95-.451 1.187-.708 2.26-.57 2.383.603.542 17.674 5.727 20.735 6.298 1.861.348 3.551.901 3.755 1.23.203.33-3.922 6.217-9.167 13.084-9.536 12.485-9.536 12.485-11.666 9.874-1.171-1.436-3.227-4.534-4.568-6.884-1.342-2.351-2.934-4.275-3.539-4.275-.604 0-3.307-.978-6.005-2.171-5.163-2.283-5.945-2.205-5.945.592 0 .948-3.57 5.842-7.934 10.875-4.364 5.034-8.235 9.659-8.603 10.278-.53.89 5.614 1.125 29.534 1.125h30.203V94.024zm14.475 37.782c1.248 0 1.725-.633 1.725-2.291 0-2.199 3.526-6.71 5.245-6.71.456 0 .56-1.31.231-2.915-.442-2.161-1.52-3.435-4.161-4.92-3.565-2.004-3.565-2.004-4.053 6.74-.269 4.81-.709 9.353-.978 10.096-.27.742-.32 1.046-.112.675.208-.372 1.154-.675 2.103-.675zM26.73 127.98c-.26-2.08-.901-3.375-1.673-3.375-1.682 0-1.584 2.725.19 5.258 1.807 2.578 2.007 2.324 1.483-1.883zm96.92-13.974c-6.292-15.838-6.65-16.401-10.453-16.401-3.517 0-6.523 1.902-14.016 8.87-3.634 3.38-4.275 4.482-4.275 7.353 0 1.9.689 4.2 1.575 5.26.874 1.044 6.713 3.81 13.12 6.214 11.545 4.333 11.545 4.333 14.714 1.344 3.17-2.989 3.17-2.989-.665-12.64zm31.6 9.474c.567-.972.587-1.575.053-1.575-1.332 0-6.382 6.497-5.792 7.451.5.81 3.819-2.588 5.739-5.876zm-116.524.013c.957-2.88 2.909-6.042 5.022-8.135 2.706-2.679 3.458-4.111 3.458-6.59 0-3.091-.047-3.133-2-1.764-2.975 2.083-5.84 1.734-7.582-.925-1.524-2.325-1.524-2.325-2.688-.225-.64 1.156-2.027 4.645-3.08 7.756-1.917 5.655-1.917 5.655.295 7.394 1.216.957 2.72 2.968 3.342 4.47.622 1.502 1.252 2.73 1.4 2.73.147 0 .972-2.12 1.833-4.711zm208.835-7.63c-.318-3.697-1.522-7.816-3.552-12.15-2.929-6.257-3.112-6.453-3.993-4.271-1.525 3.78-3.544 4.958-6.55 3.823-2.268-.856-2.668-.755-3.16.795-.995 3.137.401 5.636 4.542 8.13 3.352 2.02 4.231 3.137 5.137 6.526.602 2.249 1.375 4.089 1.72 4.089.343 0 1.075 1.29 1.624 2.867 1 2.868 1 2.868 2.857-.675 1.507-2.875 1.766-4.595 1.375-9.135zm-197.457 2.154c.275-4.338.275-4.338-3.773-.054s-4.048 4.284-1.18 5.027c1.576.409 3.19 1.243 3.584 1.854.781 1.207.897.627 1.37-6.827zm222.835 1.413c-4.17-27.162-18.186-54.449-38.012-74.003-6.821-6.727-6.821-6.727-6.821-1.72 0 4.454.246 5.121 2.225 6.023 1.289.587 2.459 2.068 2.78 3.52.854 3.844 2.296 8.355 2.672 8.355.186 0 1.301-.44 2.479-.976 1.547-.704 3.182-.695 5.892.035 3.012.811 4.105 1.705 5.551 4.54 2.319 4.545 2.314 9.414-.012 12.371-1.862 2.368-1.698 4.1.208 2.195 3.406-3.406 10.605.914 10.605 6.364 0 1.656.464 3.475 1.03 4.042 1.58 1.579-.721 8.596-3.78 11.526-2.143 2.054-3.123 2.376-6.03 1.987-3.47-.466-3.47-.466-1.874 4.15.877 2.539 1.608 6.085 1.624 7.88.03 3.265.03 3.265 4.083 2.808 3.321-.375 4.686-.039 7.554 1.86 2.877 1.903 7.297 3.717 10.081 4.137.297.044.182-2.248-.255-5.094zm-253.208.105c.976-.676 2.799-1.235 4.05-1.242 1.984-.01 2.573-.803 4.601-6.196 2.326-6.185 2.326-6.185-.45-4.492-3.907 2.383-5.674 2.132-9.095-1.29-3.35-3.35-4.923-8.875-3.277-11.512.599-.958.67-1.825.174-2.13-.986-.61-4.679 10.657-6.7 20.445-2.074 10.039-2.285 9.56 3.747 8.53 2.846-.485 5.974-1.436 6.95-2.113zm115.675-13.38c0-14.85 0-14.85-2.95-14.85-4.258 0-6.95 2.193-6.95 5.661 0 3.137 7.963 24.039 9.157 24.039.409 0 .743-6.683.743-14.85zM24.72 102.572c-2.077-2.211-2.084-2.282-.607-6.854 1.677-5.194 1.864-7.112.692-7.112-.44 0-1.058 1.377-1.374 3.06-.316 1.682-1.17 3.554-1.9 4.16-1.406 1.166-1.741 4.276-.637 5.907.772 1.141 3.89 3.006 5.093 3.045.457.015-.113-.978-1.267-2.206zm19.785-.297c0-.402-1.215-1.629-2.7-2.727-2.76-2.04-3.43-1.389-1.769 1.717.902 1.684 4.469 2.49 4.469 1.01zm204.56-6.47c-.297-1.137-.027-1.8.735-1.8.663 0 .278-.649-.855-1.443-1.134-.793-1.887-1.907-1.674-2.475.213-.567.703-2.04 1.09-3.274.63-2.009.549-2.115-.776-1.015-1.892 1.57-1.937 7.155-.08 9.807 1.735 2.476 2.17 2.532 1.56.2zm-10.528-3.651c-.594-2.01-1.444-3.593-1.89-3.52-.446.073-1.743-1.827-2.883-4.223-2.073-4.355-2.073-4.355-1.623-.006.637 6.165 2.528 9.085 7.344 11.34.071.034-.355-1.583-.948-3.591zm-55.42-.385c-1.671-1.725-3.27-2.9-3.55-2.612-.472.483 5.167 5.749 6.155 5.749.24 0-.932-1.412-2.604-3.137zm44.486 1.067c.96-.96.786-1.615-.964-3.65-1.737-2.018-2.132-2.178-2.122-.855.016 2.074.972 5.675 1.507 5.675.225 0 .936-.527 1.579-1.17zm11.291-12.118c.766-2.979 1.784-4.341 4.549-6.086 4.134-2.61 4.551-4.026 1.186-4.026-1.307 0-2.876-.685-3.488-1.522-1.961-2.682-4.049 2.953-3.965 10.702.075 6.947.16 6.993 1.718.932zM25.62 84.113c2.491 1.333 3.375.462 1.599-1.577-2.042-2.344-2.479-6.4-1.107-10.286.668-1.894 1.052-3.444.852-3.444-.43 0-8.557 14.787-8.557 15.57 0 .295 1.186.123 2.636-.383 1.872-.652 3.199-.618 4.577.12zm203.828-7.38c2.084.232 2.389.011 1.862-1.35-1.515-3.918-1.529-6.537-.047-9.045 1.437-2.432 1.444-2.829.097-5.433-.8-1.546-1.453-3.819-1.453-5.051 0-1.233-.405-2.492-.9-2.798-.582-.36-.9 3.394-.9 10.607 0 10.02-.185 11.33-1.8 12.793-.99.896-1.77 2.68-1.732 3.964.063 2.134.168 2.064 1.225-.814.988-2.692 1.519-3.11 3.648-2.873zm-179.541-7.67c0-11.755-.075-12.268-1.575-10.77-1.244 1.243-1.613 3.34-1.756 9.986-.1 4.627-.448 9.474-.773 10.77-.525 2.091-.327 2.357 1.756 2.357 2.348 0 2.348 0 2.348-12.343zM46.624 54.54c2.979-3.05 3.279-3.815 3.247-8.273-.034-4.912-.034-4.912-7.425 2.792-8.167 8.513-17 20.32-13.223 17.675 1.31-.917 3.892-1.53 6.451-1.53 3.49 0 4.476.37 5.406 2.026 1.035 1.844 1.187 1.517 1.699-3.652.49-4.948.984-6.108 3.845-9.038zm45.411-13.407c-.235-2.842-.775-3.614-3.43-4.907-3.744-1.825-10.63-2.067-14.1-.496-2.256 1.02-1.694 1.167 6.032 1.575 7.769.41 8.519.608 8.519 2.25 0 1.697-.684 1.814-12.037 2.052-8.802.184-12.543.607-13.925 1.575-1.693 1.186-.277 1.323 13.666 1.323 15.554 0 15.554 0 15.275-3.372zm126.496 2.022c-.432-1.126-3.159-1.362-16.397-1.423-14.21-.066-15.595-.203-13.178-1.31 2.491-1.14 2.537-1.24.586-1.277-1.226-.023-3.174 1.094-4.636 2.66-2.522 2.7-2.522 2.7 15.81 2.7 15.927 0 18.265-.177 17.815-1.35zM183.18 38.88c2.417-2.646 3.162-2.925 7.806-2.925 3.982 0 5.198-.322 5.417-1.436.219-1.113-.988-1.66-5.382-2.436-3.115-.55-6.575-1.268-7.69-1.594-1.525-.448-2.024-.226-2.024.902 0 .822-.994 2.49-2.21 3.705-2.208 2.209-2.208 2.209.45 2.209 3.992 0 2.99 2.772-1.39 3.848-1.597.393-1.566.455.275.547 1.284.065 3.096-1.012 4.748-2.82zm14.83-.197c1.186-.897 4.201-1.355 9.397-1.425 7.65-.105 7.65-.105 4.05-1.718-1.98-.888-5.294-1.866-7.364-2.175-3.232-.483-3.844-.31-4.329 1.215-.31.978-1.607 2.598-2.882 3.601-2.626 2.066-1.565 2.54 1.128.502zM69.67 34.105c6.557-4.048 12.363-5.8 19.213-5.8 5.39 0 5.39 0 2.332-2.083-2.78-1.893-3.032-2.429-2.768-5.89.29-3.806.29-3.806-3.148-2.37-7.855 3.283-26.45 14.81-29.163 18.078-.879 1.059-.285 1.265 3.65 1.265 3.813 0 5.678-.604 9.884-3.2zm154.907 1.935c-3.216-3.876-31.148-20.335-34.509-20.335-.502 0-.656 1.153-.354 2.66.453 2.263.056 3.051-2.668 5.297-1.892 1.559-2.808 2.88-2.242 3.23.528.325 5.814 1.16 11.748 1.856 13.386 1.57 17.294 2.714 20.428 5.986 1.774 1.85 3.33 2.57 5.555 2.57 2.554 0 2.91-.22 2.042-1.264zm-53.81-5.035c.554-2.118 3.165-2.403 3.923-.427.406 1.058.812 1.136 1.772.34 3.24-2.69.294-4.476-4.424-2.682-2.02.768-4.06 4.569-2.452 4.569.391 0 .923-.81 1.182-1.8zm-73.19-9c.512 0 .93.405.93.9 0 1.293 7.021.981 11.25-.5 3.474-1.217 2.244-1.207-3.771.029-2.585.531-3.023.297-4.393-2.353-1.523-2.944-1.523-2.944-3.592-.348-1.76 2.206-2.282 2.42-3.482 1.423-1.732-1.437-1.922.015-.378 2.9 1.034 1.932 1.034 1.932 1.771-.06.405-1.095 1.155-1.991 1.666-1.991zm66.63.04c2.25-.682 2.25-.682-.223-1.358-2.738-.749-5.177-.141-5.177 1.29 0 1.048 2.073 1.074 5.4.067z" fill="orange"/></svg>