<svg width="132" height="162" viewBox="0 0 132 162" fill="none" xmlns="http://www.w3.org/2000/svg">
<path d="M178.125 47.5V142.5C178.125 145.649 176.874 148.67 174.647 150.897C172.42 153.124 169.399 154.375 166.25 154.375H118.75C114.026 154.375 109.495 156.252 106.155 159.592C102.814 162.933 100.938 167.463 100.938 172.188C100.938 173.762 100.312 175.272 99.1984 176.386C98.085 177.499 96.5747 178.125 95 178.125C93.4253 178.125 91.9151 177.499 90.8016 176.386C89.6881 175.272 89.0625 173.762 89.0625 172.188C89.0625 167.463 87.1858 162.933 83.8453 159.592C80.5049 156.252 75.9742 154.375 71.25 154.375H23.75C20.6006 154.375 17.5801 153.124 15.3531 150.897C13.1261 148.67 11.875 145.649 11.875 142.5V47.5C11.875 44.3506 13.1261 41.3301 15.3531 39.1031C17.5801 36.8761 20.6006 35.625 23.75 35.625H65.3125C71.6114 35.625 77.6523 38.1272 82.1063 42.5812C86.5603 47.0352 89.0625 53.0761 89.0625 59.375V124.688C89.0625 126.262 89.6881 127.772 90.8016 128.886C91.9151 129.999 93.4253 130.625 95 130.625C96.5747 130.625 98.085 129.999 99.1984 128.886C100.312 127.772 100.938 126.262 100.938 124.688V59.375C100.938 53.0761 103.44 47.0352 107.894 42.5812C112.348 38.1272 118.389 35.625 124.688 35.625H166.25C169.399 35.625 172.42 36.8761 174.647 39.1031C176.874 41.3301 178.125 44.3506 178.125 47.5Z" fill="#EEEEF7"/>
</svg>
