<svg width="132" height="162" viewBox="0 0 132 162" fill="none" xmlns="http://www.w3.org/2000/svg">

<path d="M154.375 17.8125H53.4375C47.1386 17.8125 41.0977 20.3147 36.6437 24.7687C32.1897 29.2227 29.6875 35.2636 29.6875 41.5625V166.25C29.6875 167.825 30.3131 169.335 31.4266 170.448C32.5401 171.562 34.0503 172.188 35.625 172.188H142.5C144.075 172.188 145.585 171.562 146.698 170.448C147.812 169.335 148.438 167.825 148.438 166.25C148.438 164.675 147.812 163.165 146.698 162.052C145.585 160.938 144.075 160.312 142.5 160.312H41.5625C41.5625 157.163 42.8136 154.143 45.0406 151.916C47.2676 149.689 50.2881 148.438 53.4375 148.438H154.375C155.95 148.438 157.46 147.812 158.573 146.698C159.687 145.585 160.312 144.075 160.312 142.5V23.75C160.312 22.1753 159.687 20.6651 158.573 19.5516C157.46 18.4381 155.95 17.8125 154.375 17.8125ZM136.562 89.0625L117.555 74.8125C117.041 74.4271 116.416 74.2188 115.774 74.2188C115.131 74.2188 114.506 74.4271 113.993 74.8125L95 89.0625V29.6875H136.562V89.0625Z" fill="#EEEEF7"/>
</svg>
