<svg width="33" height="32" viewBox="0 0 33 32" fill="none" xmlns="http://www.w3.org/2000/svg">
<path fill-rule="evenodd" clip-rule="evenodd" d="M15.7261 0L15.7306 13.8121L14.0834 15.4733H5.48242V2.48762H9.50595C13.326 2.48762 13.5304 2.4867 13.5459 2.47197C13.555 2.46277 14.0487 1.90322 14.6437 1.2277L15.7261 0ZM13.2055 6.31154C13.1964 6.56095 13.1891 6.87662 13.1827 7.17388L13.1708 7.71319C12.9655 7.77393 12.8469 7.81166 12.7739 7.83651C12.6662 7.87332 12.6397 7.87976 12.6324 7.86964C12.6279 7.86228 12.4353 7.62208 12.2063 7.33494L11.7883 6.81312C11.6012 6.90331 11.4123 6.9981 11.249 7.08093L10.9515 7.23186C11.2526 8.18071 11.3421 8.46417 11.3457 8.47429C11.3494 8.48994 11.3311 8.50466 11.2252 8.57092C11.1559 8.61326 11.0436 8.68596 10.9761 8.73198C10.9086 8.778 10.8483 8.81849 10.842 8.82217C10.8347 8.82585 10.6686 8.6878 10.3857 8.44208L9.94034 8.05463C9.90475 8.08868 9.73501 8.24145 9.53881 8.41539C9.34352 8.58933 9.18382 8.73566 9.18382 8.74118C9.18382 8.74578 9.3353 8.94733 9.52056 9.18754C9.7049 9.42774 9.86095 9.63021 9.86642 9.63665C9.87463 9.64585 9.85456 9.6707 9.78064 9.74709C9.72771 9.80139 9.65014 9.88514 9.60634 9.933C9.56345 9.98085 9.49227 10.0637 9.44755 10.1171C9.40375 10.1704 9.36268 10.2146 9.35721 10.2165C9.35173 10.2174 9.10716 10.1281 8.81331 10.0167C8.51946 9.90539 8.27946 9.81519 8.27854 9.81611C8.27854 9.81703 8.16904 9.98269 8.03489 10.1842C7.90074 10.3849 7.79214 10.5533 7.79397 10.557C7.79488 10.5616 7.96188 10.7217 8.16539 10.9131C8.36889 11.1046 8.55323 11.2785 8.57604 11.2997L8.61711 11.3392C8.58699 11.3871 8.53315 11.492 8.4784 11.6034C8.42364 11.7147 8.35429 11.8601 8.32417 11.9264C8.28585 12.0138 8.26668 12.047 8.25664 12.0442C8.24934 12.0424 8.00295 12.001 7.7091 11.9531C7.41525 11.9052 7.17524 11.8666 7.17433 11.8684C7.17342 11.8693 7.10498 12.0856 7.02193 12.3488C6.93889 12.612 6.87318 12.8302 6.87683 12.8338C6.88048 12.8366 7.10133 12.9581 7.36688 13.1044C7.63336 13.2498 7.85237 13.3695 7.85329 13.3695C7.85511 13.3704 7.84142 13.4514 7.82408 13.5498C7.80583 13.6483 7.78302 13.7854 7.77298 13.8536C7.76294 13.9217 7.75199 13.9806 7.74834 13.9833C7.74469 13.9861 7.53206 14.0229 7.27563 14.0643C7.02011 14.1057 6.78466 14.1435 6.75364 14.149L6.69614 14.1573V15.0408H8.45285C8.4638 14.7233 8.4711 14.5613 8.47657 14.4748C8.48114 14.3892 8.49391 14.2336 8.50395 14.1296C8.51399 14.0257 8.53315 13.8683 8.54502 13.7799C8.55779 13.6916 8.58152 13.5425 8.59886 13.4486C8.6162 13.3547 8.64722 13.2038 8.66821 13.1127C8.6892 13.0216 8.72662 12.8743 8.75126 12.786C8.7759 12.6976 8.81514 12.5669 8.83795 12.4961C8.86077 12.4252 8.90183 12.3093 8.92738 12.2384C8.95385 12.1675 8.99674 12.058 9.0232 11.9945C9.04967 11.931 9.09986 11.8178 9.13545 11.7414C9.17104 11.666 9.23218 11.5417 9.27234 11.4653C9.31249 11.3899 9.37819 11.2711 9.41835 11.203C9.45941 11.1349 9.53151 11.019 9.57987 10.9453C9.62915 10.8717 9.71128 10.7539 9.76421 10.6831C9.81623 10.6122 9.90019 10.5045 9.95038 10.4438C10.0006 10.383 10.0891 10.2818 10.1475 10.2183C10.205 10.1548 10.3054 10.0517 10.3702 9.98821C10.435 9.92471 10.5372 9.82992 10.5974 9.77654C10.6576 9.72316 10.7544 9.64217 10.8118 9.59616C10.8703 9.54922 10.9798 9.46639 11.0555 9.4121C11.1322 9.35688 11.2471 9.27773 11.311 9.23723C11.3758 9.19582 11.4835 9.13048 11.551 9.0909C11.6186 9.05133 11.7463 8.98231 11.8339 8.93813C11.9215 8.89303 12.0557 8.82861 12.1305 8.79548C12.2063 8.76143 12.3249 8.71173 12.3952 8.68412C12.4654 8.65651 12.5886 8.61142 12.6689 8.58381C12.7492 8.5562 12.877 8.51478 12.9518 8.4927C13.0276 8.47061 13.1462 8.43748 13.2165 8.41999C13.2867 8.40251 13.4036 8.37582 13.4766 8.36017C13.5496 8.34545 13.6709 8.32244 13.7458 8.30955C13.8215 8.29667 13.9465 8.27826 14.0241 8.26814C14.1017 8.25802 14.2358 8.24329 14.3207 8.23501C14.4065 8.22764 14.5872 8.21752 14.7222 8.212C14.8582 8.2074 15.0434 8.20648 15.1356 8.21016L15.3017 8.2166V7.3423C14.9942 7.35334 14.8253 7.35702 14.7277 7.35794L14.5497 7.36071C14.1245 6.43026 13.9976 6.16061 13.9922 6.16061C13.9876 6.16153 13.8078 6.19558 13.5943 6.237L13.2055 6.31154ZM14.4576 8.61234C14.3727 8.6197 14.2167 8.63903 14.1108 8.65467C14.0059 8.6694 13.848 8.69609 13.7595 8.71357C13.6718 8.73106 13.5322 8.76235 13.4492 8.7826C13.3671 8.80284 13.2439 8.83598 13.1754 8.85622C13.1079 8.87555 12.9865 8.9142 12.9062 8.94181C12.8259 8.96942 12.7027 9.01452 12.6324 9.04305C12.5622 9.07066 12.4472 9.11851 12.3769 9.1498C12.3066 9.1811 12.167 9.2492 12.0666 9.30166C11.9663 9.35319 11.8266 9.4305 11.7564 9.47284C11.6861 9.51425 11.5675 9.59064 11.4917 9.64125C11.4169 9.69095 11.2937 9.7793 11.2179 9.83636C11.1431 9.89342 11.03 9.98361 10.967 10.0361C10.9049 10.0894 10.7918 10.1907 10.716 10.2615C10.6412 10.3324 10.5235 10.4521 10.455 10.5275C10.3866 10.603 10.2926 10.7097 10.2461 10.7659C10.2004 10.8211 10.121 10.9233 10.0699 10.9914C10.0188 11.0595 9.93486 11.18 9.88285 11.2583C9.83083 11.3365 9.756 11.4543 9.71767 11.5205C9.67843 11.5859 9.61364 11.7018 9.57349 11.7782C9.53333 11.8537 9.46945 11.9825 9.43204 12.0635C9.39462 12.1445 9.3353 12.2835 9.29971 12.3718C9.26412 12.4602 9.21028 12.6074 9.17925 12.6986C9.14823 12.7897 9.1026 12.9342 9.07887 13.0207C9.05423 13.1063 9.02229 13.2287 9.00678 13.2922C8.99126 13.3557 8.96662 13.467 8.95202 13.5406C8.93651 13.6143 8.9137 13.7385 8.90092 13.8167C8.88814 13.895 8.86989 14.0275 8.85985 14.1112C8.84982 14.195 8.83521 14.3358 8.827 14.4241C8.8197 14.5125 8.81057 14.6874 8.80692 14.8125L8.79962 15.0408H9.28329C9.27325 14.98 9.27416 14.8944 9.27964 14.8107C9.2842 14.7269 9.29424 14.6156 9.30154 14.5622C9.30975 14.5088 9.32618 14.4223 9.33987 14.3689C9.35264 14.3156 9.37911 14.2309 9.39918 14.1803C9.41926 14.1296 9.4512 14.0615 9.47128 14.0284C9.49044 13.9953 9.52603 13.9447 9.54976 13.9161C9.5744 13.8876 9.60816 13.8517 9.6255 13.837C9.64375 13.8223 9.67843 13.7965 9.70307 13.7808C9.72862 13.7643 9.78155 13.7404 9.82171 13.7265C9.88832 13.7045 9.90749 13.7026 10.027 13.7026C10.1384 13.7035 10.174 13.7072 10.2461 13.7265C10.2944 13.7394 10.4806 13.8085 10.6613 13.8802C10.842 13.9511 11.6268 14.2603 12.4043 14.5659L13.8188 15.1217L15.3948 13.536C14.2769 10.7613 13.9438 9.92471 13.9338 9.88698C13.9237 9.84925 13.9128 9.78666 13.9091 9.74893C13.9055 9.702 13.9091 9.65782 13.9182 9.61088C13.9265 9.57315 13.9429 9.52069 13.9557 9.49584C13.9675 9.47008 13.9949 9.42682 14.0168 9.40013C14.0387 9.37252 14.0852 9.32743 14.1199 9.29982C14.1555 9.27221 14.2249 9.22987 14.2751 9.20502C14.3253 9.18017 14.4037 9.14796 14.4484 9.13324C14.4941 9.11851 14.578 9.09551 14.6355 9.08262C14.6939 9.06974 14.7861 9.05317 14.8409 9.04489C14.8965 9.03753 14.9951 9.02648 15.0599 9.02188C15.1256 9.01636 15.2068 9.01268 15.2406 9.01268H15.3017V8.58013C15.0015 8.58197 14.8463 8.58565 14.7633 8.59025C14.6812 8.59393 14.5434 8.60406 14.4576 8.61234ZM16.2964 0.0285299C16.3092 0.043255 16.802 0.602808 18.4638 2.48762H26.5172L26.5127 15.4687L17.9071 15.4733L16.2599 13.8121L16.259 6.91343C16.2581 2.74163 16.2608 0.0119641 16.2654 0.00828286C16.2699 0.00368127 16.2845 0.0128845 16.2964 0.0285299ZM19.5716 7.26591C19.5333 7.32757 19.4703 7.43525 19.4311 7.50335C19.3919 7.57146 19.3125 7.72239 19.2531 7.83927C19.1947 7.95523 19.1272 8.09604 19.1035 8.15218C19.0788 8.2074 19.0369 8.31323 19.0095 8.38686C18.9821 8.46049 18.9483 8.5654 18.9337 8.62154C18.9201 8.67676 18.9036 8.75959 18.8982 8.8056C18.8918 8.8507 18.8909 8.905 18.8945 8.92525C18.8982 8.94641 18.9128 8.97494 18.9292 8.99243C18.9447 9.00992 18.9794 9.03753 19.0067 9.05409C19.035 9.07066 19.0843 9.0955 19.1163 9.10931C19.1491 9.12311 19.1865 9.13784 19.1984 9.14244L19.2212 9.15072C19.1838 9.18938 19.1518 9.23447 19.1254 9.27497C19.0998 9.31546 19.0542 9.39829 19.0259 9.45903C18.9967 9.51977 18.9538 9.61917 18.9319 9.67991C18.9091 9.74065 18.8744 9.84833 18.8544 9.91919C18.8334 9.99006 18.8023 10.1143 18.785 10.1953C18.7677 10.2763 18.7439 10.3941 18.7339 10.4576C18.7239 10.5211 18.7047 10.6536 18.6928 10.7521C18.68 10.8506 18.66 10.9684 18.6472 11.0144C18.6353 11.0595 18.6034 11.1589 18.5778 11.2352C18.5514 11.3107 18.5039 11.435 18.4711 11.5113C18.4382 11.5868 18.3725 11.7276 18.3251 11.8242C18.2776 11.92 18.2073 12.0552 18.1699 12.1234C18.1316 12.1915 18.0595 12.3157 18.0093 12.3994C17.9591 12.4832 17.8669 12.6295 17.8049 12.7262C17.7419 12.8219 17.6306 12.9857 17.5576 13.0897C17.4837 13.1937 17.3815 13.3327 17.3304 13.3998C17.2793 13.467 17.2364 13.525 17.2364 13.5287C17.2364 13.5324 17.4536 13.7551 17.7182 14.022L18.1991 14.5088L19.0369 13.4072L19.8317 12.1372C20.4751 10.8892 20.6795 10.4999 20.7014 10.4668C20.7233 10.4336 20.7726 10.3711 20.8118 10.3269C20.8511 10.2836 20.9113 10.2211 20.946 10.1888C20.9816 10.1566 21.0409 10.1069 21.0783 10.0784C21.1166 10.0499 21.1741 10.0121 21.206 9.99374C21.2389 9.97625 21.29 9.95508 21.3201 9.94588L21.3749 9.93023C21.4597 10.0232 21.5118 10.095 21.5437 10.1502C21.5766 10.2054 21.6322 10.3168 21.6678 10.3978C21.7043 10.4787 21.7572 10.6094 21.7855 10.6877C21.8147 10.7659 21.8604 10.8984 21.8877 10.9822C21.9151 11.0659 21.9653 11.2352 22 11.3595C22.0356 11.4837 22.073 11.6218 22.0849 11.6678L22.1068 11.7506C23.0467 12.7731 23.325 13.0704 23.3323 13.0704C23.3406 13.0713 23.3798 13.0474 23.4209 13.0188C23.4619 12.9894 23.5377 12.9277 23.5879 12.8826C23.639 12.8366 23.7229 12.7529 23.774 12.6949C23.8251 12.6378 23.9045 12.5421 23.9511 12.4832C23.9985 12.4243 24.0807 12.312 24.1345 12.2338C24.1893 12.1556 24.2705 12.0313 24.3161 11.9577C24.3608 11.8841 24.432 11.7644 24.4731 11.6908C24.515 11.6172 24.5953 11.4662 24.6519 11.3549C24.7085 11.2435 24.7925 11.0696 24.839 10.9684C24.8846 10.8671 24.954 10.7097 24.9914 10.6186C25.0288 10.5275 25.0845 10.3886 25.1146 10.3103C25.1438 10.2321 25.1976 10.0867 25.2323 9.98821C25.2679 9.88974 25.3218 9.72408 25.3537 9.62009C25.3856 9.51609 25.4303 9.35688 25.4532 9.26576C25.476 9.17465 25.5052 9.04581 25.517 8.98046C25.5298 8.9142 25.5472 8.80929 25.5563 8.74578C25.5672 8.66664 25.5718 8.57092 25.5718 8.44208C25.5718 8.28378 25.5691 8.23961 25.5526 8.17059C25.5426 8.12457 25.5234 8.06291 25.5097 8.03254C25.486 7.97824 25.486 7.97732 25.4568 7.98376C25.4404 7.98836 25.298 8.00953 25.1392 8.03162C24.9814 8.05463 24.7286 8.08776 24.578 8.10524C24.4274 8.12273 24.2166 8.14574 24.108 8.15586C24.0003 8.16598 23.826 8.18071 23.7202 8.18807C23.6152 8.19635 23.4117 8.20648 23.2685 8.21292C23.1234 8.21844 22.9089 8.2212 22.783 8.21752C22.6589 8.21476 22.5065 8.2074 22.4453 8.2028C22.3842 8.19727 22.2838 8.18715 22.2236 8.17887C22.1633 8.17151 22.0675 8.15402 22.0091 8.14114C21.9516 8.12825 21.8713 8.10616 21.8312 8.09144C21.791 8.07671 21.7527 8.06015 21.7445 8.05555C21.7335 8.04818 21.7408 8.02149 21.7928 7.87424C21.8266 7.77853 21.8531 7.7003 21.8522 7.69938C21.8503 7.69846 21.5291 7.56318 21.1376 7.39844C20.7461 7.23278 20.4258 7.09934 20.4258 7.10026C20.4249 7.1021 20.3966 7.15179 20.3619 7.21069C20.3035 7.30917 20.2971 7.31745 20.2798 7.30825C20.2698 7.30273 20.1922 7.25947 20.1064 7.21345C20.0215 7.16652 19.9093 7.1067 19.8582 7.08093C19.8071 7.05516 19.756 7.03399 19.7459 7.03399C19.7341 7.03399 19.7131 7.05424 19.6848 7.09289C19.6611 7.12602 19.61 7.20333 19.5716 7.26591ZM5.48242 16.0071H14.0925L15.7306 17.6591V24.3286C15.7306 27.997 15.7288 30.9991 15.7261 30.9991C15.7242 30.9991 15.7105 30.9908 15.6968 30.9816C15.6832 30.9724 15.6019 30.9264 15.5162 30.8794C15.4313 30.8325 15.2752 30.7497 15.1694 30.6945C15.0644 30.6402 14.9002 30.5582 14.8044 30.5132C14.7094 30.4681 14.5598 30.3981 14.4713 30.3595C14.3837 30.3199 14.1966 30.2417 14.056 30.1846C13.9155 30.1275 13.7211 30.0521 13.6226 30.0162C13.5249 29.9812 13.3543 29.9223 13.2439 29.8855C13.1334 29.8487 12.9391 29.7889 12.8104 29.752C12.6826 29.7143 12.4654 29.6545 12.3267 29.6186C12.1889 29.5827 11.9407 29.5201 11.7746 29.4796C11.6094 29.4391 11.3402 29.3747 11.1769 29.337C11.0144 29.2983 10.7352 29.2348 10.5563 29.1953C10.3784 29.1557 10.101 29.0959 9.94034 29.0618C9.77973 29.0278 9.52329 28.9735 9.36998 28.9403C9.21758 28.9081 9.01773 28.8621 8.92738 28.8391C8.83704 28.8161 8.70198 28.7774 8.62624 28.7526C8.5514 28.7277 8.41817 28.679 8.32965 28.644C8.24204 28.609 8.10698 28.5529 8.0285 28.5188C7.95093 28.4848 7.82956 28.4286 7.75929 28.3955C7.68902 28.3614 7.57221 28.2998 7.49921 28.2593C7.42711 28.2179 7.32582 28.159 7.27563 28.1268C7.22544 28.0955 7.14148 28.0384 7.08855 28.0007C7.03653 27.962 6.95623 27.9013 6.9106 27.8654C6.86588 27.8286 6.77736 27.7513 6.7144 27.6933C6.65234 27.6353 6.55652 27.5387 6.50177 27.4779C6.44792 27.4181 6.36579 27.3196 6.31925 27.2598C6.27362 27.2 6.21339 27.119 6.18693 27.0804C6.16046 27.0408 6.1048 26.9534 6.06464 26.8853C6.02449 26.8172 5.95696 26.6901 5.91498 26.6046C5.873 26.5181 5.8146 26.3855 5.78448 26.3101C5.75528 26.2337 5.71148 26.1122 5.68775 26.0386C5.66494 25.9649 5.62752 25.8306 5.60562 25.7395C5.5828 25.6483 5.55269 25.4993 5.53809 25.4081C5.52258 25.317 5.50432 25.1863 5.49702 25.1182C5.48425 25.0087 5.48242 24.4648 5.48242 20.5001V16.0071ZM13.7987 17.0471C13.7887 17.0701 13.7476 17.1658 13.7065 17.2587L13.6317 17.429C13.3242 17.4695 13.2201 17.4851 13.201 17.4897C13.1818 17.4943 13.1535 17.51 13.138 17.5238C13.1225 17.5376 13.1042 17.5597 13.0978 17.5716C13.0915 17.5845 13.075 17.6729 13.0623 17.7677C13.0495 17.8625 13.033 17.9517 13.0267 17.9655C13.0194 17.9793 12.9993 18.0042 12.981 18.0208C12.9628 18.0373 12.9345 18.053 12.9181 18.0557C12.9016 18.0576 12.8186 18.0695 12.7328 18.0815C12.6206 18.0962 12.5695 18.1073 12.5457 18.1211C12.5284 18.1321 12.5056 18.1579 12.4937 18.1809C12.4782 18.2113 12.4654 18.2757 12.4399 18.4551C12.4207 18.5932 12.3997 18.711 12.3888 18.7404C12.3787 18.769 12.3605 18.8058 12.3495 18.8233C12.3386 18.8417 12.3158 18.8693 12.2984 18.8849C12.282 18.9015 12.2473 18.9236 12.2218 18.9346C12.1898 18.9484 12.1588 18.9549 12.1168 18.954C12.0758 18.954 12.032 18.9448 11.9708 18.9245C11.9234 18.9079 11.8266 18.8702 11.7564 18.8398C11.6861 18.8104 11.4853 18.7138 11.3092 18.6263C11.134 18.5389 10.904 18.4211 10.7982 18.364C10.6932 18.3079 10.5846 18.2545 10.5563 18.2472C10.5235 18.237 10.4888 18.2333 10.4514 18.237C10.4213 18.2398 10.3802 18.249 10.3601 18.2573C10.34 18.2656 10.3099 18.2812 10.2935 18.2922C10.2771 18.3033 10.2032 18.387 10.1302 18.4781C10.0562 18.5693 9.9449 18.7064 9.88194 18.7819C9.81988 18.8582 9.71676 18.9806 9.65379 19.0533C9.59082 19.127 9.47401 19.2613 9.39371 19.3525C9.3134 19.4436 9.16465 19.6074 9.06427 19.716C8.96389 19.8246 8.76495 20.0335 8.62167 20.1798C8.47931 20.3261 8.26303 20.5397 8.14257 20.6547C8.02211 20.7697 7.87245 20.9115 7.80948 20.9685C7.74651 21.0265 7.62971 21.1323 7.5494 21.2032C7.46909 21.2741 7.32126 21.4029 7.22087 21.4885C7.12049 21.5741 6.92611 21.7361 6.7874 21.8474C6.6496 21.9579 6.49081 22.0849 6.43424 22.1272C6.37857 22.1705 6.33476 22.2082 6.33842 22.211C6.34207 22.2137 6.43332 22.2284 6.54101 22.2423C6.69523 22.2625 6.75637 22.2671 6.8239 22.2625C6.87227 22.2588 6.94619 22.2505 6.98817 22.2432C7.03106 22.2358 7.10224 22.2192 7.14604 22.2064C7.18985 22.1935 7.27654 22.1603 7.33768 22.1337C7.39882 22.107 7.50286 22.0545 7.56765 22.0177C7.63336 21.9809 7.7383 21.9165 7.80036 21.875C7.86332 21.8327 7.97192 21.7517 8.04219 21.6947C8.11246 21.6367 8.33695 21.4508 8.53954 21.2805C8.74304 21.1103 8.99126 20.9032 9.09165 20.8204C9.19203 20.7375 9.37728 20.5866 9.5023 20.4863C9.62824 20.385 9.82079 20.2341 9.93121 20.1504C10.0416 20.0666 10.194 19.9571 10.2689 19.9065C10.3446 19.8559 10.4386 19.7988 10.4788 19.7786C10.5189 19.7592 10.5682 19.7408 10.5883 19.7381C10.6166 19.7335 10.6284 19.7362 10.6385 19.7491C10.6476 19.7592 10.6521 19.7832 10.6521 19.8117C10.6512 19.8421 10.6403 19.8853 10.6211 19.9323C10.6047 19.9727 10.5673 20.0501 10.5362 20.1025C10.5061 20.1559 10.4359 20.2682 10.3802 20.351C10.3245 20.4347 10.2105 20.594 10.1274 20.7053C10.0444 20.8167 9.90292 21.0035 9.81167 21.1195C9.72132 21.2363 9.55888 21.4416 9.4512 21.575C9.34443 21.7094 9.10807 22.0039 8.92738 22.2284C8.74578 22.4539 8.51855 22.7401 8.42182 22.8635C8.32509 22.9877 8.17269 23.1865 8.08417 23.3052C7.99565 23.4249 7.87793 23.5905 7.82226 23.6733C7.76659 23.7571 7.69724 23.8666 7.66895 23.9172C7.63974 23.9678 7.60324 24.0406 7.58864 24.0783C7.57313 24.1169 7.55852 24.1685 7.5567 24.1933C7.55305 24.232 7.55579 24.243 7.57221 24.2577C7.59046 24.2752 7.59503 24.2752 7.62971 24.2642C7.65161 24.2577 7.69541 24.2366 7.72735 24.2191C7.7602 24.2007 7.82591 24.1584 7.87336 24.1261C7.92173 24.093 8.00934 24.0286 8.06957 23.9835C8.1298 23.9375 8.24934 23.8436 8.33421 23.7755C8.41999 23.7065 8.62532 23.5362 8.7905 23.3973C8.95659 23.2583 9.31158 22.9564 9.57987 22.7263C9.84908 22.4963 10.1876 22.2082 10.3327 22.0858C10.4788 21.9634 10.6923 21.7876 10.8073 21.6937C10.9232 21.6008 11.0938 21.4664 11.186 21.3965C11.2791 21.3256 11.4123 21.2299 11.4826 21.183C11.5529 21.136 11.6478 21.079 11.6925 21.056C11.739 21.033 11.7956 21.0109 11.8221 21.0072C11.8631 21.0007 11.8723 21.0026 11.8887 21.0182C11.8996 21.0293 11.9078 21.0486 11.9078 21.0642C11.9078 21.0799 11.9005 21.1149 11.8932 21.1425C11.885 21.171 11.8567 21.2373 11.8303 21.2897C11.8038 21.3431 11.7554 21.4324 11.7226 21.4876C11.6897 21.5437 11.6003 21.6799 11.5237 21.7913C11.4479 21.9027 11.3475 22.0435 11.3019 22.1042C11.2563 22.1649 11.0674 22.4116 10.8812 22.6518C10.6959 22.8929 10.4578 23.2049 10.3528 23.3466C10.2479 23.4884 10.1219 23.6651 10.0727 23.7378C10.0243 23.8114 9.9522 23.9255 9.91296 23.9909C9.87372 24.0571 9.81258 24.1685 9.77608 24.2393C9.74049 24.3102 9.69394 24.4124 9.67387 24.4648C9.65288 24.5182 9.6255 24.5992 9.61181 24.6443C9.59904 24.6903 9.57805 24.775 9.56618 24.8329C9.55341 24.8918 9.53881 24.9968 9.53333 25.0676C9.52512 25.1661 9.52512 25.2287 9.53333 25.3327C9.53881 25.4072 9.54702 25.4772 9.55158 25.4891C9.55797 25.5075 9.63006 25.4247 10.1803 24.7731C10.6786 24.1823 10.8876 23.943 11.238 23.562L11.6742 23.0871C12.7593 22.0784 12.8688 21.9818 13.107 21.7922C13.2575 21.6726 13.3972 21.5585 13.4172 21.5391C13.4373 21.5198 13.4656 21.4839 13.4784 21.4591C13.4921 21.4342 13.5067 21.3919 13.5112 21.3633C13.5158 21.3357 13.5167 21.2879 13.5121 21.2575C13.5085 21.2253 13.493 21.1793 13.4766 21.1471C13.4601 21.1167 13.4008 21.0053 13.3451 20.8986C13.2886 20.7928 13.1891 20.5976 13.1234 20.466C13.0577 20.3344 12.9728 20.155 12.9336 20.0657C12.8953 19.9773 12.8487 19.8614 12.8305 19.808C12.804 19.7289 12.7976 19.6985 12.7976 19.6378C12.7976 19.5789 12.8022 19.554 12.8204 19.5144C12.8341 19.4831 12.8597 19.4491 12.8879 19.4242C12.9135 19.4022 12.9564 19.3755 12.9838 19.3644C13.0148 19.3534 13.1353 19.3313 13.2895 19.3101C13.5003 19.2807 13.5505 19.2705 13.576 19.2531C13.5934 19.242 13.6144 19.2208 13.6235 19.2052C13.6353 19.1868 13.6481 19.1233 13.6636 19.0073C13.6764 18.9144 13.6947 18.8214 13.7029 18.8012C13.712 18.7819 13.7303 18.7561 13.7439 18.7441C13.7576 18.7322 13.7841 18.7184 13.8033 18.7138C13.8224 18.7092 13.9055 18.6963 13.9876 18.6852C14.0816 18.6723 14.1519 18.6585 14.1729 18.6475C14.1938 18.6364 14.2157 18.6153 14.2285 18.5913C14.2468 18.5591 14.2559 18.5113 14.2796 18.3355C14.296 18.2168 14.3116 18.1165 14.3152 18.1137C14.318 18.1109 14.4101 18.0668 14.5196 18.0171C14.6291 17.9674 14.7186 17.9241 14.7186 17.9214C14.7186 17.9195 14.5151 17.7124 14.2668 17.4612L13.816 17.0056L13.7987 17.0471ZM17.908 16.0071H26.5181V20.4964C26.5181 23.631 26.5154 25.0087 26.5081 25.063C26.5026 25.1063 26.4908 25.202 26.4807 25.2747C26.4707 25.3483 26.4488 25.479 26.4314 25.5646C26.4141 25.6511 26.3831 25.7818 26.363 25.8545C26.3438 25.9281 26.3064 26.0505 26.2809 26.126C26.2553 26.2024 26.2088 26.3248 26.1777 26.3975C26.1476 26.4711 26.092 26.5917 26.0545 26.6644C26.0171 26.738 25.9578 26.8457 25.9231 26.9037C25.8875 26.9626 25.8291 27.0537 25.7917 27.1061C25.7552 27.1595 25.6904 27.2469 25.6485 27.2994C25.6056 27.3528 25.5289 27.4421 25.4778 27.4973C25.4258 27.5534 25.34 27.6399 25.2871 27.6896C25.2341 27.7393 25.1365 27.824 25.0717 27.8764C25.006 27.9298 24.8892 28.0154 24.8116 28.0679C24.7341 28.1194 24.6245 28.1884 24.5698 28.2206C24.5141 28.2519 24.3937 28.3164 24.3006 28.3633C24.2075 28.4102 24.0432 28.4866 23.9356 28.5335C23.8279 28.5796 23.6755 28.6431 23.5979 28.6725C23.5203 28.7029 23.399 28.7452 23.3287 28.7673C23.2584 28.7894 23.117 28.828 23.0139 28.8538C22.9107 28.8787 22.7565 28.9146 22.6716 28.932C22.5859 28.9505 22.3477 29.0011 22.1423 29.0443C21.9361 29.0876 21.6103 29.1584 21.4169 29.2008C21.2234 29.244 20.9159 29.3149 20.7324 29.3572C20.549 29.4005 20.2351 29.4769 20.0343 29.5266C19.8335 29.5772 19.5826 29.6416 19.4776 29.6701C19.3718 29.6987 19.2103 29.7447 19.1172 29.7723C19.0241 29.799 18.8416 29.857 18.7111 29.9011C18.5806 29.9444 18.3707 30.018 18.2457 30.0659C18.1197 30.1128 17.9336 30.1864 17.8304 30.2288C17.7273 30.272 17.553 30.3475 17.4426 30.3972C17.3322 30.4469 17.104 30.5573 16.9361 30.642C16.7682 30.7267 16.5483 30.8417 16.4479 30.8978C16.3475 30.954 16.2645 31 16.2626 31C16.2617 30.9991 16.2599 27.9998 16.2563 17.6683L17.908 16.0071ZM19.0442 16.8998L18.2 17.013L17.2017 18.018C17.1926 18.1036 17.1825 18.1864 17.1725 18.2573C17.1624 18.3281 17.1323 18.5297 17.1049 18.7036C17.0776 18.8785 17.0429 19.1122 17.0274 19.2236C17.0128 19.335 16.9909 19.5071 16.9808 19.6055C16.9681 19.7243 16.9598 19.8789 16.9571 20.0611C16.9535 20.2415 16.9553 20.3804 16.9626 20.4614C16.969 20.5305 16.9808 20.6299 16.9909 20.6823C17 20.7357 17.0155 20.8121 17.0256 20.8526C17.0365 20.8931 17.0575 20.9639 17.0739 21.009C17.0894 21.055 17.1205 21.1296 17.1433 21.1747C17.1661 21.2207 17.2099 21.2952 17.2409 21.3403C17.271 21.3864 17.3313 21.4591 17.3742 21.5014C17.417 21.5447 17.4882 21.6054 17.5339 21.6367C17.5786 21.6671 17.6525 21.7112 17.6981 21.7342C17.7428 21.7572 17.8168 21.7885 17.8624 21.8051C17.9071 21.8207 17.9838 21.8438 18.0312 21.8557C18.0787 21.8677 18.1772 21.887 18.2502 21.899C18.3643 21.9165 18.42 21.9192 18.6518 21.9192C18.8507 21.9201 18.9611 21.9155 19.0761 21.9036C19.161 21.8944 19.2951 21.8769 19.3727 21.864C19.4503 21.852 19.5178 21.8419 19.5233 21.8419C19.5287 21.8419 19.5306 21.8806 19.5287 21.9459C19.526 22.0195 19.5297 22.0692 19.5406 22.118C19.5488 22.1567 19.5671 22.2119 19.5817 22.2423C19.5954 22.2726 19.6255 22.3223 19.6474 22.3518C19.6693 22.3812 19.714 22.4263 19.7468 22.4512C19.7797 22.476 19.8308 22.5091 19.8609 22.5229C19.891 22.5377 19.944 22.5561 19.9796 22.5644C20.027 22.5763 20.0726 22.5791 20.1566 22.5772L20.2698 22.5736C20.5207 22.8377 20.6375 22.9638 20.6914 23.0245C20.7461 23.0853 20.8419 23.1975 20.9049 23.273C20.967 23.3494 21.0582 23.4654 21.1075 23.5307C21.1559 23.597 21.227 23.7 21.2663 23.7608C21.3046 23.8215 21.3584 23.9172 21.3849 23.9725C21.4123 24.0286 21.4433 24.1013 21.4543 24.1335C21.4661 24.1685 21.4762 24.2265 21.478 24.2716C21.4807 24.3157 21.478 24.3663 21.4725 24.3866C21.467 24.4068 21.4424 24.4483 21.4187 24.4786C21.3913 24.5136 21.3594 24.5412 21.3302 24.5569C21.2937 24.5753 21.2718 24.5799 21.2207 24.5799C21.1805 24.5789 21.1312 24.5716 21.0883 24.5578C21.0509 24.5467 20.9852 24.5191 20.9423 24.497C20.8994 24.4759 20.8273 24.4335 20.7826 24.4032C20.737 24.3728 20.6631 24.3194 20.6184 24.2835C20.5727 24.2485 20.4888 24.1786 20.4313 24.128C20.3738 24.0783 20.2396 23.9504 20.1338 23.8436C20.0279 23.7378 19.9093 23.6163 19.8691 23.573C19.8299 23.5307 19.7833 23.4902 19.7669 23.4838C19.7505 23.4764 19.7122 23.4709 19.6802 23.4709C19.6364 23.4709 19.6109 23.4773 19.5662 23.4985C19.5351 23.5141 19.4895 23.5463 19.4658 23.5703C19.4411 23.5942 19.4101 23.6384 19.3946 23.6687C19.3727 23.7157 19.3681 23.735 19.3681 23.793C19.3681 23.8436 19.3727 23.8712 19.3855 23.8942C19.3955 23.9126 19.4995 24.024 19.6182 24.1427C19.7368 24.2624 19.8938 24.4133 19.9659 24.4795C20.0389 24.5449 20.1347 24.6305 20.1803 24.6682C20.225 24.7069 20.2971 24.7648 20.34 24.798C20.3829 24.8311 20.4605 24.8872 20.5134 24.9231C20.5663 24.9581 20.6457 25.0087 20.6914 25.0336C20.7361 25.0593 20.8146 25.0971 20.8647 25.1173C20.9149 25.1376 20.9925 25.1633 21.0381 25.1753C21.102 25.191 21.1458 25.1956 21.2343 25.1946C21.3183 25.1946 21.3667 25.1891 21.4169 25.1762C21.4543 25.1661 21.5163 25.1431 21.5537 25.1247C21.5912 25.1072 21.6569 25.0676 21.6998 25.0373C21.7426 25.006 21.8102 24.9489 21.8494 24.9093C21.8896 24.8698 21.9452 24.8026 21.9735 24.7593C22.0009 24.717 22.0356 24.6507 22.0493 24.6121C22.063 24.5743 22.0803 24.5145 22.0876 24.4786C22.0949 24.4437 22.1013 24.3645 22.1013 24.3038C22.1013 24.243 22.0949 24.1565 22.0876 24.1105C22.0794 24.0654 22.063 23.9909 22.0502 23.9448C22.0374 23.8997 22.0082 23.8169 21.9854 23.7608C21.9626 23.7056 21.9224 23.6163 21.895 23.5629C21.8686 23.5105 21.8184 23.4203 21.7846 23.3632C21.7499 23.3061 21.6879 23.2086 21.645 23.1469C21.6021 23.0853 21.5291 22.9849 21.4816 22.9242C21.4342 22.8625 21.3584 22.7696 21.3137 22.7162C21.269 22.6638 21.1677 22.5506 21.0892 22.465C21.0108 22.3794 20.8967 22.2625 20.8346 22.2045L20.7233 22.0996C20.737 22.0462 20.7416 21.9938 20.7416 21.9478C20.7416 21.9027 20.7352 21.8401 20.7279 21.8097C20.7206 21.7793 20.6987 21.7241 20.6795 21.6855C20.6558 21.6367 20.6266 21.5971 20.5773 21.5474C20.5399 21.5097 20.486 21.4655 20.4587 21.4489C20.4313 21.4324 20.3774 21.4075 20.34 21.3946C20.278 21.3716 20.2588 21.3698 20.1411 21.3689C20.0699 21.3689 20.0115 21.3661 20.0115 21.3633C20.0115 21.3615 20.1329 21.2373 20.2807 21.0873L20.5499 20.8158L23.1918 23.4801C23.3095 23.862 23.3506 23.989 23.3597 24.0093C23.3707 24.035 23.3853 24.0516 23.409 24.0626C23.4273 24.0709 23.451 24.0783 23.461 24.0783C23.4711 24.0783 23.4902 24.0746 23.5039 24.0691C23.5176 24.0636 23.8041 23.7829 24.1391 23.4451C24.474 23.1074 24.755 22.8202 24.7623 22.8064C24.7687 22.7926 24.7751 22.7678 24.7751 22.7512C24.7751 22.7346 24.7678 22.7089 24.7587 22.6932C24.7496 22.6785 24.7277 22.6592 24.7103 22.6509C24.693 22.6426 24.5671 22.6012 24.4311 22.5588L24.1819 22.4815L21.5401 19.8181C21.8731 19.4785 21.9845 19.358 22.0027 19.3294C22.021 19.3018 22.0502 19.2485 22.0684 19.2098C22.0867 19.1721 22.1086 19.1076 22.1186 19.0672C22.1287 19.0267 22.1414 18.9484 22.146 18.8923C22.1515 18.8371 22.156 18.7395 22.156 18.676C22.156 18.6134 22.1497 18.5076 22.1423 18.4413C22.1341 18.376 22.1168 18.272 22.1022 18.2113C22.0876 18.1505 22.0602 18.0594 22.042 18.0088C22.0237 17.9582 21.9836 17.8698 21.9534 17.8109C21.9233 17.7529 21.8759 17.672 21.8476 17.6315C21.8202 17.591 21.77 17.5247 21.7363 17.4842C21.7025 17.4437 21.6459 17.3839 21.6121 17.3508C21.5775 17.3176 21.5099 17.2606 21.4625 17.2238C21.415 17.186 21.3411 17.1345 21.2982 17.1078C21.2553 17.0811 21.1778 17.0369 21.1248 17.0102C21.0719 16.9836 20.9879 16.9458 20.9378 16.9265C20.8876 16.9072 20.8118 16.8805 20.7689 16.8676C20.726 16.8556 20.6567 16.8372 20.6138 16.8271C20.5709 16.817 20.4933 16.8022 20.4404 16.794C20.3866 16.7857 20.2661 16.7783 20.1666 16.7765C20.069 16.7746 19.9659 16.7756 19.9385 16.7792C19.9111 16.7829 19.5087 16.8372 19.0442 16.8998ZM12.8524 10.049C12.9108 10.0508 12.9829 10.0609 13.0257 10.071C13.0659 10.0821 13.1252 10.1033 13.1581 10.118C13.1909 10.1336 13.242 10.164 13.2721 10.1861C13.3023 10.2082 13.3461 10.2459 13.3689 10.2708C13.3926 10.2956 13.4264 10.3361 13.4455 10.3609C13.4638 10.3867 13.4948 10.4383 13.514 10.476C13.5322 10.5146 13.8179 11.2233 14.7459 13.559L14.3052 14.0109C14.0633 14.2585 13.8608 14.46 13.8562 14.4582C13.8507 14.4564 13.1508 14.1867 12.3003 13.8582C11.4497 13.5305 10.7325 13.2535 10.7078 13.2425C10.6823 13.2314 10.633 13.2038 10.5983 13.1808C10.5627 13.1578 10.5098 13.1164 10.4806 13.0897C10.4514 13.0621 10.4067 13.0087 10.3829 12.97C10.3574 12.9305 10.3254 12.8642 10.309 12.8136C10.2807 12.7298 10.2798 12.7206 10.2789 12.5743C10.2789 12.4593 10.2826 12.404 10.2953 12.3442C10.3054 12.3019 10.3264 12.2246 10.3428 12.174C10.3592 12.1234 10.3912 12.0387 10.4149 11.9853C10.4377 11.9328 10.4815 11.8436 10.5116 11.7874C10.5426 11.7322 10.6056 11.6282 10.6531 11.5574C10.6996 11.4865 10.7781 11.3788 10.8264 11.3181C10.8739 11.2573 10.9615 11.1543 11.0208 11.0889C11.0792 11.0236 11.1851 10.9159 11.2554 10.8506C11.3256 10.7852 11.436 10.6877 11.5018 10.6352C11.5665 10.5827 11.6843 10.4962 11.7618 10.4438C11.8394 10.3922 11.9462 10.326 11.9991 10.2974C12.052 10.2689 12.1342 10.2275 12.1816 10.2054C12.2291 10.1833 12.3094 10.1511 12.3596 10.1336C12.4098 10.1161 12.4873 10.0922 12.533 10.0821C12.5777 10.071 12.6461 10.0582 12.6835 10.0536C12.7209 10.049 12.7967 10.0462 12.8524 10.049ZM20.4304 17.2532C20.4632 17.2569 20.5253 17.2679 20.5682 17.2771C20.6111 17.2863 20.6786 17.3047 20.7187 17.3186C20.7589 17.3324 20.8346 17.3636 20.8876 17.3885C20.9405 17.4143 21.0035 17.4483 21.029 17.464C21.0536 17.4796 21.1075 17.5183 21.1476 17.5495C21.1878 17.5808 21.2599 17.6471 21.3073 17.6977C21.3548 17.7474 21.4205 17.8275 21.4524 17.8763C21.4853 17.9241 21.5337 18.0069 21.5592 18.0594C21.5857 18.1128 21.624 18.2057 21.6441 18.2665C21.6642 18.3272 21.6888 18.4183 21.6998 18.4689C21.7098 18.5196 21.7207 18.6024 21.7244 18.653C21.729 18.734 21.7271 18.7506 21.7098 18.7911C21.6943 18.8279 21.6459 18.8822 21.4689 19.0607C21.3128 19.2181 21.2416 19.2834 21.227 19.2834C21.2161 19.2834 21.2042 19.2788 21.2006 19.2724C21.1969 19.2659 21.1942 19.1261 21.1933 18.9613C21.1924 18.7285 21.1887 18.642 21.1759 18.5702C21.1677 18.5196 21.1504 18.4349 21.1376 18.3815C21.1248 18.3291 21.1002 18.2416 21.0829 18.1882C21.0646 18.1358 21.0281 18.0465 21.0016 17.9904C20.9752 17.9352 20.9204 17.8394 20.8803 17.7787C20.8401 17.718 20.7753 17.6333 20.7352 17.591C20.6959 17.5486 20.6293 17.487 20.5864 17.4529C20.5435 17.4198 20.476 17.3738 20.4358 17.3508C20.3902 17.3241 20.3619 17.302 20.3601 17.2909C20.3583 17.2808 20.3601 17.267 20.3628 17.2596C20.3683 17.2504 20.3829 17.2486 20.4304 17.2532Z" fill="black"/>
</svg>
