<?xml version="1.0"?>
<svg xmlns="http://www.w3.org/2000/svg" width="191" height="51" fill="none">
 <path fill="#004571"
       fill-rule="evenodd"
       d="m23.574 0 .007 21.387-2.55 2.572H7.713V3.852h6.23c5.915 0 6.231-.002 6.255-.024.014-.015.779-.881 1.7-1.927L23.574 0Zm-3.903 9.773c-.014.386-.025.875-.035 1.335l-.018.835c-.318.094-.502.152-.615.191-.167.057-.208.067-.22.051-.006-.011-.304-.383-.659-.828l-.647-.808c-.29.14-.582.287-.835.415l-.46.234c.465 1.469.604 1.908.61 1.923.005.025-.023.047-.187.15-.107.066-.281.178-.386.25a11.56 11.56 0 0 1-.207.14c-.012.005-.269-.209-.707-.59l-.69-.6c-.055.053-.318.29-.621.56a12.7 12.7 0 0 0-.55.504c0 .007.235.319.521.69.286.373.527.686.536.696.013.014-.018.053-.133.171-.082.084-.202.214-.27.288-.066.074-.176.202-.246.285a1.29 1.29 0 0 1-.14.154c-.008.001-.387-.137-.842-.31a64.395 64.395 0 0 0-.828-.31c0 .002-.17.258-.377.57-.208.31-.376.572-.373.577.002.007.26.255.575.552.315.296.6.566.636.598l.064.062c-.047.074-.13.236-.215.409-.085.172-.192.397-.239.5-.06.135-.089.186-.104.182a80.135 80.135 0 0 0-.848-.141 38.663 38.663 0 0 0-.828-.131c-.002.001-.108.336-.236.744-.129.407-.23.745-.225.75.006.005.348.193.759.42l.753.41a4.38 4.38 0 0 1-.045.28c-.029.152-.064.364-.08.47a1.315 1.315 0 0 1-.038.2 21.58 21.58 0 0 1-.732.126c-.395.064-.76.122-.808.131l-.089.013v1.368h2.72c.017-.492.029-.742.037-.877a15.374 15.374 0 0 1 .106-1.075c.02-.137.056-.368.083-.513.027-.146.075-.38.108-.52.032-.141.09-.37.128-.506.039-.137.1-.34.135-.45.035-.109.098-.288.138-.398.041-.11.107-.28.148-.378.041-.098.12-.273.174-.392.055-.117.15-.309.212-.427.062-.117.164-.3.226-.406.064-.106.175-.285.25-.4a9.964 9.964 0 0 1 .574-.777 10.006 10.006 0 0 1 1.002-1.033 10.4 10.4 0 0 1 .332-.278 10.336 10.336 0 0 1 .773-.556c.1-.064.267-.166.371-.227a10.63 10.63 0 0 1 1.307-.63 12.436 12.436 0 0 1 .862-.296c.118-.034.301-.085.41-.113.109-.027.29-.068.403-.092.113-.023.3-.059.417-.079a13.861 13.861 0 0 1 .89-.115c.133-.011.413-.027.622-.036.21-.007.497-.008.64-.002l.257.01v-1.354c-.476.017-.738.023-.889.024l-.275.004c-.659-1.44-.855-1.858-.864-1.858l-.616.118-.602.116Zm1.939 3.562a12.01 12.01 0 0 0-1.081.157 11.452 11.452 0 0 0-.904.22 10.114 10.114 0 0 0-1.237.455 10.57 10.57 0 0 0-.96.5 10.482 10.482 0 0 0-.834.563c-.116.089-.291.229-.389.31a9.276 9.276 0 0 0-1.389 1.48 10.788 10.788 0 0 0-.545.818 9.703 9.703 0 0 0-.443.841c-.057.125-.15.34-.204.477a10.518 10.518 0 0 0-.538 1.81c-.025.114-.06.307-.08.428a13.215 13.215 0 0 0-.114.94c-.012.137-.026.408-.031.602l-.012.353h.75a1.724 1.724 0 0 1-.007-.356c.008-.13.023-.302.034-.385.013-.083.039-.217.06-.3.02-.082.06-.213.092-.292.03-.078.08-.183.111-.235.03-.05.085-.13.122-.173.038-.045.09-.1.117-.123.028-.023.082-.063.12-.087a1.02 1.02 0 0 1 .184-.084c.103-.034.133-.037.318-.037a1.1 1.1 0 0 1 .339.037c.075.02.363.127.643.238l2.699 1.062 2.19.86 2.44-2.455c-1.73-4.296-2.247-5.592-2.262-5.65a1.618 1.618 0 0 1-.038-.214.777.777 0 0 1 .166-.54c.034-.043.106-.112.16-.155.055-.043.163-.109.24-.147.078-.039.2-.088.269-.111a3.989 3.989 0 0 1 .607-.137 6.736 6.736 0 0 1 .62-.05h.094v-.67c-.465.003-.705.009-.834.016-.127.006-.34.021-.473.034ZM24.457.045l3.356 3.807h12.47l-.007 20.1-13.325.007-2.55-2.572-.002-10.682c-.001-6.46.003-10.686.01-10.692.007-.007.03.007.048.031Zm5.071 11.205c-.059.096-.156.263-.217.368a14.451 14.451 0 0 0-.507 1.005c-.039.085-.104.25-.146.363a4.647 4.647 0 0 0-.117.364 2.87 2.87 0 0 0-.055.284.776.776 0 0 0-.006.186.229.229 0 0 0 .054.104c.024.027.077.07.12.095a1.863 1.863 0 0 0 .297.137l.035.013a1.3 1.3 0 0 0-.149.192c-.04.063-.11.191-.154.285a4.409 4.409 0 0 0-.265.713c-.033.11-.08.302-.108.427a9.629 9.629 0 0 0-.079.406c-.015.099-.045.304-.063.456-.02.153-.051.335-.07.407-.02.07-.069.223-.108.341-.041.117-.115.31-.166.428-.05.117-.152.335-.226.484-.073.149-.182.358-.24.464-.06.105-.17.298-.249.427-.077.13-.22.356-.316.506-.098.148-.27.402-.383.563a22.51 22.51 0 0 1-.352.48 2.91 2.91 0 0 0-.145.2c0 .005.336.35.746.763l.744.754L28.7 20.76l1.231-1.966c.996-1.932 1.313-2.535 1.347-2.586.034-.052.11-.149.17-.217.061-.067.155-.164.208-.214a2.46 2.46 0 0 1 .403-.302c.051-.027.13-.06.177-.074l.085-.024c.131.144.212.255.261.34.05.086.137.258.192.384.057.125.139.327.182.449.046.12.116.326.159.456a24.242 24.242 0 0 1 .305 1.062l.034.128c1.455 1.583 1.886 2.043 1.898 2.043a.548.548 0 0 0 .137-.08 3.76 3.76 0 0 0 .258-.21c.08-.072.21-.202.288-.291a7.74 7.74 0 0 0 .558-.714 10.959 10.959 0 0 0 .525-.841 15.327 15.327 0 0 0 .566-1.119c.071-.157.178-.4.236-.541.058-.141.145-.357.191-.478.045-.12.129-.346.182-.498a13.04 13.04 0 0 0 .342-1.119 8.53 8.53 0 0 0 .16-.805 3.49 3.49 0 0 0 .024-.47c0-.245-.004-.314-.03-.42a1.318 1.318 0 0 0-.066-.214c-.037-.085-.037-.086-.082-.076a36.804 36.804 0 0 1-2.088.266 26.903 26.903 0 0 1-1.3.088c-.225.01-.557.014-.752.008a12.714 12.714 0 0 1-.523-.023 8.981 8.981 0 0 1-.343-.037 4.226 4.226 0 0 1-.332-.058 2.71 2.71 0 0 1-.276-.077 1.478 1.478 0 0 1-.134-.056c-.017-.011-.006-.053.075-.28.052-.149.093-.27.092-.271a1081.573 1081.573 0 0 0-2.209-.928c-.001.003-.045.08-.099.17-.09.153-.1.166-.127.152l-.268-.147a14.377 14.377 0 0 0-.385-.205.88.88 0 0 0-.174-.073c-.018 0-.05.032-.094.091a5.563 5.563 0 0 0-.176.268ZM7.713 24.785h13.332l2.536 2.558V37.67c0 5.68-.003 10.329-.007 10.329a7.694 7.694 0 0 0-.325-.185 20.304 20.304 0 0 0-2.26-1.076 24.407 24.407 0 0 0-.672-.261 19.802 19.802 0 0 0-1.258-.409 27.492 27.492 0 0 0-.748-.207 67.955 67.955 0 0 0-1.78-.436 75.447 75.447 0 0 0-1.915-.426l-.884-.188a21.57 21.57 0 0 1-.685-.157 8.683 8.683 0 0 1-.466-.134 10.726 10.726 0 0 1-.926-.362c-.12-.053-.308-.14-.417-.19a9.968 9.968 0 0 1-.402-.212 6.904 6.904 0 0 1-.636-.4c-.08-.06-.205-.154-.276-.21a6.617 6.617 0 0 1-.633-.6 7.452 7.452 0 0 1-.282-.337 9.037 9.037 0 0 1-.205-.278 7.684 7.684 0 0 1-.19-.302 7.913 7.913 0 0 1-.231-.435 8.43 8.43 0 0 1-.202-.456 10.143 10.143 0 0 1-.15-.42 7.336 7.336 0 0 1-.232-.976 8.978 8.978 0 0 1-.063-.45c-.02-.169-.023-1.011-.023-7.15v-6.957Zm12.877 1.61-.143.328-.116.264a15.25 15.25 0 0 0-.667.094.27.27 0 0 0-.16.127c-.01.02-.035.156-.055.303-.02.147-.045.285-.055.307a.394.394 0 0 1-.07.085.241.241 0 0 1-.098.054l-.287.04c-.174.023-.253.04-.29.061a.274.274 0 0 0-.08.093c-.024.047-.044.147-.083.425-.03.213-.063.396-.08.441a.774.774 0 0 1-.06.129.451.451 0 0 1-.198.172.364.364 0 0 1-.163.03.717.717 0 0 1-.226-.046 6.192 6.192 0 0 1-.332-.13c-.108-.046-.42-.196-.692-.331a36.1 36.1 0 0 1-.791-.406 3.307 3.307 0 0 0-.375-.181.408.408 0 0 0-.162-.016.596.596 0 0 0-.142.031.712.712 0 0 0-.103.055c-.025.017-.14.146-.253.287a57.062 57.062 0 0 1-.737.891l-.403.463a40.23 40.23 0 0 1-.51.563 34.77 34.77 0 0 1-2.346 2.303 34.943 34.943 0 0 1-1.727 1.43.808.808 0 0 0-.148.13c.006.004.147.027.314.049.239.031.333.038.438.031.075-.006.19-.019.254-.03.067-.011.177-.037.245-.057.068-.02.202-.071.297-.112a4.665 4.665 0 0 0 .716-.401c.097-.066.266-.19.374-.28.11-.089.457-.377.77-.64l.855-.713c.156-.128.443-.362.636-.517.195-.157.493-.39.664-.52.171-.13.407-.3.523-.378.117-.078.263-.167.325-.198a.792.792 0 0 1 .17-.063c.043-.007.062-.003.077.017.015.016.022.053.022.097a.583.583 0 0 1-.048.187 2.434 2.434 0 0 1-.132.264 7.418 7.418 0 0 1-.242.384c-.086.13-.262.376-.39.549-.13.172-.349.462-.49.641-.14.181-.391.499-.558.706-.165.208-.531.664-.811 1.011a50.747 50.747 0 0 0-1.306 1.667c-.137.186-.319.442-.405.57-.086.13-.194.3-.238.378a2.281 2.281 0 0 0-.124.25.77.77 0 0 0-.05.178c-.005.06 0 .077.025.1.028.026.035.026.089.01.034-.01.101-.043.15-.07.052-.029.153-.094.227-.144a11.109 11.109 0 0 0 .714-.543c.132-.107.45-.37.706-.586.257-.215.807-.683 1.222-1.039.417-.356.941-.802 1.166-.992.226-.19.557-.461.735-.607.18-.144.443-.352.586-.46.144-.11.35-.258.46-.33.108-.073.255-.162.324-.197a.884.884 0 0 1 .201-.076c.064-.01.078-.007.103.017.017.018.03.047.03.072a.647.647 0 0 1-.023.12 1.755 1.755 0 0 1-.097.229c-.041.082-.116.22-.167.306a16.165 16.165 0 0 1-.651.955c-.071.094-.364.476-.652.848-.287.373-.655.856-.818 1.076-.162.22-.357.493-.434.605-.075.114-.186.291-.247.392-.06.103-.155.275-.212.385-.055.11-.127.268-.158.349a4.453 4.453 0 0 0-.096.278 3.262 3.262 0 0 0-.121.655c-.013.153-.013.25 0 .41.008.116.02.225.027.243.01.029.122-.1.974-1.109a49.248 49.248 0 0 1 1.638-1.875l.675-.735c1.68-1.562 1.85-1.712 2.219-2.005.233-.186.449-.362.48-.392a.574.574 0 0 0 .095-.124.54.54 0 0 0 .05-.148.63.63 0 0 0 .002-.164.573.573 0 0 0-.055-.171 39.601 39.601 0 0 1-.547-1.055 17.244 17.244 0 0 1-.294-.62 6.97 6.97 0 0 1-.16-.398.69.69 0 0 1-.05-.264.38.38 0 0 1 .035-.191.424.424 0 0 1 .105-.14.64.64 0 0 1 .148-.092c.048-.018.234-.052.473-.085.327-.045.404-.06.444-.088a.26.26 0 0 0 .073-.074c.019-.028.039-.127.063-.306.02-.144.048-.288.06-.32a.322.322 0 0 1 .064-.088.256.256 0 0 1 .092-.047c.03-.007.158-.027.285-.044.146-.02.255-.041.287-.058a.22.22 0 0 0 .086-.087c.029-.05.043-.124.08-.396.025-.184.049-.34.055-.344.004-.004.146-.073.316-.15s.308-.143.308-.148c0-.003-.315-.323-.7-.712l-.697-.706-.027.064Zm6.363-1.61h13.331v6.951c0 4.854-.004 6.987-.015 7.071-.009.067-.027.215-.043.328-.015.114-.05.316-.076.449a7.888 7.888 0 0 1-.233.87 6.76 6.76 0 0 1-.35.833 5.975 5.975 0 0 1-.629.983c-.067.083-.185.22-.265.306-.08.087-.213.221-.295.298a7.363 7.363 0 0 1-.333.29 6.878 6.878 0 0 1-.778.532c-.086.049-.272.149-.416.221a13.695 13.695 0 0 1-1.088.48c-.12.046-.308.112-.417.146a10.6 10.6 0 0 1-.488.134c-.16.038-.398.094-.53.121l-.82.174c-.318.067-.823.177-1.122.242-.3.067-.776.177-1.06.242a64.652 64.652 0 0 0-1.943.484c-.164.045-.414.116-.558.159a20.446 20.446 0 0 0-2.593.968 25.053 25.053 0 0 0-1.54.775c-.156.087-.284.158-.287.158-.002-.001-.004-4.645-.01-20.643l2.558-2.572Zm1.759 1.382-1.307.176-1.546 1.556c-.014.132-.03.26-.045.37-.016.11-.063.422-.105.692a24.952 24.952 0 0 0-.192 1.396c-.02.184-.033.423-.037.705-.006.28-.003.495.009.62a4.482 4.482 0 0 0 .097.606c.017.063.05.172.075.242.024.071.072.187.107.257.036.07.104.186.152.256a1.851 1.851 0 0 0 .453.459c.07.047.184.115.255.151.069.036.183.084.254.11.07.024.188.06.261.078.074.019.226.049.34.067.176.027.262.031.621.031a5.697 5.697 0 0 0 1.116-.085c.12-.019.225-.034.234-.034.008 0 .01.06.008.16a.992.992 0 0 0 .018.267c.013.06.041.146.064.193.021.047.068.124.102.17a.934.934 0 0 0 .514.328.972.972 0 0 0 .274.02l.175-.005c.389.409.57.604.653.698.085.094.233.268.33.385.097.118.238.297.315.399.074.102.185.262.245.356.06.094.143.242.184.328.043.087.09.2.108.249a.872.872 0 0 1 .036.214.72.72 0 0 1-.008.178.548.548 0 0 1-.22.264.312.312 0 0 1-.17.035.759.759 0 0 1-.205-.034 1.59 1.59 0 0 1-.226-.094 2.515 2.515 0 0 1-.247-.145 4.244 4.244 0 0 1-.255-.186c-.07-.054-.2-.162-.29-.24a11.021 11.021 0 0 1-.46-.44 21.819 21.819 0 0 1-.41-.42.75.75 0 0 0-.158-.138.411.411 0 0 0-.311.023.72.72 0 0 0-.155.11.688.688 0 0 0-.11.153.358.358 0 0 0-.042.193c0 .078.007.12.027.157.016.028.177.2.36.384.184.186.427.42.539.522.113.101.261.233.332.292a6.47 6.47 0 0 0 .516.395c.082.054.205.132.275.17.07.04.191.099.269.13.077.032.198.072.268.09.1.024.167.032.304.03.13 0 .205-.009.283-.029a1.418 1.418 0 0 0 .438-.215 1.704 1.704 0 0 0 .424-.43c.042-.066.096-.168.117-.228.021-.058.048-.151.06-.207.01-.054.02-.176.02-.27 0-.094-.01-.228-.02-.3a3.484 3.484 0 0 0-.059-.256 3.394 3.394 0 0 0-.24-.592 6.447 6.447 0 0 0-.171-.309 7.764 7.764 0 0 0-.216-.335 9.305 9.305 0 0 0-.513-.667c-.07-.08-.226-.256-.348-.389a9.04 9.04 0 0 0-.394-.403l-.172-.162a.95.95 0 0 0 .028-.235c0-.07-.01-.167-.021-.214a1.13 1.13 0 0 0-.075-.193.764.764 0 0 0-.158-.213 1.227 1.227 0 0 0-.184-.153 1.16 1.16 0 0 0-.184-.084c-.096-.035-.126-.038-.308-.04-.11 0-.2-.004-.2-.008 0-.003.187-.196.416-.428l.417-.42 4.09 4.125c.183.592.247.788.26.82.018.04.04.065.077.082a.27.27 0 0 0 .08.024.215.215 0 0 0 .067-.014c.021-.008.465-.443.984-.966.518-.523.953-.968.965-.989.01-.021.02-.06.02-.085a.209.209 0 0 0-.026-.09.21.21 0 0 0-.075-.066 8.434 8.434 0 0 0-.432-.142l-.386-.12-4.09-4.124c.515-.526.688-.712.716-.756a1.375 1.375 0 0 0 .222-.677 4.17 4.17 0 0 0 .015-.335c0-.097-.01-.261-.021-.364a3.973 3.973 0 0 0-.062-.356 3.621 3.621 0 0 0-.094-.313 3.048 3.048 0 0 0-.301-.584 3.45 3.45 0 0 0-.172-.229 3.418 3.418 0 0 0-.192-.206 3.63 3.63 0 0 0-.486-.377 4.207 4.207 0 0 0-.269-.15 3.881 3.881 0 0 0-.55-.221 4.306 4.306 0 0 0-.509-.114 4.062 4.062 0 0 0-.424-.027 3.97 3.97 0 0 0-.354.004l-1.384.186ZM19.124 15.56c.09.002.203.018.269.034.062.017.154.05.205.072.05.025.13.072.176.106a1.246 1.246 0 0 1 .375.449c.028.06.47 1.157 1.907 4.774l-.682.7c-.374.383-.688.695-.695.692-.009-.003-1.092-.42-2.41-.93a507.703 507.703 0 0 1-2.465-.953 1.372 1.372 0 0 1-.352-.236 1.098 1.098 0 0 1-.151-.185 1.197 1.197 0 0 1-.115-.243c-.043-.13-.045-.143-.046-.37 0-.178.005-.264.025-.356.016-.066.048-.186.074-.264a3.599 3.599 0 0 1 .261-.599 6.048 6.048 0 0 1 .788-1.082 6.812 6.812 0 0 1 .745-.702 6.016 6.016 0 0 1 .77-.523 3.57 3.57 0 0 1 .558-.254 2.435 2.435 0 0 1 .502-.124c.058-.006.175-.01.261-.006Zm11.734 11.155a2.42 2.42 0 0 1 .447.101c.062.021.18.07.261.108.082.04.18.093.219.117.038.024.122.084.184.133a2.385 2.385 0 0 1 .472.506c.05.073.125.202.165.283a2.961 2.961 0 0 1 .218.634c.015.078.032.207.038.285.007.125.004.151-.023.214-.024.057-.099.14-.373.417-.242.244-.352.345-.374.345-.017 0-.036-.007-.041-.017a6.584 6.584 0 0 1-.012-.482c-.001-.36-.007-.494-.026-.605a4.869 4.869 0 0 0-.06-.292 5.075 5.075 0 0 0-.085-.3 3.8 3.8 0 0 0-.125-.306 2.589 2.589 0 0 0-.413-.619 2.484 2.484 0 0 0-.23-.213 2.5 2.5 0 0 0-.233-.158c-.071-.042-.115-.076-.118-.093a.109.109 0 0 1 .005-.048c.008-.015.03-.018.104-.01Z" clip-rule="evenodd"/><path fill="#004571" d="M55.815 4.202h2.227c.765 0 1.515.015 2.25.045.75.015 1.47.045 2.16.09l-.09 1.553H56.13c-.465 0-.803.12-1.013.36-.21.225-.314.6-.314 1.125V16.6c0 .525.105.907.315 1.147.21.24.547.36 1.012.36h6.233l.09 1.53c-.69.046-1.41.075-2.16.09-.736.015-1.486.023-2.25.023-.75.015-1.493.023-2.228.023-.915 0-1.642-.24-2.182-.72-.54-.495-.81-1.155-.81-1.98V6.903c0-.84.27-1.5.81-1.98s1.267-.72 2.182-.72Zm-2.61 6.548h8.28v1.598h-8.28V10.75Zm20.938-1.958V10.3h-4.005c-.465 0-.803.105-1.013.315-.195.195-.33.547-.405 1.057-.075.66-.165 1.335-.27 2.025-.09.69-.195 1.358-.315 2.003a9.963 9.963 0 0 1-.472 1.733 3.92 3.92 0 0 1-.743 1.327c-.315.36-.697.63-1.147.81-.435.18-.953.277-1.553.293l-.202-1.463c.405-.105.727-.225.967-.36.255-.135.45-.3.585-.495.15-.195.278-.42.383-.675.135-.36.255-.773.36-1.238.105-.464.195-.952.27-1.462.075-.51.135-1.005.18-1.485.06-.495.112-.938.157-1.328.105-.84.375-1.477.81-1.912.45-.435 1.133-.653 2.048-.653h4.365Zm.293 0V19.75h-1.913V8.792h1.913Zm8.066-.27c1.65 0 2.843.3 3.578.9.75.6 1.132 1.493 1.147 2.678 0 .975-.21 1.74-.63 2.295-.405.54-1.065.81-1.98.81h-6.412V13.72h5.917c.48 0 .795-.165.945-.495.165-.345.24-.72.225-1.125 0-.705-.202-1.207-.607-1.508-.405-.3-1.103-.45-2.093-.45-.795 0-1.425.12-1.89.36-.45.225-.772.63-.967 1.215-.18.57-.27 1.373-.27 2.408 0 1.17.112 2.063.337 2.677.24.616.615 1.035 1.125 1.26.51.226 1.185.338 2.025.338.6 0 1.245-.022 1.935-.067.705-.06 1.335-.128 1.89-.203l.18 1.283c-.33.134-.75.247-1.26.337-.51.09-1.035.157-1.575.203-.525.044-.997.067-1.417.067-1.245 0-2.258-.188-3.038-.563-.765-.39-1.32-1.005-1.665-1.845-.345-.854-.517-1.98-.517-3.374 0-1.44.172-2.573.517-3.398.36-.84.908-1.433 1.643-1.778.735-.36 1.687-.54 2.857-.54Zm16.854.27c-.24.645-.473 1.238-.698 1.778-.21.525-.427.99-.652 1.395-.21.405-.45.75-.72 1.035a3.155 3.155 0 0 1-.9.697c-.345.166-.75.27-1.215.316v.067c.495.045.922.15 1.282.315s.675.398.945.697c.285.285.54.646.765 1.08.24.436.48.953.72 1.553.24.585.503 1.26.788 2.025h-2.003a70.042 70.042 0 0 0-.742-1.867 11.537 11.537 0 0 0-.675-1.418 3.68 3.68 0 0 0-.698-.945 2.132 2.132 0 0 0-.9-.54c-.33-.12-.72-.18-1.17-.18v-1.485c.54 0 .998-.098 1.373-.292.375-.21.697-.51.967-.9.285-.39.548-.863.788-1.418.24-.555.495-1.193.765-1.913h1.98Zm-7.29 0v3.263c0 .33-.023.66-.068.99a6.92 6.92 0 0 1-.202.967c.09.316.157.63.202.945.045.316.068.615.068.9v3.893h-1.913V8.792h1.913Zm2.137 4.523V14.8h-2.7v-1.485h2.7Zm12.716-4.523V19.75h-1.913V8.792h1.913Zm3.96 0v1.575h-9.855V8.793h9.855Zm8.645-.27c1.35 0 2.318.495 2.903 1.485.585.976.877 2.415.877 4.32 0 1.41-.15 2.536-.45 3.376-.3.825-.757 1.417-1.372 1.777-.615.36-1.388.54-2.318.54a7.98 7.98 0 0 1-2.137-.293 7.608 7.608 0 0 1-2.025-.9l.112-1.147c.705.195 1.32.36 1.845.495.54.12 1.11.18 1.71.18.645 0 1.155-.113 1.53-.338.39-.224.675-.63.855-1.215.18-.584.27-1.41.27-2.474 0-1.035-.082-1.853-.247-2.453-.15-.6-.405-1.027-.765-1.283-.345-.27-.81-.405-1.395-.405-.6 0-1.193.143-1.778.428-.585.285-1.267.72-2.047 1.305l-.203-1.283a6.62 6.62 0 0 1 1.373-1.125 6.618 6.618 0 0 1 1.597-.72c.57-.18 1.125-.27 1.665-.27Zm-4.702.27.225 2.273.112.293v7.02l-.09.27a17.009 17.009 0 0 1 .09 2.453v3.172h-1.89V8.793h1.553Zm16.2-.27c1.26 0 2.265.188 3.015.563.75.375 1.29.99 1.62 1.845.345.84.517 1.957.517 3.353 0 1.395-.172 2.52-.517 3.374-.33.84-.87 1.448-1.62 1.823-.75.375-1.755.563-3.015.563-1.26 0-2.273-.188-3.038-.563-.75-.375-1.297-.983-1.642-1.823-.33-.855-.495-1.98-.495-3.374 0-1.396.165-2.513.495-3.353.345-.855.892-1.47 1.642-1.845.765-.375 1.778-.563 3.038-.563Zm0 1.62c-.795 0-1.425.128-1.89.383-.465.24-.795.66-.99 1.26-.195.6-.293 1.432-.293 2.498 0 1.065.098 1.897.293 2.497.195.6.525 1.027.99 1.282.465.24 1.095.36 1.89.36.795 0 1.417-.12 1.867-.36.465-.255.795-.682.99-1.282.195-.6.293-1.433.293-2.498 0-1.065-.098-1.897-.293-2.497-.195-.6-.525-1.02-.99-1.26-.45-.255-1.072-.383-1.867-.383Zm10.086-1.35V19.75h-1.89V8.792h1.89Zm5.963 4.41v1.463h-6.098v-1.462h6.098Zm1.687-4.41V19.75h-1.89V8.792h1.89Zm5.446 0V19.75h-1.89V8.792h1.89Zm5.963 4.41v1.463h-6.098v-1.462h6.098Zm1.687-4.41V19.75h-1.89V8.792h1.89Zm13.186 0V19.75h-1.733v-7.268c0-.24.008-.472.023-.697l.045-.765h-.045c-.09.21-.21.435-.36.675-.135.225-.27.428-.405.607l-5.58 7.448h-1.575V8.792h1.732v7.268c0 .24-.007.48-.022.72 0 .225-.015.473-.045.742h.045c.12-.224.247-.45.382-.674.135-.226.27-.42.405-.585l5.58-7.47h1.553Zm13.206 0V19.75h-1.733v-7.268c0-.24.008-.472.023-.697l.045-.765h-.045c-.09.21-.21.435-.36.675-.135.225-.27.428-.405.607l-5.58 7.448h-1.575V8.792h1.732v7.268c0 .24-.007.48-.022.72 0 .225-.015.473-.045.742h.045c.12-.224.247-.45.382-.674.135-.226.27-.42.405-.585l5.58-7.47h1.553Zm-2.97-4.86h1.462c.045.585-.067 1.11-.337 1.575-.255.465-.645.84-1.17 1.125-.51.27-1.125.405-1.845.405s-1.343-.135-1.868-.405c-.525-.285-.922-.66-1.192-1.125-.255-.465-.368-.99-.338-1.575h1.463c0 .645.165 1.148.495 1.508.345.345.825.517 1.44.517.6 0 1.065-.172 1.395-.517.33-.36.495-.863.495-1.508ZM68.064 25.87c-.414 1.35-.765 2.502-1.053 3.456a25.621 25.621 0 0 1-.837 2.403c-.27.648-.576 1.179-.918 1.593a3.249 3.249 0 0 1-1.215.918c-.486.216-1.098.369-1.836.459v.162c.774.108 1.413.27 1.917.486a3.15 3.15 0 0 1 1.323.945c.378.414.72.972 1.026 1.674.306.702.621 1.584.945 2.646l1.188 3.888h-5.292c-.486-1.692-.89-3.06-1.215-4.104-.306-1.062-.612-1.872-.918-2.43-.306-.558-.666-.936-1.08-1.134-.396-.216-.918-.324-1.566-.324l-.081-3.375c.666 0 1.206-.117 1.62-.351.414-.234.765-.621 1.053-1.161.288-.558.567-1.305.837-2.241.27-.936.594-2.106.972-3.51h5.13Zm-10.287 0v4.968c0 .648-.063 1.314-.189 1.998a9.126 9.126 0 0 1-.513 1.89c.18.558.342 1.161.486 1.809.144.63.216 1.206.216 1.728V44.5h-5.049V25.87h5.049Zm1.998 7.263v3.375h-3.24v-3.375h3.24Zm18.012-2.43c1.206 0 2.222.162 3.05.486a3.636 3.636 0 0 1 1.89 1.62c.432.756.648 1.8.648 3.132V44.5H79.46l-.674-2.889-.325-.486v-5.211c-.017-.558-.162-.954-.431-1.188-.252-.252-.72-.378-1.404-.378-.703 0-1.567.018-2.593.054a68.682 68.682 0 0 0-3.213.135l-.432-3.16a27.581 27.581 0 0 1 2.35-.323c.9-.108 1.79-.19 2.672-.243.9-.072 1.693-.108 2.377-.108Zm3.644 5.562-.026 2.484h-5.752c-.396.018-.693.126-.89.324-.199.18-.298.432-.298.756v.513c0 .342.108.612.324.81.234.18.576.27 1.026.27.45 0 .928-.099 1.431-.297a7.085 7.085 0 0 0 1.486-.81A7.67 7.67 0 0 0 80 39.208v1.728a8.734 8.734 0 0 1-.675 1.08 8.098 8.098 0 0 1-1.134 1.323 5.98 5.98 0 0 1-1.701 1.08c-.667.288-1.44.432-2.323.432-.81 0-1.557-.144-2.24-.432a3.875 3.875 0 0 1-1.648-1.269c-.396-.558-.594-1.26-.594-2.106v-1.35c0-1.08.378-1.917 1.134-2.511.774-.612 1.818-.918 3.132-.918h7.48Zm21.708-5.184c1.098 0 1.656.558 1.674 1.674l.351 11.745h-4.428l-.351-9.855h-.351l-1.593 6.507c-.09.486-.297.864-.62 1.134-.307.252-.712.378-1.216.378h-2.16c-.504 0-.918-.126-1.242-.378-.306-.27-.504-.648-.594-1.134l-1.647-6.507h-.324l-.27 9.855H85.94l.324-11.745c.018-1.116.585-1.674 1.701-1.674h4.131c.504 0 .91.126 1.215.378.324.252.522.639.594 1.16l1.215 4.969c.09.324.153.657.19.999.035.324.062.657.08.999h.243c.036-.342.063-.675.081-.999a6.12 6.12 0 0 1 .19-.999l1.187-4.968c.162-1.026.774-1.54 1.836-1.54h4.212Zm18.298-.027V44.5h-4.779V31.054h4.779Zm-8.829 0V44.5h-4.779V31.054h4.779Zm4.32 0-.027 3.267h-4.455v-3.267h4.482Zm21.717.027-4.509 13.284c-.324 1.098-.72 1.989-1.188 2.673-.468.684-.999 1.224-1.593 1.62a7.623 7.623 0 0 1-1.944.999c-.792.288-1.665.432-2.619.432a13.103 13.103 0 0 1-2.781-.243l.378-3.132c.864.018 1.602-.018 2.214-.108.63-.09 1.161-.252 1.593-.486.324-.198.621-.477.891-.837s.495-.747.675-1.161l.783-1.809c.18-.45.342-.99.486-1.62.162-.63.288-1.17.378-1.62l2.025-7.992h5.211Zm-10.476 0 2.025 7.992c.072.378.135.765.189 1.161.072.396.135.783.189 1.161h.783l-1.539 3.105h-1.107a1.62 1.62 0 0 1-.999-.324 1.702 1.702 0 0 1-.567-.837l-4.185-12.258h5.211Zm18.149-.378c.522 0 1.098.027 1.728.08.63.055 1.26.154 1.89.298.63.126 1.206.306 1.728.54l-.513 3.05h-2.187a65.422 65.422 0 0 0-1.809-.026c-.666 0-1.197.09-1.593.27-.396.18-.684.495-.864.945-.162.432-.243 1.071-.243 1.917 0 .828.081 1.476.243 1.944.18.45.468.765.864.945.396.162.927.243 1.593.243h1.134c.468-.018.972-.036 1.512-.054a49.11 49.11 0 0 0 1.62-.135l.432 3.078c-.756.378-1.629.639-2.619.783a18.2 18.2 0 0 1-2.943.243c-1.71 0-3.078-.225-4.104-.675a4.275 4.275 0 0 1-2.214-2.241c-.432-1.044-.648-2.421-.648-4.131 0-1.746.225-3.132.675-4.158a4.164 4.164 0 0 1 2.214-2.214c1.044-.468 2.412-.702 4.104-.702Z"
 />
</svg>