<?xml version="1.0"?>
<svg width="121" height="48" xmlns="http://www.w3.org/2000/svg" xmlns:svg="http://www.w3.org/2000/svg">
 <g class="layer">
  <title>Layer 1</title>
  <path clip-rule="evenodd" d="m15.86,0l0.01,21.39l-2.55,2.57l-13.32,0l0,-20.11l6.23,0c5.92,0 6.23,0 6.26,-0.02c0.01,-0.02 0.77,-0.88 1.7,-1.93l1.67,-1.9zm-3.9,9.77c-0.01,0.39 -0.03,0.88 -0.04,1.34l-0.01,0.83c-0.32,0.1 -0.51,0.16 -0.62,0.19c-0.17,0.06 -0.21,0.07 -0.22,0.06c-0.01,-0.02 -0.3,-0.39 -0.66,-0.83l-0.65,-0.81c-0.28,0.14 -0.58,0.29 -0.83,0.41l-0.46,0.24c0.47,1.47 0.6,1.91 0.61,1.92c0.01,0.03 -0.02,0.05 -0.19,0.15c-0.1,0.07 -0.28,0.18 -0.38,0.25c-0.11,0.07 -0.2,0.13 -0.21,0.14c-0.01,0.01 -0.27,-0.21 -0.71,-0.59l-0.69,-0.6c-0.05,0.05 -0.31,0.29 -0.62,0.56c-0.3,0.27 -0.55,0.5 -0.55,0.5c0,0.01 0.24,0.32 0.52,0.7c0.29,0.37 0.53,0.68 0.54,0.69c0.01,0.02 -0.02,0.05 -0.13,0.17c-0.09,0.09 -0.21,0.22 -0.27,0.29c-0.07,0.07 -0.18,0.2 -0.25,0.29c-0.07,0.08 -0.13,0.15 -0.14,0.15c-0.01,0 -0.39,-0.14 -0.84,-0.31c-0.46,-0.17 -0.83,-0.31 -0.83,-0.31c0,0 -0.17,0.26 -0.38,0.57c-0.2,0.31 -0.37,0.57 -0.37,0.58c0,0 0.26,0.25 0.58,0.55c0.31,0.29 0.6,0.56 0.63,0.6l0.06,0.06c-0.04,0.07 -0.13,0.23 -0.21,0.41c-0.08,0.17 -0.19,0.39 -0.24,0.5c-0.06,0.13 -0.09,0.18 -0.1,0.18c-0.01,0 -0.4,-0.07 -0.85,-0.14c-0.46,-0.08 -0.83,-0.14 -0.83,-0.13c0,0 -0.11,0.33 -0.24,0.74c-0.12,0.41 -0.23,0.75 -0.22,0.75c0.01,0.01 0.35,0.19 0.76,0.42c0.41,0.23 0.75,0.41 0.75,0.41c0,0 -0.02,0.13 -0.04,0.28c-0.03,0.15 -0.07,0.37 -0.08,0.47c-0.02,0.11 -0.03,0.2 -0.04,0.2c-0.01,0.01 -0.34,0.06 -0.73,0.13c-0.4,0.06 -0.76,0.12 -0.81,0.13l-0.09,0.01l0,1.37l2.72,0c0.02,-0.49 0.03,-0.74 0.04,-0.88c0,-0.13 0.02,-0.37 0.04,-0.53c0.01,-0.16 0.04,-0.41 0.06,-0.54c0.02,-0.14 0.06,-0.37 0.09,-0.52c0.02,-0.14 0.07,-0.38 0.1,-0.52c0.04,-0.14 0.09,-0.37 0.13,-0.5c0.04,-0.14 0.1,-0.34 0.14,-0.45c0.03,-0.11 0.1,-0.29 0.14,-0.4c0.04,-0.11 0.1,-0.28 0.14,-0.38c0.04,-0.1 0.12,-0.27 0.18,-0.39c0.05,-0.12 0.15,-0.31 0.21,-0.43c0.06,-0.11 0.16,-0.3 0.23,-0.4c0.06,-0.11 0.17,-0.29 0.25,-0.4c0.07,-0.12 0.2,-0.3 0.28,-0.41c0.08,-0.11 0.21,-0.27 0.29,-0.37c0.08,-0.09 0.21,-0.25 0.3,-0.35c0.09,-0.1 0.25,-0.26 0.35,-0.35c0.1,-0.1 0.26,-0.25 0.35,-0.33c0.09,-0.08 0.24,-0.21 0.33,-0.28c0.09,-0.07 0.26,-0.2 0.38,-0.29c0.12,-0.08 0.3,-0.2 0.4,-0.27c0.1,-0.06 0.26,-0.16 0.37,-0.22c0.1,-0.06 0.3,-0.17 0.44,-0.24c0.13,-0.07 0.34,-0.17 0.45,-0.22c0.12,-0.05 0.31,-0.13 0.41,-0.17c0.11,-0.05 0.3,-0.12 0.43,-0.16c0.12,-0.04 0.32,-0.11 0.44,-0.14c0.11,-0.03 0.3,-0.09 0.41,-0.11c0.11,-0.03 0.29,-0.07 0.4,-0.1c0.11,-0.02 0.3,-0.05 0.42,-0.07c0.11,-0.02 0.31,-0.05 0.43,-0.07c0.12,-0.01 0.32,-0.04 0.46,-0.05c0.13,-0.01 0.41,-0.03 0.62,-0.03c0.21,-0.01 0.5,-0.01 0.64,-0.01l0.25,0.01l0,-1.35c-0.47,0.02 -0.73,0.02 -0.88,0.02l-0.28,0.01c-0.66,-1.44 -0.85,-1.86 -0.86,-1.86c-0.01,0 -0.29,0.05 -0.62,0.12l-0.6,0.11zm1.94,3.57c-0.13,0.01 -0.38,0.04 -0.54,0.06c-0.16,0.02 -0.41,0.06 -0.54,0.09c-0.14,0.03 -0.35,0.08 -0.48,0.11c-0.13,0.03 -0.32,0.08 -0.43,0.11c-0.1,0.03 -0.29,0.09 -0.41,0.14c-0.13,0.04 -0.32,0.11 -0.43,0.15c-0.11,0.04 -0.28,0.12 -0.39,0.17c-0.11,0.05 -0.33,0.15 -0.48,0.23c-0.16,0.08 -0.38,0.2 -0.48,0.27c-0.11,0.06 -0.3,0.18 -0.41,0.26c-0.12,0.08 -0.31,0.21 -0.43,0.3c-0.11,0.09 -0.29,0.23 -0.39,0.31c-0.09,0.08 -0.27,0.24 -0.39,0.35c-0.11,0.11 -0.29,0.29 -0.4,0.41c-0.11,0.12 -0.25,0.28 -0.32,0.37c-0.07,0.09 -0.2,0.24 -0.28,0.35c-0.08,0.1 -0.2,0.29 -0.29,0.41c-0.08,0.12 -0.19,0.31 -0.25,0.41c-0.06,0.1 -0.16,0.28 -0.22,0.4c-0.07,0.11 -0.17,0.31 -0.22,0.44c-0.06,0.12 -0.15,0.34 -0.21,0.48c-0.05,0.13 -0.14,0.36 -0.18,0.5c-0.05,0.14 -0.12,0.37 -0.16,0.5c-0.04,0.13 -0.09,0.32 -0.11,0.42c-0.03,0.1 -0.06,0.27 -0.09,0.39c-0.02,0.11 -0.06,0.3 -0.08,0.42c-0.02,0.12 -0.04,0.33 -0.06,0.46c-0.01,0.13 -0.04,0.35 -0.05,0.48c-0.01,0.14 -0.03,0.41 -0.03,0.61l-0.01,0.35l0.75,0c-0.02,-0.1 -0.02,-0.23 -0.01,-0.36c0.01,-0.13 0.02,-0.3 0.03,-0.38c0.02,-0.08 0.04,-0.22 0.06,-0.3c0.02,-0.08 0.06,-0.22 0.1,-0.29c0.03,-0.08 0.08,-0.19 0.11,-0.24c0.03,-0.05 0.08,-0.13 0.12,-0.17c0.04,-0.05 0.09,-0.1 0.12,-0.12c0.02,-0.03 0.08,-0.07 0.12,-0.09c0.04,-0.03 0.12,-0.06 0.18,-0.09c0.1,-0.03 0.13,-0.03 0.32,-0.03c0.17,0 0.23,0 0.34,0.03c0.07,0.02 0.36,0.13 0.64,0.24c0.28,0.11 1.49,0.59 2.7,1.06l2.19,0.86l2.44,-2.45c-1.73,-4.3 -2.25,-5.59 -2.26,-5.65c-0.02,-0.06 -0.04,-0.16 -0.04,-0.21c-0.01,-0.08 0,-0.15 0.01,-0.22c0.02,-0.06 0.04,-0.14 0.06,-0.18c0.02,-0.04 0.06,-0.1 0.1,-0.15c0.03,-0.04 0.1,-0.11 0.16,-0.15c0.05,-0.04 0.16,-0.11 0.24,-0.15c0.07,-0.04 0.19,-0.09 0.26,-0.11c0.07,-0.02 0.2,-0.06 0.29,-0.08c0.09,-0.02 0.24,-0.04 0.32,-0.05c0.09,-0.02 0.24,-0.03 0.34,-0.04c0.1,-0.01 0.23,-0.01 0.28,-0.01l0.09,0l0,-0.67c-0.46,0 -0.7,0 -0.83,0.01c-0.13,0.01 -0.34,0.02 -0.47,0.04zm2.85,-13.3c0.02,0.03 0.78,0.89 3.35,3.81l12.47,0l-0.01,20.1l-13.32,0.01l-2.55,-2.57l0,-10.69c0,-6.45 0,-10.68 0.01,-10.69c0,0 0.03,0.01 0.05,0.03zm5.07,11.21c-0.06,0.1 -0.16,0.26 -0.22,0.37c-0.06,0.1 -0.18,0.34 -0.28,0.52c-0.09,0.18 -0.19,0.4 -0.23,0.48c-0.04,0.09 -0.1,0.25 -0.14,0.37c-0.05,0.11 -0.1,0.27 -0.12,0.36c-0.02,0.09 -0.05,0.21 -0.06,0.28c-0.01,0.07 -0.01,0.16 0,0.19c0,0.03 0.03,0.08 0.05,0.1c0.03,0.03 0.08,0.07 0.12,0.1c0.05,0.02 0.12,0.06 0.17,0.08c0.05,0.03 0.11,0.05 0.13,0.06l0.03,0.01c-0.05,0.06 -0.1,0.13 -0.14,0.19c-0.04,0.06 -0.11,0.19 -0.16,0.29c-0.04,0.09 -0.11,0.24 -0.14,0.34c-0.04,0.09 -0.09,0.26 -0.12,0.37c-0.04,0.11 -0.08,0.3 -0.11,0.43c-0.03,0.12 -0.07,0.3 -0.08,0.4c-0.02,0.1 -0.05,0.31 -0.06,0.46c-0.02,0.15 -0.06,0.33 -0.07,0.4c-0.02,0.07 -0.07,0.23 -0.11,0.35c-0.04,0.11 -0.12,0.31 -0.17,0.42c-0.05,0.12 -0.15,0.34 -0.22,0.49c-0.08,0.15 -0.19,0.36 -0.24,0.46c-0.06,0.11 -0.17,0.3 -0.25,0.43c-0.08,0.13 -0.22,0.36 -0.32,0.5c-0.1,0.15 -0.27,0.41 -0.38,0.57c-0.12,0.16 -0.27,0.37 -0.35,0.48c-0.08,0.1 -0.15,0.19 -0.15,0.2c0,0 0.34,0.35 0.75,0.76l0.74,0.76l1.3,-1.71l1.23,-1.97c1,-1.93 1.31,-2.53 1.35,-2.58c0.03,-0.05 0.11,-0.15 0.17,-0.22c0.06,-0.07 0.15,-0.16 0.2,-0.21c0.06,-0.05 0.15,-0.13 0.21,-0.17c0.06,-0.05 0.15,-0.11 0.2,-0.14c0.05,-0.02 0.13,-0.06 0.17,-0.07l0.09,-0.02c0.13,0.14 0.21,0.25 0.26,0.34c0.05,0.08 0.14,0.25 0.19,0.38c0.06,0.13 0.14,0.33 0.18,0.45c0.05,0.12 0.12,0.33 0.16,0.45c0.05,0.13 0.12,0.4 0.18,0.59c0.05,0.19 0.11,0.41 0.13,0.48l0.03,0.12c1.46,1.59 1.89,2.05 1.9,2.05c0.01,0 0.07,-0.04 0.14,-0.08c0.06,-0.05 0.18,-0.14 0.26,-0.21c0.07,-0.07 0.2,-0.2 0.28,-0.29c0.08,-0.09 0.21,-0.24 0.28,-0.33c0.07,-0.09 0.2,-0.27 0.28,-0.39c0.09,-0.12 0.21,-0.31 0.28,-0.42c0.07,-0.12 0.18,-0.3 0.25,-0.42c0.06,-0.11 0.19,-0.35 0.27,-0.52c0.09,-0.17 0.22,-0.44 0.29,-0.6c0.07,-0.15 0.18,-0.4 0.24,-0.54c0.06,-0.14 0.14,-0.35 0.19,-0.48c0.04,-0.12 0.13,-0.34 0.18,-0.49c0.06,-0.16 0.14,-0.41 0.19,-0.57c0.05,-0.17 0.12,-0.41 0.15,-0.55c0.04,-0.14 0.08,-0.34 0.1,-0.44c0.02,-0.11 0.05,-0.27 0.06,-0.37c0.02,-0.12 0.03,-0.27 0.03,-0.47c0,-0.24 -0.01,-0.31 -0.03,-0.42c-0.02,-0.07 -0.05,-0.17 -0.07,-0.21c-0.04,-0.09 -0.04,-0.09 -0.08,-0.08c-0.03,0.01 -0.25,0.04 -0.49,0.08c-0.25,0.03 -0.64,0.08 -0.87,0.11c-0.23,0.03 -0.56,0.06 -0.73,0.08c-0.17,0.01 -0.44,0.04 -0.6,0.05c-0.16,0.01 -0.48,0.03 -0.7,0.04c-0.22,0.01 -0.56,0.01 -0.75,0c-0.19,0 -0.43,-0.01 -0.52,-0.02c-0.1,-0.01 -0.25,-0.02 -0.35,-0.04c-0.09,-0.01 -0.24,-0.03 -0.33,-0.05c-0.09,-0.02 -0.21,-0.06 -0.27,-0.08c-0.07,-0.02 -0.13,-0.05 -0.14,-0.06c-0.02,-0.01 0,-0.05 0.08,-0.28c0.05,-0.15 0.09,-0.27 0.09,-0.27c-0.01,0 -0.5,-0.21 -1.11,-0.46c-0.61,-0.26 -1.1,-0.47 -1.1,-0.47c0,0.01 -0.05,0.08 -0.1,0.17c-0.09,0.16 -0.1,0.17 -0.13,0.16c-0.01,-0.01 -0.13,-0.08 -0.27,-0.15c-0.13,-0.07 -0.3,-0.17 -0.38,-0.21c-0.08,-0.04 -0.16,-0.07 -0.17,-0.07c-0.02,0 -0.05,0.03 -0.1,0.09c-0.04,0.05 -0.11,0.17 -0.17,0.27zm-21.82,13.54l13.33,0l2.54,2.55l0,10.33c0,5.68 0,10.33 -0.01,10.33c0,0 -0.02,-0.01 -0.04,-0.03c-0.02,-0.01 -0.15,-0.08 -0.28,-0.16c-0.13,-0.07 -0.38,-0.2 -0.54,-0.28c-0.16,-0.09 -0.42,-0.21 -0.57,-0.28c-0.14,-0.07 -0.37,-0.18 -0.51,-0.24c-0.14,-0.06 -0.43,-0.18 -0.64,-0.27c-0.22,-0.09 -0.52,-0.21 -0.67,-0.26c-0.16,-0.06 -0.42,-0.15 -0.59,-0.21c-0.17,-0.05 -0.47,-0.15 -0.67,-0.2c-0.2,-0.06 -0.54,-0.15 -0.75,-0.21c-0.21,-0.05 -0.6,-0.15 -0.86,-0.21c-0.25,-0.07 -0.67,-0.17 -0.92,-0.23c-0.25,-0.05 -0.69,-0.15 -0.96,-0.21c-0.28,-0.07 -0.71,-0.16 -0.96,-0.21c-0.25,-0.05 -0.64,-0.14 -0.88,-0.19c-0.24,-0.05 -0.54,-0.12 -0.68,-0.16c-0.14,-0.03 -0.35,-0.09 -0.47,-0.13c-0.12,-0.04 -0.32,-0.11 -0.46,-0.17c-0.14,-0.05 -0.35,-0.14 -0.47,-0.19c-0.12,-0.05 -0.3,-0.14 -0.41,-0.19c-0.11,-0.06 -0.29,-0.15 -0.41,-0.21c-0.11,-0.07 -0.26,-0.16 -0.34,-0.21c-0.08,-0.05 -0.21,-0.14 -0.29,-0.19c-0.08,-0.06 -0.21,-0.16 -0.28,-0.21c-0.07,-0.06 -0.2,-0.18 -0.3,-0.27c-0.1,-0.09 -0.25,-0.24 -0.33,-0.33c-0.08,-0.1 -0.21,-0.25 -0.28,-0.34c-0.07,-0.09 -0.17,-0.22 -0.21,-0.28c-0.04,-0.06 -0.13,-0.2 -0.19,-0.3c-0.06,-0.11 -0.16,-0.3 -0.23,-0.44c-0.06,-0.13 -0.15,-0.34 -0.2,-0.45c-0.05,-0.12 -0.11,-0.31 -0.15,-0.42c-0.04,-0.12 -0.09,-0.32 -0.13,-0.47c-0.03,-0.14 -0.08,-0.37 -0.1,-0.51c-0.03,-0.14 -0.06,-0.34 -0.07,-0.45c-0.02,-0.17 -0.02,-1.01 -0.02,-7.15l0,-6.95zm12.88,1.61c-0.02,0.03 -0.08,0.18 -0.14,0.32l-0.12,0.27c-0.48,0.06 -0.64,0.08 -0.67,0.09c-0.03,0.01 -0.07,0.03 -0.1,0.05c-0.02,0.03 -0.05,0.06 -0.06,0.08c-0.01,0.02 -0.03,0.15 -0.05,0.3c-0.02,0.15 -0.05,0.29 -0.06,0.31c-0.01,0.02 -0.04,0.06 -0.07,0.08c-0.03,0.03 -0.07,0.05 -0.1,0.06c-0.02,0 -0.15,0.02 -0.28,0.04c-0.18,0.02 -0.26,0.04 -0.29,0.06c-0.03,0.02 -0.06,0.06 -0.08,0.09c-0.03,0.05 -0.05,0.15 -0.09,0.43c-0.03,0.21 -0.06,0.39 -0.08,0.44c-0.01,0.04 -0.04,0.1 -0.06,0.13c-0.01,0.02 -0.05,0.07 -0.08,0.09c-0.02,0.03 -0.07,0.06 -0.11,0.08c-0.05,0.02 -0.1,0.03 -0.17,0.03c-0.06,0 -0.13,-0.02 -0.22,-0.05c-0.08,-0.02 -0.23,-0.08 -0.33,-0.13c-0.11,-0.04 -0.42,-0.19 -0.7,-0.33c-0.27,-0.13 -0.62,-0.32 -0.79,-0.41c-0.16,-0.08 -0.33,-0.16 -0.37,-0.18c-0.05,-0.01 -0.11,-0.02 -0.17,-0.01c-0.04,0 -0.11,0.02 -0.14,0.03c-0.03,0.01 -0.07,0.04 -0.1,0.05c-0.03,0.02 -0.14,0.15 -0.25,0.29c-0.12,0.14 -0.29,0.35 -0.39,0.47c-0.09,0.12 -0.25,0.31 -0.35,0.42c-0.1,0.12 -0.28,0.32 -0.4,0.47c-0.13,0.14 -0.36,0.39 -0.51,0.56c-0.16,0.17 -0.47,0.49 -0.69,0.72c-0.22,0.22 -0.55,0.55 -0.74,0.73c-0.19,0.18 -0.42,0.4 -0.52,0.49c-0.09,0.09 -0.27,0.25 -0.4,0.36c-0.12,0.11 -0.35,0.31 -0.51,0.44c-0.15,0.14 -0.45,0.39 -0.67,0.56c-0.21,0.17 -0.46,0.37 -0.55,0.43c-0.08,0.07 -0.15,0.13 -0.14,0.13c0,0.01 0.14,0.03 0.31,0.05c0.24,0.03 0.33,0.04 0.44,0.03c0.07,0 0.19,-0.02 0.25,-0.03c0.07,-0.01 0.18,-0.04 0.25,-0.06c0.06,-0.02 0.2,-0.07 0.29,-0.11c0.1,-0.04 0.26,-0.12 0.36,-0.18c0.1,-0.06 0.26,-0.15 0.36,-0.22c0.1,-0.06 0.27,-0.19 0.37,-0.28c0.11,-0.09 0.46,-0.38 0.77,-0.64c0.32,-0.26 0.7,-0.58 0.86,-0.71c0.15,-0.13 0.44,-0.36 0.64,-0.52c0.19,-0.16 0.49,-0.39 0.66,-0.52c0.17,-0.13 0.41,-0.3 0.52,-0.38c0.12,-0.08 0.26,-0.16 0.33,-0.2c0.06,-0.03 0.14,-0.05 0.17,-0.06c0.04,-0.01 0.06,0 0.07,0.02c0.02,0.01 0.03,0.05 0.03,0.1c-0.01,0.04 -0.02,0.11 -0.05,0.18c-0.03,0.07 -0.09,0.19 -0.13,0.27c-0.05,0.08 -0.16,0.25 -0.25,0.38c-0.08,0.13 -0.26,0.38 -0.39,0.55c-0.13,0.17 -0.34,0.46 -0.49,0.64c-0.14,0.18 -0.39,0.5 -0.55,0.71c-0.17,0.2 -0.54,0.66 -0.81,1.01c-0.29,0.35 -0.64,0.79 -0.79,0.98c-0.15,0.19 -0.38,0.5 -0.52,0.69c-0.14,0.18 -0.32,0.44 -0.41,0.57c-0.08,0.13 -0.19,0.29 -0.23,0.37c-0.05,0.08 -0.11,0.19 -0.13,0.25c-0.02,0.06 -0.04,0.14 -0.05,0.18c0,0.06 0,0.08 0.03,0.1c0.02,0.03 0.03,0.03 0.09,0.01c0.03,-0.01 0.1,-0.04 0.15,-0.07c0.05,-0.03 0.15,-0.09 0.22,-0.14c0.08,-0.05 0.21,-0.15 0.31,-0.22c0.09,-0.08 0.28,-0.22 0.41,-0.33c0.13,-0.1 0.45,-0.37 0.7,-0.58c0.26,-0.22 0.81,-0.68 1.23,-1.04c0.41,-0.36 0.94,-0.8 1.16,-0.99c0.23,-0.19 0.56,-0.46 0.74,-0.61c0.18,-0.14 0.44,-0.35 0.58,-0.46c0.15,-0.11 0.35,-0.26 0.46,-0.33c0.11,-0.07 0.26,-0.16 0.33,-0.2c0.07,-0.03 0.16,-0.07 0.2,-0.07c0.06,-0.01 0.07,-0.01 0.1,0.01c0.02,0.02 0.03,0.05 0.03,0.08c0,0.02 -0.01,0.07 -0.02,0.12c-0.02,0.04 -0.06,0.14 -0.1,0.22c-0.04,0.09 -0.12,0.23 -0.17,0.31c-0.05,0.09 -0.19,0.3 -0.3,0.47c-0.12,0.17 -0.28,0.39 -0.35,0.49c-0.07,0.09 -0.36,0.47 -0.65,0.84c-0.29,0.38 -0.66,0.86 -0.82,1.08c-0.16,0.22 -0.36,0.49 -0.43,0.61c-0.08,0.11 -0.19,0.29 -0.25,0.39c-0.06,0.1 -0.15,0.27 -0.21,0.38c-0.06,0.11 -0.13,0.27 -0.16,0.35c-0.03,0.08 -0.07,0.21 -0.1,0.28c-0.01,0.07 -0.05,0.2 -0.07,0.29c-0.02,0.09 -0.04,0.25 -0.05,0.36c-0.01,0.16 -0.01,0.25 0,0.41c0.01,0.12 0.02,0.23 0.03,0.25c0.01,0.03 0.12,-0.1 0.98,-1.11c0.77,-0.92 1.09,-1.29 1.63,-1.88l0.68,-0.73c1.68,-1.56 1.85,-1.71 2.22,-2.01c0.23,-0.18 0.45,-0.36 0.48,-0.39c0.03,-0.03 0.07,-0.08 0.09,-0.12c0.02,-0.04 0.05,-0.11 0.05,-0.15c0.01,-0.04 0.01,-0.12 0,-0.17c0,-0.04 -0.03,-0.12 -0.05,-0.17c-0.03,-0.04 -0.12,-0.22 -0.2,-0.38c-0.09,-0.16 -0.25,-0.47 -0.35,-0.67c-0.1,-0.2 -0.23,-0.48 -0.29,-0.62c-0.06,-0.14 -0.13,-0.32 -0.16,-0.4c-0.04,-0.12 -0.05,-0.17 -0.05,-0.26c0,-0.09 0,-0.13 0.03,-0.19c0.02,-0.05 0.06,-0.11 0.11,-0.14c0.04,-0.04 0.1,-0.08 0.15,-0.1c0.04,-0.01 0.23,-0.05 0.47,-0.08c0.33,-0.05 0.4,-0.06 0.44,-0.09c0.03,-0.02 0.06,-0.05 0.08,-0.07c0.01,-0.03 0.03,-0.13 0.06,-0.31c0.02,-0.14 0.05,-0.29 0.06,-0.32c0.01,-0.03 0.04,-0.07 0.06,-0.09c0.02,-0.02 0.07,-0.04 0.09,-0.04c0.03,-0.01 0.16,-0.03 0.29,-0.05c0.15,-0.02 0.25,-0.04 0.29,-0.06c0.03,-0.01 0.06,-0.05 0.08,-0.08c0.03,-0.05 0.05,-0.13 0.08,-0.4c0.03,-0.18 0.05,-0.34 0.06,-0.34c0,-0.01 0.14,-0.08 0.31,-0.15c0.17,-0.08 0.31,-0.15 0.31,-0.15c0,0 -0.31,-0.32 -0.7,-0.71l-0.7,-0.71l-0.02,0.07zm6.36,-1.61l13.33,0l0,6.95c0,4.85 0,6.98 -0.01,7.07c-0.01,0.06 -0.03,0.21 -0.05,0.32c-0.01,0.12 -0.05,0.32 -0.07,0.45c-0.03,0.14 -0.08,0.34 -0.11,0.45c-0.03,0.12 -0.09,0.31 -0.13,0.42c-0.03,0.12 -0.11,0.31 -0.15,0.42c-0.05,0.12 -0.14,0.3 -0.2,0.42c-0.05,0.11 -0.15,0.28 -0.2,0.37c-0.05,0.09 -0.14,0.23 -0.2,0.31c-0.06,0.08 -0.16,0.22 -0.22,0.3c-0.07,0.08 -0.19,0.22 -0.27,0.31c-0.08,0.08 -0.21,0.22 -0.29,0.29c-0.09,0.08 -0.24,0.21 -0.34,0.29c-0.1,0.09 -0.28,0.22 -0.4,0.3c-0.12,0.08 -0.29,0.19 -0.37,0.24c-0.09,0.04 -0.28,0.14 -0.42,0.22c-0.15,0.07 -0.4,0.19 -0.57,0.26c-0.16,0.07 -0.4,0.17 -0.52,0.22c-0.12,0.04 -0.31,0.11 -0.42,0.14c-0.1,0.04 -0.32,0.1 -0.48,0.14c-0.16,0.04 -0.4,0.09 -0.53,0.12c-0.14,0.03 -0.51,0.1 -0.82,0.17c-0.32,0.07 -0.83,0.18 -1.13,0.24c-0.3,0.07 -0.77,0.18 -1.06,0.25c-0.28,0.06 -0.77,0.18 -1.08,0.26c-0.31,0.08 -0.7,0.18 -0.86,0.22c-0.16,0.04 -0.41,0.12 -0.56,0.16c-0.14,0.04 -0.42,0.13 -0.63,0.2c-0.2,0.07 -0.52,0.18 -0.72,0.25c-0.19,0.08 -0.48,0.19 -0.64,0.26c-0.16,0.06 -0.43,0.18 -0.6,0.26c-0.17,0.07 -0.52,0.24 -0.78,0.38c-0.26,0.13 -0.6,0.3 -0.76,0.39c-0.16,0.09 -0.28,0.16 -0.29,0.16c0,0 0,-4.65 -0.01,-20.64l2.56,-2.57zm1.76,1.38l-1.31,0.17l-1.54,1.56c-0.02,0.13 -0.03,0.26 -0.05,0.37c-0.01,0.11 -0.06,0.42 -0.1,0.69c-0.05,0.27 -0.1,0.63 -0.12,0.81c-0.03,0.17 -0.06,0.43 -0.08,0.59c-0.01,0.18 -0.03,0.42 -0.03,0.7c-0.01,0.28 0,0.5 0.01,0.62c0.01,0.11 0.02,0.26 0.04,0.34c0.01,0.09 0.04,0.21 0.05,0.27c0.02,0.06 0.05,0.17 0.08,0.24c0.02,0.07 0.07,0.19 0.11,0.26c0.03,0.07 0.1,0.18 0.15,0.25c0.04,0.07 0.14,0.19 0.2,0.25c0.07,0.07 0.18,0.16 0.25,0.21c0.07,0.05 0.18,0.12 0.26,0.15c0.06,0.04 0.18,0.09 0.25,0.11c0.07,0.03 0.19,0.06 0.26,0.08c0.07,0.02 0.23,0.05 0.34,0.07c0.18,0.03 0.26,0.03 0.62,0.03c0.31,0 0.48,-0.01 0.66,-0.02c0.13,-0.02 0.34,-0.05 0.46,-0.07c0.12,-0.01 0.22,-0.03 0.23,-0.03c0.01,0 0.01,0.06 0.01,0.16c0,0.11 0,0.19 0.02,0.27c0.01,0.06 0.04,0.14 0.06,0.19c0.02,0.05 0.07,0.12 0.1,0.17c0.04,0.04 0.11,0.11 0.16,0.15c0.05,0.04 0.13,0.09 0.17,0.11c0.05,0.03 0.13,0.06 0.19,0.07c0.07,0.02 0.14,0.02 0.27,0.02l0.18,-0.01c0.39,0.41 0.57,0.61 0.65,0.7c0.08,0.09 0.23,0.27 0.33,0.39c0.1,0.11 0.24,0.29 0.31,0.39c0.08,0.11 0.19,0.27 0.25,0.36c0.06,0.09 0.14,0.24 0.18,0.33c0.05,0.09 0.09,0.2 0.11,0.25c0.02,0.05 0.04,0.14 0.04,0.21c0,0.07 0,0.15 -0.01,0.18c-0.01,0.03 -0.05,0.1 -0.08,0.14c-0.05,0.06 -0.1,0.1 -0.14,0.12c-0.06,0.03 -0.09,0.04 -0.17,0.04c-0.06,0 -0.14,-0.01 -0.21,-0.04c-0.05,-0.01 -0.15,-0.05 -0.22,-0.09c-0.07,-0.03 -0.18,-0.1 -0.25,-0.14c-0.07,-0.05 -0.18,-0.13 -0.25,-0.19c-0.07,-0.05 -0.2,-0.16 -0.29,-0.24c-0.09,-0.08 -0.3,-0.28 -0.46,-0.44c-0.17,-0.16 -0.35,-0.35 -0.41,-0.42c-0.06,-0.07 -0.14,-0.13 -0.16,-0.14c-0.03,-0.01 -0.09,-0.02 -0.14,-0.02c-0.06,0 -0.1,0.01 -0.17,0.04c-0.05,0.03 -0.12,0.08 -0.16,0.12c-0.04,0.03 -0.08,0.1 -0.11,0.15c-0.03,0.07 -0.04,0.1 -0.04,0.19c0,0.08 0.01,0.12 0.03,0.16c0.01,0.03 0.17,0.2 0.36,0.38c0.18,0.19 0.43,0.42 0.54,0.52c0.11,0.11 0.26,0.24 0.33,0.3c0.07,0.06 0.18,0.15 0.25,0.2c0.06,0.05 0.18,0.14 0.26,0.19c0.09,0.05 0.21,0.13 0.28,0.17c0.07,0.04 0.19,0.1 0.27,0.13c0.08,0.03 0.2,0.07 0.27,0.09c0.1,0.03 0.16,0.03 0.3,0.03c0.13,0 0.21,-0.01 0.28,-0.03c0.06,-0.01 0.16,-0.05 0.22,-0.08c0.05,-0.02 0.16,-0.09 0.22,-0.13c0.07,-0.05 0.17,-0.14 0.23,-0.2c0.07,-0.06 0.15,-0.17 0.2,-0.23c0.04,-0.07 0.09,-0.17 0.11,-0.23c0.02,-0.06 0.05,-0.15 0.06,-0.21c0.01,-0.05 0.02,-0.17 0.02,-0.27c0,-0.09 -0.01,-0.23 -0.02,-0.3c-0.01,-0.07 -0.04,-0.18 -0.06,-0.25c-0.02,-0.07 -0.06,-0.2 -0.1,-0.29c-0.03,-0.08 -0.09,-0.22 -0.14,-0.31c-0.04,-0.08 -0.11,-0.22 -0.17,-0.3c-0.05,-0.09 -0.15,-0.24 -0.21,-0.34c-0.07,-0.1 -0.18,-0.25 -0.26,-0.34c-0.07,-0.1 -0.19,-0.24 -0.26,-0.33c-0.07,-0.08 -0.22,-0.25 -0.34,-0.39c-0.13,-0.13 -0.3,-0.31 -0.4,-0.4l-0.17,-0.16c0.02,-0.08 0.03,-0.17 0.03,-0.24c0,-0.07 -0.01,-0.16 -0.02,-0.21c-0.01,-0.05 -0.05,-0.13 -0.08,-0.19c-0.03,-0.08 -0.08,-0.14 -0.16,-0.22c-0.05,-0.05 -0.14,-0.12 -0.18,-0.15c-0.04,-0.02 -0.13,-0.06 -0.18,-0.08c-0.1,-0.04 -0.13,-0.04 -0.31,-0.04c-0.11,0 -0.2,-0.01 -0.2,-0.01c0,0 0.19,-0.2 0.41,-0.43l0.42,-0.42l4.09,4.13c0.18,0.59 0.25,0.78 0.26,0.82c0.02,0.04 0.04,0.06 0.08,0.08c0.03,0.01 0.06,0.02 0.08,0.02c0.01,0 0.04,0 0.07,-0.01c0.02,-0.01 0.46,-0.44 0.98,-0.97c0.52,-0.52 0.95,-0.97 0.96,-0.99c0.01,-0.02 0.02,-0.06 0.02,-0.08c0,-0.03 -0.01,-0.07 -0.02,-0.09c-0.02,-0.02 -0.05,-0.05 -0.08,-0.07c-0.02,-0.01 -0.22,-0.07 -0.43,-0.14l-0.39,-0.12l-4.09,-4.12c0.52,-0.53 0.69,-0.72 0.72,-0.76c0.03,-0.04 0.07,-0.13 0.1,-0.19c0.03,-0.05 0.06,-0.15 0.08,-0.22c0.02,-0.06 0.04,-0.18 0.04,-0.27c0.01,-0.08 0.02,-0.23 0.02,-0.33c0,-0.1 -0.01,-0.26 -0.02,-0.37c-0.02,-0.1 -0.04,-0.26 -0.07,-0.35c-0.02,-0.1 -0.06,-0.24 -0.09,-0.32c-0.03,-0.07 -0.09,-0.21 -0.14,-0.3c-0.04,-0.09 -0.12,-0.22 -0.16,-0.28c-0.04,-0.06 -0.12,-0.16 -0.17,-0.23c-0.05,-0.06 -0.14,-0.15 -0.19,-0.2c-0.06,-0.06 -0.16,-0.14 -0.24,-0.2c-0.07,-0.06 -0.18,-0.14 -0.25,-0.18c-0.07,-0.04 -0.19,-0.11 -0.27,-0.15c-0.08,-0.04 -0.21,-0.1 -0.29,-0.13c-0.08,-0.03 -0.19,-0.07 -0.26,-0.09c-0.07,-0.02 -0.17,-0.05 -0.24,-0.07c-0.07,-0.01 -0.19,-0.03 -0.27,-0.05c-0.08,-0.01 -0.27,-0.02 -0.42,-0.02c-0.15,-0.01 -0.31,0 -0.36,0c-0.04,0.01 -0.66,0.09 -1.38,0.19zm-9.59,-10.61c0.09,0 0.2,0.02 0.27,0.03c0.06,0.02 0.15,0.05 0.21,0.08c0.05,0.02 0.13,0.07 0.17,0.1c0.05,0.04 0.12,0.09 0.15,0.13c0.04,0.04 0.09,0.1 0.12,0.14c0.03,0.04 0.08,0.12 0.11,0.18c0.03,0.06 0.47,1.16 1.9,4.77l-0.68,0.7c-0.37,0.39 -0.69,0.7 -0.69,0.7c-0.01,-0.01 -1.1,-0.42 -2.41,-0.93c-1.32,-0.51 -2.43,-0.94 -2.47,-0.96c-0.04,-0.01 -0.11,-0.06 -0.17,-0.09c-0.05,-0.04 -0.13,-0.1 -0.18,-0.14c-0.05,-0.04 -0.11,-0.13 -0.15,-0.19c-0.04,-0.06 -0.09,-0.16 -0.12,-0.24c-0.04,-0.13 -0.04,-0.14 -0.04,-0.37c0,-0.18 0,-0.26 0.02,-0.36c0.02,-0.06 0.05,-0.18 0.08,-0.26c0.02,-0.08 0.07,-0.21 0.11,-0.29c0.03,-0.08 0.1,-0.22 0.15,-0.31c0.05,-0.08 0.14,-0.25 0.22,-0.35c0.07,-0.11 0.19,-0.28 0.27,-0.38c0.07,-0.09 0.2,-0.25 0.3,-0.35c0.09,-0.1 0.25,-0.27 0.36,-0.37c0.11,-0.1 0.28,-0.25 0.38,-0.33c0.1,-0.08 0.28,-0.22 0.4,-0.3c0.12,-0.08 0.29,-0.18 0.37,-0.23c0.08,-0.04 0.21,-0.1 0.28,-0.14c0.08,-0.03 0.2,-0.08 0.28,-0.11c0.08,-0.03 0.2,-0.06 0.27,-0.08c0.07,-0.02 0.17,-0.04 0.23,-0.04c0.06,-0.01 0.18,-0.01 0.26,-0.01zm11.74,11.15c0.05,0.01 0.14,0.03 0.21,0.04c0.07,0.02 0.17,0.04 0.23,0.07c0.06,0.02 0.18,0.07 0.26,0.1c0.09,0.04 0.18,0.1 0.22,0.12c0.04,0.03 0.12,0.09 0.19,0.13c0.06,0.05 0.17,0.15 0.24,0.23c0.08,0.08 0.18,0.2 0.23,0.28c0.05,0.07 0.12,0.2 0.16,0.28c0.05,0.09 0.1,0.23 0.14,0.32c0.03,0.1 0.06,0.24 0.08,0.32c0.02,0.08 0.03,0.2 0.04,0.28c0.01,0.13 0,0.15 -0.02,0.22c-0.03,0.05 -0.1,0.14 -0.38,0.41c-0.24,0.25 -0.35,0.35 -0.37,0.35c-0.02,0 -0.04,-0.01 -0.04,-0.02c-0.01,-0.01 -0.01,-0.23 -0.01,-0.48c0,-0.36 -0.01,-0.5 -0.03,-0.61c-0.01,-0.07 -0.04,-0.21 -0.06,-0.29c-0.02,-0.08 -0.06,-0.21 -0.08,-0.3c-0.03,-0.08 -0.09,-0.22 -0.13,-0.3c-0.04,-0.09 -0.13,-0.24 -0.19,-0.33c-0.06,-0.1 -0.16,-0.23 -0.22,-0.29c-0.06,-0.07 -0.17,-0.16 -0.23,-0.22c-0.07,-0.05 -0.17,-0.12 -0.24,-0.15c-0.07,-0.05 -0.11,-0.08 -0.11,-0.1c-0.01,-0.01 0,-0.03 0,-0.05c0.01,-0.01 0.03,-0.01 0.11,-0.01z" fill="#004571" fill-rule="evenodd" id="svg_1"/>
  <path d="m55.69,4.22c-0.3,0.86 -0.59,1.65 -0.86,2.39c-0.27,0.73 -0.54,1.39 -0.83,1.98c-0.27,0.58 -0.57,1.09 -0.9,1.53c-0.32,0.42 -0.68,0.76 -1.08,1.01c-0.4,0.26 -0.88,0.41 -1.42,0.48l0,0.09c0.59,0.06 1.1,0.21 1.53,0.47c0.44,0.25 0.82,0.61 1.15,1.08c0.35,0.45 0.66,0.99 0.95,1.64c0.3,0.63 0.59,1.36 0.87,2.18c0.3,0.81 0.63,1.7 0.99,2.68l-2.09,0c-0.42,-1.17 -0.79,-2.2 -1.12,-3.11c-0.33,-0.9 -0.69,-1.65 -1.06,-2.27c-0.36,-0.63 -0.78,-1.1 -1.26,-1.41c-0.48,-0.33 -1.08,-0.5 -1.8,-0.5l0,-1.6c0.67,0 1.24,-0.16 1.71,-0.49c0.48,-0.35 0.9,-0.82 1.26,-1.42c0.36,-0.6 0.69,-1.3 0.99,-2.09c0.3,-0.81 0.61,-1.69 0.94,-2.64l2.03,0zm-8.49,0l0,4.86c0,0.45 -0.02,0.89 -0.06,1.31c-0.05,0.42 -0.12,0.83 -0.2,1.24c0.07,0.42 0.13,0.84 0.18,1.26c0.05,0.42 0.08,0.82 0.08,1.21l0,5.65l-1.95,0l0,-15.53l1.95,0zm2.39,6.64l0,1.6l-2.99,0l0,-1.6l2.99,0zm14.17,-2.34c0.81,0 1.49,0.11 2.04,0.34c0.56,0.21 0.98,0.57 1.26,1.08c0.29,0.51 0.43,1.21 0.43,2.09l0,7.72l-1.51,0l-0.29,-2.39l-0.11,-0.24l0,-5.09c-0.02,-0.67 -0.17,-1.15 -0.47,-1.44c-0.3,-0.3 -0.89,-0.45 -1.76,-0.45c-0.58,0 -1.31,0.03 -2.18,0.09c-0.86,0.06 -1.7,0.13 -2.54,0.21l-0.18,-1.42c0.51,-0.09 1.07,-0.18 1.68,-0.25c0.62,-0.08 1.24,-0.14 1.87,-0.18c0.63,-0.05 1.22,-0.07 1.76,-0.07zm2.83,4.48l-0.02,1.44l-5.22,0.02c-0.53,0.02 -0.9,0.16 -1.13,0.43c-0.21,0.25 -0.31,0.62 -0.31,1.08l0,0.7c0,0.57 0.13,0.99 0.4,1.26c0.29,0.25 0.72,0.38 1.31,0.38c0.42,0 0.89,-0.08 1.42,-0.22c0.54,-0.17 1.08,-0.42 1.62,-0.75c0.54,-0.33 1.03,-0.75 1.48,-1.26l0,1.42c-0.15,0.21 -0.38,0.46 -0.7,0.74c-0.3,0.27 -0.66,0.54 -1.1,0.81c-0.42,0.26 -0.89,0.47 -1.42,0.65c-0.52,0.17 -1.08,0.25 -1.68,0.25c-0.65,0 -1.22,-0.11 -1.71,-0.34c-0.5,-0.23 -0.88,-0.58 -1.15,-1.03c-0.27,-0.47 -0.41,-1.03 -0.41,-1.69l0,-1.19c0,-0.85 0.27,-1.51 0.79,-1.98c0.54,-0.48 1.29,-0.72 2.25,-0.72l5.58,0zm16.69,-4.21c0.48,0 0.72,0.24 0.72,0.72l0.47,10.24l-1.77,0l-0.43,-9.49l-0.38,0l-2.79,7.67c-0.06,0.19 -0.15,0.35 -0.27,0.47c-0.12,0.1 -0.29,0.16 -0.5,0.16l-1.48,0c-0.21,0 -0.38,-0.06 -0.5,-0.16c-0.1,-0.12 -0.19,-0.28 -0.27,-0.47l-2.79,-7.67l-0.38,0l-0.41,9.49l-1.75,0l0.45,-10.24c0,-0.48 0.25,-0.72 0.74,-0.72l1.98,0c0.21,0 0.37,0.05 0.47,0.16c0.12,0.1 0.21,0.26 0.27,0.47l2.28,6.3c0.1,0.27 0.19,0.53 0.27,0.79c0.07,0.26 0.14,0.52 0.2,0.79l0.36,0c0.07,-0.29 0.15,-0.56 0.22,-0.81c0.08,-0.26 0.16,-0.51 0.25,-0.77l2.27,-6.3c0.14,-0.42 0.39,-0.63 0.77,-0.63l2,0zm13.91,0l0,10.96l-1.89,0l0,-10.96l1.89,0zm-7.52,0l0,10.96l-1.87,0l0,-10.96l1.87,0zm5.83,0l-0.02,1.56l-5.92,0l0,-1.56l5.94,0zm14.97,0l-4.37,11.57c-0.12,0.31 -0.28,0.66 -0.47,1.05c-0.18,0.39 -0.41,0.78 -0.68,1.15c-0.25,0.39 -0.56,0.72 -0.92,0.99c-0.55,0.42 -1.18,0.67 -1.87,0.75c-0.67,0.09 -1.41,0.08 -2.2,-0.03l0.18,-1.32c0.48,0.01 0.94,-0.01 1.39,-0.07c0.47,-0.05 0.88,-0.19 1.24,-0.43c0.32,-0.22 0.6,-0.54 0.86,-0.95c0.27,-0.39 0.49,-0.81 0.67,-1.28l0.54,-1.3c0.12,-0.3 0.24,-0.63 0.36,-0.99c0.12,-0.36 0.23,-0.68 0.34,-0.97l2.88,-8.17l2.05,0zm-9,0l2.9,8.17c0.07,0.22 0.14,0.45 0.2,0.68c0.08,0.2 0.14,0.42 0.2,0.65l0.52,0l-0.65,1.46l-0.56,0c-0.17,0 -0.31,-0.05 -0.43,-0.14c-0.12,-0.09 -0.21,-0.2 -0.27,-0.36l-3.96,-10.46l2.05,0zm15.8,-0.27c0.33,0 0.7,0.02 1.1,0.05c0.42,0.03 0.84,0.08 1.26,0.15c0.42,0.08 0.81,0.18 1.17,0.32l-0.25,1.24c-0.49,-0.05 -1.01,-0.08 -1.57,-0.09c-0.54,-0.03 -1,-0.05 -1.39,-0.05c-0.86,0 -1.55,0.12 -2.08,0.36c-0.5,0.24 -0.87,0.66 -1.1,1.26c-0.22,0.6 -0.34,1.44 -0.34,2.5c0,1.06 0.12,1.9 0.34,2.52c0.23,0.6 0.6,1.02 1.1,1.26c0.53,0.24 1.22,0.36 2.08,0.36c0.22,0 0.51,-0.01 0.87,-0.02c0.38,-0.02 0.77,-0.04 1.17,-0.07c0.42,-0.03 0.82,-0.08 1.19,-0.13l0.19,1.28c-0.54,0.19 -1.14,0.34 -1.8,0.43c-0.65,0.09 -1.29,0.13 -1.94,0.13c-1.26,0 -2.27,-0.19 -3.04,-0.56c-0.76,-0.38 -1.32,-0.98 -1.66,-1.82c-0.33,-0.84 -0.5,-1.97 -0.5,-3.38c0,-1.41 0.17,-2.54 0.5,-3.38c0.34,-0.84 0.9,-1.44 1.66,-1.8c0.77,-0.37 1.78,-0.56 3.04,-0.56z" fill="#004571" id="svg_2"/>
  <path d="m60.35,25.87c-0.41,1.35 -0.76,2.5 -1.05,3.46c-0.29,0.95 -0.57,1.75 -0.84,2.4c-0.27,0.65 -0.57,1.18 -0.91,1.59c-0.33,0.4 -0.73,0.7 -1.22,0.92c-0.48,0.22 -1.1,0.37 -1.83,0.46l0,0.16c0.77,0.11 1.41,0.27 1.91,0.49c0.52,0.2 0.97,0.51 1.33,0.94c0.37,0.42 0.72,0.97 1.02,1.68c0.31,0.7 0.62,1.58 0.95,2.64c0.32,1.06 0.72,2.36 1.18,3.89l-5.29,0c-0.48,-1.69 -0.89,-3.06 -1.21,-4.1c-0.31,-1.07 -0.61,-1.88 -0.92,-2.43c-0.31,-0.56 -0.67,-0.94 -1.08,-1.14c-0.4,-0.21 -0.92,-0.32 -1.57,-0.32l-0.08,-3.38c0.67,0 1.21,-0.11 1.62,-0.35c0.42,-0.23 0.77,-0.62 1.06,-1.16c0.28,-0.56 0.56,-1.3 0.83,-2.24c0.27,-0.94 0.6,-2.11 0.97,-3.51l5.13,0zm-10.28,0l0,4.97c0,0.65 -0.07,1.31 -0.19,2c-0.11,0.66 -0.28,1.29 -0.51,1.89c0.18,0.55 0.34,1.16 0.48,1.8c0.14,0.63 0.22,1.21 0.22,1.73l0,6.24l-5.05,0l0,-18.63l5.05,0zm1.99,7.26l0,3.38l-3.24,0l0,-3.38l3.24,0zm15.94,-7.26l0,18.63l-5.08,0l0,-18.63l5.08,0zm5.78,0l0,3.4l-6,0l0,-3.4l6,0zm4.77,0l0,18.63l-5.07,0l0,-18.63l5.07,0zm8.48,0l0,18.63l-5.02,0l0,-18.63l5.02,0z" fill="#004571" id="svg_3"/>
 </g>
</svg>