<svg width="195" height="50" viewBox="0 0 195 50" fill="none" xmlns="http://www.w3.org/2000/svg">
<path fill-rule="evenodd" clip-rule="evenodd" d="M15.8611 0L15.8682 21.3865L13.3177 23.9587H0V3.8518H6.22999C12.1449 3.8518 12.4614 3.85037 12.4854 3.82757C12.4995 3.81332 13.264 2.94692 14.1853 1.90096L15.8611 0ZM11.9584 9.77271C11.9442 10.1589 11.9329 10.6477 11.923 11.1079L11.9047 11.943C11.5867 12.0371 11.403 12.0955 11.29 12.134C11.1233 12.191 11.0823 12.2009 11.071 12.1853C11.0639 12.1739 10.7658 11.8019 10.4111 11.3573L9.76394 10.5493C9.47427 10.689 9.18178 10.8358 8.92885 10.964L8.4682 11.1977C8.9345 12.6669 9.07297 13.1058 9.07863 13.1215C9.08428 13.1457 9.05602 13.1685 8.89211 13.2711C8.78472 13.3367 8.61092 13.4492 8.50635 13.5205C8.40179 13.5917 8.30853 13.6544 8.29864 13.6601C8.28734 13.6658 8.03017 13.4521 7.59213 13.0716L6.90258 12.4717C6.84747 12.5244 6.58465 12.761 6.28086 13.0303C5.97847 13.2996 5.73119 13.5262 5.73119 13.5347C5.73119 13.5419 5.96575 13.8539 6.25259 14.2259C6.53802 14.5978 6.77965 14.9113 6.78813 14.9213C6.80084 14.9355 6.76976 14.974 6.6553 15.0923C6.57335 15.1763 6.45324 15.306 6.38542 15.3801C6.31901 15.4542 6.20879 15.5825 6.13955 15.6651C6.07173 15.7478 6.00814 15.8162 5.99966 15.819C5.99119 15.8204 5.6125 15.6822 5.15751 15.5098C4.70252 15.3374 4.33089 15.1977 4.32948 15.1991C4.32948 15.1991 4.15992 15.4571 3.95221 15.7691C3.74449 16.0798 3.57634 16.3406 3.57917 16.3463C3.58058 16.3534 3.83916 16.6014 4.15427 16.8978C4.46937 17.1942 4.7548 17.4635 4.79012 17.4963L4.85371 17.5575C4.80708 17.6316 4.72371 17.7941 4.63893 17.9665C4.55415 18.1389 4.44676 18.3641 4.40013 18.4667C4.34078 18.6021 4.31111 18.6534 4.29557 18.6491C4.28426 18.6462 3.90275 18.5821 3.44776 18.508C2.99277 18.4339 2.62114 18.3741 2.61973 18.3769C2.61832 18.3783 2.51234 18.7132 2.38376 19.1208C2.25517 19.5283 2.15344 19.8661 2.15909 19.8717C2.16474 19.876 2.50669 20.0641 2.91788 20.2907C3.33048 20.5159 3.67101 20.7011 3.67101 20.7011C3.67384 20.7025 3.65265 20.8279 3.6258 20.9804C3.59754 21.1329 3.56221 21.3452 3.54667 21.4507C3.53113 21.5561 3.51417 21.6473 3.50852 21.6516C3.50287 21.6559 3.17363 21.7129 2.77658 21.777C2.38093 21.8411 2.01637 21.8995 1.96833 21.9081L1.87931 21.9209V23.2889H4.59937C4.61632 22.7973 4.62763 22.5465 4.6361 22.4125C4.64317 22.28 4.66295 22.0392 4.6785 21.8782C4.69404 21.7171 4.72371 21.4735 4.74208 21.3367C4.76186 21.1999 4.7986 20.969 4.82545 20.8237C4.8523 20.6783 4.90034 20.4446 4.93284 20.3035C4.96534 20.1625 5.02327 19.9345 5.06142 19.7976C5.09957 19.6608 5.16033 19.4585 5.19566 19.3488C5.23098 19.239 5.29457 19.0595 5.33413 18.9498C5.37511 18.84 5.44152 18.6705 5.4825 18.5721C5.52348 18.4738 5.60119 18.2985 5.6563 18.1803C5.71141 18.0634 5.80608 17.871 5.86825 17.7528C5.93043 17.6359 6.03216 17.4521 6.09434 17.3466C6.15792 17.2412 6.26955 17.0616 6.34444 16.9476C6.42074 16.8336 6.54791 16.6512 6.62987 16.5415C6.71041 16.4318 6.84041 16.2651 6.91813 16.171C6.99584 16.077 7.1329 15.9202 7.22334 15.8219C7.31236 15.7235 7.46779 15.5639 7.56811 15.4656C7.66844 15.3673 7.82669 15.2205 7.91995 15.1379C8.01321 15.0552 8.16299 14.9298 8.25201 14.8586C8.34245 14.7859 8.51201 14.6576 8.62929 14.5736C8.74798 14.4881 8.92602 14.3655 9.02493 14.3028C9.12526 14.2387 9.29199 14.1375 9.39655 14.0762C9.50112 14.015 9.69894 13.9081 9.83459 13.8397C9.97024 13.7699 10.178 13.6701 10.2938 13.6188C10.4111 13.5661 10.5948 13.4891 10.7036 13.4464C10.8124 13.4036 11.0032 13.3338 11.1275 13.2911C11.2518 13.2483 11.4497 13.1842 11.5655 13.15C11.6828 13.1158 11.8665 13.0645 11.9753 13.0374C12.0841 13.0103 12.265 12.969 12.378 12.9448C12.4911 12.922 12.679 12.8864 12.7949 12.8664C12.9121 12.8465 13.1057 12.818 13.2258 12.8023C13.3459 12.7866 13.5536 12.7638 13.6851 12.751C13.8179 12.7396 14.0977 12.7239 14.3068 12.7154C14.5173 12.7082 14.8042 12.7068 14.9469 12.7125L15.204 12.7225V11.3687C14.7279 11.3858 14.4665 11.3915 14.3153 11.3929L14.0397 11.3972C13.3813 9.95654 13.1848 9.53901 13.1764 9.53901C13.1693 9.54043 12.8909 9.59316 12.5603 9.65729L11.9584 9.77271ZM13.897 13.3352C13.7656 13.3466 13.524 13.3766 13.3601 13.4008C13.1976 13.4236 12.9531 13.4649 12.8161 13.492C12.6804 13.5191 12.4642 13.5675 12.3356 13.5989C12.2085 13.6302 12.0177 13.6815 11.9117 13.7129C11.8072 13.7428 11.6192 13.8026 11.4949 13.8454C11.3705 13.8881 11.1798 13.958 11.071 14.0021C10.9622 14.0449 10.7841 14.119 10.6753 14.1674C10.5665 14.2159 10.3503 14.3213 10.1949 14.4026C10.0395 14.4824 9.82329 14.6021 9.71448 14.6676C9.60568 14.7317 9.42199 14.85 9.30471 14.9284C9.18884 15.0053 8.99808 15.1421 8.8808 15.2305C8.76494 15.3188 8.58972 15.4585 8.49222 15.5397C8.39614 15.6224 8.22093 15.7791 8.10365 15.8888C7.98778 15.9986 7.8055 16.1838 7.69952 16.3007C7.59355 16.4175 7.44801 16.5828 7.37594 16.6698C7.30529 16.7553 7.18236 16.9134 7.10323 17.0189C7.0241 17.1243 6.8941 17.311 6.81356 17.4321C6.73302 17.5533 6.61715 17.7357 6.55781 17.8383C6.49705 17.9394 6.39672 18.119 6.33455 18.2373C6.27238 18.3541 6.17347 18.5536 6.11553 18.679C6.0576 18.8044 5.96575 19.0196 5.91064 19.1564C5.85554 19.2932 5.77217 19.5212 5.72413 19.6623C5.67608 19.8033 5.60543 20.0271 5.5687 20.161C5.53054 20.2936 5.48109 20.4831 5.45707 20.5814C5.43305 20.6797 5.39489 20.8522 5.37229 20.9662C5.34826 21.0802 5.31294 21.2725 5.29316 21.3937C5.27338 21.5148 5.24511 21.72 5.22957 21.8497C5.21403 21.9793 5.19142 22.1974 5.1787 22.3342C5.1674 22.471 5.15327 22.7417 5.14762 22.9355L5.13631 23.2889H5.88521C5.86967 23.1949 5.87108 23.0623 5.87956 22.9327C5.88662 22.803 5.90217 22.6306 5.91347 22.5479C5.92619 22.4653 5.95162 22.3313 5.97282 22.2487C5.9926 22.166 6.03358 22.0349 6.06466 21.9565C6.09575 21.8782 6.14521 21.7727 6.17629 21.7214C6.20597 21.6701 6.26107 21.5917 6.29781 21.5476C6.33596 21.5034 6.38824 21.4478 6.41509 21.425C6.44335 21.4022 6.49705 21.3623 6.5352 21.3381C6.57476 21.3124 6.65672 21.2754 6.71889 21.254C6.82204 21.2198 6.85171 21.217 7.03682 21.217C7.20921 21.2184 7.26431 21.2241 7.37594 21.254C7.45083 21.274 7.73909 21.3808 8.01886 21.492C8.29864 21.6017 9.51384 22.0805 10.7177 22.5536L12.9079 23.4143L15.3482 20.959C13.6172 16.6626 13.1015 15.3673 13.0859 15.3089C13.0704 15.2504 13.0534 15.1535 13.0478 15.0951C13.0421 15.0224 13.0478 14.954 13.0619 14.8814C13.0746 14.8229 13.1001 14.7417 13.1199 14.7032C13.1382 14.6633 13.1806 14.5964 13.2145 14.555C13.2484 14.5123 13.3205 14.4425 13.3742 14.3997C13.4293 14.357 13.5367 14.2914 13.6144 14.2529C13.6921 14.2145 13.8136 14.1646 13.8829 14.1418C13.9535 14.119 14.0835 14.0834 14.1725 14.0634C14.263 14.0435 14.4057 14.0178 14.4905 14.005C14.5767 13.9936 14.7293 13.9765 14.8296 13.9694C14.9313 13.9608 15.0571 13.9551 15.1094 13.9551H15.204V13.2854C14.7392 13.2882 14.499 13.2939 14.3704 13.301C14.2432 13.3067 14.0298 13.3224 13.897 13.3352ZM16.7442 0.0441753C16.764 0.0669754 17.527 0.933381 20.1001 3.8518H32.57L32.5629 23.9516L19.2382 23.9587L16.6877 21.3865L16.6863 10.7047C16.6849 4.2451 16.6891 0.0185251 16.6962 0.0128251C16.7033 0.00570004 16.7259 0.0199501 16.7442 0.0441753ZM21.8155 11.2504C21.7562 11.3459 21.6587 11.5126 21.5979 11.6181C21.5372 11.7235 21.4143 11.9572 21.3224 12.1382C21.232 12.3178 21.1274 12.5358 21.0907 12.6227C21.0525 12.7082 20.9875 12.8721 20.9451 12.9861C20.9027 13.1001 20.8505 13.2626 20.8279 13.3495C20.8067 13.435 20.7812 13.5632 20.7727 13.6345C20.7629 13.7043 20.7614 13.7884 20.7671 13.8197C20.7727 13.8525 20.7954 13.8967 20.8208 13.9238C20.8448 13.9508 20.8985 13.9936 20.9409 14.0192C20.9847 14.0449 21.061 14.0834 21.1105 14.1047C21.1613 14.1261 21.2193 14.1489 21.2376 14.156L21.273 14.1689C21.215 14.2287 21.1656 14.2985 21.1246 14.3612C21.085 14.4239 21.0144 14.5522 20.9706 14.6462C20.9254 14.7403 20.8589 14.8942 20.825 14.9882C20.7897 15.0823 20.736 15.249 20.7049 15.3587C20.6724 15.4685 20.6244 15.6608 20.5975 15.7863C20.5707 15.9117 20.5339 16.0941 20.5184 16.1924C20.5029 16.2907 20.4732 16.4959 20.4548 16.6484C20.435 16.8009 20.4039 16.9833 20.3842 17.0545C20.3658 17.1243 20.3163 17.2782 20.2768 17.3965C20.2358 17.5134 20.1623 17.7057 20.1115 17.824C20.0606 17.9409 19.9588 18.1589 19.8854 18.3085C19.8119 18.4567 19.7031 18.6662 19.6452 18.7716C19.5858 18.8771 19.4742 19.0695 19.3965 19.1991C19.3188 19.3288 19.176 19.5554 19.08 19.705C18.9825 19.8532 18.8101 20.1069 18.697 20.2679C18.5826 20.4289 18.4243 20.6441 18.3452 20.7481C18.2661 20.8522 18.1996 20.9419 18.1996 20.9476C18.1996 20.9533 18.5359 21.2982 18.9457 21.7114L19.6904 22.4653L20.9875 20.7595L22.2183 18.793C23.2144 16.8607 23.531 16.2579 23.5649 16.2066C23.5988 16.1553 23.6751 16.0584 23.7358 15.99C23.7966 15.923 23.8899 15.8261 23.9436 15.7763C23.9987 15.7264 24.0905 15.6494 24.1484 15.6053C24.2078 15.5611 24.2968 15.5027 24.3463 15.4742C24.3971 15.4471 24.4763 15.4143 24.5229 15.4001L24.6077 15.3758C24.7391 15.5198 24.8196 15.6309 24.8691 15.7164C24.9199 15.8019 25.0061 15.9744 25.0612 16.0998C25.1178 16.2252 25.1997 16.4275 25.2435 16.5486C25.2887 16.6698 25.3594 16.875 25.4018 17.0046C25.4442 17.1343 25.5219 17.3965 25.5756 17.5889C25.6307 17.7813 25.6886 17.995 25.707 18.0663L25.7409 18.1945C27.1963 19.7777 27.6273 20.238 27.6386 20.238C27.6513 20.2394 27.7121 20.2024 27.7757 20.1582C27.8392 20.1126 27.9565 20.0171 28.0342 19.9473C28.1134 19.876 28.2434 19.7463 28.3225 19.6566C28.4016 19.5682 28.5245 19.42 28.5966 19.3288C28.6701 19.2376 28.7973 19.0638 28.8806 18.9426C28.9654 18.8215 29.0912 18.6291 29.1618 18.5151C29.2311 18.4011 29.3413 18.2159 29.4049 18.1019C29.4699 17.9879 29.5942 17.7542 29.6818 17.5818C29.7694 17.4093 29.8994 17.14 29.9715 16.9833C30.0421 16.8265 30.1495 16.5828 30.2075 16.4418C30.2654 16.3007 30.3516 16.0855 30.3982 15.9644C30.4434 15.8432 30.5268 15.6181 30.5805 15.4656C30.6356 15.3131 30.719 15.0566 30.7684 14.8956C30.8179 14.7346 30.8871 14.4881 30.9224 14.347C30.9578 14.2059 31.003 14.0064 31.0213 13.9052C31.0411 13.8026 31.068 13.6402 31.0821 13.5419C31.0991 13.4193 31.1061 13.2711 31.1061 13.0716C31.1061 12.8265 31.1019 12.7581 31.0765 12.6512C31.0609 12.58 31.0312 12.4845 31.01 12.4375C30.9733 12.3534 30.9733 12.352 30.9281 12.362C30.9027 12.3691 30.6822 12.4019 30.4364 12.4361C30.1919 12.4717 29.8005 12.523 29.5674 12.5501C29.3342 12.5771 29.0078 12.6128 28.8397 12.6284C28.6729 12.6441 28.403 12.6669 28.2391 12.6783C28.0766 12.6911 27.7615 12.7068 27.5397 12.7168C27.315 12.7253 26.9829 12.7296 26.788 12.7239C26.5958 12.7196 26.3598 12.7082 26.2651 12.7011C26.1705 12.6926 26.015 12.6769 25.9218 12.6641C25.8285 12.6527 25.6801 12.6256 25.5897 12.6056C25.5007 12.5857 25.3763 12.5515 25.3142 12.5287C25.252 12.5059 25.1927 12.4802 25.1799 12.4731C25.163 12.4617 25.1743 12.4204 25.2548 12.1924C25.3071 12.0442 25.3481 11.923 25.3467 11.9216C25.3439 11.9202 24.8465 11.7107 24.2403 11.4556C23.6341 11.1991 23.1381 10.9939 23.1381 10.9939C23.1367 10.9968 23.0929 11.0737 23.0392 11.1649C22.9488 11.3174 22.9389 11.3302 22.9121 11.316C22.8965 11.3074 22.7764 11.2405 22.6436 11.1692C22.5122 11.0965 22.3384 11.0039 22.2592 10.964C22.1801 10.9241 22.101 10.8913 22.0854 10.8913C22.0671 10.8913 22.0346 10.9227 21.9908 10.9825C21.954 11.0338 21.8749 11.1535 21.8155 11.2504ZM0 24.7852H13.3318L15.8682 27.3431V37.6701C15.8682 43.3502 15.8653 47.9986 15.8611 47.9986C15.8583 47.9986 15.8371 47.9858 15.8159 47.9715C15.7947 47.9572 15.6689 47.886 15.5361 47.8133C15.4047 47.7407 15.1631 47.6124 14.9992 47.5269C14.8367 47.4428 14.5823 47.316 14.434 47.2462C14.287 47.1763 14.0553 47.068 13.9182 47.0082C13.7826 46.9469 13.4929 46.8258 13.2753 46.7374C13.0577 46.6491 12.7567 46.5322 12.6041 46.4767C12.4529 46.4225 12.1887 46.3313 12.0177 46.2743C11.8467 46.2173 11.5458 46.1247 11.3465 46.0677C11.1487 46.0093 10.8124 45.9166 10.5976 45.8611C10.3843 45.8055 9.99991 45.7086 9.74274 45.6459C9.48699 45.5832 9.07015 45.4834 8.81722 45.425C8.5657 45.3652 8.13332 45.2668 7.85637 45.2056C7.58083 45.1443 7.15127 45.0517 6.90258 44.9989C6.65389 44.9462 6.25683 44.8621 6.01945 44.8108C5.78347 44.761 5.47402 44.6897 5.33413 44.6541C5.19425 44.6185 4.98512 44.5586 4.86784 44.5201C4.75197 44.4817 4.54567 44.4061 4.40861 44.352C4.27296 44.2978 4.06383 44.2109 3.94231 44.1582C3.82221 44.1054 3.63428 44.0185 3.52547 43.9672C3.41667 43.9145 3.23581 43.819 3.12276 43.7563C3.01114 43.6922 2.85429 43.601 2.77658 43.5511C2.69886 43.5027 2.56886 43.4143 2.48691 43.3559C2.40637 43.296 2.28202 43.202 2.21137 43.1464C2.14213 43.0894 2.00507 42.9697 1.90757 42.8799C1.81149 42.7902 1.66312 42.6405 1.57834 42.5465C1.49497 42.4539 1.3678 42.3014 1.29574 42.2088C1.22508 42.1161 1.13183 41.9907 1.09085 41.9309C1.04987 41.8696 0.963677 41.7342 0.901504 41.6288C0.839331 41.5233 0.734768 41.3267 0.669769 41.1942C0.604771 41.0602 0.514338 40.855 0.467708 40.7382C0.422492 40.6199 0.354667 40.4318 0.317929 40.3178C0.282603 40.2038 0.22467 39.9957 0.190757 39.8547C0.155432 39.7136 0.108802 39.4827 0.086194 39.3416C0.0621727 39.2006 0.0339124 38.9982 0.0226083 38.8928C0.00282603 38.7232 0 37.881 0 31.7421V24.7852ZM12.8768 26.3954C12.8613 26.4311 12.7977 26.5793 12.7341 26.7232L12.6182 26.9868C12.142 27.0495 11.981 27.0737 11.9513 27.0809C11.9216 27.088 11.8778 27.1122 11.8538 27.1336C11.8298 27.155 11.8015 27.1892 11.7916 27.2077C11.7817 27.2276 11.7563 27.3644 11.7365 27.5112C11.7167 27.658 11.6913 27.7962 11.6814 27.8176C11.6701 27.839 11.639 27.8774 11.6108 27.9031C11.5825 27.9287 11.5387 27.953 11.5133 27.9573C11.4878 27.9601 11.3592 27.9786 11.2264 27.9972C11.0526 28.02 10.9735 28.0371 10.9367 28.0584C10.9099 28.0755 10.8746 28.1154 10.8562 28.1511C10.8322 28.1981 10.8124 28.2978 10.7728 28.5757C10.7432 28.7895 10.7107 28.9719 10.6937 29.0175C10.6782 29.0616 10.6499 29.1186 10.6329 29.1457C10.616 29.1742 10.5807 29.217 10.5538 29.2412C10.5284 29.2668 10.4747 29.301 10.4351 29.3181C10.3857 29.3395 10.3376 29.3495 10.2726 29.3481C10.209 29.3481 10.1412 29.3338 10.0465 29.3025C9.97307 29.2768 9.82329 29.2184 9.71448 29.1714C9.60568 29.1258 9.29482 28.9761 9.02211 28.8408C8.75081 28.7054 8.39473 28.523 8.23082 28.4346C8.06832 28.3477 7.90017 28.2651 7.85637 28.2537C7.8055 28.238 7.7518 28.2323 7.69387 28.238C7.64724 28.2423 7.58366 28.2565 7.55257 28.2693C7.52148 28.2822 7.47485 28.3064 7.44942 28.3235C7.42398 28.3406 7.30953 28.4703 7.19649 28.6113C7.08203 28.7524 6.90965 28.9647 6.81215 29.0816C6.71606 29.1999 6.55639 29.3894 6.4589 29.502C6.3614 29.616 6.18053 29.824 6.05619 29.9651C5.93184 30.1062 5.70152 30.3598 5.54609 30.528C5.39066 30.6961 5.08262 31.0196 4.86077 31.2462C4.64034 31.4727 4.30546 31.8034 4.11894 31.9815C3.93242 32.1596 3.70069 32.3791 3.60319 32.4674C3.50569 32.5572 3.32483 32.7211 3.20048 32.8308C3.07614 32.9405 2.84723 33.14 2.69179 33.2725C2.53636 33.4051 2.23539 33.6559 2.02061 33.8283C1.80725 33.9993 1.56138 34.1959 1.47378 34.2615C1.38758 34.3285 1.31976 34.3869 1.32541 34.3912C1.33106 34.3954 1.47236 34.4182 1.6391 34.4396C1.8779 34.471 1.97257 34.4781 2.07713 34.471C2.15202 34.4653 2.26648 34.4524 2.33148 34.441C2.39789 34.4296 2.5081 34.404 2.57593 34.384C2.64375 34.3641 2.77799 34.3128 2.87266 34.2715C2.96733 34.2301 3.12842 34.1489 3.22874 34.0919C3.33048 34.0349 3.49297 33.9352 3.58906 33.871C3.68656 33.8055 3.85471 33.6801 3.96351 33.5917C4.07231 33.502 4.41991 33.2141 4.7336 32.9505C5.04871 32.6869 5.43305 32.3662 5.58848 32.238C5.74391 32.1097 6.03075 31.876 6.22433 31.7207C6.41933 31.5639 6.71748 31.3302 6.88845 31.2006C7.05943 31.0709 7.2954 30.9013 7.41127 30.8229C7.52855 30.7446 7.67409 30.6562 7.73626 30.6249C7.79843 30.5949 7.87474 30.5664 7.90582 30.5622C7.94963 30.555 7.968 30.5593 7.98354 30.5793C7.99767 30.5949 8.00473 30.632 8.00473 30.6762C8.00332 30.7232 7.98636 30.7902 7.95669 30.8628C7.93126 30.9255 7.87332 31.0452 7.82528 31.1265C7.77865 31.2091 7.66985 31.383 7.58366 31.5112C7.49746 31.6409 7.32083 31.8874 7.19225 32.0599C7.06367 32.2323 6.84465 32.5216 6.70335 32.7011C6.56346 32.8821 6.31194 33.1999 6.14521 33.4065C5.97988 33.6145 5.61391 34.0705 5.33413 34.4182C5.05294 34.7674 4.7011 35.2105 4.55132 35.4015C4.40154 35.5939 4.16557 35.9017 4.02851 36.0855C3.89145 36.2708 3.70917 36.5273 3.62297 36.6555C3.53678 36.7852 3.42939 36.9548 3.38559 37.0331C3.34037 37.1115 3.28385 37.2241 3.26124 37.2825C3.23722 37.3424 3.21461 37.4222 3.21178 37.4606C3.20613 37.5205 3.21037 37.5376 3.23581 37.5604C3.26407 37.5875 3.27113 37.5875 3.32483 37.5704C3.35874 37.5604 3.42656 37.5276 3.47602 37.5005C3.52689 37.472 3.62862 37.4065 3.7021 37.3566C3.77699 37.3053 3.91264 37.2056 4.0059 37.1357C4.09916 37.0645 4.28426 36.9191 4.41567 36.8137C4.5485 36.7068 4.86643 36.4432 5.12218 36.228C5.37935 36.0128 5.92901 35.5454 6.34444 35.1892C6.76128 34.8329 7.28551 34.3869 7.51018 34.1974C7.73626 34.0078 8.06691 33.7357 8.24495 33.5903C8.4244 33.4464 8.68863 33.2383 8.83135 33.13C8.97548 33.0203 9.18178 32.8721 9.29058 32.7994C9.39938 32.7268 9.54633 32.6384 9.61557 32.6028C9.68764 32.5672 9.77524 32.533 9.81622 32.5273C9.87981 32.5173 9.89394 32.5201 9.91937 32.5444C9.93633 32.5615 9.94904 32.5914 9.94904 32.6156C9.94904 32.6398 9.93774 32.694 9.92644 32.7367C9.91372 32.7809 9.86992 32.8835 9.82894 32.9647C9.78796 33.0474 9.71307 33.1856 9.6622 33.2711C9.61133 33.358 9.47286 33.5689 9.35416 33.7414C9.23688 33.9138 9.08145 34.1318 9.0108 34.2259C8.94015 34.3199 8.64766 34.7018 8.3594 35.0737C8.07256 35.4471 7.70376 35.9302 7.54127 36.1496C7.37877 36.3691 7.18377 36.6427 7.10747 36.7553C7.03258 36.8693 6.92095 37.046 6.86019 37.1471C6.79943 37.2497 6.70476 37.4222 6.64824 37.5319C6.59313 37.6416 6.52107 37.7998 6.48998 37.881C6.45748 37.9637 6.41509 38.0891 6.3939 38.1589C6.37411 38.2301 6.34161 38.3612 6.32325 38.451C6.30346 38.5422 6.28086 38.7047 6.27238 38.8144C6.25966 38.9669 6.25966 39.0638 6.27238 39.2248C6.28086 39.3402 6.29357 39.4485 6.30064 39.467C6.31053 39.4955 6.42216 39.3673 7.2742 38.3584C8.04571 37.4435 8.36929 37.073 8.91189 36.4831L9.58731 35.7478C11.2674 34.186 11.4369 34.0363 11.8057 33.7428C12.0389 33.5575 12.2551 33.3808 12.2862 33.3509C12.3173 33.321 12.3611 33.2654 12.3808 33.2269C12.402 33.1885 12.4246 33.1229 12.4317 33.0787C12.4388 33.036 12.4402 32.9619 12.4331 32.9149C12.4275 32.865 12.4035 32.7937 12.378 32.7439C12.3526 32.6968 12.2607 32.5244 12.1745 32.3591C12.0869 32.1952 11.9329 31.8931 11.8312 31.6894C11.7294 31.4856 11.598 31.2077 11.5373 31.0695C11.4779 30.9327 11.4059 30.7531 11.3776 30.6705C11.3366 30.5479 11.3267 30.5009 11.3267 30.4068C11.3267 30.3156 11.3338 30.2772 11.3621 30.2159C11.3833 30.1674 11.4228 30.1147 11.4666 30.0762C11.5062 30.042 11.5726 30.0007 11.615 29.9836C11.663 29.9665 11.8495 29.9323 12.0883 29.8995C12.4148 29.8539 12.4925 29.8383 12.532 29.8112C12.5589 29.7941 12.5914 29.7613 12.6055 29.7371C12.6239 29.7086 12.6437 29.6103 12.6677 29.4307C12.6875 29.2868 12.7157 29.1429 12.7284 29.1115C12.7426 29.0816 12.7708 29.0417 12.792 29.0232C12.8132 29.0046 12.8542 28.9833 12.8839 28.9761C12.9136 28.969 13.0421 28.9491 13.1693 28.932C13.3148 28.912 13.4236 28.8906 13.4561 28.8735C13.4886 28.8564 13.5226 28.8237 13.5423 28.7866C13.5706 28.7367 13.5847 28.6626 13.6215 28.3905C13.6469 28.2066 13.6709 28.0513 13.6766 28.047C13.6808 28.0428 13.8235 27.9743 13.9931 27.8974C14.1627 27.8204 14.3011 27.7535 14.3011 27.7492C14.3011 27.7463 13.986 27.4257 13.6017 27.0367L12.9037 26.3313L12.8768 26.3954ZM19.2396 24.7852H32.5714V31.7364C32.5714 36.59 32.5672 38.7232 32.5559 38.8073C32.5474 38.8742 32.529 39.0224 32.5135 39.135C32.4979 39.249 32.464 39.4514 32.4372 39.5839C32.4103 39.7178 32.3623 39.9202 32.3312 40.0328C32.3015 40.1468 32.2436 40.3363 32.204 40.4532C32.1645 40.5714 32.0924 40.761 32.0444 40.8735C31.9977 40.9875 31.9115 41.1742 31.8536 41.2868C31.7957 41.4008 31.7038 41.5675 31.6501 41.6573C31.595 41.7485 31.5046 41.8896 31.4467 41.9708C31.3901 42.0534 31.2898 42.1888 31.2248 42.27C31.1584 42.3527 31.0397 42.4909 30.9606 42.5764C30.88 42.6633 30.7472 42.7973 30.6653 42.8742C30.5833 42.9512 30.4321 43.0823 30.3318 43.1635C30.2301 43.2462 30.0492 43.3787 29.9291 43.4599C29.809 43.5397 29.6394 43.6466 29.5546 43.6965C29.4684 43.7449 29.2819 43.8447 29.1378 43.9174C28.9937 43.99 28.7393 44.1083 28.5726 44.181C28.4059 44.2522 28.1699 44.3506 28.0498 44.3962C27.9297 44.4432 27.7417 44.5087 27.6329 44.5429C27.5241 44.5771 27.3051 44.637 27.1454 44.6769C26.9858 44.7154 26.747 44.7709 26.6156 44.798C26.4827 44.8265 26.1139 44.9049 25.796 44.9719C25.4767 45.0388 24.9722 45.1486 24.6727 45.2141C24.3731 45.2811 23.8969 45.3908 23.6129 45.4564C23.3289 45.5233 22.8428 45.6416 22.5319 45.7186C22.2211 45.7969 21.8325 45.8967 21.67 45.9409C21.5061 45.985 21.256 46.0563 21.1119 46.099C20.9677 46.1404 20.6851 46.2301 20.4831 46.2985C20.281 46.3655 19.956 46.4795 19.7624 46.5536C19.5674 46.6263 19.2792 46.7403 19.1195 46.8058C18.9598 46.8728 18.69 46.9897 18.519 47.0666C18.348 47.1436 17.9948 47.3146 17.7348 47.4457C17.4748 47.5768 17.1342 47.7549 16.9788 47.8418C16.8234 47.9288 16.6948 48 16.692 48C16.6905 47.9986 16.6877 43.3545 16.6821 27.3573L19.2396 24.7852ZM20.9988 26.1674L19.6918 26.3427L18.1459 27.8988C18.1318 28.0314 18.1163 28.1596 18.1007 28.2693C18.0852 28.3791 18.0386 28.6911 17.9962 28.9605C17.9538 29.2312 17.9001 29.5932 17.8761 29.7656C17.8535 29.938 17.8195 30.2045 17.804 30.357C17.7842 30.5408 17.7715 30.7802 17.7673 31.0623C17.7616 31.3416 17.7644 31.5568 17.7757 31.6822C17.7856 31.7891 17.804 31.943 17.8195 32.0242C17.8337 32.1069 17.8577 32.2252 17.8732 32.2879C17.8902 32.3506 17.9227 32.4603 17.9481 32.5301C17.9721 32.6014 18.0202 32.7168 18.0555 32.7866C18.0908 32.8579 18.1587 32.9733 18.2067 33.0431C18.2533 33.1144 18.3466 33.2269 18.413 33.2925C18.4794 33.3595 18.5896 33.4535 18.6603 33.502C18.7295 33.549 18.844 33.6174 18.9146 33.653C18.9839 33.6886 19.0983 33.7371 19.169 33.7627C19.2382 33.787 19.3569 33.8226 19.4304 33.8411C19.5039 33.8596 19.6565 33.8896 19.7695 33.9081C19.9461 33.9352 20.0323 33.9394 20.3912 33.9394C20.6993 33.9409 20.8702 33.9337 21.0483 33.9152C21.1797 33.901 21.3874 33.8739 21.5075 33.8539C21.6276 33.8354 21.7322 33.8197 21.7407 33.8197C21.7491 33.8197 21.752 33.8796 21.7491 33.9808C21.7449 34.0948 21.7506 34.1717 21.7675 34.2472C21.7802 34.3071 21.8085 34.3926 21.8311 34.4396C21.8523 34.4866 21.8989 34.5636 21.9328 34.6092C21.9667 34.6548 22.036 34.7246 22.0868 34.7631C22.1377 34.8016 22.2168 34.8529 22.2635 34.8742C22.3101 34.897 22.3921 34.9255 22.4472 34.9384C22.5206 34.9569 22.5913 34.9612 22.7213 34.9583L22.8965 34.9526C23.2851 35.3616 23.466 35.5568 23.5493 35.6509C23.6341 35.7449 23.7825 35.9188 23.88 36.0356C23.9761 36.1539 24.1174 36.3335 24.1937 36.4346C24.2685 36.5372 24.3788 36.6968 24.4395 36.7909C24.4989 36.8849 24.5822 37.0331 24.6232 37.1186C24.6656 37.2056 24.7136 37.3181 24.7306 37.368C24.749 37.4222 24.7645 37.5119 24.7673 37.5818C24.7716 37.6502 24.7673 37.7285 24.7589 37.7599C24.7504 37.7912 24.7122 37.8554 24.6755 37.9024C24.6331 37.9565 24.5836 37.9993 24.5384 38.0235C24.4819 38.052 24.448 38.0591 24.3689 38.0591C24.3067 38.0577 24.2304 38.0463 24.164 38.0249C24.106 38.0078 24.0043 37.9651 23.9379 37.9309C23.8715 37.8981 23.7599 37.8326 23.6906 37.7855C23.62 37.7385 23.5055 37.6559 23.4363 37.6003C23.3656 37.5461 23.2356 37.4378 23.1466 37.3595C23.0576 37.2825 22.8499 37.0844 22.686 36.9191C22.5221 36.7553 22.3384 36.5672 22.2762 36.5002C22.2154 36.4346 22.1434 36.3719 22.1179 36.362C22.0925 36.3506 22.0332 36.342 21.9837 36.342C21.9159 36.342 21.8763 36.352 21.8071 36.3848C21.759 36.409 21.6884 36.4589 21.6516 36.4959C21.6135 36.533 21.5654 36.6014 21.5414 36.6484C21.5075 36.7211 21.5004 36.751 21.5004 36.8408C21.5004 36.9191 21.5075 36.9619 21.5273 36.9975C21.5428 37.026 21.7039 37.1984 21.8876 37.3823C22.0713 37.5675 22.3143 37.8012 22.426 37.9038C22.539 38.005 22.6874 38.1375 22.758 38.1959C22.8273 38.2558 22.9389 38.3456 23.0053 38.3969C23.0717 38.4482 23.1918 38.5351 23.2738 38.5907C23.3557 38.6448 23.4787 38.7232 23.5493 38.7617C23.6186 38.8016 23.7401 38.86 23.8178 38.8913C23.8955 38.9227 24.0156 38.9626 24.0863 38.9811C24.1852 39.0053 24.253 39.0125 24.3901 39.011C24.5201 39.011 24.595 39.0025 24.6727 38.9825C24.7306 38.9669 24.8267 38.9312 24.8846 38.9027C24.9426 38.8757 25.0443 38.8144 25.1107 38.7674C25.1771 38.7189 25.2817 38.6306 25.3424 38.5693C25.4046 38.508 25.4908 38.404 25.5346 38.337C25.577 38.2715 25.6307 38.1689 25.6519 38.109C25.6731 38.0506 25.6999 37.958 25.7112 37.9024C25.7225 37.8482 25.7324 37.7257 25.7324 37.6316C25.7324 37.5376 25.7225 37.4036 25.7112 37.3324C25.6985 37.2626 25.6731 37.1471 25.6533 37.0759C25.6335 37.0061 25.5883 36.8778 25.553 36.7909C25.5177 36.7054 25.4555 36.5672 25.4131 36.4845C25.3721 36.4033 25.2944 36.2636 25.2421 36.1753C25.1884 36.0869 25.0923 35.9359 25.0259 35.8404C24.9595 35.7449 24.8465 35.5896 24.773 35.4955C24.6995 35.4001 24.5822 35.2561 24.513 35.1735C24.4438 35.0923 24.2869 34.917 24.1654 34.7845C24.0439 34.6519 23.8672 34.471 23.7712 34.3812L23.5988 34.2187C23.62 34.1361 23.627 34.0549 23.627 33.9836C23.627 33.9138 23.6171 33.8169 23.6058 33.7699C23.5945 33.7228 23.5606 33.6373 23.531 33.5775C23.4942 33.502 23.449 33.4407 23.3727 33.3637C23.3148 33.3053 23.2314 33.2369 23.189 33.2113C23.1466 33.1856 23.0632 33.1471 23.0053 33.1272C22.9092 33.0916 22.8796 33.0887 22.6973 33.0873C22.5871 33.0873 22.4966 33.083 22.4966 33.0787C22.4966 33.0759 22.6846 32.8835 22.9135 32.6512L23.3303 32.2309L27.421 36.3563C27.6033 36.9476 27.6668 37.1443 27.681 37.1756C27.6979 37.2155 27.7205 37.2412 27.7573 37.2583C27.7855 37.2711 27.8223 37.2825 27.8378 37.2825C27.8534 37.2825 27.883 37.2768 27.9042 37.2683C27.9254 37.2597 28.3691 36.8251 28.8877 36.3021C29.4063 35.7791 29.8415 35.3345 29.8528 35.3131C29.8627 35.2918 29.8726 35.2533 29.8726 35.2276C29.8726 35.202 29.8613 35.1621 29.8471 35.1379C29.833 35.1151 29.7991 35.0851 29.7722 35.0723C29.7454 35.0595 29.5504 34.9954 29.3399 34.9298L28.9541 34.8101L24.8634 30.6861C25.3792 30.1603 25.5516 29.9736 25.5798 29.9295C25.6081 29.8867 25.6533 29.8041 25.6816 29.7442C25.7098 29.6858 25.7437 29.586 25.7593 29.5233C25.7748 29.4606 25.7946 29.3395 25.8017 29.2526C25.8101 29.1671 25.8172 29.016 25.8172 28.9177C25.8172 28.8208 25.8073 28.6569 25.796 28.5543C25.7833 28.4532 25.7565 28.2921 25.7338 28.1981C25.7112 28.104 25.6688 27.9629 25.6406 27.8846C25.6123 27.8062 25.5501 27.6694 25.5035 27.5782C25.4569 27.4884 25.3834 27.363 25.3396 27.3003C25.2972 27.2376 25.2195 27.135 25.1672 27.0723C25.1149 27.0096 25.0273 26.917 24.9751 26.8657C24.9214 26.8144 24.8168 26.726 24.7433 26.669C24.6698 26.6106 24.5554 26.5308 24.489 26.4895C24.4226 26.4482 24.3025 26.3798 24.2205 26.3384C24.1385 26.2971 24.0085 26.2387 23.9308 26.2088C23.8531 26.1788 23.7358 26.1375 23.6694 26.1176C23.603 26.099 23.4956 26.0705 23.4292 26.0549C23.3628 26.0392 23.2427 26.0164 23.1607 26.0036C23.0774 25.9907 22.8909 25.9793 22.7368 25.9765C22.5856 25.9736 22.426 25.9751 22.3836 25.9808C22.3412 25.9865 21.7181 26.0705 20.9988 26.1674ZM11.4115 15.5597C11.5019 15.5625 11.6136 15.5782 11.68 15.5939C11.7422 15.611 11.834 15.6437 11.8849 15.6665C11.9357 15.6908 12.0149 15.7378 12.0615 15.772C12.1081 15.8062 12.176 15.8646 12.2113 15.9031C12.248 15.9416 12.3003 16.0043 12.33 16.0428C12.3582 16.0827 12.4063 16.1625 12.436 16.2209C12.4642 16.2807 12.9065 17.378 14.3435 20.9947L13.661 21.6943C13.2866 22.0777 12.9729 22.3897 12.9658 22.3869C12.9574 22.384 11.8736 21.9665 10.5566 21.4578C9.23971 20.9505 8.12908 20.5216 8.09093 20.5045C8.05136 20.4874 7.97506 20.4446 7.92137 20.409C7.86626 20.3734 7.7843 20.3092 7.73909 20.2679C7.69387 20.2252 7.62463 20.1425 7.58789 20.0827C7.54833 20.0214 7.49888 19.9188 7.47344 19.8404C7.42964 19.7107 7.42822 19.6965 7.42681 19.4699C7.42681 19.2918 7.43246 19.2063 7.45225 19.1136C7.46779 19.0481 7.50029 18.9284 7.52572 18.85C7.55116 18.7716 7.60061 18.6405 7.63735 18.5579C7.67268 18.4767 7.7405 18.3384 7.78713 18.2515C7.83517 18.166 7.93267 18.005 8.00615 17.8953C8.07821 17.7855 8.19973 17.6188 8.27462 17.5248C8.3481 17.4307 8.48375 17.2711 8.57559 17.1699C8.66603 17.0688 8.82994 16.902 8.93874 16.8009C9.04754 16.6997 9.21851 16.5486 9.32025 16.4674C9.42058 16.3862 9.60285 16.2522 9.72296 16.171C9.84307 16.0912 10.0084 15.9886 10.0903 15.9444C10.1723 15.9003 10.2995 15.8361 10.3729 15.8019C10.4464 15.7677 10.5708 15.7178 10.6485 15.6908C10.7262 15.6637 10.8463 15.6266 10.917 15.611C10.9862 15.5939 11.0922 15.5739 11.1501 15.5668C11.208 15.5597 11.3253 15.5554 11.4115 15.5597ZM23.1452 26.7146C23.1961 26.7203 23.2922 26.7374 23.3586 26.7517C23.425 26.7659 23.5295 26.7944 23.5917 26.8158C23.6539 26.8372 23.7712 26.8856 23.8531 26.9241C23.9351 26.964 24.0326 27.0167 24.0721 27.041C24.1103 27.0652 24.1937 27.125 24.2558 27.1735C24.318 27.2219 24.4296 27.3245 24.5031 27.4029C24.5766 27.4799 24.6783 27.6038 24.7278 27.6794C24.7786 27.7535 24.8535 27.8817 24.8931 27.963C24.9341 28.0456 24.9934 28.1895 25.0245 28.2836C25.0556 28.3776 25.0937 28.5187 25.1107 28.5971C25.1262 28.6755 25.1432 28.8037 25.1489 28.8821C25.1559 29.0075 25.1531 29.0331 25.1262 29.0958C25.1022 29.1528 25.0273 29.2369 24.7532 29.5134C24.5116 29.757 24.4014 29.8582 24.3788 29.8582C24.3618 29.8582 24.3434 29.8511 24.3378 29.8411C24.3321 29.8311 24.3279 29.6145 24.3265 29.3595C24.3251 28.9989 24.3194 28.865 24.2996 28.7538C24.2869 28.6755 24.2601 28.5444 24.2403 28.4617C24.2205 28.3805 24.1824 28.2451 24.1555 28.1625C24.1272 28.0812 24.0707 27.943 24.0297 27.8561C23.9888 27.7706 23.904 27.6224 23.8418 27.5283C23.7796 27.4343 23.6793 27.3032 23.6171 27.2376C23.5564 27.1721 23.4532 27.0766 23.3868 27.0239C23.3204 26.9726 23.2158 26.9013 23.1537 26.8657C23.083 26.8244 23.0392 26.7902 23.0364 26.7731C23.0336 26.7574 23.0364 26.736 23.0406 26.7246C23.0491 26.7104 23.0717 26.7075 23.1452 26.7146Z" fill="#004571"/>
<path d="M48.1021 4.20254C48.8521 4.20254 49.6021 4.20254 50.3521 4.20254C51.1171 4.20254 51.8672 4.21754 52.6022 4.24754C53.3522 4.26254 54.0722 4.29254 54.7622 4.33754L54.6722 5.89005H48.4396C47.9746 5.89005 47.6296 6.01005 47.4046 6.25005C47.1946 6.47505 47.0896 6.85006 47.0896 7.37506V16.6001C47.0896 17.1251 47.1946 17.5076 47.4046 17.7476C47.6296 17.9876 47.9746 18.1076 48.4396 18.1076H54.6722L54.7622 19.6376C54.0722 19.6826 53.3522 19.7126 52.6022 19.7276C51.8672 19.7426 51.1171 19.7501 50.3521 19.7501C49.6021 19.7651 48.8521 19.7726 48.1021 19.7726C47.1871 19.7726 46.4596 19.5326 45.9196 19.0526C45.3946 18.5576 45.1246 17.8976 45.1096 17.0726V6.90256C45.1246 6.06255 45.3946 5.40255 45.9196 4.92255C46.4596 4.44254 47.1871 4.20254 48.1021 4.20254ZM45.5146 10.7501H53.7947V12.3476H45.5146V10.7501Z" fill="#004571"/>
<path d="M59.5675 4.00004L59.545 16.7351C59.545 17.2151 59.6725 17.5826 59.9275 17.8376C60.1975 18.0776 60.5725 18.1976 61.0525 18.1976H62.11L62.335 19.6601C62.2 19.7201 62.005 19.7726 61.75 19.8176C61.51 19.8626 61.255 19.8926 60.985 19.9076C60.73 19.9376 60.5125 19.9526 60.3325 19.9526C59.5225 19.9526 58.87 19.7126 58.375 19.2326C57.895 18.7526 57.655 18.0626 57.655 17.1626V4.00004H59.5675Z" fill="#004571"/>
<path d="M68.8123 8.52256C70.4623 8.52256 71.6548 8.82257 72.3898 9.42257C73.1398 10.0226 73.5148 10.9151 73.5148 12.1001C73.5298 13.0751 73.3273 13.8401 72.9073 14.3951C72.4873 14.9351 71.8198 15.2051 70.9048 15.2051H64.5147V13.7201H70.4098C70.9048 13.7201 71.2273 13.5551 71.3773 13.2251C71.5273 12.8801 71.6023 12.5051 71.6023 12.1001C71.5873 11.3951 71.3773 10.8926 70.9723 10.5926C70.5673 10.2926 69.8773 10.1426 68.9023 10.1426C68.1073 10.1426 67.4773 10.2626 67.0123 10.5026C66.5622 10.7276 66.2397 11.1326 66.0447 11.7176C65.8647 12.2876 65.7747 13.0901 65.7747 14.1251C65.7747 15.2951 65.8872 16.1876 66.1122 16.8026C66.3522 17.4176 66.7272 17.8376 67.2373 18.0626C67.7473 18.2876 68.4223 18.4001 69.2623 18.4001C69.8473 18.4001 70.4848 18.3776 71.1748 18.3326C71.8798 18.2726 72.5098 18.2051 73.0648 18.1301L73.2673 19.4126C72.9223 19.5476 72.4948 19.6601 71.9848 19.7501C71.4898 19.8401 70.9723 19.9076 70.4323 19.9526C69.9073 19.9976 69.4348 20.0201 69.0148 20.0201C67.7547 20.0201 66.7422 19.8326 65.9772 19.4576C65.2122 19.0676 64.6497 18.4526 64.2897 17.6126C63.9447 16.7576 63.7722 15.6326 63.7722 14.2376C63.7722 12.7976 63.9447 11.6651 64.2897 10.8401C64.6497 10.0001 65.1972 9.40757 65.9322 9.06257C66.6822 8.70257 67.6423 8.52256 68.8123 8.52256Z" fill="#004571"/>
<path d="M81.0773 8.52256C81.4073 8.52256 81.7748 8.53756 82.1798 8.56756C82.5848 8.59756 82.9973 8.65007 83.4173 8.72507C83.8523 8.80007 84.2498 8.90507 84.6098 9.04007L84.3623 10.2776C83.8673 10.2326 83.3423 10.2026 82.7873 10.1876C82.2473 10.1576 81.7823 10.1426 81.3923 10.1426C80.5223 10.1426 79.8323 10.2626 79.3223 10.5026C78.8123 10.7426 78.4448 11.1626 78.2198 11.7626C77.9948 12.3626 77.8823 13.1951 77.8823 14.2601C77.8823 15.3251 77.9948 16.1651 78.2198 16.7801C78.4448 17.3801 78.8123 17.8001 79.3223 18.0401C79.8323 18.2801 80.5223 18.4001 81.3923 18.4001C81.6173 18.4001 81.9098 18.3926 82.2698 18.3776C82.6298 18.3626 83.0123 18.3401 83.4173 18.3101C83.8373 18.2801 84.2348 18.2351 84.6098 18.1751L84.8123 19.4576C84.2573 19.6526 83.6498 19.7951 82.9898 19.8851C82.3448 19.9751 81.6998 20.0201 81.0548 20.0201C79.7948 20.0201 78.7823 19.8326 78.0173 19.4576C77.2523 19.0826 76.6973 18.4751 76.3523 17.6351C76.0223 16.7951 75.8573 15.6701 75.8573 14.2601C75.8573 12.8501 76.0298 11.7251 76.3748 10.8851C76.7198 10.0451 77.2748 9.44507 78.0398 9.08507C78.8048 8.71006 79.8173 8.52256 81.0773 8.52256Z" fill="#004571"/>
<path d="M90.1506 5.55255V16.7351C90.1506 17.2601 90.2631 17.6351 90.4881 17.8601C90.7131 18.0851 91.0956 18.1976 91.6356 18.1976H93.3006L93.5256 19.6601C93.2856 19.7201 93.0081 19.7726 92.6931 19.8176C92.3781 19.8626 92.0706 19.8926 91.7706 19.9076C91.4706 19.9376 91.2306 19.9526 91.0506 19.9526C90.1356 19.9526 89.4381 19.6976 88.9581 19.1876C88.4781 18.6776 88.2381 17.9426 88.2381 16.9826V5.55255H90.1506ZM93.6381 8.79257V10.3001H86.2581V8.90507L88.4181 8.79257H93.6381Z" fill="#004571"/>
<path d="M97.46 8.79257L97.7075 10.8851L97.8875 11.2226V19.7501H95.975V8.79257H97.46ZM102.838 8.52256L102.613 10.3226H101.983C101.338 10.3226 100.693 10.4576 100.048 10.7276C99.4025 10.9826 98.615 11.3501 97.685 11.8301L97.5275 10.6376C98.3375 9.97757 99.1475 9.46007 99.9575 9.08507C100.783 8.71006 101.578 8.52256 102.343 8.52256H102.838Z" fill="#004571"/>
<path d="M109.355 8.52256C110.615 8.52256 111.62 8.71006 112.37 9.08507C113.135 9.46007 113.683 10.0751 114.013 10.9301C114.343 11.7701 114.508 12.8876 114.508 14.2826C114.508 15.6776 114.343 16.8026 114.013 17.6576C113.683 18.4976 113.135 19.1051 112.37 19.4801C111.62 19.8551 110.615 20.0426 109.355 20.0426C108.11 20.0426 107.105 19.8551 106.34 19.4801C105.59 19.1051 105.043 18.4976 104.698 17.6576C104.368 16.8026 104.203 15.6776 104.203 14.2826C104.203 12.8876 104.368 11.7701 104.698 10.9301C105.043 10.0751 105.59 9.46007 106.34 9.08507C107.105 8.71006 108.11 8.52256 109.355 8.52256ZM109.355 10.1426C108.56 10.1426 107.93 10.2701 107.465 10.5251C107.015 10.7651 106.693 11.1851 106.498 11.7851C106.303 12.3851 106.205 13.2176 106.205 14.2826C106.205 15.3476 106.303 16.1801 106.498 16.7801C106.693 17.3801 107.015 17.8076 107.465 18.0626C107.93 18.3026 108.56 18.4226 109.355 18.4226C110.15 18.4226 110.78 18.3026 111.245 18.0626C111.71 17.8076 112.04 17.3801 112.235 16.7801C112.43 16.1801 112.528 15.3476 112.528 14.2826C112.528 13.2176 112.43 12.3851 112.235 11.7851C112.04 11.1851 111.71 10.7651 111.245 10.5251C110.78 10.2701 110.15 10.1426 109.355 10.1426Z" fill="#004571"/>
<path d="M124.168 8.52256C126.148 8.52256 127.138 9.52757 127.138 11.5376V19.7501H125.226V12.0776C125.226 11.3426 125.106 10.8401 124.866 10.5701C124.626 10.2851 124.221 10.1426 123.651 10.1426C122.976 10.1426 122.301 10.3076 121.626 10.6376C120.951 10.9676 120.148 11.4176 119.218 11.9876L119.128 10.6151C119.983 9.95507 120.831 9.44507 121.671 9.08507C122.511 8.71006 123.343 8.52256 124.168 8.52256ZM119.128 8.79257L119.286 10.8851L119.421 11.2226V19.7501H117.508V8.79257H119.128Z" fill="#004571"/>
<path d="M132.562 8.79257V19.7501H130.672V8.79257H132.562ZM132.067 4.13504C132.457 4.13504 132.652 4.33004 132.652 4.72004V6.00255C132.652 6.39255 132.457 6.58755 132.067 6.58755H131.167C130.777 6.58755 130.582 6.39255 130.582 6.00255V4.72004C130.582 4.33004 130.777 4.13504 131.167 4.13504H132.067Z" fill="#004571"/>
<path d="M140.843 8.52256C141.173 8.52256 141.541 8.53756 141.946 8.56756C142.351 8.59756 142.763 8.65007 143.183 8.72507C143.618 8.80007 144.016 8.90507 144.376 9.04007L144.128 10.2776C143.633 10.2326 143.108 10.2026 142.553 10.1876C142.013 10.1576 141.548 10.1426 141.158 10.1426C140.288 10.1426 139.598 10.2626 139.088 10.5026C138.578 10.7426 138.211 11.1626 137.986 11.7626C137.761 12.3626 137.648 13.1951 137.648 14.2601C137.648 15.3251 137.761 16.1651 137.986 16.7801C138.211 17.3801 138.578 17.8001 139.088 18.0401C139.598 18.2801 140.288 18.4001 141.158 18.4001C141.383 18.4001 141.676 18.3926 142.036 18.3776C142.396 18.3626 142.778 18.3401 143.183 18.3101C143.603 18.2801 144.001 18.2351 144.376 18.1751L144.578 19.4576C144.023 19.6526 143.416 19.7951 142.756 19.8851C142.111 19.9751 141.466 20.0201 140.821 20.0201C139.561 20.0201 138.548 19.8326 137.783 19.4576C137.018 19.0826 136.463 18.4751 136.118 17.6351C135.788 16.7951 135.623 15.6701 135.623 14.2601C135.623 12.8501 135.796 11.7251 136.141 10.8851C136.486 10.0451 137.041 9.44507 137.806 9.08507C138.571 8.71006 139.583 8.52256 140.843 8.52256Z" fill="#004571"/>
<path d="M52.5212 25.5459C53.4572 25.5459 54.2492 25.5729 54.8972 25.6269C55.5632 25.6809 56.1662 25.7529 56.7062 25.8429C57.2642 25.9329 57.8312 26.0589 58.4072 26.2209L58.0292 29.9469C57.4172 29.9109 56.8502 29.8929 56.3282 29.8929C55.8062 29.8749 55.2482 29.8659 54.6542 29.8659C54.0602 29.8479 53.3492 29.8389 52.5212 29.8389C51.7832 29.8389 51.1982 29.9919 50.7661 30.2979C50.3521 30.6039 50.0641 31.1439 49.9021 31.9179C49.7401 32.6919 49.6591 33.7809 49.6591 35.185C49.6591 36.589 49.7401 37.678 49.9021 38.452C50.0641 39.226 50.3521 39.766 50.7661 40.072C51.1982 40.378 51.7832 40.531 52.5212 40.531C53.8352 40.531 54.9242 40.513 55.7882 40.477C56.6702 40.441 57.5522 40.378 58.4342 40.288L58.8122 43.987C57.9122 44.293 56.9852 44.509 56.0312 44.635C55.0952 44.761 53.9252 44.824 52.5212 44.824C50.5231 44.824 48.9211 44.518 47.7151 43.906C46.5271 43.276 45.6631 42.259 45.1231 40.855C44.6011 39.451 44.3401 37.561 44.3401 35.185C44.3401 32.8089 44.6011 30.9189 45.1231 29.5149C45.6631 28.1109 46.5271 27.1029 47.7151 26.4909C48.9211 25.8609 50.5231 25.5459 52.5212 25.5459Z" fill="#004571"/>
<path d="M68.2266 30.7029C69.4326 30.7029 70.4496 30.8649 71.2776 31.1889C72.1236 31.5129 72.7626 32.0529 73.1946 32.8089C73.6266 33.5649 73.8426 34.6089 73.8426 35.941V44.5H69.9276L69.2526 41.611L68.9286 41.125V35.914C68.9106 35.356 68.7666 34.9599 68.4966 34.7259C68.2446 34.4739 67.7766 34.3479 67.0926 34.3479C66.3906 34.3479 65.5266 34.3659 64.5006 34.4019C63.4746 34.4199 62.4036 34.4649 61.2876 34.5369L60.8555 31.3779C61.5216 31.2519 62.2956 31.1439 63.1776 31.0539C64.0776 30.9459 64.9776 30.8649 65.8776 30.8109C66.7776 30.7389 67.5606 30.7029 68.2266 30.7029ZM71.8986 36.265L71.8716 38.749H66.1206C65.7066 38.767 65.4006 38.875 65.2026 39.073C65.0226 39.253 64.9326 39.505 64.9326 39.829V40.342C64.9326 40.684 65.0406 40.954 65.2566 41.152C65.4906 41.332 65.8326 41.422 66.2826 41.422C66.7326 41.422 67.2096 41.323 67.7136 41.125C68.2176 40.927 68.7126 40.657 69.1986 40.315C69.6846 39.973 70.1076 39.604 70.4676 39.208V40.936C70.3236 41.224 70.0986 41.584 69.7926 42.016C69.5046 42.448 69.1266 42.889 68.6586 43.339C68.1906 43.771 67.6236 44.131 66.9576 44.419C66.2916 44.707 65.5176 44.851 64.6356 44.851C63.8256 44.851 63.0786 44.707 62.3946 44.419C61.7106 44.131 61.1616 43.708 60.7476 43.15C60.3515 42.592 60.1535 41.89 60.1535 41.044V39.694C60.1535 38.614 60.5315 37.777 61.2876 37.183C62.0616 36.571 63.1056 36.265 64.4196 36.265H71.8986Z" fill="#004571"/>
<path d="M93.8242 30.7029C95.0662 30.7029 96.0112 31.0269 96.6592 31.6749C97.3072 32.3049 97.6312 33.2319 97.6312 34.4559V44.5H92.7442V35.995C92.7442 35.581 92.6632 35.2929 92.5012 35.131C92.3392 34.951 92.0422 34.861 91.6102 34.861C91.3762 34.861 91.1422 34.888 90.9082 34.942C90.6742 34.978 90.4042 35.059 90.0982 35.185C89.8102 35.311 89.4412 35.5 88.9912 35.752L88.7212 33.2409C89.5492 32.3949 90.3592 31.7649 91.1512 31.3509C91.9432 30.9189 92.8342 30.7029 93.8242 30.7029ZM80.3241 31.0809L80.8641 33.7809L81.3501 34.1319V44.5H76.4631V31.0809H80.3241ZM85.6702 30.7029C86.8942 30.7029 87.8212 31.0179 88.4512 31.6479C89.0812 32.2779 89.4052 33.2139 89.4232 34.4559V44.5H84.6982V35.995C84.6982 35.581 84.5991 35.2929 84.4011 35.131C84.2211 34.951 83.9241 34.861 83.5101 34.861C83.2941 34.861 83.0601 34.888 82.8081 34.942C82.5741 34.978 82.3041 35.059 81.9981 35.185C81.6921 35.311 81.3051 35.5 80.8371 35.752L80.5671 33.2409C81.3951 32.3949 82.1961 31.7649 82.9701 31.3509C83.7621 30.9189 84.6621 30.7029 85.6702 30.7029Z" fill="#004571"/>
<path d="M109.722 30.7569C111.45 30.7569 112.674 31.3779 113.394 32.6199C114.132 33.8619 114.501 35.635 114.501 37.939C114.501 39.757 114.303 41.17 113.907 42.178C113.529 43.168 112.962 43.87 112.206 44.284C111.468 44.68 110.541 44.878 109.425 44.878C108.435 44.878 107.499 44.734 106.617 44.446C105.735 44.14 104.997 43.645 104.403 42.961L104.727 40.936C105.195 41.08 105.627 41.224 106.023 41.368C106.437 41.494 106.941 41.557 107.535 41.557C108.003 41.557 108.372 41.476 108.642 41.314C108.93 41.134 109.137 40.792 109.263 40.288C109.389 39.766 109.452 38.992 109.452 37.966C109.452 36.94 109.389 36.166 109.263 35.644C109.137 35.122 108.939 34.78 108.669 34.618C108.417 34.4559 108.084 34.3749 107.67 34.3749C107.13 34.3749 106.68 34.4559 106.32 34.618C105.96 34.762 105.555 34.969 105.105 35.239L104.457 33.2409C104.745 32.7729 105.159 32.3499 105.699 31.9719C106.239 31.5939 106.851 31.2969 107.535 31.0809C108.237 30.8649 108.966 30.7569 109.722 30.7569ZM104.241 31.0809L104.7 33.3489L105.213 33.7539V42.583L105.051 42.907C105.105 43.465 105.141 44.059 105.159 44.689C105.195 45.337 105.213 45.958 105.213 46.552V49.495H100.299V31.0809H104.241Z" fill="#004571"/>
<path d="M121.638 31.0809V39.586C121.62 40 121.71 40.297 121.908 40.477C122.106 40.657 122.43 40.747 122.88 40.747C123.312 40.747 123.753 40.684 124.203 40.558C124.671 40.432 125.256 40.198 125.958 39.856L126.282 42.367C125.346 43.213 124.419 43.843 123.501 44.257C122.583 44.671 121.629 44.878 120.639 44.878C118.029 44.878 116.724 43.627 116.724 41.125V31.0809H121.638ZM130.386 31.0809V44.5H126.525L125.931 41.8L125.445 41.476V31.0809H130.386Z" fill="#004571"/>
<path d="M138.58 30.7029C139.282 30.7029 140.029 30.7299 140.821 30.7839C141.631 30.8379 142.423 30.9009 143.197 30.9729C143.971 31.0449 144.637 31.1439 145.195 31.2699L144.871 34.1859C143.989 34.1859 143.098 34.1859 142.198 34.1859C141.316 34.1679 140.461 34.1589 139.633 34.1589C138.985 34.1589 138.499 34.1679 138.175 34.1859C137.851 34.2039 137.626 34.2579 137.5 34.3479C137.392 34.4199 137.338 34.5639 137.338 34.7799C137.338 35.0499 137.455 35.23 137.689 35.32C137.923 35.41 138.355 35.545 138.985 35.725L142.279 36.535C143.449 36.841 144.313 37.291 144.871 37.885C145.429 38.461 145.708 39.334 145.708 40.504C145.708 41.62 145.492 42.493 145.06 43.123C144.646 43.735 143.971 44.167 143.035 44.419C142.099 44.671 140.884 44.797 139.39 44.797C138.778 44.797 137.878 44.77 136.69 44.716C135.502 44.662 134.206 44.518 132.802 44.284L133.099 41.341C133.369 41.341 133.756 41.35 134.26 41.368C134.782 41.368 135.358 41.368 135.988 41.368C136.618 41.368 137.239 41.368 137.851 41.368C138.733 41.368 139.399 41.359 139.849 41.341C140.299 41.305 140.596 41.233 140.74 41.125C140.902 41.017 140.983 40.855 140.983 40.639C140.983 40.369 140.848 40.189 140.578 40.099C140.308 39.991 139.831 39.847 139.147 39.667L135.988 38.83C135.07 38.578 134.359 38.254 133.855 37.858C133.369 37.462 133.036 36.994 132.856 36.454C132.676 35.914 132.586 35.293 132.586 34.591C132.586 33.7089 132.775 32.9889 133.153 32.4309C133.531 31.8549 134.152 31.4229 135.016 31.1349C135.898 30.8469 137.086 30.7029 138.58 30.7029Z" fill="#004571"/>
<path d="M151 31C151 28.7909 152.791 27 155 27H191C193.209 27 195 28.7909 195 31V44C195 46.2091 193.209 48 191 48H155C152.791 48 151 46.2091 151 44V31Z" fill="#004571"/>
<path d="M162.352 34.952C162.971 34.952 163.461 35.08 163.824 35.336C164.187 35.592 164.421 36.0293 164.528 36.648C164.645 37.256 164.629 38.088 164.48 39.144C164.363 39.9227 164.203 40.5733 164 41.096C163.797 41.6187 163.536 42.0347 163.216 42.344C162.907 42.6533 162.523 42.872 162.064 43C161.616 43.1387 161.083 43.208 160.464 43.208C160.165 43.208 159.835 43.192 159.472 43.16C159.12 43.1387 158.757 43.1013 158.384 43.048C158.021 42.9947 157.675 42.9307 157.344 42.856C157.013 42.7813 156.715 42.696 156.448 42.6L157.712 41.592C158.011 41.624 158.309 41.6507 158.608 41.672C158.917 41.6933 159.2 41.7147 159.456 41.736C159.712 41.7467 159.915 41.7467 160.064 41.736C160.501 41.736 160.859 41.704 161.136 41.64C161.413 41.5653 161.637 41.432 161.808 41.24C161.979 41.048 162.117 40.7707 162.224 40.408C162.331 40.0453 162.421 39.5813 162.496 39.016C162.603 38.3333 162.645 37.816 162.624 37.464C162.603 37.1013 162.517 36.856 162.368 36.728C162.219 36.6 161.995 36.536 161.696 36.536C161.301 36.536 160.843 36.6907 160.32 37C159.808 37.2987 159.253 37.72 158.656 38.264L158.336 37.512C158.549 37.2133 158.805 36.9147 159.104 36.616C159.403 36.3067 159.728 36.0293 160.08 35.784C160.443 35.528 160.816 35.3253 161.2 35.176C161.584 35.0267 161.968 34.952 162.352 34.952ZM159.888 31.8L159.52 34.664C159.467 35.0373 159.403 35.3893 159.328 35.72C159.253 36.04 159.152 36.376 159.024 36.728L159.2 36.904L158.368 42.696L156.448 42.6L157.968 31.8H159.888Z" fill="white"/>
<path d="M170.431 34.952C171.338 34.952 172.037 35.0533 172.527 35.256C173.029 35.448 173.365 35.7413 173.535 36.136C173.706 36.52 173.743 37 173.647 37.576C173.562 38.0773 173.397 38.472 173.151 38.76C172.917 39.048 172.586 39.2667 172.159 39.416C171.743 39.5547 171.21 39.6507 170.559 39.704L166.623 40.04L166.799 38.856L170.287 38.52C170.607 38.488 170.863 38.44 171.055 38.376C171.258 38.3013 171.413 38.1893 171.519 38.04C171.637 37.8907 171.717 37.6773 171.759 37.4C171.813 37.0907 171.791 36.8613 171.695 36.712C171.599 36.5627 171.439 36.472 171.215 36.44C170.991 36.3973 170.693 36.376 170.319 36.376C169.957 36.376 169.647 36.4133 169.391 36.488C169.135 36.552 168.922 36.6747 168.751 36.856C168.581 37.0373 168.437 37.2933 168.319 37.624C168.213 37.944 168.117 38.3707 168.031 38.904C167.914 39.672 167.898 40.2533 167.983 40.648C168.079 41.032 168.271 41.2933 168.559 41.432C168.858 41.56 169.253 41.624 169.743 41.624C170.01 41.624 170.319 41.6187 170.671 41.608C171.023 41.5867 171.375 41.5653 171.727 41.544C172.09 41.512 172.421 41.48 172.719 41.448L172.847 42.68C172.559 42.808 172.213 42.9093 171.807 42.984C171.413 43.0587 171.013 43.112 170.607 43.144C170.213 43.176 169.839 43.192 169.487 43.192C168.506 43.192 167.738 43.0373 167.183 42.728C166.639 42.4187 166.277 41.9493 166.095 41.32C165.914 40.68 165.882 39.88 165.999 38.92C166.106 38.1307 166.266 37.48 166.479 36.968C166.703 36.4453 166.991 36.04 167.343 35.752C167.695 35.4533 168.127 35.2453 168.639 35.128C169.151 35.0107 169.749 34.952 170.431 34.952Z" fill="white"/>
<path d="M178.62 32.904L177.516 40.68C177.473 41 177.505 41.224 177.611 41.352C177.718 41.48 177.937 41.544 178.268 41.544H179.404L179.499 42.904C179.307 42.968 179.078 43.016 178.811 43.048C178.555 43.0907 178.305 43.1173 178.059 43.128C177.825 43.1493 177.633 43.16 177.484 43.16C176.769 43.16 176.241 42.968 175.9 42.584C175.558 42.2 175.436 41.6667 175.531 40.984L176.699 32.904H178.62ZM180.62 35.144L180.428 36.488H174.779L174.939 35.224L176.475 35.144H180.62Z" fill="white"/>
<path d="M185.476 34.952C185.753 34.952 186.057 34.9627 186.388 34.984C186.729 35.0053 187.071 35.0373 187.412 35.08C187.753 35.112 188.079 35.1547 188.388 35.208C188.708 35.2507 188.98 35.2987 189.204 35.352L188.02 36.456C187.529 36.4347 187.081 36.4187 186.676 36.408C186.281 36.3973 185.94 36.392 185.652 36.392C185.225 36.392 184.868 36.424 184.58 36.488C184.303 36.5413 184.073 36.6587 183.892 36.84C183.711 37.0107 183.561 37.272 183.444 37.624C183.337 37.9653 183.241 38.424 183.156 39C183.06 39.7147 183.012 40.2587 183.012 40.632C183.012 41.0053 183.087 41.2613 183.236 41.4C183.385 41.5387 183.615 41.608 183.924 41.608C184.255 41.5973 184.591 41.5067 184.932 41.336C185.273 41.1653 185.62 40.92 185.972 40.6C186.324 40.28 186.676 39.9067 187.028 39.48L187.38 40.2C187.145 40.7653 186.825 41.272 186.42 41.72C186.015 42.168 185.551 42.5253 185.028 42.792C184.505 43.048 183.935 43.1813 183.316 43.192C182.655 43.2027 182.143 43.0693 181.78 42.792C181.428 42.504 181.204 42.0453 181.108 41.416C181.023 40.776 181.049 39.9547 181.188 38.952C181.327 38.056 181.513 37.3413 181.748 36.808C181.983 36.264 182.276 35.864 182.628 35.608C182.98 35.3413 183.391 35.1653 183.86 35.08C184.34 34.9947 184.879 34.952 185.476 34.952ZM187.284 35.272L189.204 35.352L188.132 43H186.628L186.692 41.192L186.468 41.016L187.284 35.272Z" fill="white"/>
</svg>
