<svg width="139" height="48" viewBox="0 0 139 48" fill="none" xmlns="http://www.w3.org/2000/svg">
<path fill-rule="evenodd" clip-rule="evenodd" d="M23.572 0L23.5791 21.3865L21.0286 23.9587H7.71094V3.8518H13.9409C19.8558 3.8518 20.1723 3.85037 20.1963 3.82757C20.2105 3.81332 20.9749 2.94692 21.8962 1.90096L23.572 0ZM19.6693 9.77271C19.6552 10.1589 19.6439 10.6477 19.634 11.1079L19.6156 11.943C19.2977 12.0371 19.114 12.0955 19.0009 12.134C18.8342 12.191 18.7932 12.2009 18.7819 12.1853C18.7749 12.1739 18.4767 11.8019 18.122 11.3573L17.4749 10.5493C17.1852 10.689 16.8927 10.8358 16.6398 10.964L16.1791 11.1977C16.6454 12.6669 16.7839 13.1058 16.7896 13.1215C16.7952 13.1457 16.767 13.1685 16.603 13.2711C16.4957 13.3367 16.3219 13.4492 16.2173 13.5205C16.1127 13.5917 16.0195 13.6544 16.0096 13.6601C15.9983 13.6658 15.7411 13.4521 15.3031 13.0716L14.6135 12.4717C14.5584 12.5244 14.2956 12.761 13.9918 13.0303C13.6894 13.2996 13.4421 13.5262 13.4421 13.5347C13.4421 13.5419 13.6767 13.8539 13.9635 14.2259C14.249 14.5978 14.4906 14.9113 14.4991 14.9213C14.5118 14.9355 14.4807 14.974 14.3662 15.0923C14.2843 15.1763 14.1642 15.306 14.0964 15.3801C14.0299 15.4542 13.9197 15.5825 13.8505 15.6651C13.7827 15.7478 13.7191 15.8162 13.7106 15.819C13.7021 15.8204 13.3234 15.6822 12.8684 15.5098C12.4135 15.3374 12.0418 15.1977 12.0404 15.1991C12.0404 15.2006 11.8709 15.4571 11.6631 15.7691C11.4554 16.0798 11.2873 16.3406 11.2901 16.3463C11.2915 16.3534 11.5501 16.6014 11.8652 16.8978C12.1803 17.1942 12.4657 17.4635 12.5011 17.4963L12.5646 17.5575C12.518 17.6316 12.4346 17.7941 12.3499 17.9665C12.2651 18.1389 12.1577 18.3641 12.1111 18.4667C12.0517 18.6021 12.022 18.6534 12.0065 18.6491C11.9952 18.6462 11.6137 18.5821 11.1587 18.508C10.7037 18.4339 10.3321 18.3741 10.3307 18.3769C10.3293 18.3783 10.2233 18.7132 10.0947 19.1208C9.96611 19.5283 9.86437 19.866 9.87003 19.8717C9.87568 19.876 10.2176 20.0641 10.6288 20.2907C11.0414 20.5159 11.3805 20.7011 11.382 20.7011C11.3848 20.7025 11.3636 20.8279 11.3367 20.9804C11.3085 21.1329 11.2732 21.3452 11.2576 21.4507C11.2421 21.5561 11.2251 21.6473 11.2195 21.6516C11.2138 21.6559 10.8846 21.7129 10.4875 21.777C10.0919 21.8411 9.72731 21.8995 9.67927 21.9081L9.59025 21.9209V23.2889H12.3103C12.3273 22.7973 12.3386 22.5465 12.347 22.4125C12.3541 22.28 12.3739 22.0392 12.3894 21.8782C12.405 21.7171 12.4346 21.4735 12.453 21.3367C12.4728 21.1999 12.5095 20.969 12.5364 20.8237C12.5632 20.6783 12.6113 20.4446 12.6438 20.3035C12.6763 20.1625 12.7342 19.9345 12.7724 19.7976C12.8105 19.6608 12.8713 19.4585 12.9066 19.3488C12.9419 19.239 13.0055 19.0595 13.0451 18.9498C13.086 18.84 13.1525 18.6705 13.1934 18.5721C13.2344 18.4738 13.3121 18.2985 13.3672 18.1803C13.4223 18.0634 13.517 17.871 13.5792 17.7528C13.6414 17.6359 13.7431 17.4521 13.8053 17.3466C13.8689 17.2412 13.9805 17.0616 14.0554 16.9476C14.1317 16.8336 14.2589 16.6512 14.3408 16.5415C14.4213 16.4318 14.5513 16.2651 14.6291 16.171C14.7068 16.077 14.8438 15.9202 14.9343 15.8219C15.0233 15.7235 15.1787 15.5639 15.279 15.4656C15.3794 15.3673 15.5376 15.2205 15.6309 15.1379C15.7241 15.0552 15.8739 14.9298 15.9629 14.8586C16.0534 14.7859 16.2229 14.6576 16.3402 14.5736C16.4589 14.4881 16.637 14.3655 16.7359 14.3028C16.8362 14.2387 17.0029 14.1375 17.1075 14.0762C17.2121 14.015 17.4099 13.9081 17.5455 13.8397C17.6812 13.7699 17.8889 13.6701 18.0048 13.6188C18.122 13.5661 18.3057 13.4891 18.4145 13.4464C18.5233 13.4036 18.7141 13.3338 18.8384 13.2911C18.9628 13.2483 19.1606 13.1842 19.2765 13.15C19.3938 13.1158 19.5774 13.0645 19.6862 13.0374C19.795 13.0103 19.9759 12.969 20.089 12.9448C20.202 12.922 20.3899 12.8864 20.5058 12.8664C20.6231 12.8465 20.8167 12.818 20.9368 12.8023C21.0569 12.7866 21.2646 12.7638 21.396 12.751C21.5288 12.7396 21.8086 12.7239 22.0177 12.7154C22.2283 12.7082 22.5151 12.7068 22.6578 12.7125L22.915 12.7225V11.3687C22.4388 11.3858 22.1774 11.3915 22.0262 11.3929L21.7507 11.3972C21.0922 9.95654 20.8958 9.53901 20.8873 9.53901C20.8802 9.54043 20.6019 9.59316 20.2712 9.65729L19.6693 9.77271ZM21.6079 13.3352C21.4765 13.3466 21.2349 13.3766 21.071 13.4008C20.9085 13.4236 20.6641 13.4649 20.527 13.492C20.3913 13.5191 20.1751 13.5675 20.0466 13.5989C19.9194 13.6302 19.7286 13.6815 19.6227 13.7129C19.5181 13.7428 19.3302 13.8026 19.2058 13.8454C19.0815 13.8881 18.8907 13.958 18.7819 14.0021C18.6731 14.0449 18.4951 14.119 18.3863 14.1674C18.2775 14.2159 18.0613 14.3213 17.9058 14.4026C17.7504 14.4824 17.5342 14.6021 17.4254 14.6676C17.3166 14.7317 17.1329 14.85 17.0156 14.9284C16.8998 15.0053 16.709 15.1421 16.5917 15.2305C16.4759 15.3188 16.3007 15.4585 16.2032 15.5397C16.1071 15.6224 15.9319 15.7791 15.8146 15.8888C15.6987 15.9986 15.5164 16.1838 15.4105 16.3007C15.3045 16.4175 15.1589 16.5828 15.0869 16.6698C15.0162 16.7553 14.8933 16.9134 14.8142 17.0189C14.735 17.1243 14.605 17.311 14.5245 17.4321C14.444 17.5533 14.3281 17.7357 14.2687 17.8383C14.208 17.9394 14.1077 18.119 14.0455 18.2373C13.9833 18.3541 13.8844 18.5536 13.8265 18.679C13.7685 18.8044 13.6767 19.0196 13.6216 19.1564C13.5665 19.2932 13.4831 19.5212 13.4351 19.6623C13.387 19.8034 13.3164 20.0271 13.2796 20.161C13.2415 20.2936 13.192 20.4831 13.168 20.5814C13.144 20.6797 13.1058 20.8522 13.0832 20.9662C13.0592 21.0802 13.0239 21.2725 13.0041 21.3937C12.9843 21.5148 12.9561 21.72 12.9405 21.8497C12.925 21.9793 12.9024 22.1974 12.8896 22.3342C12.8783 22.471 12.8642 22.7417 12.8586 22.9355L12.8472 23.2889H13.5961C13.5806 23.1949 13.582 23.0623 13.5905 22.9327C13.5976 22.803 13.6131 22.6306 13.6244 22.5479C13.6371 22.4653 13.6626 22.3313 13.6838 22.2487C13.7035 22.166 13.7445 22.0349 13.7756 21.9565C13.8067 21.8782 13.8561 21.7727 13.8872 21.7214C13.9169 21.6701 13.972 21.5917 14.0087 21.5476C14.0469 21.5034 14.0992 21.4478 14.126 21.425C14.1543 21.4022 14.208 21.3623 14.2461 21.3381C14.2857 21.3124 14.3677 21.2754 14.4298 21.254C14.533 21.2198 14.5627 21.217 14.7478 21.217C14.9201 21.2184 14.9753 21.2241 15.0869 21.254C15.1618 21.274 15.45 21.3808 15.7298 21.492C16.0096 21.6017 17.2248 22.0805 18.4287 22.5536L20.6188 23.4143L23.0591 20.959C21.3282 16.6626 20.8124 15.3673 20.7969 15.3089C20.7813 15.2504 20.7644 15.1535 20.7587 15.0951C20.7531 15.0224 20.7587 14.954 20.7729 14.8814C20.7856 14.8229 20.811 14.7417 20.8308 14.7032C20.8492 14.6633 20.8915 14.5964 20.9255 14.555C20.9594 14.5123 21.0314 14.4425 21.0851 14.3997C21.1402 14.357 21.2476 14.2914 21.3253 14.2529C21.4031 14.2145 21.5246 14.1646 21.5938 14.1418C21.6645 14.119 21.7945 14.0834 21.8835 14.0634C21.9739 14.0435 22.1166 14.0178 22.2014 14.005C22.2876 13.9936 22.4402 13.9765 22.5405 13.9694C22.6423 13.9608 22.768 13.9551 22.8203 13.9551H22.915V13.2854C22.4501 13.2882 22.2099 13.2939 22.0813 13.301C21.9541 13.3067 21.7408 13.3224 21.6079 13.3352ZM24.4552 0.0441753C24.475 0.0669754 25.238 0.933381 27.8111 3.8518H40.2809L40.2739 23.9516L26.9491 23.9587L24.3987 21.3865L24.3972 10.7047C24.3958 4.2451 24.4001 0.0185251 24.4071 0.0128251C24.4142 0.00570004 24.4368 0.0199501 24.4552 0.0441753ZM29.5265 11.2504C29.4671 11.3459 29.3696 11.5126 29.3089 11.6181C29.2481 11.7235 29.1252 11.9572 29.0333 12.1382C28.9429 12.3178 28.8383 12.5358 28.8016 12.6227C28.7635 12.7082 28.6985 12.8721 28.6561 12.9861C28.6137 13.1001 28.5614 13.2626 28.5388 13.3495C28.5176 13.435 28.4922 13.5632 28.4837 13.6345C28.4738 13.7043 28.4724 13.7884 28.478 13.8197C28.4837 13.8525 28.5063 13.8967 28.5317 13.9238C28.5557 13.9508 28.6094 13.9936 28.6518 14.0192C28.6956 14.0449 28.7719 14.0834 28.8214 14.1047C28.8723 14.1261 28.9302 14.1489 28.9486 14.156L28.9839 14.1689C28.926 14.2287 28.8765 14.2985 28.8355 14.3612C28.796 14.4239 28.7253 14.5522 28.6815 14.6462C28.6363 14.7403 28.5699 14.8942 28.536 14.9882C28.5006 15.0823 28.4469 15.249 28.4159 15.3587C28.3834 15.4685 28.3353 15.6608 28.3085 15.7863C28.2816 15.9117 28.2449 16.0941 28.2293 16.1924C28.2138 16.2907 28.1841 16.4959 28.1658 16.6484C28.146 16.8009 28.1149 16.9833 28.0951 17.0545C28.0767 17.1243 28.0273 17.2782 27.9877 17.3965C27.9467 17.5134 27.8733 17.7057 27.8224 17.824C27.7715 17.9409 27.6698 18.1589 27.5963 18.3085C27.5228 18.4567 27.414 18.6662 27.3561 18.7716C27.2967 18.8771 27.1851 19.0695 27.1074 19.1991C27.0297 19.3288 26.887 19.5554 26.7909 19.705C26.6934 19.8532 26.521 20.1069 26.408 20.2679C26.2935 20.4289 26.1353 20.6441 26.0561 20.7481C25.977 20.8522 25.9106 20.9419 25.9106 20.9476C25.9106 20.9533 26.2469 21.2982 26.6567 21.7114L27.4013 22.4653L28.6985 20.7595L29.9292 18.793C30.9254 16.8607 31.2419 16.2579 31.2758 16.2066C31.3097 16.1553 31.386 16.0584 31.4468 15.99C31.5075 15.923 31.6008 15.8261 31.6545 15.7763C31.7096 15.7264 31.8014 15.6494 31.8594 15.6053C31.9187 15.5611 32.0077 15.5027 32.0572 15.4742C32.1081 15.4471 32.1872 15.4143 32.2338 15.4001L32.3186 15.3758C32.45 15.5198 32.5306 15.6309 32.58 15.7164C32.6309 15.8019 32.7171 15.9744 32.7722 16.0998C32.8287 16.2252 32.9107 16.4275 32.9545 16.5486C32.9997 16.6698 33.0703 16.875 33.1127 17.0046C33.1551 17.1343 33.2328 17.3965 33.2865 17.5889C33.3416 17.7813 33.3996 17.995 33.4179 18.0663L33.4518 18.1945C34.9073 19.7777 35.3382 20.238 35.3495 20.238C35.3622 20.2394 35.423 20.2024 35.4866 20.1582C35.5502 20.1126 35.6675 20.0171 35.7452 19.9473C35.8243 19.876 35.9543 19.7463 36.0334 19.6566C36.1126 19.5682 36.2355 19.42 36.3076 19.3288C36.381 19.2376 36.5082 19.0638 36.5916 18.9426C36.6763 18.8215 36.8021 18.6291 36.8728 18.5151C36.942 18.4011 37.0522 18.2159 37.1158 18.1019C37.1808 17.9879 37.3051 17.7542 37.3927 17.5818C37.4804 17.4093 37.6104 17.14 37.6824 16.9833C37.7531 16.8265 37.8605 16.5828 37.9184 16.4418C37.9763 16.3007 38.0625 16.0855 38.1091 15.9644C38.1544 15.8433 38.2377 15.6181 38.2914 15.4656C38.3465 15.3131 38.4299 15.0566 38.4794 14.8956C38.5288 14.7346 38.598 14.4881 38.6334 14.347C38.6687 14.2059 38.7139 14.0064 38.7323 13.9052C38.7521 13.8026 38.7789 13.6402 38.793 13.5419C38.81 13.4193 38.8171 13.2711 38.8171 13.0716C38.8171 12.8265 38.8128 12.7581 38.7874 12.6512C38.7719 12.58 38.7422 12.4845 38.721 12.4375C38.6842 12.3534 38.6842 12.352 38.639 12.362C38.6136 12.3691 38.3932 12.4019 38.1473 12.4361C37.9028 12.4717 37.5114 12.523 37.2783 12.5501C37.0451 12.5771 36.7187 12.6128 36.5506 12.6284C36.3839 12.6441 36.114 12.6669 35.9501 12.6783C35.7876 12.6911 35.4725 12.7068 35.2506 12.7168C35.0259 12.7253 34.6939 12.7296 34.4989 12.7239C34.3067 12.7196 34.0707 12.7082 33.9761 12.7011C33.8814 12.6926 33.726 12.6769 33.6327 12.6641C33.5395 12.6527 33.3911 12.6256 33.3007 12.6056C33.2116 12.5857 33.0873 12.5515 33.0251 12.5287C32.9629 12.5059 32.9036 12.4802 32.8909 12.4731C32.8739 12.4617 32.8852 12.4204 32.9658 12.1924C33.018 12.0442 33.059 11.923 33.0576 11.9216C33.0548 11.9202 32.5574 11.7107 31.9512 11.4556C31.345 11.1991 30.8491 10.9925 30.8491 10.9939C30.8477 10.9968 30.8039 11.0737 30.7502 11.1649C30.6597 11.3174 30.6498 11.3302 30.623 11.316C30.6074 11.3074 30.4873 11.2405 30.3545 11.1692C30.2231 11.0965 30.0493 11.0039 29.9702 10.964C29.891 10.9241 29.8119 10.8913 29.7964 10.8913C29.778 10.8913 29.7455 10.9227 29.7017 10.9825C29.665 11.0338 29.5858 11.1535 29.5265 11.2504ZM7.71094 24.7852H21.0427L23.5791 27.3431V37.6701C23.5791 43.3502 23.5763 47.9986 23.572 47.9986C23.5692 47.9986 23.548 47.9857 23.5268 47.9715C23.5056 47.9572 23.3799 47.886 23.247 47.8133C23.1156 47.7407 22.874 47.6124 22.7101 47.5269C22.5476 47.4428 22.2933 47.316 22.1449 47.2462C21.9979 47.1763 21.7662 47.068 21.6291 47.0082C21.4935 46.9469 21.2038 46.8258 20.9862 46.7374C20.7686 46.6491 20.4676 46.5322 20.315 46.4767C20.1638 46.4225 19.8996 46.3313 19.7286 46.2743C19.5577 46.2173 19.2567 46.1247 19.0575 46.0677C18.8596 46.0093 18.5233 45.9166 18.3086 45.8611C18.0952 45.8055 17.7108 45.7086 17.4537 45.6459C17.1979 45.5832 16.7811 45.4834 16.5282 45.425C16.2766 45.3652 15.8443 45.2668 15.5673 45.2056C15.2918 45.1443 14.8622 45.0517 14.6135 44.9989C14.3648 44.9462 13.9678 44.8621 13.7304 44.8108C13.4944 44.761 13.185 44.6897 13.0451 44.6541C12.9052 44.6185 12.6961 44.5586 12.5788 44.5201C12.4629 44.4817 12.2566 44.4061 12.1195 44.352C11.9839 44.2978 11.7748 44.2109 11.6533 44.1582C11.5331 44.1055 11.3452 44.0185 11.2364 43.9672C11.1276 43.9145 10.9467 43.819 10.8337 43.7563C10.7221 43.6922 10.5652 43.601 10.4875 43.5511C10.4098 43.5027 10.2798 43.4143 10.1978 43.3559C10.1173 43.296 9.99296 43.202 9.92231 43.1464C9.85307 43.0894 9.71601 42.9697 9.61851 42.8799C9.52242 42.7902 9.37406 42.6405 9.28928 42.5465C9.20591 42.4539 9.07874 42.3014 9.00667 42.2088C8.93602 42.1161 8.84276 41.9907 8.80179 41.9309C8.76081 41.8696 8.67461 41.7342 8.61244 41.6288C8.55027 41.5233 8.44571 41.3267 8.38071 41.1942C8.31571 41.0602 8.22528 40.855 8.17865 40.7382C8.13343 40.6199 8.0656 40.4318 8.02887 40.3178C7.99354 40.2038 7.93561 39.9957 7.90169 39.8547C7.86637 39.7136 7.81974 39.4827 7.79713 39.3416C7.77311 39.2006 7.74485 38.9982 7.73355 38.8928C7.71376 38.7232 7.71094 37.881 7.71094 31.7421V24.7852ZM20.5877 26.3954C20.5722 26.4311 20.5086 26.5793 20.445 26.7232L20.3292 26.9868C19.853 27.0495 19.6919 27.0737 19.6622 27.0809C19.6326 27.088 19.5887 27.1122 19.5647 27.1336C19.5407 27.155 19.5124 27.1892 19.5026 27.2077C19.4927 27.2276 19.4672 27.3644 19.4474 27.5112C19.4277 27.658 19.4022 27.7962 19.3923 27.8176C19.381 27.839 19.3499 27.8774 19.3217 27.9031C19.2934 27.9287 19.2496 27.953 19.2242 27.9573C19.1988 27.9601 19.0702 27.9786 18.9373 27.9972C18.7635 28.02 18.6844 28.0371 18.6477 28.0584C18.6208 28.0755 18.5855 28.1154 18.5671 28.1511C18.5431 28.1981 18.5233 28.2978 18.4838 28.5757C18.4541 28.7895 18.4216 28.9719 18.4046 29.0175C18.3891 29.0616 18.3608 29.1186 18.3439 29.1457C18.3269 29.1742 18.2916 29.217 18.2648 29.2412C18.2393 29.2668 18.1856 29.301 18.1461 29.3181C18.0966 29.3395 18.0486 29.3495 17.9836 29.3481C17.92 29.3481 17.8522 29.3338 17.7575 29.3025C17.684 29.2768 17.5342 29.2184 17.4254 29.1714C17.3166 29.1258 17.0058 28.9761 16.733 28.8408C16.4617 28.7054 16.1057 28.523 15.9418 28.4346C15.7793 28.3477 15.6111 28.2651 15.5673 28.2537C15.5164 28.238 15.4627 28.2323 15.4048 28.238C15.3582 28.2423 15.2946 28.2565 15.2635 28.2693C15.2324 28.2822 15.1858 28.3064 15.1604 28.3235C15.1349 28.3406 15.0205 28.4703 14.9074 28.6113C14.793 28.7524 14.6206 28.9647 14.5231 29.0816C14.427 29.1999 14.2673 29.3894 14.1698 29.502C14.0723 29.616 13.8915 29.824 13.7671 29.9651C13.6428 30.1062 13.4125 30.3598 13.257 30.528C13.1016 30.6961 12.7936 31.0196 12.5717 31.2462C12.3513 31.4727 12.0164 31.8034 11.8299 31.9815C11.6434 32.1596 11.4116 32.3791 11.3141 32.4674C11.2166 32.5572 11.0358 32.7211 10.9114 32.8308C10.7871 32.9405 10.5582 33.14 10.4027 33.2725C10.2473 33.4051 9.94633 33.6559 9.73155 33.8283C9.51818 33.9993 9.27232 34.1959 9.18471 34.2615C9.09852 34.3285 9.03069 34.3869 9.03635 34.3912C9.042 34.3954 9.1833 34.4182 9.35004 34.4396C9.58884 34.471 9.68351 34.4781 9.78807 34.471C9.86296 34.4653 9.97741 34.4524 10.0424 34.441C10.1088 34.4296 10.219 34.404 10.2869 34.384C10.3547 34.3641 10.4889 34.3128 10.5836 34.2715C10.6783 34.2301 10.8394 34.1489 10.9397 34.0919C11.0414 34.0349 11.2039 33.9352 11.3 33.871C11.3975 33.8055 11.5656 33.6801 11.6744 33.5917C11.7832 33.502 12.1309 33.2141 12.4445 32.9505C12.7596 32.6869 13.144 32.3662 13.2994 32.238C13.4548 32.1097 13.7417 31.876 13.9353 31.7207C14.1303 31.5639 14.4284 31.3302 14.5994 31.2006C14.7704 31.0709 15.0063 30.9013 15.1222 30.8229C15.2395 30.7446 15.385 30.6562 15.4472 30.6249C15.5094 30.5949 15.5857 30.5664 15.6168 30.5622C15.6606 30.555 15.6789 30.5593 15.6945 30.5793C15.7086 30.5949 15.7157 30.632 15.7157 30.6762C15.7143 30.7232 15.6973 30.7902 15.6676 30.8628C15.6422 30.9255 15.5843 31.0452 15.5362 31.1265C15.4896 31.2091 15.3808 31.383 15.2946 31.5112C15.2084 31.6409 15.0318 31.8874 14.9032 32.0599C14.7746 32.2323 14.5556 32.5216 14.4143 32.7011C14.2744 32.8821 14.0229 33.1999 13.8561 33.4065C13.6908 33.6145 13.3248 34.0705 13.0451 34.4182C12.7639 34.7674 12.412 35.2105 12.2623 35.4015C12.1125 35.5939 11.8765 35.9017 11.7394 36.0855C11.6024 36.2708 11.4201 36.5273 11.3339 36.6555C11.2477 36.7852 11.1403 36.9548 11.0965 37.0331C11.0513 37.1115 10.9948 37.2241 10.9722 37.2825C10.9482 37.3424 10.9255 37.4222 10.9227 37.4606C10.9171 37.5205 10.9213 37.5376 10.9467 37.5604C10.975 37.5875 10.9821 37.5875 11.0358 37.5704C11.0697 37.5604 11.1375 37.5276 11.187 37.5005C11.2378 37.472 11.3396 37.4065 11.413 37.3566C11.4879 37.3053 11.6236 37.2056 11.7168 37.1357C11.8101 37.0645 11.9952 36.9191 12.1266 36.8137C12.2594 36.7068 12.5774 36.4432 12.8331 36.228C13.0903 36.0128 13.64 35.5454 14.0554 35.1892C14.4722 34.8329 14.9964 34.3869 15.2211 34.1974C15.4472 34.0078 15.7778 33.7357 15.9559 33.5903C16.1353 33.4464 16.3996 33.2383 16.5423 33.13C16.6864 33.0203 16.8927 32.8721 17.0015 32.7994C17.1103 32.7268 17.2573 32.6384 17.3265 32.6028C17.3986 32.5672 17.4862 32.533 17.5272 32.5273C17.5907 32.5173 17.6049 32.5201 17.6303 32.5444C17.6473 32.5615 17.66 32.5914 17.66 32.6156C17.66 32.6398 17.6487 32.694 17.6374 32.7367C17.6247 32.7809 17.5809 32.8835 17.5399 32.9647C17.4989 33.0474 17.424 33.1856 17.3731 33.2711C17.3223 33.358 17.1838 33.5689 17.0651 33.7414C16.9478 33.9138 16.7924 34.1318 16.7217 34.2259C16.6511 34.3199 16.3586 34.7018 16.0703 35.0737C15.7835 35.4471 15.4147 35.9302 15.2522 36.1496C15.0897 36.3691 14.8947 36.6427 14.8184 36.7553C14.7435 36.8693 14.6319 37.046 14.5711 37.1471C14.5104 37.2497 14.4157 37.4222 14.3592 37.5319C14.3041 37.6416 14.232 37.7998 14.2009 37.881C14.1684 37.9637 14.126 38.0891 14.1048 38.1589C14.0851 38.2301 14.0526 38.3612 14.0342 38.451C14.0144 38.5422 13.9918 38.7047 13.9833 38.8144C13.9706 38.9669 13.9706 39.0638 13.9833 39.2248C13.9918 39.3402 14.0045 39.4485 14.0116 39.467C14.0215 39.4955 14.1331 39.3673 14.9851 38.3584C15.7566 37.4435 16.0802 37.073 16.6228 36.4831L17.2982 35.7478C18.9783 34.186 19.1479 34.0363 19.5167 33.7428C19.7498 33.5575 19.966 33.3808 19.9971 33.3509C20.0282 33.321 20.072 33.2654 20.0918 33.2269C20.113 33.1885 20.1356 33.1229 20.1426 33.0787C20.1497 33.036 20.1511 32.9619 20.1441 32.9149C20.1384 32.865 20.1144 32.7937 20.089 32.7439C20.0635 32.6968 19.9717 32.5244 19.8855 32.3591C19.7979 32.1952 19.6439 31.8931 19.5421 31.6894C19.4404 31.4856 19.309 31.2077 19.2482 31.0695C19.1889 30.9327 19.1168 30.7531 19.0885 30.6705C19.0476 30.5479 19.0377 30.5009 19.0377 30.4068C19.0377 30.3156 19.0447 30.2772 19.073 30.2159C19.0942 30.1674 19.1338 30.1147 19.1776 30.0762C19.2171 30.042 19.2835 30.0007 19.3259 29.9836C19.374 29.9665 19.5605 29.9323 19.7993 29.8995C20.1257 29.8539 20.2034 29.8383 20.243 29.8112C20.2698 29.7941 20.3023 29.7613 20.3165 29.7371C20.3348 29.7086 20.3546 29.6103 20.3786 29.4307C20.3984 29.2868 20.4267 29.1429 20.4394 29.1115C20.4535 29.0816 20.4818 29.0417 20.503 29.0232C20.5242 29.0046 20.5651 28.9833 20.5948 28.9761C20.6245 28.969 20.7531 28.9491 20.8802 28.932C21.0258 28.912 21.1346 28.8906 21.1671 28.8735C21.1996 28.8564 21.2335 28.8237 21.2533 28.7866C21.2815 28.7367 21.2957 28.6626 21.3324 28.3905C21.3578 28.2066 21.3819 28.0513 21.3875 28.047C21.3918 28.0427 21.5345 27.9743 21.704 27.8974C21.8736 27.8204 22.0121 27.7535 22.0121 27.7492C22.0121 27.7463 21.697 27.4257 21.3126 27.0367L20.6146 26.3313L20.5877 26.3954ZM26.9506 24.7852H40.2824V31.7364C40.2824 36.59 40.2781 38.7232 40.2668 38.8073C40.2583 38.8742 40.24 39.0224 40.2244 39.135C40.2089 39.249 40.175 39.4514 40.1481 39.5839C40.1213 39.7178 40.0732 39.9202 40.0422 40.0328C40.0125 40.1468 39.9545 40.3363 39.915 40.4532C39.8754 40.5714 39.8034 40.761 39.7553 40.8735C39.7087 40.9875 39.6225 41.1742 39.5646 41.2868C39.5066 41.4008 39.4148 41.5675 39.3611 41.6573C39.306 41.7485 39.2155 41.8896 39.1576 41.9708C39.1011 42.0534 39.0008 42.1888 38.9358 42.27C38.8693 42.3527 38.7507 42.4909 38.6715 42.5764C38.591 42.6633 38.4582 42.7973 38.3762 42.8742C38.2942 42.9512 38.1431 43.0823 38.0427 43.1635C37.941 43.2462 37.7601 43.3787 37.64 43.4599C37.5199 43.5397 37.3504 43.6466 37.2656 43.6965C37.1794 43.7449 36.9929 43.8447 36.8487 43.9174C36.7046 43.99 36.4503 44.1083 36.2835 44.181C36.1168 44.2522 35.8808 44.3506 35.7607 44.3962C35.6406 44.4432 35.4527 44.5087 35.3439 44.5429C35.2351 44.5771 35.0161 44.637 34.8564 44.6769C34.6967 44.7154 34.4579 44.7709 34.3265 44.798C34.1937 44.8265 33.8249 44.9049 33.507 44.9719C33.1876 45.0388 32.6832 45.1486 32.3836 45.2141C32.084 45.2811 31.6079 45.3908 31.3238 45.4564C31.0398 45.5233 30.5537 45.6416 30.2429 45.7186C29.932 45.7969 29.5434 45.8967 29.3809 45.9409C29.217 45.985 28.9669 46.0563 28.8228 46.099C28.6787 46.1404 28.3961 46.2301 28.194 46.2985C27.992 46.3655 27.667 46.4795 27.4734 46.5536C27.2784 46.6263 26.9901 46.7403 26.8305 46.8058C26.6708 46.8728 26.4009 46.9897 26.2299 47.0666C26.0589 47.1436 25.7057 47.3146 25.4457 47.4457C25.1857 47.5768 24.8452 47.7549 24.6897 47.8418C24.5343 47.9288 24.4057 48 24.4029 48C24.4015 47.9986 24.3987 43.3545 24.393 27.3573L26.9506 24.7852ZM28.7098 26.1674L27.4027 26.3427L25.8569 27.8988C25.8428 28.0314 25.8272 28.1596 25.8117 28.2693C25.7961 28.3791 25.7495 28.6911 25.7071 28.9605C25.6647 29.2312 25.611 29.5932 25.587 29.7656C25.5644 29.938 25.5305 30.2045 25.5149 30.357C25.4952 30.5408 25.4824 30.7802 25.4782 31.0623C25.4725 31.3416 25.4754 31.5568 25.4867 31.6822C25.4966 31.7891 25.5149 31.943 25.5305 32.0242C25.5446 32.1069 25.5686 32.2252 25.5842 32.2879C25.6011 32.3506 25.6336 32.4603 25.6591 32.5301C25.6831 32.6014 25.7311 32.7168 25.7665 32.7866C25.8018 32.8579 25.8696 32.9733 25.9176 33.0431C25.9643 33.1144 26.0575 33.2269 26.1239 33.2925C26.1904 33.3595 26.3006 33.4535 26.3712 33.502C26.4405 33.549 26.5549 33.6174 26.6256 33.653C26.6948 33.6886 26.8093 33.7371 26.8799 33.7627C26.9491 33.787 27.0678 33.8226 27.1413 33.8411C27.2148 33.8596 27.3674 33.8896 27.4804 33.9081C27.6571 33.9352 27.7433 33.9394 28.1022 33.9394C28.4102 33.9409 28.5812 33.9337 28.7592 33.9152C28.8906 33.901 29.0983 33.8739 29.2185 33.8539C29.3386 33.8354 29.4431 33.8197 29.4516 33.8197C29.4601 33.8197 29.4629 33.8796 29.4601 33.9808C29.4558 34.0948 29.4615 34.1717 29.4784 34.2472C29.4912 34.3071 29.5194 34.3926 29.542 34.4396C29.5632 34.4866 29.6099 34.5636 29.6438 34.6092C29.6777 34.6548 29.7469 34.7246 29.7978 34.7631C29.8487 34.8016 29.9278 34.8529 29.9744 34.8742C30.021 34.897 30.103 34.9255 30.1581 34.9384C30.2316 34.9569 30.3022 34.9612 30.4322 34.9583L30.6074 34.9526C30.996 35.3616 31.1769 35.5568 31.2603 35.6509C31.345 35.7449 31.4934 35.9188 31.5909 36.0356C31.687 36.1539 31.8283 36.3335 31.9046 36.4346C31.9795 36.5372 32.0897 36.6968 32.1505 36.7909C32.2098 36.8849 32.2932 37.0331 32.3342 37.1186C32.3765 37.2056 32.4246 37.3181 32.4415 37.368C32.4599 37.4222 32.4755 37.5119 32.4783 37.5818C32.4825 37.6502 32.4783 37.7285 32.4698 37.7599C32.4613 37.7912 32.4232 37.8554 32.3864 37.9024C32.344 37.9565 32.2946 37.9993 32.2494 38.0235C32.1928 38.052 32.1589 38.0591 32.0798 38.0591C32.0176 38.0577 31.9413 38.0463 31.8749 38.0249C31.817 38.0078 31.7152 37.9651 31.6488 37.9309C31.5824 37.8981 31.4708 37.8326 31.4016 37.7855C31.3309 37.7385 31.2165 37.6559 31.1472 37.6003C31.0766 37.5461 30.9466 37.4378 30.8575 37.3595C30.7685 37.2825 30.5608 37.0844 30.3969 36.9191C30.233 36.7553 30.0493 36.5672 29.9871 36.5002C29.9264 36.4346 29.8543 36.3719 29.8289 36.362C29.8034 36.3506 29.7441 36.342 29.6946 36.342C29.6268 36.342 29.5872 36.352 29.518 36.3848C29.47 36.409 29.3993 36.4589 29.3626 36.4959C29.3244 36.533 29.2764 36.6014 29.2524 36.6484C29.2185 36.7211 29.2114 36.751 29.2114 36.8408C29.2114 36.9191 29.2185 36.9619 29.2382 36.9975C29.2538 37.026 29.4149 37.1984 29.5986 37.3823C29.7822 37.5675 30.0253 37.8012 30.1369 37.9038C30.25 38.005 30.3983 38.1375 30.469 38.1959C30.5382 38.2558 30.6498 38.3456 30.7162 38.3969C30.7827 38.4482 30.9028 38.5351 30.9847 38.5907C31.0667 38.6448 31.1896 38.7232 31.2603 38.7617C31.3295 38.8016 31.451 38.86 31.5287 38.8913C31.6064 38.9227 31.7266 38.9626 31.7972 38.9811C31.8961 39.0053 31.9639 39.0125 32.101 39.011C32.231 39.011 32.3059 39.0025 32.3836 38.9825C32.4415 38.9669 32.5376 38.9312 32.5956 38.9027C32.6535 38.8757 32.7552 38.8144 32.8216 38.7674C32.8881 38.7189 32.9926 38.6306 33.0534 38.5693C33.1155 38.508 33.2017 38.404 33.2455 38.337C33.2879 38.2715 33.3416 38.1689 33.3628 38.109C33.384 38.0506 33.4109 37.958 33.4222 37.9024C33.4335 37.8482 33.4434 37.7257 33.4434 37.6316C33.4434 37.5376 33.4335 37.4036 33.4222 37.3324C33.4095 37.2626 33.384 37.1471 33.3642 37.0759C33.3445 37.0061 33.2992 36.8778 33.2639 36.7909C33.2286 36.7054 33.1664 36.5672 33.124 36.4845C33.083 36.4033 33.0053 36.2636 32.9531 36.1753C32.8994 36.0869 32.8033 35.9359 32.7369 35.8404C32.6704 35.7449 32.5574 35.5896 32.4839 35.4955C32.4105 35.4001 32.2932 35.2561 32.2239 35.1735C32.1547 35.0923 31.9979 34.917 31.8763 34.7845C31.7548 34.6519 31.5782 34.471 31.4821 34.3812L31.3097 34.2187C31.3309 34.1361 31.338 34.0549 31.338 33.9836C31.338 33.9138 31.3281 33.8169 31.3168 33.7699C31.3055 33.7228 31.2716 33.6373 31.2419 33.5775C31.2052 33.502 31.1599 33.4407 31.0836 33.3637C31.0257 33.3053 30.9423 33.2369 30.8999 33.2113C30.8575 33.1856 30.7742 33.1471 30.7162 33.1272C30.6202 33.0916 30.5905 33.0887 30.4082 33.0873C30.298 33.0873 30.2076 33.083 30.2076 33.0787C30.2076 33.0759 30.3955 32.8835 30.6244 32.6512L31.0412 32.2309L35.1319 36.3563C35.3142 36.9476 35.3778 37.1443 35.3919 37.1756C35.4089 37.2155 35.4315 37.2412 35.4682 37.2583C35.4965 37.2711 35.5332 37.2825 35.5488 37.2825C35.5643 37.2825 35.594 37.2768 35.6152 37.2683C35.6364 37.2597 36.0801 36.8251 36.5986 36.3021C37.1172 35.7791 37.5524 35.3345 37.5637 35.3131C37.5736 35.2918 37.5835 35.2533 37.5835 35.2276C37.5835 35.202 37.5722 35.1621 37.5581 35.1379C37.5439 35.1151 37.51 35.0851 37.4832 35.0723C37.4563 35.0595 37.2613 34.9954 37.0508 34.9298L36.665 34.8101L32.5744 30.6861C33.0901 30.1603 33.2625 29.9736 33.2908 29.9295C33.319 29.8867 33.3642 29.8041 33.3925 29.7442C33.4208 29.6858 33.4547 29.586 33.4702 29.5233C33.4858 29.4606 33.5055 29.3395 33.5126 29.2526C33.5211 29.1671 33.5281 29.016 33.5281 28.9177C33.5281 28.8208 33.5183 28.6569 33.507 28.5543C33.4942 28.4532 33.4674 28.2921 33.4448 28.1981C33.4222 28.104 33.3798 27.963 33.3515 27.8846C33.3233 27.8062 33.2611 27.6694 33.2145 27.5782C33.1678 27.4884 33.0944 27.363 33.0505 27.3003C33.0082 27.2376 32.9304 27.135 32.8782 27.0723C32.8259 27.0096 32.7383 26.917 32.686 26.8657C32.6323 26.8144 32.5277 26.726 32.4543 26.669C32.3808 26.6106 32.2663 26.5308 32.1999 26.4895C32.1335 26.4482 32.0134 26.3798 31.9314 26.3384C31.8495 26.2971 31.7195 26.2387 31.6418 26.2088C31.5641 26.1788 31.4468 26.1375 31.3804 26.1176C31.314 26.099 31.2066 26.0705 31.1402 26.0549C31.0737 26.0392 30.9536 26.0164 30.8717 26.0036C30.7883 25.9907 30.6018 25.9793 30.4478 25.9765C30.2966 25.9736 30.1369 25.9751 30.0945 25.9808C30.0521 25.9865 29.429 26.0705 28.7098 26.1674ZM19.1225 15.5597C19.2129 15.5625 19.3245 15.5782 19.3909 15.5939C19.4531 15.611 19.5449 15.6437 19.5958 15.6665C19.6467 15.6908 19.7258 15.7378 19.7724 15.772C19.8191 15.8062 19.8869 15.8646 19.9222 15.9031C19.959 15.9416 20.0112 16.0043 20.0409 16.0428C20.0692 16.0827 20.1172 16.1625 20.1469 16.2209C20.1751 16.2807 20.6174 17.378 22.0545 20.9947L21.372 21.6943C20.9975 22.0777 20.6838 22.3897 20.6768 22.3869C20.6683 22.384 19.5845 21.9665 18.2676 21.4578C16.9506 20.9505 15.84 20.5216 15.8019 20.5045C15.7623 20.4874 15.686 20.4446 15.6323 20.409C15.5772 20.3734 15.4952 20.3092 15.45 20.2679C15.4048 20.2252 15.3356 20.1425 15.2988 20.0827C15.2593 20.0214 15.2098 19.9188 15.1844 19.8404C15.1406 19.7107 15.1392 19.6965 15.1377 19.4699C15.1377 19.2918 15.1434 19.2063 15.1632 19.1136C15.1787 19.0481 15.2112 18.9284 15.2367 18.85C15.2621 18.7716 15.3115 18.6405 15.3483 18.5579C15.3836 18.4767 15.4514 18.3384 15.4981 18.2515C15.5461 18.166 15.6436 18.005 15.7171 17.8953C15.7891 17.7855 15.9107 17.6188 15.9856 17.5248C16.059 17.4307 16.1947 17.2711 16.2865 17.1699C16.377 17.0688 16.5409 16.902 16.6497 16.8009C16.7585 16.6997 16.9295 16.5486 17.0312 16.4674C17.1315 16.3862 17.3138 16.2522 17.4339 16.171C17.554 16.0912 17.7193 15.9886 17.8013 15.9444C17.8832 15.9003 18.0104 15.8361 18.0839 15.8019C18.1574 15.7677 18.2817 15.7178 18.3594 15.6908C18.4371 15.6637 18.5572 15.6266 18.6279 15.611C18.6971 15.5939 18.8031 15.5739 18.861 15.5668C18.919 15.5597 19.0363 15.5554 19.1225 15.5597ZM30.8561 26.7146C30.907 26.7203 31.0031 26.7374 31.0695 26.7517C31.1359 26.7659 31.2405 26.7944 31.3026 26.8158C31.3648 26.8372 31.4821 26.8856 31.5641 26.9241C31.646 26.964 31.7435 27.0167 31.7831 27.041C31.8212 27.0652 31.9046 27.125 31.9668 27.1735C32.0289 27.2219 32.1406 27.3245 32.214 27.4029C32.2875 27.4799 32.3893 27.6038 32.4387 27.6794C32.4896 27.7535 32.5645 27.8817 32.604 27.963C32.645 28.0456 32.7044 28.1895 32.7354 28.2836C32.7665 28.3776 32.8047 28.5187 32.8216 28.5971C32.8372 28.6755 32.8541 28.8037 32.8598 28.8821C32.8669 29.0075 32.864 29.0331 32.8372 29.0958C32.8132 29.1528 32.7383 29.2369 32.4641 29.5134C32.2225 29.757 32.1123 29.8582 32.0897 29.8582C32.0727 29.8582 32.0544 29.8511 32.0487 29.8411C32.0431 29.8311 32.0388 29.6145 32.0374 29.3595C32.036 28.9989 32.0304 28.865 32.0106 28.7538C31.9979 28.6755 31.971 28.5444 31.9512 28.4617C31.9314 28.3805 31.8933 28.2451 31.8664 28.1625C31.8382 28.0812 31.7817 27.943 31.7407 27.8561C31.6997 27.7706 31.6149 27.6224 31.5528 27.5283C31.4906 27.4343 31.3903 27.3032 31.3281 27.2376C31.2673 27.1721 31.1642 27.0766 31.0978 27.0239C31.0313 26.9726 30.9268 26.9013 30.8646 26.8657C30.794 26.8244 30.7502 26.7902 30.7473 26.7731C30.7445 26.7574 30.7473 26.736 30.7516 26.7246C30.76 26.7104 30.7827 26.7075 30.8561 26.7146Z" fill="#004571"/>
<path d="M63.3976 4.22492C63.0976 5.07992 62.8126 5.87493 62.5426 6.60993C62.2726 7.34494 61.9951 8.00494 61.7101 8.58994C61.4401 9.17495 61.1401 9.68495 60.8101 10.12C60.495 10.54 60.135 10.8775 59.73 11.1325C59.325 11.3875 58.8525 11.545 58.3125 11.605V11.695C58.8975 11.755 59.4075 11.9125 59.8425 12.1675C60.2775 12.4225 60.66 12.7825 60.9901 13.2475C61.3351 13.6975 61.6501 14.245 61.9351 14.89C62.2351 15.52 62.5276 16.2475 62.8126 17.0725C63.1126 17.8825 63.4426 18.775 63.8026 19.75H61.7101C61.2901 18.58 60.9151 17.545 60.585 16.645C60.255 15.745 59.9025 14.9875 59.5275 14.3725C59.1675 13.7425 58.7475 13.27 58.2675 12.955C57.7875 12.625 57.1875 12.46 56.4675 12.46V10.8625C57.1425 10.8625 57.7125 10.6975 58.1775 10.3675C58.6575 10.0224 59.0775 9.54995 59.4375 8.94994C59.7975 8.34994 60.1275 7.65244 60.4275 6.85743C60.7275 6.04743 61.0426 5.16992 61.3726 4.22492H63.3976ZM54.915 4.22492V9.08494C54.915 9.53495 54.8925 9.96995 54.8475 10.39C54.8025 10.81 54.735 11.2225 54.645 11.6275C54.72 12.0475 54.78 12.4675 54.825 12.8875C54.885 13.3075 54.915 13.7125 54.915 14.1025V19.75H52.9575V4.22492H54.915ZM57.3 10.8625V12.46H54.3075V10.8625H57.3ZM71.4663 8.52244C72.2763 8.52244 72.9588 8.63494 73.5138 8.85994C74.0688 9.06995 74.4888 9.42995 74.7738 9.93995C75.0588 10.45 75.2013 11.1475 75.2013 12.0325V19.75H73.6938L73.4013 17.365L73.2888 17.1175V12.0325C73.2738 11.3575 73.1163 10.8775 72.8163 10.5925C72.5163 10.2925 71.9313 10.1425 71.0613 10.1425C70.4763 10.1425 69.7488 10.1725 68.8788 10.2325C68.0238 10.2925 67.1763 10.36 66.3363 10.435L66.1563 9.01744C66.6663 8.92744 67.2288 8.84494 67.8438 8.76994C68.4588 8.69494 69.0813 8.63494 69.7113 8.58994C70.3413 8.54494 70.9263 8.52244 71.4663 8.52244ZM74.3013 13L74.2788 14.44L69.0588 14.4625C68.5338 14.4775 68.1588 14.62 67.9338 14.89C67.7238 15.145 67.6188 15.505 67.6188 15.97V16.6675C67.6188 17.2375 67.7538 17.6575 68.0238 17.9275C68.3088 18.1825 68.7438 18.31 69.3288 18.31C69.7488 18.31 70.2213 18.235 70.7463 18.085C71.2863 17.92 71.8263 17.6725 72.3663 17.3425C72.9063 17.0125 73.4013 16.5925 73.8513 16.0825V17.5C73.7013 17.71 73.4688 17.9575 73.1538 18.2425C72.8538 18.5125 72.4863 18.7825 72.0513 19.0525C71.6313 19.3075 71.1588 19.525 70.6338 19.705C70.1088 19.87 69.5463 19.9525 68.9463 19.9525C68.3013 19.9525 67.7313 19.84 67.2363 19.615C66.7413 19.375 66.3588 19.03 66.0888 18.58C65.8188 18.115 65.6838 17.5525 65.6838 16.8925V15.7C65.6838 14.845 65.9463 14.185 66.4713 13.72C67.0113 13.24 67.7613 13 68.7213 13H74.3013ZM90.991 8.79244C91.471 8.79244 91.711 9.03245 91.711 9.51245L92.1835 19.75H90.406L89.9785 10.255H89.596L86.8059 17.9275C86.7459 18.1225 86.6559 18.28 86.5359 18.4C86.4159 18.505 86.2509 18.5575 86.0409 18.5575H84.5559C84.3459 18.5575 84.1809 18.505 84.0609 18.4C83.9559 18.28 83.8659 18.1225 83.7909 17.9275L81.0009 10.255H80.6184L80.2134 19.75H78.4584L78.9084 9.51245C78.9084 9.03245 79.1559 8.79244 79.6509 8.79244H81.6309C81.8409 8.79244 81.9984 8.84494 82.1034 8.94994C82.2234 9.05495 82.3134 9.21245 82.3734 9.42245L84.6459 15.7225C84.7509 15.9925 84.8409 16.255 84.9159 16.51C84.9909 16.765 85.0584 17.0275 85.1184 17.2975H85.4784C85.5534 17.0125 85.6284 16.7425 85.7034 16.4875C85.7784 16.2325 85.8609 15.9775 85.9509 15.7225L88.2235 9.42245C88.3585 9.00244 88.6135 8.79244 88.9885 8.79244H90.991ZM104.897 8.79244V19.75H103.007V8.79244H104.897ZM97.3821 8.79244V19.75H95.5145V8.79244H97.3821ZM103.21 8.79244L103.187 10.345H97.2696V8.79244H103.21ZM118.177 8.79244L113.812 20.3575C113.692 20.6725 113.534 21.025 113.339 21.415C113.159 21.805 112.934 22.1875 112.664 22.5625C112.409 22.9525 112.102 23.2825 111.742 23.5525C111.187 23.9725 110.564 24.22 109.874 24.295C109.199 24.385 108.464 24.3775 107.669 24.2725L107.849 22.945C108.329 22.96 108.794 22.9375 109.244 22.8775C109.709 22.8325 110.122 22.69 110.482 22.45C110.797 22.225 111.082 21.91 111.337 21.505C111.607 21.115 111.832 20.6875 112.012 20.2225L112.552 18.9175C112.672 18.6175 112.792 18.2875 112.912 17.9275C113.032 17.5675 113.144 17.245 113.249 16.96L116.129 8.79244H118.177ZM109.177 8.79244L112.079 16.96C112.154 17.185 112.222 17.41 112.282 17.635C112.357 17.845 112.424 18.0625 112.484 18.2875H113.002L112.349 19.75H111.787C111.622 19.75 111.479 19.705 111.359 19.615C111.239 19.525 111.149 19.405 111.089 19.255L107.129 8.79244H109.177ZM124.98 8.52244C125.31 8.52244 125.677 8.53744 126.082 8.56744C126.502 8.59744 126.922 8.64994 127.342 8.72494C127.762 8.79994 128.152 8.90494 128.512 9.03995L128.265 10.2775C127.77 10.2325 127.245 10.2025 126.69 10.1875C126.15 10.1575 125.685 10.1425 125.295 10.1425C124.44 10.1425 123.75 10.2625 123.225 10.5025C122.715 10.7425 122.347 11.1625 122.122 11.7625C121.897 12.3625 121.785 13.195 121.785 14.26C121.785 15.325 121.897 16.165 122.122 16.78C122.347 17.38 122.715 17.8 123.225 18.04C123.75 18.28 124.44 18.4 125.295 18.4C125.52 18.4 125.812 18.3925 126.172 18.3775C126.547 18.3625 126.937 18.34 127.342 18.31C127.762 18.28 128.16 18.235 128.535 18.175L128.715 19.4575C128.175 19.6525 127.575 19.795 126.915 19.885C126.27 19.975 125.625 20.02 124.98 20.02C123.72 20.02 122.707 19.8325 121.942 19.4575C121.177 19.0825 120.622 18.475 120.277 17.635C119.947 16.795 119.782 15.67 119.782 14.26C119.782 12.85 119.947 11.725 120.277 10.885C120.622 10.045 121.177 9.44495 121.942 9.08494C122.707 8.70994 123.72 8.52244 124.98 8.52244Z" fill="#004571"/>
<path d="M68.0641 25.8699C67.6501 27.2199 67.2991 28.3719 67.0111 29.3259C66.7231 30.2799 66.4441 31.0809 66.1741 31.7289C65.9041 32.3769 65.5981 32.9079 65.2561 33.3219C64.9321 33.7179 64.5271 34.0239 64.0411 34.2399C63.5551 34.4559 62.9431 34.6089 62.2051 34.699V34.861C62.9791 34.969 63.6181 35.131 64.1221 35.347C64.6441 35.545 65.0851 35.86 65.4451 36.292C65.8231 36.706 66.1651 37.264 66.4711 37.966C66.7771 38.668 67.0921 39.55 67.4161 40.612C67.7401 41.674 68.1361 42.97 68.6041 44.5H63.3121C62.8261 42.808 62.4211 41.44 62.0971 40.396C61.7911 39.334 61.4851 38.524 61.1791 37.966C60.8731 37.408 60.513 37.03 60.099 36.832C59.703 36.616 59.181 36.508 58.533 36.508L58.452 33.1329C59.118 33.1329 59.658 33.0159 60.072 32.7819C60.486 32.5479 60.8371 32.1609 61.1251 31.6209C61.4131 31.0629 61.6921 30.3159 61.9621 29.3799C62.2321 28.4439 62.5561 27.2739 62.9341 25.8699H68.0641ZM57.777 25.8699V30.8379C57.777 31.4859 57.714 32.1519 57.588 32.8359C57.48 33.5019 57.309 34.1319 57.075 34.7259C57.255 35.284 57.417 35.887 57.561 36.535C57.705 37.165 57.777 37.741 57.777 38.263V44.5H52.728V25.8699H57.777ZM59.775 33.1329V36.508H56.535V33.1329H59.775ZM75.7074 25.8699V44.5H70.6314V25.8699H75.7074ZM81.4855 25.8699V29.2719H75.4914V25.8699H81.4855ZM86.2645 25.8699V44.5H81.1885V25.8699H86.2645ZM94.7434 25.8699V44.5H89.7214V25.8699H94.7434Z" fill="#004571"/>
</svg>
