<svg width="147" height="50" viewBox="0 0 147 50" fill="none" xmlns="http://www.w3.org/2000/svg">
 <path fill-rule="evenodd" clip-rule="evenodd" d="M16.574 0L16.5811 21.3865L14.0306 23.9587H0.712891V3.8518H6.94288C12.8578 3.8518 13.1743 3.85037 13.1983 3.82757C13.2124 3.81332 13.9769 2.94692 14.8982 1.90096L16.574 0ZM12.6712 9.77271C12.6571 10.1589 12.6458 10.6477 12.6359 11.1079L12.6175 11.943C12.2996 12.0371 12.1159 12.0955 12.0029 12.134C11.8362 12.191 11.7952 12.2009 11.7839 12.1853C11.7768 12.1739 11.4787 11.8019 11.124 11.3573L10.4768 10.5493C10.1872 10.689 9.89467 10.8358 9.64174 10.964L9.18109 11.1977C9.64739 12.6669 9.78586 13.1058 9.79152 13.1215C9.79717 13.1457 9.76891 13.1685 9.605 13.2711C9.49761 13.3367 9.32381 13.4492 9.21925 13.5205C9.11468 13.5917 9.02142 13.6544 9.01153 13.6601C9.00023 13.6658 8.74306 13.4521 8.30502 13.0716L7.61547 12.4717C7.56036 12.5244 7.29754 12.761 6.99375 13.0303C6.69136 13.2996 6.44408 13.5262 6.44408 13.5347C6.44408 13.5419 6.67864 13.8539 6.96549 14.2259C7.25091 14.5978 7.49254 14.9113 7.50102 14.9213C7.51374 14.9355 7.48265 14.974 7.36819 15.0923C7.28624 15.1763 7.16613 15.306 7.09831 15.3801C7.0319 15.4542 6.92168 15.5825 6.85244 15.6651C6.78462 15.7478 6.72103 15.8162 6.71256 15.819C6.70408 15.8204 6.32539 15.6822 5.8704 15.5098C5.41541 15.3374 5.04378 15.1977 5.04237 15.1991C5.04237 15.2006 4.87281 15.4571 4.6651 15.7691C4.45738 16.0798 4.28923 16.3406 4.29206 16.3463C4.29347 16.3534 4.55205 16.6014 4.86716 16.8978C5.18226 17.1942 5.46769 17.4635 5.50301 17.4963L5.5666 17.5575C5.51997 17.6316 5.4366 17.7941 5.35182 17.9665C5.26704 18.1389 5.15965 18.3641 5.11302 18.4667C5.05367 18.6021 5.024 18.6534 5.00846 18.6491C4.99715 18.6462 4.61564 18.5821 4.16065 18.508C3.70566 18.4339 3.33403 18.3741 3.33262 18.3769C3.33121 18.3783 3.22523 18.7132 3.09665 19.1208C2.96806 19.5283 2.86633 19.866 2.87198 19.8717C2.87763 19.876 3.21958 20.0641 3.63077 20.2907C4.04337 20.5159 4.38249 20.7011 4.38391 20.7011C4.38673 20.7025 4.36554 20.8279 4.33869 20.9804C4.31043 21.1329 4.2751 21.3452 4.25956 21.4507C4.24402 21.5561 4.22706 21.6473 4.22141 21.6516C4.21576 21.6559 3.88652 21.7129 3.48947 21.777C3.09382 21.8411 2.72926 21.8995 2.68122 21.9081L2.5922 21.9209V23.2889H5.31226C5.32921 22.7973 5.34052 22.5465 5.349 22.4125C5.35606 22.28 5.37584 22.0392 5.39139 21.8782C5.40693 21.7171 5.4366 21.4735 5.45497 21.3367C5.47475 21.1999 5.51149 20.969 5.53834 20.8237C5.56519 20.6783 5.61323 20.4446 5.64573 20.3035C5.67823 20.1625 5.73616 19.9345 5.77431 19.7976C5.81246 19.6608 5.87322 19.4585 5.90855 19.3488C5.94388 19.239 6.00746 19.0595 6.04703 18.9498C6.088 18.84 6.15441 18.6705 6.19539 18.5721C6.23637 18.4738 6.31408 18.2985 6.36919 18.1803C6.4243 18.0634 6.51897 17.871 6.58114 17.7528C6.64332 17.6359 6.74505 17.4521 6.80723 17.3466C6.87081 17.2412 6.98244 17.0616 7.05733 16.9476C7.13363 16.8336 7.26081 16.6512 7.34276 16.5415C7.4233 16.4318 7.5533 16.2651 7.63102 16.171C7.70873 16.077 7.84579 15.9202 7.93623 15.8219C8.02525 15.7235 8.18068 15.5639 8.281 15.4656C8.38133 15.3673 8.53958 15.2205 8.63284 15.1379C8.7261 15.0552 8.87588 14.9298 8.9649 14.8586C9.05534 14.7859 9.2249 14.6576 9.34218 14.5736C9.46087 14.4881 9.63891 14.3655 9.73782 14.3028C9.83815 14.2387 10.0049 14.1375 10.1094 14.0762C10.214 14.015 10.4118 13.9081 10.5475 13.8397C10.6831 13.7699 10.8908 13.6701 11.0067 13.6188C11.124 13.5661 11.3077 13.4891 11.4165 13.4464C11.5253 13.4036 11.716 13.3338 11.8404 13.2911C11.9647 13.2483 12.1626 13.1842 12.2784 13.15C12.3957 13.1158 12.5794 13.0645 12.6882 13.0374C12.797 13.0103 12.9779 12.969 13.0909 12.9448C13.2039 12.922 13.3919 12.8864 13.5077 12.8664C13.625 12.8465 13.8186 12.818 13.9387 12.8023C14.0588 12.7866 14.2665 12.7638 14.3979 12.751C14.5308 12.7396 14.8105 12.7239 15.0197 12.7154C15.2302 12.7082 15.5171 12.7068 15.6598 12.7125L15.9169 12.7225V11.3687C15.4408 11.3858 15.1793 11.3915 15.0282 11.3929L14.7526 11.3972C14.0941 9.95654 13.8977 9.53901 13.8893 9.53901C13.8822 9.54044 13.6038 9.59316 13.2732 9.65729L12.6712 9.77271ZM14.6099 13.3352C14.4785 13.3466 14.2369 13.3766 14.073 13.4008C13.9105 13.4236 13.666 13.4649 13.5289 13.492C13.3933 13.5191 13.1771 13.5675 13.0485 13.5989C12.9213 13.6302 12.7306 13.6815 12.6246 13.7129C12.5201 13.7428 12.3321 13.8026 12.2078 13.8454C12.0834 13.8881 11.8927 13.958 11.7839 14.0021C11.6751 14.0449 11.497 14.119 11.3882 14.1674C11.2794 14.2159 11.0632 14.3213 10.9078 14.4026C10.7524 14.4824 10.5362 14.6021 10.4274 14.6676C10.3186 14.7317 10.1349 14.85 10.0176 14.9284C9.90173 15.0053 9.71097 15.1421 9.59369 15.2305C9.47783 15.3188 9.30261 15.4585 9.20512 15.5397C9.10903 15.6224 8.93382 15.7791 8.81654 15.8888C8.70067 15.9986 8.51839 16.1838 8.41241 16.3007C8.30644 16.4175 8.1609 16.5828 8.08883 16.6698C8.01818 16.7553 7.89525 16.9134 7.81612 17.0189C7.73699 17.1243 7.60699 17.311 7.52645 17.4321C7.44591 17.5533 7.33004 17.7357 7.2707 17.8383C7.20994 17.9394 7.10961 18.119 7.04744 18.2373C6.98527 18.3541 6.88636 18.5536 6.82842 18.679C6.77049 18.8044 6.67864 19.0196 6.62354 19.1564C6.56843 19.2932 6.48506 19.5212 6.43702 19.6623C6.38897 19.8033 6.31832 20.0271 6.28159 20.161C6.24343 20.2936 6.19398 20.4831 6.16996 20.5814C6.14594 20.6797 6.10778 20.8522 6.08518 20.9662C6.06116 21.0802 6.02583 21.2725 6.00605 21.3937C5.98627 21.5148 5.95801 21.72 5.94246 21.8497C5.92692 21.9793 5.90431 22.1974 5.89159 22.3342C5.88029 22.471 5.86616 22.7417 5.86051 22.9355L5.8492 23.2889H6.5981C6.58256 23.1949 6.58397 23.0623 6.59245 22.9327C6.59951 22.803 6.61506 22.6306 6.62636 22.5479C6.63908 22.4653 6.66451 22.3313 6.68571 22.2487C6.70549 22.166 6.74647 22.0349 6.77755 21.9565C6.80864 21.8782 6.8581 21.7727 6.88918 21.7214C6.91886 21.6701 6.97396 21.5917 7.0107 21.5476C7.04885 21.5034 7.10113 21.4478 7.12798 21.425C7.15624 21.4022 7.20994 21.3623 7.24809 21.3381C7.28765 21.3124 7.36961 21.2754 7.43178 21.254C7.53493 21.2198 7.5646 21.217 7.74971 21.217C7.9221 21.2184 7.9772 21.2241 8.08883 21.254C8.16372 21.274 8.45198 21.3808 8.73175 21.492C9.01153 21.6017 10.2267 22.0805 11.4306 22.5536L13.6208 23.4143L16.0611 20.959C14.3301 16.6626 13.8144 15.3673 13.7988 15.3089C13.7833 15.2504 13.7663 15.1535 13.7607 15.0951C13.755 15.0224 13.7607 14.954 13.7748 14.8814C13.7875 14.8229 13.813 14.7417 13.8327 14.7032C13.8511 14.6633 13.8935 14.5964 13.9274 14.555C13.9613 14.5123 14.0334 14.4425 14.0871 14.3997C14.1422 14.357 14.2496 14.2914 14.3273 14.2529C14.405 14.2145 14.5265 14.1646 14.5958 14.1418C14.6664 14.119 14.7964 14.0834 14.8854 14.0634C14.9759 14.0435 15.1186 14.0178 15.2034 14.005C15.2896 13.9936 15.4422 13.9765 15.5425 13.9694C15.6442 13.9608 15.77 13.9551 15.8223 13.9551H15.9169V13.2854C15.4521 13.2882 15.2118 13.2939 15.0833 13.301C14.9561 13.3067 14.7427 13.3224 14.6099 13.3352V13.3352ZM17.4571 0.0441753C17.4769 0.0669754 18.2399 0.933381 20.813 3.8518H33.2829L33.2758 23.9516L19.9511 23.9587L17.4006 21.3865L17.3992 10.7047C17.3978 4.2451 17.402 0.0185251 17.4091 0.0128251C17.4161 0.00570004 17.4388 0.0199501 17.4571 0.0441753V0.0441753ZM22.5284 11.2504C22.4691 11.3459 22.3716 11.5126 22.3108 11.6181C22.2501 11.7235 22.1271 11.9572 22.0353 12.1382C21.9449 12.3178 21.8403 12.5358 21.8036 12.6227C21.7654 12.7082 21.7004 12.8721 21.658 12.9861C21.6156 13.1001 21.5634 13.2626 21.5407 13.3495C21.5195 13.435 21.4941 13.5632 21.4856 13.6345C21.4757 13.7043 21.4743 13.7884 21.48 13.8197C21.4856 13.8525 21.5082 13.8967 21.5337 13.9238C21.5577 13.9508 21.6114 13.9936 21.6538 14.0192C21.6976 14.0449 21.7739 14.0834 21.8233 14.1047C21.8742 14.1261 21.9321 14.1489 21.9505 14.156L21.9858 14.1689C21.9279 14.2287 21.8785 14.2985 21.8375 14.3612C21.7979 14.4239 21.7273 14.5522 21.6835 14.6462C21.6382 14.7403 21.5718 14.8942 21.5379 14.9882C21.5026 15.0823 21.4489 15.249 21.4178 15.3587C21.3853 15.4685 21.3373 15.6608 21.3104 15.7862C21.2836 15.9117 21.2468 16.0941 21.2313 16.1924C21.2157 16.2907 21.1861 16.4959 21.1677 16.6484C21.1479 16.8009 21.1168 16.9833 21.0971 17.0545C21.0787 17.1243 21.0292 17.2782 20.9897 17.3965C20.9487 17.5134 20.8752 17.7057 20.8243 17.824C20.7735 17.9409 20.6717 18.1589 20.5983 18.3085C20.5248 18.4567 20.416 18.6662 20.358 18.7716C20.2987 18.8771 20.1871 19.0695 20.1094 19.1991C20.0316 19.3288 19.8889 19.5554 19.7928 19.705C19.6953 19.8532 19.523 20.1069 19.4099 20.2679C19.2955 20.4289 19.1372 20.6441 19.0581 20.7481C18.9789 20.8522 18.9125 20.9419 18.9125 20.9476C18.9125 20.9533 19.2488 21.2982 19.6586 21.7114L20.4033 22.4653L21.7004 20.7595L22.9312 18.793C23.9273 16.8607 24.2438 16.2579 24.2778 16.2066C24.3117 16.1553 24.388 16.0584 24.4487 15.99C24.5095 15.923 24.6027 15.8261 24.6564 15.7763C24.7115 15.7264 24.8034 15.6494 24.8613 15.6053C24.9207 15.5611 25.0097 15.5027 25.0592 15.4742C25.11 15.4471 25.1891 15.4143 25.2358 15.4001L25.3206 15.3758C25.452 15.5198 25.5325 15.6309 25.582 15.7164C25.6328 15.8019 25.719 15.9744 25.7741 16.0998C25.8307 16.2252 25.9126 16.4275 25.9564 16.5486C26.0016 16.6698 26.0723 16.875 26.1147 17.0046C26.1571 17.1343 26.2348 17.3965 26.2885 17.5889C26.3436 17.7813 26.4015 17.995 26.4199 18.0663L26.4538 18.1945C27.9092 19.7777 28.3402 20.238 28.3515 20.238C28.3642 20.2394 28.425 20.2024 28.4885 20.1582C28.5521 20.1126 28.6694 20.0171 28.7471 19.9473C28.8263 19.876 28.9562 19.7463 29.0354 19.6566C29.1145 19.5682 29.2374 19.42 29.3095 19.3288C29.383 19.2376 29.5102 19.0638 29.5935 18.9426C29.6783 18.8215 29.8041 18.6291 29.8747 18.5151C29.9439 18.4011 30.0542 18.2159 30.1177 18.1019C30.1827 17.9879 30.3071 17.7542 30.3947 17.5818C30.4823 17.4093 30.6123 17.14 30.6844 16.9833C30.755 16.8265 30.8624 16.5828 30.9203 16.4418C30.9783 16.3007 31.0645 16.0855 31.1111 15.9644C31.1563 15.8433 31.2397 15.6181 31.2934 15.4656C31.3485 15.3131 31.4319 15.0566 31.4813 14.8956C31.5308 14.7346 31.6 14.4881 31.6353 14.347C31.6707 14.2059 31.7159 14.0064 31.7342 13.9052C31.754 13.8026 31.7809 13.6402 31.795 13.5419C31.812 13.4193 31.819 13.2711 31.819 13.0716C31.819 12.8265 31.8148 12.7581 31.7893 12.6512C31.7738 12.58 31.7441 12.4845 31.7229 12.4375C31.6862 12.3534 31.6862 12.352 31.641 12.362C31.6155 12.3691 31.3951 12.4019 31.1492 12.4361C30.9048 12.4717 30.5134 12.523 30.2802 12.5501C30.0471 12.5771 29.7207 12.6128 29.5525 12.6284C29.3858 12.6441 29.1159 12.6669 28.952 12.6783C28.7895 12.6911 28.4744 12.7068 28.2526 12.7168C28.0279 12.7253 27.6958 12.7296 27.5008 12.7239C27.3087 12.7196 27.0727 12.7082 26.978 12.7011C26.8834 12.6926 26.7279 12.6769 26.6347 12.6641C26.5414 12.6527 26.393 12.6256 26.3026 12.6056C26.2136 12.5857 26.0892 12.5515 26.0271 12.5287C25.9649 12.5059 25.9055 12.4802 25.8928 12.4731C25.8759 12.4617 25.8872 12.4204 25.9677 12.1924C26.02 12.0442 26.061 11.923 26.0596 11.9216C26.0567 11.9202 25.5594 11.7107 24.9532 11.4556C24.347 11.1991 23.851 10.9925 23.851 10.9939C23.8496 10.9968 23.8058 11.0737 23.7521 11.1649C23.6617 11.3174 23.6518 11.3302 23.6249 11.316C23.6094 11.3074 23.4893 11.2405 23.3565 11.1692C23.2251 11.0965 23.0513 11.0039 22.9721 10.964C22.893 10.9241 22.8139 10.8913 22.7983 10.8913C22.78 10.8913 22.7475 10.9227 22.7037 10.9825C22.6669 11.0338 22.5878 11.1535 22.5284 11.2504V11.2504ZM0.712891 24.7852H14.0447L16.5811 27.3431V37.6701C16.5811 43.3502 16.5782 47.9986 16.574 47.9986C16.5712 47.9986 16.55 47.9857 16.5288 47.9715C16.5076 47.9572 16.3818 47.886 16.249 47.8133C16.1176 47.7407 15.876 47.6124 15.7121 47.5269C15.5496 47.4428 15.2952 47.316 15.1468 47.2462C14.9999 47.1763 14.7682 47.068 14.6311 47.0082C14.4954 46.9469 14.2058 46.8258 13.9882 46.7374C13.7706 46.6491 13.4696 46.5322 13.317 46.4767C13.1658 46.4225 12.9016 46.3313 12.7306 46.2743C12.5596 46.2173 12.2586 46.1247 12.0594 46.0677C11.8616 46.0093 11.5253 45.9166 11.3105 45.8611C11.0971 45.8055 10.7128 45.7086 10.4556 45.6459C10.1999 45.5832 9.78304 45.4834 9.53011 45.425C9.27859 45.3652 8.84621 45.2668 8.56926 45.2056C8.29372 45.1443 7.86416 45.0517 7.61547 44.9989C7.36678 44.9462 6.96972 44.8621 6.73234 44.8108C6.49636 44.761 6.18691 44.6897 6.04703 44.6541C5.90714 44.6185 5.69801 44.5586 5.58073 44.5201C5.46486 44.4817 5.25856 44.4061 5.1215 44.352C4.98585 44.2978 4.77672 44.2109 4.6552 44.1582C4.5351 44.1055 4.34717 44.0185 4.23836 43.9672C4.12956 43.9145 3.9487 43.819 3.83566 43.7563C3.72403 43.6922 3.56718 43.601 3.48947 43.5511C3.41175 43.5027 3.28175 43.4143 3.1998 43.3559C3.11926 43.296 2.99491 43.202 2.92426 43.1464C2.85502 43.0894 2.71796 42.9697 2.62046 42.8799C2.52438 42.7902 2.37601 42.6405 2.29123 42.5465C2.20786 42.4539 2.08069 42.3014 2.00863 42.2088C1.93798 42.1161 1.84472 41.9907 1.80374 41.9309C1.76276 41.8696 1.67657 41.7342 1.61439 41.6288C1.55222 41.5233 1.44766 41.3267 1.38266 41.1942C1.31766 41.0602 1.22723 40.855 1.1806 40.7382C1.13538 40.6199 1.06756 40.4318 1.03082 40.3178C0.995494 40.2038 0.93756 39.9957 0.903648 39.8547C0.868322 39.7136 0.821693 39.4827 0.799085 39.3416C0.775063 39.2006 0.746803 38.9982 0.735499 38.8928C0.715717 38.7232 0.712891 37.881 0.712891 31.7421L0.712891 24.7852ZM13.5897 26.3954C13.5742 26.4311 13.5106 26.5793 13.447 26.7232L13.3311 26.9868C12.8549 27.0495 12.6939 27.0737 12.6642 27.0809C12.6345 27.088 12.5907 27.1122 12.5667 27.1336C12.5427 27.155 12.5144 27.1892 12.5045 27.2077C12.4946 27.2276 12.4692 27.3644 12.4494 27.5112C12.4296 27.658 12.4042 27.7962 12.3943 27.8176C12.383 27.839 12.3519 27.8774 12.3236 27.9031C12.2954 27.9287 12.2516 27.953 12.2261 27.9573C12.2007 27.9601 12.0721 27.9786 11.9393 27.9971C11.7655 28.02 11.6864 28.0371 11.6496 28.0584C11.6228 28.0755 11.5875 28.1154 11.5691 28.1511C11.5451 28.1981 11.5253 28.2978 11.4857 28.5757C11.456 28.7895 11.4235 28.9719 11.4066 29.0175C11.3911 29.0616 11.3628 29.1186 11.3458 29.1457C11.3289 29.1742 11.2936 29.217 11.2667 29.2412C11.2413 29.2668 11.1876 29.301 11.148 29.3181C11.0986 29.3395 11.0505 29.3495 10.9855 29.3481C10.9219 29.3481 10.8541 29.3338 10.7594 29.3025C10.686 29.2768 10.5362 29.2184 10.4274 29.1714C10.3186 29.1258 10.0077 28.9761 9.735 28.8408C9.4637 28.7054 9.10762 28.523 8.94371 28.4346C8.78121 28.3477 8.61306 28.2651 8.56926 28.2537C8.51839 28.238 8.46469 28.2323 8.40676 28.238C8.36013 28.2423 8.29655 28.2565 8.26546 28.2693C8.23437 28.2822 8.18774 28.3064 8.16231 28.3235C8.13688 28.3406 8.02242 28.4703 7.90938 28.6113C7.79493 28.7524 7.62254 28.9647 7.52504 29.0816C7.42895 29.1999 7.26928 29.3894 7.17179 29.502C7.07429 29.616 6.89342 29.824 6.76908 29.9651C6.64473 30.1062 6.41441 30.3598 6.25898 30.528C6.10355 30.6961 5.79551 31.0196 5.57366 31.2462C5.35323 31.4727 5.01835 31.8034 4.83183 31.9815C4.64531 32.1596 4.41358 32.3791 4.31608 32.4674C4.21858 32.5572 4.03772 32.7211 3.91337 32.8308C3.78903 32.9405 3.56012 33.14 3.40469 33.2725C3.24925 33.4051 2.94828 33.6559 2.7335 33.8283C2.52014 33.9993 2.27427 34.1959 2.18667 34.2615C2.10047 34.3285 2.03265 34.3869 2.0383 34.3912C2.04395 34.3954 2.18525 34.4182 2.35199 34.4396C2.59079 34.471 2.68546 34.4781 2.79002 34.471C2.86491 34.4653 2.97937 34.4524 3.04437 34.441C3.11078 34.4296 3.22099 34.404 3.28882 34.384C3.35664 34.3641 3.49088 34.3128 3.58555 34.2715C3.68022 34.2301 3.84131 34.1489 3.94163 34.0919C4.04337 34.0349 4.20587 33.9352 4.30195 33.871C4.39945 33.8055 4.5676 33.6801 4.6764 33.5917C4.7852 33.502 5.1328 33.2141 5.44649 32.9505C5.7616 32.6869 6.14594 32.3662 6.30137 32.238C6.4568 32.1097 6.74364 31.876 6.93722 31.7207C7.13222 31.5639 7.43037 31.3302 7.60134 31.2006C7.77232 31.0709 8.00829 30.9013 8.12416 30.8229C8.24144 30.7446 8.38698 30.6562 8.44915 30.6249C8.51132 30.5949 8.58763 30.5664 8.61871 30.5622C8.66252 30.555 8.68089 30.5593 8.69643 30.5793C8.71056 30.5949 8.71762 30.632 8.71762 30.6762C8.71621 30.7232 8.69926 30.7902 8.66958 30.8628C8.64415 30.9255 8.58621 31.0452 8.53817 31.1265C8.49154 31.2091 8.38274 31.383 8.29655 31.5112C8.21035 31.6409 8.03373 31.8874 7.90514 32.0599C7.77656 32.2323 7.55754 32.5216 7.41624 32.7011C7.27635 32.8821 7.02483 33.1999 6.8581 33.4065C6.69277 33.6145 6.3268 34.0705 6.04703 34.4182C5.76583 34.7674 5.41399 35.2105 5.26421 35.4015C5.11443 35.5939 4.87846 35.9017 4.7414 36.0855C4.60434 36.2708 4.42206 36.5273 4.33586 36.6555C4.24967 36.7852 4.14228 36.9548 4.09848 37.0331C4.05326 37.1115 3.99674 37.2241 3.97413 37.2825C3.95011 37.3424 3.9275 37.4222 3.92468 37.4606C3.91902 37.5205 3.92326 37.5376 3.9487 37.5604C3.97696 37.5875 3.98402 37.5875 4.03772 37.5704C4.07163 37.5604 4.13945 37.5276 4.18891 37.5005C4.23978 37.472 4.34152 37.4065 4.41499 37.3566C4.48988 37.3053 4.62553 37.2056 4.71879 37.1357C4.81205 37.0645 4.99715 36.9191 5.12856 36.8137C5.26139 36.7068 5.57932 36.4432 5.83507 36.228C6.09224 36.0128 6.6419 35.5454 7.05733 35.1892C7.47417 34.8329 7.9984 34.3869 8.22307 34.1974C8.44915 34.0078 8.7798 33.7357 8.95784 33.5903C9.13729 33.4464 9.40152 33.2383 9.54424 33.13C9.68837 33.0203 9.89467 32.8721 10.0035 32.7994C10.1123 32.7268 10.2592 32.6384 10.3285 32.6028C10.4005 32.5672 10.4881 32.533 10.5291 32.5273C10.5927 32.5173 10.6068 32.5201 10.6323 32.5444C10.6492 32.5615 10.6619 32.5914 10.6619 32.6156C10.6619 32.6398 10.6506 32.694 10.6393 32.7367C10.6266 32.7809 10.5828 32.8835 10.5418 32.9647C10.5009 33.0474 10.426 33.1856 10.3751 33.2711C10.3242 33.358 10.1857 33.5689 10.0671 33.7414C9.94977 33.9138 9.79434 34.1318 9.72369 34.2259C9.65304 34.3199 9.36055 34.7018 9.07229 35.0737C8.78545 35.4471 8.41665 35.9302 8.25416 36.1496C8.09166 36.3691 7.89666 36.6427 7.82036 36.7553C7.74547 36.8693 7.63384 37.046 7.57308 37.1471C7.51232 37.2497 7.41765 37.4222 7.36113 37.5319C7.30602 37.6416 7.23396 37.7998 7.20287 37.881C7.17037 37.9637 7.12798 38.0891 7.10679 38.1589C7.087 38.2301 7.05451 38.3612 7.03614 38.451C7.01635 38.5422 6.99375 38.7047 6.98527 38.8144C6.97255 38.9669 6.97255 39.0638 6.98527 39.2248C6.99375 39.3402 7.00646 39.4485 7.01353 39.467C7.02342 39.4955 7.13505 39.3673 7.9871 38.3584C8.7586 37.4435 9.08218 37.073 9.62478 36.4831L10.3002 35.7478C11.9803 34.186 12.1498 34.0363 12.5186 33.7428C12.7518 33.5575 12.968 33.3808 12.9991 33.3509C13.0301 33.321 13.074 33.2654 13.0937 33.2269C13.1149 33.1885 13.1375 33.1229 13.1446 33.0787C13.1517 33.036 13.1531 32.9619 13.146 32.9149C13.1404 32.865 13.1163 32.7937 13.0909 32.7439C13.0655 32.6968 12.9736 32.5244 12.8874 32.3591C12.7998 32.1952 12.6458 31.8931 12.5441 31.6893C12.4423 31.4856 12.3109 31.2077 12.2502 31.0695C12.1908 30.9327 12.1188 30.7531 12.0905 30.6705C12.0495 30.5479 12.0396 30.5009 12.0396 30.4068C12.0396 30.3156 12.0467 30.2772 12.0749 30.2159C12.0961 30.1674 12.1357 30.1147 12.1795 30.0762C12.2191 30.042 12.2855 30.0007 12.3279 29.9836C12.3759 29.9665 12.5624 29.9323 12.8012 29.8995C13.1276 29.8539 13.2054 29.8383 13.2449 29.8112C13.2718 29.7941 13.3043 29.7613 13.3184 29.7371C13.3368 29.7086 13.3566 29.6103 13.3806 29.4307C13.4004 29.2868 13.4286 29.1429 13.4413 29.1115C13.4555 29.0816 13.4837 29.0417 13.5049 29.0232C13.5261 29.0046 13.5671 28.9833 13.5968 28.9761C13.6264 28.969 13.755 28.9491 13.8822 28.932C14.0277 28.912 14.1365 28.8906 14.169 28.8735C14.2015 28.8564 14.2355 28.8237 14.2552 28.7866C14.2835 28.7367 14.2976 28.6626 14.3344 28.3905C14.3598 28.2066 14.3838 28.0513 14.3895 28.047C14.3937 28.0428 14.5364 27.9743 14.706 27.8974C14.8755 27.8204 15.014 27.7535 15.014 27.7492C15.014 27.7463 14.6989 27.4257 14.3146 27.0367L13.6166 26.3313L13.5897 26.3954ZM19.9525 24.7852H33.2843V31.7364C33.2843 36.59 33.2801 38.7232 33.2688 38.8073C33.2603 38.8742 33.2419 39.0224 33.2264 39.135C33.2108 39.249 33.1769 39.4514 33.1501 39.5839C33.1232 39.7178 33.0752 39.9202 33.0441 40.0328C33.0144 40.1468 32.9565 40.3363 32.9169 40.4532C32.8774 40.5714 32.8053 40.761 32.7573 40.8735C32.7106 40.9875 32.6244 41.1742 32.5665 41.2868C32.5086 41.4008 32.4167 41.5675 32.363 41.6573C32.3079 41.7485 32.2175 41.8896 32.1596 41.9708C32.103 42.0534 32.0027 42.1888 31.9377 42.27C31.8713 42.3527 31.7526 42.4909 31.6735 42.5764C31.5929 42.6633 31.4601 42.7973 31.3782 42.8742C31.2962 42.9512 31.145 43.0823 31.0447 43.1635C30.943 43.2462 30.7621 43.3787 30.642 43.4599C30.5219 43.5397 30.3523 43.6466 30.2675 43.6965C30.1813 43.7449 29.9948 43.8447 29.8507 43.9173C29.7066 43.99 29.4522 44.1083 29.2855 44.181C29.1187 44.2522 28.8828 44.3506 28.7627 44.3962C28.6426 44.4432 28.4546 44.5087 28.3458 44.5429C28.237 44.5771 28.018 44.637 27.8583 44.6769C27.6987 44.7154 27.4599 44.7709 27.3285 44.798C27.1956 44.8265 26.8268 44.9049 26.5089 44.9719C26.1896 45.0388 25.6851 45.1486 25.3856 45.2141C25.086 45.2811 24.6098 45.3908 24.3258 45.4564C24.0418 45.5233 23.5557 45.6416 23.2448 45.7186C22.934 45.7969 22.5454 45.8967 22.3829 45.9409C22.219 45.985 21.9689 46.0563 21.8248 46.099C21.6806 46.1404 21.398 46.2301 21.196 46.2985C20.9939 46.3655 20.6689 46.4795 20.4753 46.5536C20.2803 46.6263 19.9921 46.7403 19.8324 46.8058C19.6727 46.8728 19.4028 46.9897 19.2319 47.0666C19.0609 47.1436 18.7076 47.3146 18.4477 47.4457C18.1877 47.5768 17.8471 47.7549 17.6917 47.8418C17.5363 47.9288 17.4077 48 17.4048 48C17.4034 47.9986 17.4006 43.3545 17.395 27.3573L19.9525 24.7852ZM21.7117 26.1674L20.4047 26.3427L18.8588 27.8988C18.8447 28.0314 18.8292 28.1596 18.8136 28.2693C18.7981 28.3791 18.7514 28.6911 18.7091 28.9605C18.6667 29.2312 18.613 29.5932 18.589 29.7656C18.5663 29.938 18.5324 30.2045 18.5169 30.357C18.4971 30.5408 18.4844 30.7802 18.4802 31.0623C18.4745 31.3416 18.4773 31.5568 18.4886 31.6822C18.4985 31.7891 18.5169 31.943 18.5324 32.0242C18.5466 32.1069 18.5706 32.2252 18.5861 32.2879C18.6031 32.3506 18.6356 32.4603 18.661 32.5301C18.685 32.6014 18.7331 32.7168 18.7684 32.7866C18.8037 32.8579 18.8716 32.9733 18.9196 33.0431C18.9662 33.1144 19.0595 33.2269 19.1259 33.2925C19.1923 33.3595 19.3025 33.4535 19.3732 33.502C19.4424 33.549 19.5569 33.6174 19.6275 33.653C19.6968 33.6886 19.8112 33.7371 19.8819 33.7627C19.9511 33.787 20.0698 33.8226 20.1433 33.8411C20.2167 33.8596 20.3694 33.8896 20.4824 33.9081C20.659 33.9352 20.7452 33.9394 21.1041 33.9394C21.4122 33.9409 21.5831 33.9337 21.7612 33.9152C21.8926 33.901 22.1003 33.8739 22.2204 33.8539C22.3405 33.8354 22.4451 33.8197 22.4536 33.8197C22.462 33.8197 22.4649 33.8796 22.462 33.9808C22.4578 34.0948 22.4634 34.1717 22.4804 34.2472C22.4931 34.3071 22.5214 34.3926 22.544 34.4396C22.5652 34.4866 22.6118 34.5636 22.6457 34.6092C22.6796 34.6548 22.7489 34.7246 22.7997 34.7631C22.8506 34.8016 22.9297 34.8529 22.9764 34.8742C23.023 34.897 23.105 34.9255 23.1601 34.9384C23.2335 34.9569 23.3042 34.9612 23.4342 34.9583L23.6094 34.9526C23.998 35.3616 24.1788 35.5568 24.2622 35.6509C24.347 35.7449 24.4954 35.9188 24.5929 36.0356C24.6889 36.1539 24.8302 36.3335 24.9065 36.4346C24.9814 36.5372 25.0917 36.6968 25.1524 36.7909C25.2118 36.8849 25.2951 37.0331 25.3361 37.1186C25.3785 37.2056 25.4265 37.3181 25.4435 37.368C25.4619 37.4222 25.4774 37.5119 25.4802 37.5818C25.4845 37.6502 25.4802 37.7285 25.4718 37.7599C25.4633 37.7912 25.4251 37.8554 25.3884 37.9024C25.346 37.9565 25.2965 37.9993 25.2513 38.0235C25.1948 38.052 25.1609 38.0591 25.0818 38.0591C25.0196 38.0577 24.9433 38.0463 24.8769 38.0249C24.8189 38.0078 24.7172 37.9651 24.6508 37.9309C24.5844 37.8981 24.4727 37.8326 24.4035 37.7855C24.3329 37.7385 24.2184 37.6559 24.1492 37.6003C24.0785 37.5461 23.9485 37.4378 23.8595 37.3595C23.7705 37.2825 23.5628 37.0844 23.3989 36.9191C23.2349 36.7553 23.0513 36.5672 22.9891 36.5002C22.9283 36.4346 22.8563 36.3719 22.8308 36.362C22.8054 36.3506 22.746 36.342 22.6966 36.342C22.6288 36.342 22.5892 36.352 22.52 36.3848C22.4719 36.409 22.4013 36.4589 22.3645 36.4959C22.3264 36.533 22.2783 36.6014 22.2543 36.6484C22.2204 36.7211 22.2133 36.751 22.2133 36.8408C22.2133 36.9191 22.2204 36.9619 22.2402 36.9975C22.2557 37.026 22.4168 37.1984 22.6005 37.3823C22.7842 37.5675 23.0272 37.8012 23.1389 37.9038C23.2519 38.005 23.4003 38.1375 23.4709 38.1959C23.5402 38.2558 23.6518 38.3456 23.7182 38.3969C23.7846 38.4482 23.9047 38.5351 23.9867 38.5907C24.0686 38.6448 24.1916 38.7232 24.2622 38.7617C24.3314 38.8016 24.453 38.86 24.5307 38.8913C24.6084 38.9227 24.7285 38.9626 24.7992 38.9811C24.8981 39.0053 24.9659 39.0125 25.103 39.011C25.233 39.011 25.3078 39.0025 25.3856 38.9825C25.4435 38.9669 25.5396 38.9312 25.5975 38.9027C25.6554 38.8757 25.7572 38.8144 25.8236 38.7674C25.89 38.7189 25.9946 38.6306 26.0553 38.5693C26.1175 38.508 26.2037 38.404 26.2475 38.337C26.2899 38.2715 26.3436 38.1689 26.3648 38.109C26.386 38.0506 26.4128 37.958 26.4241 37.9024C26.4354 37.8482 26.4453 37.7257 26.4453 37.6316C26.4453 37.5376 26.4354 37.4036 26.4241 37.3324C26.4114 37.2626 26.386 37.1471 26.3662 37.0759C26.3464 37.0061 26.3012 36.8778 26.2659 36.7909C26.2305 36.7054 26.1684 36.5672 26.126 36.4845C26.085 36.4033 26.0073 36.2636 25.955 36.1753C25.9013 36.0869 25.8052 35.9359 25.7388 35.8404C25.6724 35.7449 25.5594 35.5896 25.4859 35.4955C25.4124 35.4001 25.2951 35.2561 25.2259 35.1735C25.1567 35.0923 24.9998 34.917 24.8783 34.7845C24.7568 34.6519 24.5801 34.471 24.4841 34.3812L24.3117 34.2187C24.3329 34.1361 24.3399 34.0549 24.3399 33.9836C24.3399 33.9138 24.33 33.8169 24.3187 33.7699C24.3074 33.7228 24.2735 33.6373 24.2438 33.5775C24.2071 33.502 24.1619 33.4407 24.0856 33.3637C24.0277 33.3053 23.9443 33.2369 23.9019 33.2113C23.8595 33.1856 23.7761 33.1471 23.7182 33.1272C23.6221 33.0916 23.5924 33.0887 23.4102 33.0873C23.2999 33.0873 23.2095 33.083 23.2095 33.0787C23.2095 33.0759 23.3974 32.8835 23.6264 32.6512L24.0432 32.2309L28.1339 36.3563C28.3162 36.9476 28.3797 37.1443 28.3939 37.1756C28.4108 37.2155 28.4334 37.2412 28.4702 37.2583C28.4984 37.2711 28.5352 37.2825 28.5507 37.2825C28.5663 37.2825 28.5959 37.2768 28.6171 37.2683C28.6383 37.2597 29.082 36.8251 29.6006 36.3021C30.1192 35.7791 30.5544 35.3345 30.5657 35.3131C30.5756 35.2918 30.5855 35.2533 30.5855 35.2276C30.5855 35.202 30.5742 35.1621 30.56 35.1379C30.5459 35.1151 30.512 35.0851 30.4851 35.0723C30.4583 35.0595 30.2633 34.9954 30.0527 34.9298L29.667 34.8101L25.5763 30.6861C26.0921 30.1603 26.2645 29.9736 26.2927 29.9295C26.321 29.8867 26.3662 29.8041 26.3945 29.7442C26.4227 29.6858 26.4566 29.586 26.4722 29.5233C26.4877 29.4606 26.5075 29.3395 26.5146 29.2526C26.523 29.1671 26.5301 29.016 26.5301 28.9177C26.5301 28.8208 26.5202 28.6569 26.5089 28.5543C26.4962 28.4532 26.4693 28.2921 26.4467 28.1981C26.4241 28.104 26.3817 27.963 26.3535 27.8846C26.3252 27.8062 26.263 27.6694 26.2164 27.5782C26.1698 27.4884 26.0963 27.363 26.0525 27.3003C26.0101 27.2376 25.9324 27.135 25.8801 27.0723C25.8278 27.0096 25.7402 26.917 25.6879 26.8657C25.6342 26.8144 25.5297 26.726 25.4562 26.669C25.3827 26.6106 25.2683 26.5308 25.2019 26.4895C25.1355 26.4482 25.0153 26.3798 24.9334 26.3384C24.8514 26.2971 24.7214 26.2387 24.6437 26.2088C24.566 26.1788 24.4487 26.1375 24.3823 26.1176C24.3159 26.099 24.2085 26.0705 24.1421 26.0549C24.0757 26.0392 23.9556 26.0164 23.8736 26.0036C23.7903 25.9907 23.6037 25.9793 23.4497 25.9765C23.2985 25.9736 23.1389 25.9751 23.0965 25.9808C23.0541 25.9865 22.4309 26.0705 21.7117 26.1674V26.1674ZM12.1244 15.5597C12.2148 15.5625 12.3265 15.5782 12.3929 15.5939C12.4551 15.611 12.5469 15.6437 12.5978 15.6665C12.6486 15.6908 12.7278 15.7378 12.7744 15.772C12.821 15.8062 12.8888 15.8646 12.9242 15.9031C12.9609 15.9416 13.0132 16.0043 13.0429 16.0428C13.0711 16.0827 13.1192 16.1625 13.1488 16.2209C13.1771 16.2807 13.6194 17.378 15.0564 20.9947L14.3739 21.6943C13.9995 22.0777 13.6858 22.3897 13.6787 22.3869C13.6702 22.384 12.5865 21.9665 11.2695 21.4578C9.9526 20.9505 8.84197 20.5216 8.80382 20.5045C8.76425 20.4874 8.68795 20.4446 8.63426 20.409C8.57915 20.3734 8.49719 20.3092 8.45198 20.2679C8.40676 20.2252 8.33752 20.1425 8.30079 20.0827C8.26122 20.0214 8.21177 19.9188 8.18633 19.8404C8.14253 19.7107 8.14111 19.6965 8.1397 19.4699C8.1397 19.2918 8.14535 19.2063 8.16514 19.1136C8.18068 19.0481 8.21318 18.9284 8.23861 18.85C8.26405 18.7716 8.3135 18.6405 8.35024 18.5579C8.38557 18.4767 8.45339 18.3384 8.50002 18.2515C8.54806 18.166 8.64556 18.005 8.71904 17.8953C8.7911 17.7855 8.91262 17.6188 8.98751 17.5248C9.06099 17.4307 9.19664 17.2711 9.28848 17.1699C9.37892 17.0688 9.54283 16.902 9.65163 16.8009C9.76043 16.6997 9.9314 16.5486 10.0331 16.4674C10.1335 16.3862 10.3157 16.2522 10.4359 16.171C10.556 16.0912 10.7213 15.9886 10.8032 15.9444C10.8852 15.9003 11.0124 15.8361 11.0858 15.8019C11.1593 15.7677 11.2837 15.7178 11.3614 15.6908C11.4391 15.6637 11.5592 15.6266 11.6298 15.611C11.6991 15.5939 11.8051 15.5739 11.863 15.5668C11.9209 15.5597 12.0382 15.5554 12.1244 15.5597V15.5597ZM23.8581 26.7146C23.909 26.7203 24.005 26.7374 24.0715 26.7517C24.1379 26.7659 24.2424 26.7944 24.3046 26.8158C24.3668 26.8372 24.4841 26.8856 24.566 26.9241C24.648 26.964 24.7455 27.0167 24.785 27.041C24.8232 27.0652 24.9065 27.125 24.9687 27.1735C25.0309 27.2219 25.1425 27.3245 25.216 27.4029C25.2895 27.4799 25.3912 27.6038 25.4407 27.6794C25.4915 27.7535 25.5664 27.8817 25.606 27.963C25.647 28.0456 25.7063 28.1895 25.7374 28.2836C25.7685 28.3776 25.8066 28.5187 25.8236 28.5971C25.8391 28.6755 25.8561 28.8037 25.8617 28.8821C25.8688 29.0075 25.866 29.0331 25.8391 29.0958C25.8151 29.1528 25.7402 29.2369 25.4661 29.5134C25.2245 29.757 25.1143 29.8582 25.0917 29.8582C25.0747 29.8582 25.0563 29.8511 25.0507 29.8411C25.045 29.8311 25.0408 29.6145 25.0394 29.3595C25.038 28.9989 25.0323 28.865 25.0125 28.7538C24.9998 28.6755 24.973 28.5444 24.9532 28.4617C24.9334 28.3805 24.8952 28.2451 24.8684 28.1625C24.8401 28.0812 24.7836 27.943 24.7426 27.8561C24.7017 27.7706 24.6169 27.6224 24.5547 27.5283C24.4925 27.4343 24.3922 27.3032 24.33 27.2376C24.2693 27.1721 24.1661 27.0766 24.0997 27.0239C24.0333 26.9726 23.9287 26.9013 23.8666 26.8657C23.7959 26.8244 23.7521 26.7902 23.7493 26.7731C23.7465 26.7574 23.7493 26.736 23.7535 26.7246C23.762 26.7104 23.7846 26.7075 23.8581 26.7146V26.7146Z" fill="#004571"/>
 <path d="M48.815 4.20254C49.565 4.20254 50.315 4.20254 51.065 4.20254C51.83 4.20254 52.58 4.21754 53.315 4.24754C54.0651 4.26254 54.7851 4.29254 55.4751 4.33754L55.3851 5.89005H49.1525C48.6875 5.89005 48.3425 6.01005 48.1175 6.25005C47.9075 6.47505 47.8025 6.85006 47.8025 7.37506V16.6001C47.8025 17.1251 47.9075 17.5076 48.1175 17.7476C48.3425 17.9876 48.6875 18.1076 49.1525 18.1076H55.3851L55.4751 19.6376C54.7851 19.6826 54.0651 19.7126 53.315 19.7276C52.58 19.7426 51.83 19.7501 51.065 19.7501C50.315 19.7651 49.565 19.7726 48.815 19.7726C47.9 19.7726 47.1725 19.5326 46.6325 19.0526C46.1075 18.5576 45.8375 17.8976 45.8225 17.0726V6.90256C45.8375 6.06255 46.1075 5.40255 46.6325 4.92255C47.1725 4.44254 47.9 4.20254 48.815 4.20254ZM46.2275 10.7501H54.5076V12.3476H46.2275V10.7501ZM60.2804 4.00004L60.2579 16.7351C60.2579 17.2151 60.3854 17.5826 60.6404 17.8376C60.9104 18.0776 61.2854 18.1976 61.7654 18.1976H62.8229L63.0479 19.6601C62.9129 19.7201 62.7179 19.7726 62.4629 19.8176C62.2229 19.8626 61.9679 19.8926 61.6979 19.9076C61.4429 19.9376 61.2254 19.9526 61.0454 19.9526C60.2354 19.9526 59.5829 19.7126 59.0879 19.2326C58.6079 18.7526 58.3679 18.0626 58.3679 17.1626V4.00004H60.2804ZM69.5251 8.52256C71.1752 8.52256 72.3677 8.82257 73.1027 9.42257C73.8527 10.0226 74.2277 10.9151 74.2277 12.1001C74.2427 13.0751 74.0402 13.8401 73.6202 14.3951C73.2002 14.9351 72.5327 15.2051 71.6177 15.2051H65.2276V13.7201H71.1227C71.6177 13.7201 71.9402 13.5551 72.0902 13.2251C72.2402 12.8801 72.3152 12.5051 72.3152 12.1001C72.3002 11.3951 72.0902 10.8926 71.6852 10.5926C71.2802 10.2926 70.5902 10.1426 69.6151 10.1426C68.8201 10.1426 68.1901 10.2626 67.7251 10.5026C67.2751 10.7276 66.9526 11.1326 66.7576 11.7176C66.5776 12.2876 66.4876 13.0901 66.4876 14.1251C66.4876 15.2951 66.6001 16.1876 66.8251 16.8026C67.0651 17.4176 67.4401 17.8376 67.9501 18.0626C68.4601 18.2876 69.1351 18.4001 69.9752 18.4001C70.5602 18.4001 71.1977 18.3776 71.8877 18.3326C72.5927 18.2726 73.2227 18.2051 73.7777 18.1301L73.9802 19.4126C73.6352 19.5476 73.2077 19.6601 72.6977 19.7501C72.2027 19.8401 71.6852 19.9076 71.1452 19.9526C70.6202 19.9976 70.1477 20.0201 69.7276 20.0201C68.4676 20.0201 67.4551 19.8326 66.6901 19.4576C65.9251 19.0676 65.3626 18.4526 65.0026 17.6126C64.6576 16.7576 64.4851 15.6326 64.4851 14.2376C64.4851 12.7976 64.6576 11.6651 65.0026 10.8401C65.3626 10.0001 65.9101 9.40757 66.6451 9.06257C67.3951 8.70257 68.3551 8.52256 69.5251 8.52256ZM81.7902 8.52256C82.1202 8.52256 82.4877 8.53756 82.8927 8.56756C83.2977 8.59756 83.7102 8.65007 84.1302 8.72507C84.5652 8.80007 84.9627 8.90507 85.3227 9.04007L85.0752 10.2776C84.5802 10.2326 84.0552 10.2026 83.5002 10.1876C82.9602 10.1576 82.4952 10.1426 82.1052 10.1426C81.2352 10.1426 80.5452 10.2626 80.0352 10.5026C79.5252 10.7426 79.1577 11.1626 78.9327 11.7626C78.7077 12.3626 78.5952 13.1951 78.5952 14.2601C78.5952 15.3251 78.7077 16.1651 78.9327 16.7801C79.1577 17.3801 79.5252 17.8001 80.0352 18.0401C80.5452 18.2801 81.2352 18.4001 82.1052 18.4001C82.3302 18.4001 82.6227 18.3926 82.9827 18.3776C83.3427 18.3626 83.7252 18.3401 84.1302 18.3101C84.5502 18.2801 84.9477 18.2351 85.3227 18.1751L85.5252 19.4576C84.9702 19.6526 84.3627 19.7951 83.7027 19.8851C83.0577 19.9751 82.4127 20.0201 81.7677 20.0201C80.5077 20.0201 79.4952 19.8326 78.7302 19.4576C77.9652 19.0826 77.4101 18.4751 77.0651 17.6351C76.7351 16.7951 76.5701 15.6701 76.5701 14.2601C76.5701 12.8501 76.7426 11.7251 77.0876 10.8851C77.4326 10.0451 77.9877 9.44507 78.7527 9.08507C79.5177 8.71007 80.5302 8.52256 81.7902 8.52256ZM90.8635 5.55255V16.7351C90.8635 17.2601 90.976 17.6351 91.201 17.8601C91.426 18.0851 91.8085 18.1976 92.3485 18.1976H94.0135L94.2385 19.6601C93.9985 19.7201 93.721 19.7726 93.406 19.8176C93.091 19.8626 92.7835 19.8926 92.4835 19.9076C92.1835 19.9376 91.9435 19.9526 91.7635 19.9526C90.8485 19.9526 90.151 19.6976 89.671 19.1876C89.191 18.6776 88.951 17.9426 88.951 16.9826V5.55255H90.8635ZM94.351 8.79257V10.3001H86.971V8.90507L89.131 8.79257H94.351ZM98.1729 8.79257L98.4204 10.8851L98.6004 11.2226V19.7501H96.6879V8.79257H98.1729ZM103.55 8.52256L103.325 10.3226H102.695C102.05 10.3226 101.405 10.4576 100.76 10.7276C100.115 10.9826 99.3279 11.3501 98.3979 11.8301L98.2404 10.6376C99.0504 9.97757 99.8604 9.46007 100.67 9.08507C101.495 8.71007 102.29 8.52256 103.055 8.52256H103.55ZM110.068 8.52256C111.328 8.52256 112.333 8.71007 113.083 9.08507C113.848 9.46007 114.396 10.0751 114.726 10.9301C115.056 11.7701 115.221 12.8876 115.221 14.2826C115.221 15.6776 115.056 16.8026 114.726 17.6576C114.396 18.4976 113.848 19.1051 113.083 19.4801C112.333 19.8551 111.328 20.0426 110.068 20.0426C108.823 20.0426 107.818 19.8551 107.053 19.4801C106.303 19.1051 105.756 18.4976 105.411 17.6576C105.081 16.8026 104.916 15.6776 104.916 14.2826C104.916 12.8876 105.081 11.7701 105.411 10.9301C105.756 10.0751 106.303 9.46007 107.053 9.08507C107.818 8.71007 108.823 8.52256 110.068 8.52256ZM110.068 10.1426C109.273 10.1426 108.643 10.2701 108.178 10.5251C107.728 10.7651 107.406 11.1851 107.211 11.7851C107.016 12.3851 106.918 13.2176 106.918 14.2826C106.918 15.3476 107.016 16.1801 107.211 16.7801C107.406 17.3801 107.728 17.8076 108.178 18.0626C108.643 18.3026 109.273 18.4226 110.068 18.4226C110.863 18.4226 111.493 18.3026 111.958 18.0626C112.423 17.8076 112.753 17.3801 112.948 16.7801C113.143 16.1801 113.241 15.3476 113.241 14.2826C113.241 13.2176 113.143 12.3851 112.948 11.7851C112.753 11.1851 112.423 10.7651 111.958 10.5251C111.493 10.2701 110.863 10.1426 110.068 10.1426ZM124.881 8.52256C126.861 8.52256 127.851 9.52757 127.851 11.5376V19.7501H125.939V12.0776C125.939 11.3426 125.819 10.8401 125.579 10.5701C125.339 10.2851 124.934 10.1426 124.364 10.1426C123.689 10.1426 123.014 10.3076 122.339 10.6376C121.664 10.9676 120.861 11.4176 119.931 11.9876L119.841 10.6151C120.696 9.95507 121.544 9.44507 122.384 9.08507C123.224 8.71007 124.056 8.52256 124.881 8.52256ZM119.841 8.79257L119.999 10.8851L120.134 11.2226V19.7501H118.221V8.79257H119.841ZM133.275 8.79257V19.7501H131.385V8.79257H133.275ZM132.78 4.13504C133.17 4.13504 133.365 4.33004 133.365 4.72004V6.00255C133.365 6.39255 133.17 6.58755 132.78 6.58755H131.88C131.49 6.58755 131.295 6.39255 131.295 6.00255V4.72004C131.295 4.33004 131.49 4.13504 131.88 4.13504H132.78ZM141.556 8.52256C141.886 8.52256 142.254 8.53756 142.659 8.56756C143.064 8.59756 143.476 8.65007 143.896 8.72507C144.331 8.80007 144.729 8.90507 145.089 9.04007L144.841 10.2776C144.346 10.2326 143.821 10.2026 143.266 10.1876C142.726 10.1576 142.261 10.1426 141.871 10.1426C141.001 10.1426 140.311 10.2626 139.801 10.5026C139.291 10.7426 138.924 11.1626 138.699 11.7626C138.474 12.3626 138.361 13.1951 138.361 14.2601C138.361 15.3251 138.474 16.1651 138.699 16.7801C138.924 17.3801 139.291 17.8001 139.801 18.0401C140.311 18.2801 141.001 18.4001 141.871 18.4001C142.096 18.4001 142.389 18.3926 142.749 18.3776C143.109 18.3626 143.491 18.3401 143.896 18.3101C144.316 18.2801 144.714 18.2351 145.089 18.1751L145.291 19.4576C144.736 19.6526 144.129 19.7951 143.469 19.8851C142.824 19.9751 142.179 20.0201 141.534 20.0201C140.274 20.0201 139.261 19.8326 138.496 19.4576C137.731 19.0826 137.176 18.4751 136.831 17.6351C136.501 16.7951 136.336 15.6701 136.336 14.2601C136.336 12.8501 136.509 11.7251 136.854 10.8851C137.199 10.0451 137.754 9.44507 138.519 9.08507C139.284 8.71007 140.296 8.52256 141.556 8.52256Z" fill="#004571"/>
 <path d="M53.234 25.5459C54.1701 25.5459 54.9621 25.5729 55.6101 25.6269C56.2761 25.6809 56.8791 25.7529 57.4191 25.8429C57.9771 25.9329 58.5441 26.0589 59.1201 26.2209L58.7421 29.9469C58.1301 29.9109 57.5631 29.8929 57.0411 29.8929C56.5191 29.8749 55.9611 29.8659 55.3671 29.8659C54.7731 29.8479 54.0621 29.8389 53.234 29.8389C52.496 29.8389 51.911 29.9919 51.479 30.2979C51.065 30.6039 50.777 31.1439 50.615 31.9179C50.453 32.6919 50.372 33.7809 50.372 35.185C50.372 36.589 50.453 37.678 50.615 38.452C50.777 39.226 51.065 39.766 51.479 40.072C51.911 40.378 52.496 40.531 53.234 40.531C54.5481 40.531 55.6371 40.513 56.5011 40.477C57.3831 40.441 58.2651 40.378 59.1471 40.288L59.5251 43.987C58.6251 44.293 57.6981 44.509 56.7441 44.635C55.8081 44.761 54.6381 44.824 53.234 44.824C51.236 44.824 49.634 44.518 48.428 43.906C47.24 43.276 46.376 42.259 45.836 40.855C45.314 39.451 45.053 37.561 45.053 35.185C45.053 32.8089 45.314 30.9189 45.836 29.5149C46.376 28.1109 47.24 27.1029 48.428 26.4909C49.634 25.8609 51.236 25.5459 53.234 25.5459ZM68.9395 30.7029C70.1455 30.7029 71.1625 30.8649 71.9905 31.1889C72.8365 31.5129 73.4755 32.0529 73.9075 32.8089C74.3395 33.5649 74.5555 34.6089 74.5555 35.941V44.5H70.6405L69.9655 41.611L69.6415 41.125V35.914C69.6235 35.356 69.4795 34.96 69.2095 34.7259C68.9575 34.4739 68.4895 34.3479 67.8055 34.3479C67.1035 34.3479 66.2395 34.3659 65.2135 34.4019C64.1875 34.4199 63.1164 34.4649 62.0004 34.5369L61.5684 31.3779C62.2344 31.2519 63.0084 31.1439 63.8905 31.0539C64.7905 30.9459 65.6905 30.8649 66.5905 30.8109C67.4905 30.7389 68.2735 30.7029 68.9395 30.7029ZM72.6115 36.265L72.5845 38.749H66.8335C66.4195 38.767 66.1135 38.875 65.9155 39.073C65.7355 39.253 65.6455 39.505 65.6455 39.829V40.342C65.6455 40.684 65.7535 40.954 65.9695 41.152C66.2035 41.332 66.5455 41.422 66.9955 41.422C67.4455 41.422 67.9225 41.323 68.4265 41.125C68.9305 40.927 69.4255 40.657 69.9115 40.315C70.3975 39.973 70.8205 39.604 71.1805 39.208V40.936C71.0365 41.224 70.8115 41.584 70.5055 42.016C70.2175 42.448 69.8395 42.889 69.3715 43.339C68.9035 43.771 68.3365 44.131 67.6705 44.419C67.0045 44.707 66.2305 44.851 65.3485 44.851C64.5385 44.851 63.7915 44.707 63.1074 44.419C62.4234 44.131 61.8744 43.708 61.4604 43.15C61.0644 42.592 60.8664 41.89 60.8664 41.044V39.694C60.8664 38.614 61.2444 37.777 62.0004 37.183C62.7744 36.571 63.8185 36.265 65.1325 36.265H72.6115ZM94.5371 30.7029C95.7791 30.7029 96.7241 31.0269 97.3721 31.6749C98.0201 32.3049 98.3441 33.2319 98.3441 34.4559V44.5H93.4571V35.995C93.4571 35.581 93.3761 35.293 93.2141 35.131C93.0521 34.951 92.7551 34.861 92.3231 34.861C92.0891 34.861 91.8551 34.888 91.6211 34.942C91.3871 34.978 91.1171 35.059 90.8111 35.185C90.5231 35.311 90.1541 35.5 89.7041 35.752L89.4341 33.2409C90.2621 32.3949 91.0721 31.7649 91.8641 31.3509C92.6561 30.9189 93.5471 30.7029 94.5371 30.7029ZM81.037 31.0809L81.577 33.7809L82.063 34.1319V44.5H77.176V31.0809H81.037ZM86.383 30.7029C87.6071 30.7029 88.5341 31.0179 89.1641 31.6479C89.7941 32.2779 90.1181 33.2139 90.1361 34.4559V44.5H85.411V35.995C85.411 35.581 85.312 35.293 85.114 35.131C84.934 34.951 84.637 34.861 84.223 34.861C84.007 34.861 83.773 34.888 83.521 34.942C83.287 34.978 83.017 35.059 82.711 35.185C82.405 35.311 82.018 35.5 81.55 35.752L81.28 33.2409C82.108 32.3949 82.909 31.7649 83.683 31.3509C84.475 30.9189 85.375 30.7029 86.383 30.7029ZM110.435 30.7569C112.163 30.7569 113.387 31.3779 114.107 32.6199C114.845 33.8619 115.214 35.635 115.214 37.939C115.214 39.757 115.016 41.17 114.62 42.178C114.242 43.168 113.675 43.87 112.919 44.284C112.181 44.68 111.254 44.878 110.138 44.878C109.148 44.878 108.212 44.734 107.33 44.446C106.448 44.14 105.71 43.645 105.116 42.961L105.44 40.936C105.908 41.08 106.34 41.224 106.736 41.368C107.15 41.494 107.654 41.557 108.248 41.557C108.716 41.557 109.085 41.476 109.355 41.314C109.643 41.134 109.85 40.792 109.976 40.288C110.102 39.766 110.165 38.992 110.165 37.966C110.165 36.94 110.102 36.166 109.976 35.644C109.85 35.122 109.652 34.7799 109.382 34.6179C109.13 34.4559 108.797 34.3749 108.383 34.3749C107.843 34.3749 107.393 34.4559 107.033 34.6179C106.673 34.762 106.268 34.969 105.818 35.239L105.17 33.2409C105.458 32.7729 105.872 32.3499 106.412 31.9719C106.952 31.5939 107.564 31.2969 108.248 31.0809C108.95 30.8649 109.679 30.7569 110.435 30.7569ZM104.954 31.0809L105.413 33.3489L105.926 33.7539V42.583L105.764 42.907C105.818 43.465 105.854 44.059 105.872 44.689C105.908 45.337 105.926 45.958 105.926 46.552V49.495H101.012V31.0809H104.954ZM122.351 31.0809V39.586C122.333 40 122.423 40.297 122.621 40.477C122.819 40.657 123.143 40.747 123.593 40.747C124.025 40.747 124.466 40.684 124.916 40.558C125.384 40.432 125.969 40.198 126.671 39.856L126.995 42.367C126.059 43.213 125.132 43.843 124.214 44.257C123.296 44.671 122.342 44.878 121.352 44.878C118.742 44.878 117.437 43.627 117.437 41.125V31.0809H122.351ZM131.099 31.0809V44.5H127.238L126.644 41.8L126.158 41.476V31.0809H131.099ZM139.293 30.7029C139.995 30.7029 140.742 30.7299 141.534 30.7839C142.344 30.8379 143.136 30.9009 143.91 30.9729C144.684 31.0449 145.35 31.1439 145.908 31.2699L145.584 34.1859C144.702 34.1859 143.811 34.1859 142.911 34.1859C142.029 34.1679 141.174 34.1589 140.346 34.1589C139.698 34.1589 139.212 34.1679 138.888 34.1859C138.564 34.2039 138.339 34.2579 138.213 34.3479C138.105 34.4199 138.051 34.5639 138.051 34.78C138.051 35.05 138.168 35.23 138.402 35.32C138.636 35.41 139.068 35.545 139.698 35.725L142.992 36.535C144.162 36.841 145.026 37.291 145.584 37.885C146.142 38.461 146.421 39.334 146.421 40.504C146.421 41.62 146.205 42.493 145.773 43.123C145.359 43.735 144.684 44.167 143.748 44.419C142.812 44.671 141.597 44.797 140.103 44.797C139.491 44.797 138.591 44.77 137.403 44.716C136.215 44.662 134.919 44.518 133.515 44.284L133.812 41.341C134.082 41.341 134.469 41.35 134.973 41.368C135.495 41.368 136.071 41.368 136.701 41.368C137.331 41.368 137.952 41.368 138.564 41.368C139.446 41.368 140.112 41.359 140.562 41.341C141.012 41.305 141.309 41.233 141.453 41.125C141.615 41.017 141.696 40.855 141.696 40.639C141.696 40.369 141.561 40.189 141.291 40.099C141.021 39.991 140.544 39.847 139.86 39.667L136.701 38.83C135.783 38.578 135.072 38.254 134.568 37.858C134.082 37.462 133.749 36.994 133.569 36.454C133.389 35.914 133.299 35.293 133.299 34.5909C133.299 33.7089 133.488 32.9889 133.866 32.4309C134.244 31.8549 134.865 31.4229 135.729 31.1349C136.611 30.8469 137.799 30.7029 139.293 30.7029Z" fill="#004571"/>
</svg>