<svg width="193" height="51" viewBox="0 0 193 51" fill="none" xmlns="http://www.w3.org/2000/svg">
<path fill-rule="evenodd" clip-rule="evenodd" d="M15.8611 0L15.8682 21.3865L13.3177 23.9587H0V3.8518H6.22999C12.1449 3.8518 12.4614 3.85037 12.4854 3.82757C12.4995 3.81332 13.264 2.94692 14.1853 1.90096L15.8611 0ZM11.9584 9.77271C11.9442 10.1589 11.9329 10.6477 11.923 11.1079L11.9047 11.943C11.5867 12.0371 11.403 12.0955 11.29 12.134C11.1233 12.191 11.0823 12.2009 11.071 12.1853C11.0639 12.1739 10.7658 11.8019 10.4111 11.3573L9.76394 10.5493C9.47427 10.689 9.18178 10.8358 8.92885 10.964L8.4682 11.1977C8.9345 12.6669 9.07297 13.1058 9.07863 13.1215C9.08428 13.1457 9.05602 13.1685 8.89211 13.2711C8.78472 13.3367 8.61092 13.4492 8.50635 13.5205C8.40179 13.5917 8.30853 13.6544 8.29864 13.6601C8.28734 13.6658 8.03017 13.4521 7.59213 13.0716L6.90258 12.4717C6.84747 12.5244 6.58465 12.761 6.28086 13.0303C5.97847 13.2996 5.73119 13.5262 5.73119 13.5347C5.73119 13.5419 5.96575 13.8539 6.25259 14.2259C6.53802 14.5978 6.77965 14.9113 6.78813 14.9213C6.80084 14.9355 6.76976 14.974 6.6553 15.0923C6.57335 15.1763 6.45324 15.306 6.38542 15.3801C6.31901 15.4542 6.20879 15.5825 6.13955 15.6651C6.07173 15.7478 6.00814 15.8162 5.99966 15.819C5.99119 15.8204 5.6125 15.6822 5.15751 15.5098C4.70252 15.3374 4.33089 15.1977 4.32948 15.1991C4.32948 15.1991 4.15992 15.4571 3.95221 15.7691C3.74449 16.0798 3.57634 16.3406 3.57917 16.3463C3.58058 16.3534 3.83916 16.6014 4.15427 16.8978C4.46937 17.1942 4.7548 17.4635 4.79012 17.4963L4.85371 17.5575C4.80708 17.6316 4.72371 17.7941 4.63893 17.9665C4.55415 18.1389 4.44676 18.3641 4.40013 18.4667C4.34078 18.6021 4.31111 18.6534 4.29557 18.6491C4.28426 18.6462 3.90275 18.5821 3.44776 18.508C2.99277 18.4339 2.62114 18.3741 2.61973 18.3769C2.61832 18.3783 2.51234 18.7132 2.38376 19.1208C2.25517 19.5283 2.15344 19.8661 2.15909 19.8717C2.16474 19.876 2.50669 20.0641 2.91788 20.2907C3.33048 20.5159 3.67101 20.7011 3.67101 20.7011C3.67384 20.7025 3.65265 20.8279 3.6258 20.9804C3.59754 21.1329 3.56221 21.3452 3.54667 21.4507C3.53113 21.5561 3.51417 21.6473 3.50852 21.6516C3.50287 21.6559 3.17363 21.7129 2.77658 21.777C2.38093 21.8411 2.01637 21.8995 1.96833 21.9081L1.87931 21.9209V23.2889H4.59937C4.61632 22.7973 4.62763 22.5465 4.6361 22.4125C4.64317 22.28 4.66295 22.0392 4.6785 21.8782C4.69404 21.7171 4.72371 21.4735 4.74208 21.3367C4.76186 21.1999 4.7986 20.969 4.82545 20.8237C4.8523 20.6783 4.90034 20.4446 4.93284 20.3035C4.96534 20.1625 5.02327 19.9345 5.06142 19.7976C5.09957 19.6608 5.16033 19.4585 5.19566 19.3488C5.23098 19.239 5.29457 19.0595 5.33413 18.9498C5.37511 18.84 5.44152 18.6705 5.4825 18.5721C5.52348 18.4738 5.60119 18.2985 5.6563 18.1803C5.71141 18.0634 5.80608 17.871 5.86825 17.7528C5.93043 17.6359 6.03216 17.4521 6.09434 17.3466C6.15792 17.2412 6.26955 17.0616 6.34444 16.9476C6.42074 16.8336 6.54791 16.6512 6.62987 16.5415C6.71041 16.4318 6.84041 16.2651 6.91813 16.171C6.99584 16.077 7.1329 15.9202 7.22334 15.8219C7.31236 15.7235 7.46779 15.5639 7.56811 15.4656C7.66844 15.3673 7.82669 15.2205 7.91995 15.1379C8.01321 15.0552 8.16299 14.9298 8.25201 14.8586C8.34245 14.7859 8.51201 14.6576 8.62929 14.5736C8.74798 14.4881 8.92602 14.3655 9.02493 14.3028C9.12526 14.2387 9.29199 14.1375 9.39655 14.0762C9.50112 14.015 9.69894 13.9081 9.83459 13.8397C9.97024 13.7699 10.178 13.6701 10.2938 13.6188C10.4111 13.5661 10.5948 13.4891 10.7036 13.4464C10.8124 13.4036 11.0032 13.3338 11.1275 13.2911C11.2518 13.2483 11.4497 13.1842 11.5655 13.15C11.6828 13.1158 11.8665 13.0645 11.9753 13.0374C12.0841 13.0103 12.265 12.969 12.378 12.9448C12.4911 12.922 12.679 12.8864 12.7949 12.8664C12.9121 12.8465 13.1057 12.818 13.2258 12.8023C13.3459 12.7866 13.5536 12.7638 13.6851 12.751C13.8179 12.7396 14.0977 12.7239 14.3068 12.7154C14.5173 12.7082 14.8042 12.7068 14.9469 12.7125L15.204 12.7225V11.3687C14.7279 11.3858 14.4665 11.3915 14.3153 11.3929L14.0397 11.3972C13.3813 9.95654 13.1848 9.53901 13.1764 9.53901C13.1693 9.54043 12.8909 9.59316 12.5603 9.65729L11.9584 9.77271ZM13.897 13.3352C13.7656 13.3466 13.524 13.3766 13.3601 13.4008C13.1976 13.4236 12.9531 13.4649 12.8161 13.492C12.6804 13.5191 12.4642 13.5675 12.3356 13.5989C12.2085 13.6302 12.0177 13.6815 11.9117 13.7129C11.8072 13.7428 11.6192 13.8026 11.4949 13.8454C11.3705 13.8881 11.1798 13.958 11.071 14.0021C10.9622 14.0449 10.7841 14.119 10.6753 14.1674C10.5665 14.2159 10.3503 14.3213 10.1949 14.4026C10.0395 14.4824 9.82329 14.6021 9.71448 14.6676C9.60568 14.7317 9.42199 14.85 9.30471 14.9284C9.18884 15.0053 8.99808 15.1421 8.8808 15.2305C8.76494 15.3188 8.58972 15.4585 8.49222 15.5397C8.39614 15.6224 8.22093 15.7791 8.10365 15.8888C7.98778 15.9986 7.8055 16.1838 7.69952 16.3007C7.59355 16.4175 7.44801 16.5828 7.37594 16.6698C7.30529 16.7553 7.18236 16.9134 7.10323 17.0189C7.0241 17.1243 6.8941 17.311 6.81356 17.4321C6.73302 17.5533 6.61715 17.7357 6.55781 17.8383C6.49705 17.9394 6.39672 18.119 6.33455 18.2373C6.27238 18.3541 6.17347 18.5536 6.11553 18.679C6.0576 18.8044 5.96575 19.0196 5.91064 19.1564C5.85554 19.2932 5.77217 19.5212 5.72413 19.6623C5.67608 19.8033 5.60543 20.0271 5.5687 20.161C5.53054 20.2936 5.48109 20.4831 5.45707 20.5814C5.43305 20.6797 5.39489 20.8522 5.37229 20.9662C5.34826 21.0802 5.31294 21.2725 5.29316 21.3937C5.27338 21.5148 5.24511 21.72 5.22957 21.8497C5.21403 21.9793 5.19142 22.1974 5.1787 22.3342C5.1674 22.471 5.15327 22.7417 5.14762 22.9355L5.13631 23.2889H5.88521C5.86967 23.1949 5.87108 23.0623 5.87956 22.9327C5.88662 22.803 5.90217 22.6306 5.91347 22.5479C5.92619 22.4653 5.95162 22.3313 5.97282 22.2487C5.9926 22.166 6.03358 22.0349 6.06466 21.9565C6.09575 21.8782 6.14521 21.7727 6.17629 21.7214C6.20597 21.6701 6.26107 21.5917 6.29781 21.5476C6.33596 21.5034 6.38824 21.4478 6.41509 21.425C6.44335 21.4022 6.49705 21.3623 6.5352 21.3381C6.57476 21.3124 6.65672 21.2754 6.71889 21.254C6.82204 21.2198 6.85171 21.217 7.03682 21.217C7.20921 21.2184 7.26431 21.2241 7.37594 21.254C7.45083 21.274 7.73909 21.3808 8.01886 21.492C8.29864 21.6017 9.51384 22.0805 10.7177 22.5536L12.9079 23.4143L15.3482 20.959C13.6172 16.6626 13.1015 15.3673 13.0859 15.3089C13.0704 15.2504 13.0534 15.1535 13.0478 15.0951C13.0421 15.0224 13.0478 14.954 13.0619 14.8814C13.0746 14.8229 13.1001 14.7417 13.1199 14.7032C13.1382 14.6633 13.1806 14.5964 13.2145 14.555C13.2484 14.5123 13.3205 14.4425 13.3742 14.3997C13.4293 14.357 13.5367 14.2914 13.6144 14.2529C13.6921 14.2145 13.8136 14.1646 13.8829 14.1418C13.9535 14.119 14.0835 14.0834 14.1725 14.0634C14.263 14.0435 14.4057 14.0178 14.4905 14.005C14.5767 13.9936 14.7293 13.9765 14.8296 13.9694C14.9313 13.9608 15.0571 13.9551 15.1094 13.9551H15.204V13.2854C14.7392 13.2882 14.499 13.2939 14.3704 13.301C14.2432 13.3067 14.0298 13.3224 13.897 13.3352ZM16.7442 0.0441753C16.764 0.0669754 17.527 0.933381 20.1001 3.8518H32.57L32.5629 23.9516L19.2382 23.9587L16.6877 21.3865L16.6863 10.7047C16.6849 4.2451 16.6891 0.0185251 16.6962 0.0128251C16.7033 0.00570004 16.7259 0.0199501 16.7442 0.0441753ZM21.8155 11.2504C21.7562 11.3459 21.6587 11.5126 21.5979 11.6181C21.5372 11.7235 21.4143 11.9572 21.3224 12.1382C21.232 12.3178 21.1274 12.5358 21.0907 12.6227C21.0525 12.7082 20.9875 12.8721 20.9451 12.9861C20.9027 13.1001 20.8505 13.2626 20.8279 13.3495C20.8067 13.435 20.7812 13.5632 20.7727 13.6345C20.7629 13.7043 20.7614 13.7884 20.7671 13.8197C20.7727 13.8525 20.7954 13.8967 20.8208 13.9238C20.8448 13.9508 20.8985 13.9936 20.9409 14.0192C20.9847 14.0449 21.061 14.0834 21.1105 14.1047C21.1613 14.1261 21.2193 14.1489 21.2376 14.156L21.273 14.1689C21.215 14.2287 21.1656 14.2985 21.1246 14.3612C21.085 14.4239 21.0144 14.5522 20.9706 14.6462C20.9254 14.7403 20.8589 14.8942 20.825 14.9882C20.7897 15.0823 20.736 15.249 20.7049 15.3587C20.6724 15.4685 20.6244 15.6608 20.5975 15.7863C20.5707 15.9117 20.5339 16.0941 20.5184 16.1924C20.5029 16.2907 20.4732 16.4959 20.4548 16.6484C20.435 16.8009 20.4039 16.9833 20.3842 17.0545C20.3658 17.1243 20.3163 17.2782 20.2768 17.3965C20.2358 17.5134 20.1623 17.7057 20.1115 17.824C20.0606 17.9409 19.9588 18.1589 19.8854 18.3085C19.8119 18.4567 19.7031 18.6662 19.6452 18.7716C19.5858 18.8771 19.4742 19.0695 19.3965 19.1991C19.3188 19.3288 19.176 19.5554 19.08 19.705C18.9825 19.8532 18.8101 20.1069 18.697 20.2679C18.5826 20.4289 18.4243 20.6441 18.3452 20.7481C18.2661 20.8522 18.1996 20.9419 18.1996 20.9476C18.1996 20.9533 18.5359 21.2982 18.9457 21.7114L19.6904 22.4653L20.9875 20.7595L22.2183 18.793C23.2144 16.8607 23.531 16.2579 23.5649 16.2066C23.5988 16.1553 23.6751 16.0584 23.7358 15.99C23.7966 15.923 23.8899 15.8261 23.9436 15.7763C23.9987 15.7264 24.0905 15.6494 24.1484 15.6053C24.2078 15.5611 24.2968 15.5027 24.3463 15.4742C24.3971 15.4471 24.4763 15.4143 24.5229 15.4001L24.6077 15.3758C24.7391 15.5198 24.8196 15.6309 24.8691 15.7164C24.9199 15.8019 25.0061 15.9744 25.0612 16.0998C25.1178 16.2252 25.1997 16.4275 25.2435 16.5486C25.2887 16.6698 25.3594 16.875 25.4018 17.0046C25.4442 17.1343 25.5219 17.3965 25.5756 17.5889C25.6307 17.7813 25.6886 17.995 25.707 18.0663L25.7409 18.1945C27.1963 19.7777 27.6273 20.238 27.6386 20.238C27.6513 20.2394 27.7121 20.2024 27.7757 20.1582C27.8392 20.1126 27.9565 20.0171 28.0342 19.9473C28.1134 19.876 28.2434 19.7463 28.3225 19.6566C28.4016 19.5682 28.5245 19.42 28.5966 19.3288C28.6701 19.2376 28.7973 19.0638 28.8806 18.9426C28.9654 18.8215 29.0912 18.6291 29.1618 18.5151C29.2311 18.4011 29.3413 18.2159 29.4049 18.1019C29.4699 17.9879 29.5942 17.7542 29.6818 17.5818C29.7694 17.4093 29.8994 17.14 29.9715 16.9833C30.0421 16.8265 30.1495 16.5828 30.2075 16.4418C30.2654 16.3007 30.3516 16.0855 30.3982 15.9644C30.4434 15.8432 30.5268 15.6181 30.5805 15.4656C30.6356 15.3131 30.719 15.0566 30.7684 14.8956C30.8179 14.7346 30.8871 14.4881 30.9224 14.347C30.9578 14.2059 31.003 14.0064 31.0213 13.9052C31.0411 13.8026 31.068 13.6402 31.0821 13.5419C31.0991 13.4193 31.1061 13.2711 31.1061 13.0716C31.1061 12.8265 31.1019 12.7581 31.0765 12.6512C31.0609 12.58 31.0312 12.4845 31.01 12.4375C30.9733 12.3534 30.9733 12.352 30.9281 12.362C30.9027 12.3691 30.6822 12.4019 30.4364 12.4361C30.1919 12.4717 29.8005 12.523 29.5674 12.5501C29.3342 12.5771 29.0078 12.6128 28.8397 12.6284C28.6729 12.6441 28.403 12.6669 28.2391 12.6783C28.0766 12.6911 27.7615 12.7068 27.5397 12.7168C27.315 12.7253 26.9829 12.7296 26.788 12.7239C26.5958 12.7196 26.3598 12.7082 26.2651 12.7011C26.1705 12.6926 26.015 12.6769 25.9218 12.6641C25.8285 12.6527 25.6801 12.6256 25.5897 12.6056C25.5007 12.5857 25.3763 12.5515 25.3142 12.5287C25.252 12.5059 25.1927 12.4802 25.1799 12.4731C25.163 12.4617 25.1743 12.4204 25.2548 12.1924C25.3071 12.0442 25.3481 11.923 25.3467 11.9216C25.3439 11.9202 24.8465 11.7107 24.2403 11.4556C23.6341 11.1991 23.1381 10.9939 23.1381 10.9939C23.1367 10.9968 23.0929 11.0737 23.0392 11.1649C22.9488 11.3174 22.9389 11.3302 22.9121 11.316C22.8965 11.3074 22.7764 11.2405 22.6436 11.1692C22.5122 11.0965 22.3384 11.0039 22.2592 10.964C22.1801 10.9241 22.101 10.8913 22.0854 10.8913C22.0671 10.8913 22.0346 10.9227 21.9908 10.9825C21.954 11.0338 21.8749 11.1535 21.8155 11.2504ZM0 24.7852H13.3318L15.8682 27.3431V37.6701C15.8682 43.3502 15.8653 47.9986 15.8611 47.9986C15.8583 47.9986 15.8371 47.9858 15.8159 47.9715C15.7947 47.9572 15.6689 47.886 15.5361 47.8133C15.4047 47.7407 15.1631 47.6124 14.9992 47.5269C14.8367 47.4428 14.5823 47.316 14.434 47.2462C14.287 47.1763 14.0553 47.068 13.9182 47.0082C13.7826 46.9469 13.4929 46.8258 13.2753 46.7374C13.0577 46.6491 12.7567 46.5322 12.6041 46.4767C12.4529 46.4225 12.1887 46.3313 12.0177 46.2743C11.8467 46.2173 11.5458 46.1247 11.3465 46.0677C11.1487 46.0093 10.8124 45.9166 10.5976 45.8611C10.3843 45.8055 9.99991 45.7086 9.74274 45.6459C9.48699 45.5832 9.07015 45.4834 8.81722 45.425C8.5657 45.3652 8.13332 45.2668 7.85637 45.2056C7.58083 45.1443 7.15127 45.0517 6.90258 44.9989C6.65389 44.9462 6.25683 44.8621 6.01945 44.8108C5.78347 44.761 5.47402 44.6897 5.33413 44.6541C5.19425 44.6185 4.98512 44.5586 4.86784 44.5201C4.75197 44.4817 4.54567 44.4061 4.40861 44.352C4.27296 44.2978 4.06383 44.2109 3.94231 44.1582C3.82221 44.1054 3.63428 44.0185 3.52547 43.9672C3.41667 43.9145 3.23581 43.819 3.12276 43.7563C3.01114 43.6922 2.85429 43.601 2.77658 43.5511C2.69886 43.5027 2.56886 43.4143 2.48691 43.3559C2.40637 43.296 2.28202 43.202 2.21137 43.1464C2.14213 43.0894 2.00507 42.9697 1.90757 42.8799C1.81149 42.7902 1.66312 42.6405 1.57834 42.5465C1.49497 42.4539 1.3678 42.3014 1.29574 42.2088C1.22508 42.1161 1.13183 41.9907 1.09085 41.9309C1.04987 41.8696 0.963677 41.7342 0.901504 41.6288C0.839331 41.5233 0.734768 41.3267 0.669769 41.1942C0.604771 41.0602 0.514338 40.855 0.467708 40.7382C0.422492 40.6199 0.354667 40.4318 0.317929 40.3178C0.282603 40.2038 0.22467 39.9957 0.190757 39.8547C0.155432 39.7136 0.108802 39.4827 0.086194 39.3416C0.0621727 39.2006 0.0339124 38.9982 0.0226083 38.8928C0.00282603 38.7232 0 37.881 0 31.7421V24.7852ZM12.8768 26.3954C12.8613 26.4311 12.7977 26.5793 12.7341 26.7232L12.6182 26.9868C12.142 27.0495 11.981 27.0737 11.9513 27.0809C11.9216 27.088 11.8778 27.1122 11.8538 27.1336C11.8298 27.155 11.8015 27.1892 11.7916 27.2077C11.7817 27.2276 11.7563 27.3644 11.7365 27.5112C11.7167 27.658 11.6913 27.7962 11.6814 27.8176C11.6701 27.839 11.639 27.8774 11.6108 27.9031C11.5825 27.9287 11.5387 27.953 11.5133 27.9573C11.4878 27.9601 11.3592 27.9786 11.2264 27.9972C11.0526 28.02 10.9735 28.0371 10.9367 28.0584C10.9099 28.0755 10.8746 28.1154 10.8562 28.1511C10.8322 28.1981 10.8124 28.2978 10.7728 28.5757C10.7432 28.7895 10.7107 28.9719 10.6937 29.0175C10.6782 29.0616 10.6499 29.1186 10.6329 29.1457C10.616 29.1742 10.5807 29.217 10.5538 29.2412C10.5284 29.2668 10.4747 29.301 10.4351 29.3181C10.3857 29.3395 10.3376 29.3495 10.2726 29.3481C10.209 29.3481 10.1412 29.3338 10.0465 29.3025C9.97307 29.2768 9.82329 29.2184 9.71448 29.1714C9.60568 29.1258 9.29482 28.9761 9.02211 28.8408C8.75081 28.7054 8.39473 28.523 8.23082 28.4346C8.06832 28.3477 7.90017 28.2651 7.85637 28.2537C7.8055 28.238 7.7518 28.2323 7.69387 28.238C7.64724 28.2423 7.58366 28.2565 7.55257 28.2693C7.52148 28.2822 7.47485 28.3064 7.44942 28.3235C7.42398 28.3406 7.30953 28.4703 7.19649 28.6113C7.08203 28.7524 6.90965 28.9647 6.81215 29.0816C6.71606 29.1999 6.55639 29.3894 6.4589 29.502C6.3614 29.616 6.18053 29.824 6.05619 29.9651C5.93184 30.1062 5.70152 30.3598 5.54609 30.528C5.39066 30.6961 5.08262 31.0196 4.86077 31.2462C4.64034 31.4727 4.30546 31.8034 4.11894 31.9815C3.93242 32.1596 3.70069 32.3791 3.60319 32.4674C3.50569 32.5572 3.32483 32.7211 3.20048 32.8308C3.07614 32.9405 2.84723 33.14 2.69179 33.2725C2.53636 33.4051 2.23539 33.6559 2.02061 33.8283C1.80725 33.9993 1.56138 34.1959 1.47378 34.2615C1.38758 34.3285 1.31976 34.3869 1.32541 34.3912C1.33106 34.3954 1.47236 34.4182 1.6391 34.4396C1.8779 34.471 1.97257 34.4781 2.07713 34.471C2.15202 34.4653 2.26648 34.4524 2.33148 34.441C2.39789 34.4296 2.5081 34.404 2.57593 34.384C2.64375 34.3641 2.77799 34.3128 2.87266 34.2715C2.96733 34.2301 3.12842 34.1489 3.22874 34.0919C3.33048 34.0349 3.49297 33.9352 3.58906 33.871C3.68656 33.8055 3.85471 33.6801 3.96351 33.5917C4.07231 33.502 4.41991 33.2141 4.7336 32.9505C5.04871 32.6869 5.43305 32.3662 5.58848 32.238C5.74391 32.1097 6.03075 31.876 6.22433 31.7207C6.41933 31.5639 6.71748 31.3302 6.88845 31.2006C7.05943 31.0709 7.2954 30.9013 7.41127 30.8229C7.52855 30.7446 7.67409 30.6562 7.73626 30.6249C7.79843 30.5949 7.87474 30.5664 7.90582 30.5622C7.94963 30.555 7.968 30.5593 7.98354 30.5793C7.99767 30.5949 8.00473 30.632 8.00473 30.6762C8.00332 30.7232 7.98636 30.7902 7.95669 30.8628C7.93126 30.9255 7.87332 31.0452 7.82528 31.1265C7.77865 31.2091 7.66985 31.383 7.58366 31.5112C7.49746 31.6409 7.32083 31.8874 7.19225 32.0599C7.06367 32.2323 6.84465 32.5216 6.70335 32.7011C6.56346 32.8821 6.31194 33.1999 6.14521 33.4065C5.97988 33.6145 5.61391 34.0705 5.33413 34.4182C5.05294 34.7674 4.7011 35.2105 4.55132 35.4015C4.40154 35.5939 4.16557 35.9017 4.02851 36.0855C3.89145 36.2708 3.70917 36.5273 3.62297 36.6555C3.53678 36.7852 3.42939 36.9548 3.38559 37.0331C3.34037 37.1115 3.28385 37.2241 3.26124 37.2825C3.23722 37.3424 3.21461 37.4222 3.21178 37.4606C3.20613 37.5205 3.21037 37.5376 3.23581 37.5604C3.26407 37.5875 3.27113 37.5875 3.32483 37.5704C3.35874 37.5604 3.42656 37.5276 3.47602 37.5005C3.52689 37.472 3.62862 37.4065 3.7021 37.3566C3.77699 37.3053 3.91264 37.2056 4.0059 37.1357C4.09916 37.0645 4.28426 36.9191 4.41567 36.8137C4.5485 36.7068 4.86643 36.4432 5.12218 36.228C5.37935 36.0128 5.92901 35.5454 6.34444 35.1892C6.76128 34.8329 7.28551 34.3869 7.51018 34.1974C7.73626 34.0078 8.06691 33.7357 8.24495 33.5903C8.4244 33.4464 8.68863 33.2383 8.83135 33.13C8.97548 33.0203 9.18178 32.8721 9.29058 32.7994C9.39938 32.7268 9.54633 32.6384 9.61557 32.6028C9.68764 32.5672 9.77524 32.533 9.81622 32.5273C9.87981 32.5173 9.89394 32.5201 9.91937 32.5444C9.93633 32.5615 9.94904 32.5914 9.94904 32.6156C9.94904 32.6398 9.93774 32.694 9.92644 32.7367C9.91372 32.7809 9.86992 32.8835 9.82894 32.9647C9.78796 33.0474 9.71307 33.1856 9.6622 33.2711C9.61133 33.358 9.47286 33.5689 9.35416 33.7414C9.23688 33.9138 9.08145 34.1318 9.0108 34.2259C8.94015 34.3199 8.64766 34.7018 8.3594 35.0737C8.07256 35.4471 7.70376 35.9302 7.54127 36.1496C7.37877 36.3691 7.18377 36.6427 7.10747 36.7553C7.03258 36.8693 6.92095 37.046 6.86019 37.1471C6.79943 37.2497 6.70476 37.4222 6.64824 37.5319C6.59313 37.6416 6.52107 37.7998 6.48998 37.881C6.45748 37.9637 6.41509 38.0891 6.3939 38.1589C6.37411 38.2301 6.34161 38.3612 6.32325 38.451C6.30346 38.5422 6.28086 38.7047 6.27238 38.8144C6.25966 38.9669 6.25966 39.0638 6.27238 39.2248C6.28086 39.3402 6.29357 39.4485 6.30064 39.467C6.31053 39.4955 6.42216 39.3673 7.2742 38.3584C8.04571 37.4435 8.36929 37.073 8.91189 36.4831L9.58731 35.7478C11.2674 34.186 11.4369 34.0363 11.8057 33.7428C12.0389 33.5575 12.2551 33.3808 12.2862 33.3509C12.3173 33.321 12.3611 33.2654 12.3808 33.2269C12.402 33.1885 12.4246 33.1229 12.4317 33.0787C12.4388 33.036 12.4402 32.9619 12.4331 32.9149C12.4275 32.865 12.4035 32.7937 12.378 32.7439C12.3526 32.6968 12.2607 32.5244 12.1745 32.3591C12.0869 32.1952 11.9329 31.8931 11.8312 31.6894C11.7294 31.4856 11.598 31.2077 11.5373 31.0695C11.4779 30.9327 11.4059 30.7531 11.3776 30.6705C11.3366 30.5479 11.3267 30.5009 11.3267 30.4068C11.3267 30.3156 11.3338 30.2772 11.3621 30.2159C11.3833 30.1674 11.4228 30.1147 11.4666 30.0762C11.5062 30.042 11.5726 30.0007 11.615 29.9836C11.663 29.9665 11.8495 29.9323 12.0883 29.8995C12.4148 29.8539 12.4925 29.8383 12.532 29.8112C12.5589 29.7941 12.5914 29.7613 12.6055 29.7371C12.6239 29.7086 12.6437 29.6103 12.6677 29.4307C12.6875 29.2868 12.7157 29.1429 12.7284 29.1115C12.7426 29.0816 12.7708 29.0417 12.792 29.0232C12.8132 29.0046 12.8542 28.9833 12.8839 28.9761C12.9136 28.969 13.0421 28.9491 13.1693 28.932C13.3148 28.912 13.4236 28.8906 13.4561 28.8735C13.4886 28.8564 13.5226 28.8237 13.5423 28.7866C13.5706 28.7367 13.5847 28.6626 13.6215 28.3905C13.6469 28.2066 13.6709 28.0513 13.6766 28.047C13.6808 28.0428 13.8235 27.9743 13.9931 27.8974C14.1627 27.8204 14.3011 27.7535 14.3011 27.7492C14.3011 27.7463 13.986 27.4257 13.6017 27.0367L12.9037 26.3313L12.8768 26.3954ZM19.2396 24.7852H32.5714V31.7364C32.5714 36.59 32.5672 38.7232 32.5559 38.8073C32.5474 38.8742 32.529 39.0224 32.5135 39.135C32.4979 39.249 32.464 39.4514 32.4372 39.5839C32.4103 39.7178 32.3623 39.9202 32.3312 40.0328C32.3015 40.1468 32.2436 40.3363 32.204 40.4532C32.1645 40.5714 32.0924 40.761 32.0444 40.8735C31.9977 40.9875 31.9115 41.1742 31.8536 41.2868C31.7957 41.4008 31.7038 41.5675 31.6501 41.6573C31.595 41.7485 31.5046 41.8896 31.4467 41.9708C31.3901 42.0534 31.2898 42.1888 31.2248 42.27C31.1584 42.3527 31.0397 42.4909 30.9606 42.5764C30.88 42.6633 30.7472 42.7973 30.6653 42.8742C30.5833 42.9512 30.4321 43.0823 30.3318 43.1635C30.2301 43.2462 30.0492 43.3787 29.9291 43.4599C29.809 43.5397 29.6394 43.6466 29.5546 43.6965C29.4684 43.7449 29.2819 43.8447 29.1378 43.9174C28.9937 43.99 28.7393 44.1083 28.5726 44.181C28.4059 44.2522 28.1699 44.3506 28.0498 44.3962C27.9297 44.4432 27.7417 44.5087 27.6329 44.5429C27.5241 44.5771 27.3051 44.637 27.1454 44.6769C26.9858 44.7154 26.747 44.7709 26.6156 44.798C26.4827 44.8265 26.1139 44.9049 25.796 44.9719C25.4767 45.0388 24.9722 45.1486 24.6727 45.2141C24.3731 45.2811 23.8969 45.3908 23.6129 45.4564C23.3289 45.5233 22.8428 45.6416 22.5319 45.7186C22.2211 45.7969 21.8325 45.8967 21.67 45.9409C21.5061 45.985 21.256 46.0563 21.1119 46.099C20.9677 46.1404 20.6851 46.2301 20.4831 46.2985C20.281 46.3655 19.956 46.4795 19.7624 46.5536C19.5674 46.6263 19.2792 46.7403 19.1195 46.8058C18.9598 46.8728 18.69 46.9897 18.519 47.0666C18.348 47.1436 17.9948 47.3146 17.7348 47.4457C17.4748 47.5768 17.1342 47.7549 16.9788 47.8418C16.8234 47.9288 16.6948 48 16.692 48C16.6905 47.9986 16.6877 43.3545 16.6821 27.3573L19.2396 24.7852ZM20.9988 26.1674L19.6918 26.3427L18.1459 27.8988C18.1318 28.0314 18.1163 28.1596 18.1007 28.2693C18.0852 28.3791 18.0386 28.6911 17.9962 28.9605C17.9538 29.2312 17.9001 29.5932 17.8761 29.7656C17.8535 29.938 17.8195 30.2045 17.804 30.357C17.7842 30.5408 17.7715 30.7802 17.7673 31.0623C17.7616 31.3416 17.7644 31.5568 17.7757 31.6822C17.7856 31.7891 17.804 31.943 17.8195 32.0242C17.8337 32.1069 17.8577 32.2252 17.8732 32.2879C17.8902 32.3506 17.9227 32.4603 17.9481 32.5301C17.9721 32.6014 18.0202 32.7168 18.0555 32.7866C18.0908 32.8579 18.1587 32.9733 18.2067 33.0431C18.2533 33.1144 18.3466 33.2269 18.413 33.2925C18.4794 33.3595 18.5896 33.4535 18.6603 33.502C18.7295 33.549 18.844 33.6174 18.9146 33.653C18.9839 33.6886 19.0983 33.7371 19.169 33.7627C19.2382 33.787 19.3569 33.8226 19.4304 33.8411C19.5039 33.8596 19.6565 33.8896 19.7695 33.9081C19.9461 33.9352 20.0323 33.9394 20.3912 33.9394C20.6993 33.9409 20.8702 33.9337 21.0483 33.9152C21.1797 33.901 21.3874 33.8739 21.5075 33.8539C21.6276 33.8354 21.7322 33.8197 21.7407 33.8197C21.7491 33.8197 21.752 33.8796 21.7491 33.9808C21.7449 34.0948 21.7506 34.1717 21.7675 34.2472C21.7802 34.3071 21.8085 34.3926 21.8311 34.4396C21.8523 34.4866 21.8989 34.5636 21.9328 34.6092C21.9667 34.6548 22.036 34.7246 22.0868 34.7631C22.1377 34.8016 22.2168 34.8529 22.2635 34.8742C22.3101 34.897 22.3921 34.9255 22.4472 34.9384C22.5206 34.9569 22.5913 34.9612 22.7213 34.9583L22.8965 34.9526C23.2851 35.3616 23.466 35.5568 23.5493 35.6509C23.6341 35.7449 23.7825 35.9188 23.88 36.0356C23.9761 36.1539 24.1174 36.3335 24.1937 36.4346C24.2685 36.5372 24.3788 36.6968 24.4395 36.7909C24.4989 36.8849 24.5822 37.0331 24.6232 37.1186C24.6656 37.2056 24.7136 37.3181 24.7306 37.368C24.749 37.4222 24.7645 37.5119 24.7673 37.5818C24.7716 37.6502 24.7673 37.7285 24.7589 37.7599C24.7504 37.7912 24.7122 37.8554 24.6755 37.9024C24.6331 37.9565 24.5836 37.9993 24.5384 38.0235C24.4819 38.052 24.448 38.0591 24.3689 38.0591C24.3067 38.0577 24.2304 38.0463 24.164 38.0249C24.106 38.0078 24.0043 37.9651 23.9379 37.9309C23.8715 37.8981 23.7599 37.8326 23.6906 37.7855C23.62 37.7385 23.5055 37.6559 23.4363 37.6003C23.3656 37.5461 23.2356 37.4378 23.1466 37.3595C23.0576 37.2825 22.8499 37.0844 22.686 36.9191C22.5221 36.7553 22.3384 36.5672 22.2762 36.5002C22.2154 36.4346 22.1434 36.3719 22.1179 36.362C22.0925 36.3506 22.0332 36.342 21.9837 36.342C21.9159 36.342 21.8763 36.352 21.8071 36.3848C21.759 36.409 21.6884 36.4589 21.6516 36.4959C21.6135 36.533 21.5654 36.6014 21.5414 36.6484C21.5075 36.7211 21.5004 36.751 21.5004 36.8408C21.5004 36.9191 21.5075 36.9619 21.5273 36.9975C21.5428 37.026 21.7039 37.1984 21.8876 37.3823C22.0713 37.5675 22.3143 37.8012 22.426 37.9038C22.539 38.005 22.6874 38.1375 22.758 38.1959C22.8273 38.2558 22.9389 38.3456 23.0053 38.3969C23.0717 38.4482 23.1918 38.5351 23.2738 38.5907C23.3557 38.6448 23.4787 38.7232 23.5493 38.7617C23.6186 38.8016 23.7401 38.86 23.8178 38.8913C23.8955 38.9227 24.0156 38.9626 24.0863 38.9811C24.1852 39.0053 24.253 39.0125 24.3901 39.011C24.5201 39.011 24.595 39.0025 24.6727 38.9825C24.7306 38.9669 24.8267 38.9312 24.8846 38.9027C24.9426 38.8757 25.0443 38.8144 25.1107 38.7674C25.1771 38.7189 25.2817 38.6306 25.3424 38.5693C25.4046 38.508 25.4908 38.404 25.5346 38.337C25.577 38.2715 25.6307 38.1689 25.6519 38.109C25.6731 38.0506 25.6999 37.958 25.7112 37.9024C25.7225 37.8482 25.7324 37.7257 25.7324 37.6316C25.7324 37.5376 25.7225 37.4036 25.7112 37.3324C25.6985 37.2626 25.6731 37.1471 25.6533 37.0759C25.6335 37.0061 25.5883 36.8778 25.553 36.7909C25.5177 36.7054 25.4555 36.5672 25.4131 36.4845C25.3721 36.4033 25.2944 36.2636 25.2421 36.1753C25.1884 36.0869 25.0923 35.9359 25.0259 35.8404C24.9595 35.7449 24.8465 35.5896 24.773 35.4955C24.6995 35.4001 24.5822 35.2561 24.513 35.1735C24.4438 35.0923 24.2869 34.917 24.1654 34.7845C24.0439 34.6519 23.8672 34.471 23.7712 34.3812L23.5988 34.2187C23.62 34.1361 23.627 34.0549 23.627 33.9836C23.627 33.9138 23.6171 33.8169 23.6058 33.7699C23.5945 33.7228 23.5606 33.6373 23.531 33.5775C23.4942 33.502 23.449 33.4407 23.3727 33.3637C23.3148 33.3053 23.2314 33.2369 23.189 33.2113C23.1466 33.1856 23.0632 33.1471 23.0053 33.1272C22.9092 33.0916 22.8796 33.0887 22.6973 33.0873C22.5871 33.0873 22.4966 33.083 22.4966 33.0787C22.4966 33.0759 22.6846 32.8835 22.9135 32.6512L23.3303 32.2309L27.421 36.3563C27.6033 36.9476 27.6668 37.1443 27.681 37.1756C27.6979 37.2155 27.7205 37.2412 27.7573 37.2583C27.7855 37.2711 27.8223 37.2825 27.8378 37.2825C27.8534 37.2825 27.883 37.2768 27.9042 37.2683C27.9254 37.2597 28.3691 36.8251 28.8877 36.3021C29.4063 35.7791 29.8415 35.3345 29.8528 35.3131C29.8627 35.2918 29.8726 35.2533 29.8726 35.2276C29.8726 35.202 29.8613 35.1621 29.8471 35.1379C29.833 35.1151 29.7991 35.0851 29.7722 35.0723C29.7454 35.0595 29.5504 34.9954 29.3399 34.9298L28.9541 34.8101L24.8634 30.6861C25.3792 30.1603 25.5516 29.9736 25.5798 29.9295C25.6081 29.8867 25.6533 29.8041 25.6816 29.7442C25.7098 29.6858 25.7437 29.586 25.7593 29.5233C25.7748 29.4606 25.7946 29.3395 25.8017 29.2526C25.8101 29.1671 25.8172 29.016 25.8172 28.9177C25.8172 28.8208 25.8073 28.6569 25.796 28.5543C25.7833 28.4532 25.7565 28.2921 25.7338 28.1981C25.7112 28.104 25.6688 27.9629 25.6406 27.8846C25.6123 27.8062 25.5501 27.6694 25.5035 27.5782C25.4569 27.4884 25.3834 27.363 25.3396 27.3003C25.2972 27.2376 25.2195 27.135 25.1672 27.0723C25.1149 27.0096 25.0273 26.917 24.9751 26.8657C24.9214 26.8144 24.8168 26.726 24.7433 26.669C24.6698 26.6106 24.5554 26.5308 24.489 26.4895C24.4226 26.4482 24.3025 26.3798 24.2205 26.3384C24.1385 26.2971 24.0085 26.2387 23.9308 26.2088C23.8531 26.1788 23.7358 26.1375 23.6694 26.1176C23.603 26.099 23.4956 26.0705 23.4292 26.0549C23.3628 26.0392 23.2427 26.0164 23.1607 26.0036C23.0774 25.9907 22.8909 25.9793 22.7368 25.9765C22.5856 25.9736 22.426 25.9751 22.3836 25.9808C22.3412 25.9865 21.7181 26.0705 20.9988 26.1674ZM11.4115 15.5597C11.5019 15.5625 11.6136 15.5782 11.68 15.5939C11.7422 15.611 11.834 15.6437 11.8849 15.6665C11.9357 15.6908 12.0149 15.7378 12.0615 15.772C12.1081 15.8062 12.176 15.8646 12.2113 15.9031C12.248 15.9416 12.3003 16.0043 12.33 16.0428C12.3582 16.0827 12.4063 16.1625 12.436 16.2209C12.4642 16.2807 12.9065 17.378 14.3435 20.9947L13.661 21.6943C13.2866 22.0777 12.9729 22.3897 12.9658 22.3869C12.9574 22.384 11.8736 21.9665 10.5566 21.4578C9.23971 20.9505 8.12908 20.5216 8.09093 20.5045C8.05136 20.4874 7.97506 20.4446 7.92137 20.409C7.86626 20.3734 7.7843 20.3092 7.73909 20.2679C7.69387 20.2252 7.62463 20.1425 7.58789 20.0827C7.54833 20.0214 7.49888 19.9188 7.47344 19.8404C7.42964 19.7107 7.42822 19.6965 7.42681 19.4699C7.42681 19.2918 7.43246 19.2063 7.45225 19.1136C7.46779 19.0481 7.50029 18.9284 7.52572 18.85C7.55116 18.7716 7.60061 18.6405 7.63735 18.5579C7.67268 18.4767 7.7405 18.3384 7.78713 18.2515C7.83517 18.166 7.93267 18.005 8.00615 17.8953C8.07821 17.7855 8.19973 17.6188 8.27462 17.5248C8.3481 17.4307 8.48375 17.2711 8.57559 17.1699C8.66603 17.0688 8.82994 16.902 8.93874 16.8009C9.04754 16.6997 9.21851 16.5486 9.32025 16.4674C9.42058 16.3862 9.60285 16.2522 9.72296 16.171C9.84307 16.0912 10.0084 15.9886 10.0903 15.9444C10.1723 15.9003 10.2995 15.8361 10.3729 15.8019C10.4464 15.7677 10.5708 15.7178 10.6485 15.6908C10.7262 15.6637 10.8463 15.6266 10.917 15.611C10.9862 15.5939 11.0922 15.5739 11.1501 15.5668C11.208 15.5597 11.3253 15.5554 11.4115 15.5597ZM23.1452 26.7146C23.1961 26.7203 23.2922 26.7374 23.3586 26.7517C23.425 26.7659 23.5295 26.7944 23.5917 26.8158C23.6539 26.8372 23.7712 26.8856 23.8531 26.9241C23.9351 26.964 24.0326 27.0167 24.0721 27.041C24.1103 27.0652 24.1937 27.125 24.2558 27.1735C24.318 27.2219 24.4296 27.3245 24.5031 27.4029C24.5766 27.4799 24.6783 27.6038 24.7278 27.6794C24.7786 27.7535 24.8535 27.8817 24.8931 27.963C24.9341 28.0456 24.9934 28.1895 25.0245 28.2836C25.0556 28.3776 25.0937 28.5187 25.1107 28.5971C25.1262 28.6755 25.1432 28.8037 25.1489 28.8821C25.1559 29.0075 25.1531 29.0331 25.1262 29.0958C25.1022 29.1528 25.0273 29.2369 24.7532 29.5134C24.5116 29.757 24.4014 29.8582 24.3788 29.8582C24.3618 29.8582 24.3434 29.8511 24.3378 29.8411C24.3321 29.8311 24.3279 29.6145 24.3265 29.3595C24.3251 28.9989 24.3194 28.865 24.2996 28.7538C24.2869 28.6755 24.2601 28.5444 24.2403 28.4617C24.2205 28.3805 24.1824 28.2451 24.1555 28.1625C24.1272 28.0812 24.0707 27.943 24.0297 27.8561C23.9888 27.7706 23.904 27.6224 23.8418 27.5283C23.7796 27.4343 23.6793 27.3032 23.6171 27.2376C23.5564 27.1721 23.4532 27.0766 23.3868 27.0239C23.3204 26.9726 23.2158 26.9013 23.1537 26.8657C23.083 26.8244 23.0392 26.7902 23.0364 26.7731C23.0336 26.7574 23.0364 26.736 23.0406 26.7246C23.0491 26.7104 23.0717 26.7075 23.1452 26.7146Z" fill="#004571"/>
<path d="M48.1021 4.20254C48.8371 4.20254 49.5796 4.20254 50.3296 4.20254C51.0947 4.20254 51.8447 4.21754 52.5797 4.24754C53.3297 4.26254 54.0497 4.29254 54.7397 4.33754L54.6497 5.89005H48.4171C47.9521 5.89005 47.6146 6.01005 47.4046 6.25005C47.1946 6.47505 47.0896 6.85006 47.0896 7.37506V16.6001C47.0896 17.1251 47.1946 17.5076 47.4046 17.7476C47.6146 17.9876 47.9521 18.1076 48.4171 18.1076H54.6497L54.7397 19.6376C54.0497 19.6826 53.3297 19.7126 52.5797 19.7276C51.8447 19.7426 51.0947 19.7501 50.3296 19.7501C49.5796 19.7651 48.8371 19.7726 48.1021 19.7726C47.1871 19.7726 46.4596 19.5326 45.9196 19.0526C45.3796 18.5576 45.1096 17.8976 45.1096 17.0726V6.90256C45.1096 6.06255 45.3796 5.40255 45.9196 4.92255C46.4596 4.44254 47.1871 4.20254 48.1021 4.20254ZM45.4921 10.7501H53.7722V12.3476H45.4921V10.7501Z" fill="#004571"/>
<path d="M66.4301 8.79257V10.3001H62.425C61.96 10.3001 61.6225 10.4051 61.4125 10.6151C61.2175 10.8101 61.0825 11.1626 61.0075 11.6726C60.9325 12.3326 60.8425 13.0076 60.7375 13.6976C60.6475 14.3876 60.5425 15.0551 60.4225 15.7001C60.3025 16.3451 60.145 16.9226 59.95 17.4326C59.77 17.9576 59.5225 18.4001 59.2075 18.7601C58.8925 19.1201 58.51 19.3901 58.06 19.5701C57.625 19.7501 57.1075 19.8476 56.5075 19.8626L56.305 18.4001C56.71 18.2951 57.0325 18.1751 57.2725 18.0401C57.5275 17.9051 57.7225 17.7401 57.8575 17.5451C58.0075 17.3501 58.135 17.1251 58.24 16.8701C58.375 16.5101 58.495 16.0976 58.6 15.6326C58.705 15.1676 58.795 14.6801 58.87 14.1701C58.945 13.6601 59.005 13.1651 59.05 12.6851C59.11 12.1901 59.1625 11.7476 59.2075 11.3576C59.3125 10.5176 59.5825 9.88007 60.0175 9.44507C60.4675 9.01007 61.15 8.79257 62.065 8.79257H66.4301ZM66.7226 8.79257V19.7501H64.8101V8.79257H66.7226Z" fill="#004571"/>
<path d="M74.7894 8.52256C76.4394 8.52256 77.6319 8.82257 78.3669 9.42257C79.1169 10.0226 79.4994 10.9151 79.5144 12.1001C79.5144 13.0751 79.3044 13.8401 78.8844 14.3951C78.4794 14.9351 77.8194 15.2051 76.9044 15.2051H70.4919V13.7201H76.4094C76.8894 13.7201 77.2044 13.5551 77.3544 13.2251C77.5194 12.8801 77.5944 12.5051 77.5794 12.1001C77.5794 11.3951 77.3769 10.8926 76.9719 10.5926C76.5669 10.2926 75.8694 10.1426 74.8794 10.1426C74.0844 10.1426 73.4544 10.2626 72.9894 10.5026C72.5394 10.7276 72.2169 11.1326 72.0219 11.7176C71.8419 12.2876 71.7519 13.0901 71.7519 14.1251C71.7519 15.2951 71.8644 16.1876 72.0894 16.8026C72.3294 17.4176 72.7044 17.8376 73.2144 18.0626C73.7244 18.2876 74.3994 18.4001 75.2394 18.4001C75.8394 18.4001 76.4844 18.3776 77.1744 18.3326C77.8794 18.2726 78.5094 18.2051 79.0644 18.1301L79.2444 19.4126C78.9144 19.5476 78.4944 19.6601 77.9844 19.7501C77.4744 19.8401 76.9494 19.9076 76.4094 19.9526C75.8844 19.9976 75.4119 20.0201 74.9919 20.0201C73.7469 20.0201 72.7344 19.8326 71.9544 19.4576C71.1894 19.0676 70.6344 18.4526 70.2894 17.6126C69.9444 16.7576 69.7719 15.6326 69.7719 14.2376C69.7719 12.7976 69.9444 11.6651 70.2894 10.8401C70.6494 10.0001 71.1969 9.40757 71.9319 9.06257C72.6669 8.70257 73.6194 8.52256 74.7894 8.52256Z" fill="#004571"/>
<path d="M91.6428 8.79257C91.4028 9.43757 91.1703 10.0301 90.9453 10.5701C90.7353 11.0951 90.5178 11.5601 90.2928 11.9651C90.0828 12.3701 89.8428 12.7151 89.5728 13.0001C89.3178 13.2851 89.0178 13.5176 88.6728 13.6976C88.3278 13.8626 87.9228 13.9676 87.4578 14.0126V14.0801C87.9528 14.1251 88.3803 14.2301 88.7403 14.3951C89.1003 14.5601 89.4153 14.7926 89.6853 15.0926C89.9703 15.3776 90.2253 15.7376 90.4503 16.1726C90.6903 16.6076 90.9303 17.1251 91.1703 17.7251C91.4103 18.3101 91.6728 18.9851 91.9578 19.7501H89.9553C89.6853 19.0451 89.4378 18.4226 89.2128 17.8826C88.9878 17.3276 88.7628 16.8551 88.5378 16.4651C88.3278 16.0751 88.0953 15.7601 87.8403 15.5201C87.5853 15.2651 87.2853 15.0851 86.9403 14.9801C86.6103 14.8601 86.2203 14.8001 85.7703 14.8001V13.3151C86.3103 13.3151 86.7678 13.2176 87.1428 13.0226C87.5178 12.8126 87.8403 12.5126 88.1103 12.1226C88.3953 11.7326 88.6578 11.2601 88.8978 10.7051C89.1378 10.1501 89.3928 9.51257 89.6628 8.79257H91.6428ZM84.3528 8.79257V12.0551C84.3528 12.3851 84.3303 12.7151 84.2853 13.0451C84.2403 13.3751 84.1728 13.6976 84.0828 14.0126C84.1728 14.3276 84.2403 14.6426 84.2853 14.9576C84.3303 15.2726 84.3528 15.5726 84.3528 15.8576V19.7501H82.4403V8.79257H84.3528ZM86.4903 13.3151V14.8001H83.7903V13.3151H86.4903Z" fill="#004571"/>
<path d="M99.2059 8.79257V19.7501H97.2934V8.79257H99.2059ZM103.166 8.79257V10.3676H93.3108V8.79257H103.166Z" fill="#004571"/>
<path d="M111.811 8.52256C113.161 8.52256 114.129 9.01757 114.714 10.0076C115.299 10.9826 115.591 12.4226 115.591 14.3276C115.591 15.7376 115.441 16.8626 115.141 17.7026C114.841 18.5276 114.384 19.1201 113.769 19.4801C113.154 19.8401 112.381 20.0201 111.451 20.0201C110.731 20.0201 110.019 19.9226 109.314 19.7276C108.609 19.5326 107.934 19.2326 107.289 18.8276L107.401 17.6801C108.106 17.8751 108.721 18.0401 109.246 18.1751C109.786 18.2951 110.356 18.3551 110.956 18.3551C111.601 18.3551 112.111 18.2426 112.486 18.0176C112.876 17.7926 113.161 17.3876 113.341 16.8026C113.521 16.2176 113.611 15.3926 113.611 14.3276C113.611 13.2926 113.529 12.4751 113.364 11.8751C113.214 11.2751 112.959 10.8476 112.599 10.5926C112.254 10.3226 111.789 10.1876 111.204 10.1876C110.604 10.1876 110.011 10.3301 109.426 10.6151C108.841 10.9001 108.159 11.3351 107.379 11.9201L107.176 10.6376C107.581 10.2026 108.039 9.82757 108.549 9.51257C109.059 9.19757 109.591 8.95757 110.146 8.79257C110.716 8.61257 111.271 8.52256 111.811 8.52256ZM107.109 8.79257L107.334 11.0651L107.446 11.3576V18.3776L107.356 18.6476C107.401 19.0676 107.431 19.4726 107.446 19.8626C107.461 20.2526 107.461 20.6651 107.446 21.1001V24.2726H105.556V8.79257H107.109Z" fill="#004571"/>
<path d="M123.309 8.52256C124.569 8.52256 125.574 8.71006 126.324 9.08507C127.074 9.46007 127.614 10.0751 127.944 10.9301C128.289 11.7701 128.461 12.8876 128.461 14.2826C128.461 15.6776 128.289 16.8026 127.944 17.6576C127.614 18.4976 127.074 19.1051 126.324 19.4801C125.574 19.8551 124.569 20.0426 123.309 20.0426C122.049 20.0426 121.036 19.8551 120.271 19.4801C119.521 19.1051 118.974 18.4976 118.629 17.6576C118.299 16.8026 118.134 15.6776 118.134 14.2826C118.134 12.8876 118.299 11.7701 118.629 10.9301C118.974 10.0751 119.521 9.46007 120.271 9.08507C121.036 8.71006 122.049 8.52256 123.309 8.52256ZM123.309 10.1426C122.514 10.1426 121.884 10.2701 121.419 10.5251C120.954 10.7651 120.624 11.1851 120.429 11.7851C120.234 12.3851 120.136 13.2176 120.136 14.2826C120.136 15.3476 120.234 16.1801 120.429 16.7801C120.624 17.3801 120.954 17.8076 121.419 18.0626C121.884 18.3026 122.514 18.4226 123.309 18.4226C124.104 18.4226 124.726 18.3026 125.176 18.0626C125.641 17.8076 125.971 17.3801 126.166 16.7801C126.361 16.1801 126.459 15.3476 126.459 14.2826C126.459 13.2176 126.361 12.3851 126.166 11.7851C125.971 11.1851 125.641 10.7651 125.176 10.5251C124.726 10.2701 124.104 10.1426 123.309 10.1426Z" fill="#004571"/>
<path d="M133.396 8.79257V19.7501H131.505V8.79257H133.396ZM139.358 13.2026V14.6651H133.26V13.2026H139.358ZM141.046 8.79257V19.7501H139.156V8.79257H141.046Z" fill="#004571"/>
<path d="M146.491 8.79257V19.7501H144.601V8.79257H146.491ZM152.454 13.2026V14.6651H146.356V13.2026H152.454ZM154.141 8.79257V19.7501H152.251V8.79257H154.141Z" fill="#004571"/>
<path d="M167.327 8.79257V19.7501H165.595V12.4826C165.595 12.2426 165.602 12.0101 165.617 11.7851C165.632 11.5451 165.647 11.2901 165.662 11.0201H165.617C165.527 11.2301 165.407 11.4551 165.257 11.6951C165.122 11.9201 164.987 12.1226 164.852 12.3026L159.272 19.7501H157.697V8.79257H159.43V16.0601C159.43 16.3001 159.422 16.5401 159.407 16.7801C159.407 17.0051 159.392 17.2526 159.362 17.5226H159.407C159.527 17.2976 159.655 17.0726 159.79 16.8476C159.925 16.6226 160.06 16.4276 160.195 16.2626L165.775 8.79257H167.327Z" fill="#004571"/>
<path d="M180.533 8.79257V19.7501H178.8V12.4826C178.8 12.2426 178.808 12.0101 178.823 11.7851C178.838 11.5451 178.853 11.2901 178.868 11.0201H178.823C178.733 11.2301 178.613 11.4551 178.463 11.6951C178.328 11.9201 178.193 12.1226 178.058 12.3026L172.478 19.7501H170.903V8.79257H172.635V16.0601C172.635 16.3001 172.628 16.5401 172.613 16.7801C172.613 17.0051 172.598 17.2526 172.568 17.5226H172.613C172.733 17.2976 172.86 17.0726 172.995 16.8476C173.13 16.6226 173.265 16.4276 173.4 16.2626L178.98 8.79257H180.533ZM177.563 3.93254H179.025C179.07 4.51754 178.958 5.04255 178.688 5.50755C178.433 5.97255 178.043 6.34755 177.518 6.63256C177.008 6.90256 176.393 7.03756 175.673 7.03756C174.953 7.03756 174.33 6.90256 173.805 6.63256C173.28 6.34755 172.883 5.97255 172.613 5.50755C172.358 5.04255 172.245 4.51754 172.275 3.93254H173.738C173.738 4.57754 173.903 5.08005 174.233 5.44005C174.578 5.78505 175.058 5.95755 175.673 5.95755C176.273 5.95755 176.738 5.78505 177.068 5.44005C177.398 5.08005 177.563 4.57754 177.563 3.93254Z" fill="#004571"/>
<path d="M60.3512 25.8699C59.9372 27.2199 59.5862 28.3719 59.2982 29.3259C59.0102 30.2799 58.7312 31.0809 58.4612 31.7289C58.1912 32.3769 57.8852 32.9079 57.5432 33.3219C57.2192 33.7179 56.8142 34.0239 56.3282 34.2399C55.8422 34.4559 55.2302 34.609 54.4922 34.699V34.861C55.2662 34.969 55.9052 35.131 56.4092 35.347C56.9312 35.545 57.3722 35.86 57.7322 36.292C58.1102 36.706 58.4522 37.264 58.7582 37.966C59.0642 38.668 59.3792 39.55 59.7032 40.612C60.0272 41.674 60.4232 42.97 60.8912 44.5H55.5992C55.1132 42.808 54.7082 41.44 54.3842 40.396C54.0782 39.334 53.7722 38.524 53.4662 37.966C53.1602 37.408 52.8002 37.03 52.3862 36.832C51.9902 36.616 51.4682 36.508 50.8201 36.508L50.7391 33.1329C51.4052 33.1329 51.9452 33.0159 52.3592 32.7819C52.7732 32.5479 53.1242 32.1609 53.4122 31.6209C53.7002 31.0629 53.9792 30.3159 54.2492 29.3799C54.5192 28.4439 54.8432 27.2739 55.2212 25.8699H60.3512ZM50.0641 25.8699V30.8379C50.0641 31.4859 50.0011 32.1519 49.8751 32.8359C49.7671 33.5019 49.5961 34.1319 49.3621 34.7259C49.5421 35.284 49.7041 35.887 49.8481 36.535C49.9921 37.165 50.0641 37.741 50.0641 38.263V44.5H45.0151V25.8699H50.0641ZM52.0622 33.1329V36.508H48.8221V33.1329H52.0622Z" fill="#004571"/>
<path d="M70.0736 30.7029C71.2796 30.7029 72.2966 30.8649 73.1246 31.1889C73.9526 31.5129 74.5826 32.0529 75.0146 32.8089C75.4466 33.5649 75.6626 34.6089 75.6626 35.941V44.5H71.7476L71.0726 41.611L70.7486 41.125V35.914C70.7306 35.356 70.5866 34.9599 70.3166 34.7259C70.0646 34.4739 69.5966 34.3479 68.9126 34.3479C68.2106 34.3479 67.3466 34.3659 66.3205 34.4019C65.2945 34.4199 64.2235 34.4649 63.1075 34.5369L62.6755 31.3779C63.3415 31.2519 64.1245 31.1439 65.0245 31.0539C65.9245 30.9459 66.8156 30.8649 67.6976 30.8109C68.5976 30.7389 69.3896 30.7029 70.0736 30.7029ZM73.7186 36.265L73.6916 38.749H67.9406C67.5445 38.767 67.2476 38.875 67.0496 39.073C66.8516 39.253 66.7525 39.505 66.7525 39.829V40.342C66.7525 40.684 66.8605 40.954 67.0766 41.152C67.3106 41.332 67.6525 41.422 68.1026 41.422C68.5526 41.422 69.0296 41.323 69.5336 41.125C70.0376 40.927 70.5326 40.657 71.0186 40.315C71.5046 39.973 71.9276 39.604 72.2876 39.208V40.936C72.1436 41.224 71.9186 41.584 71.6126 42.016C71.3246 42.448 70.9466 42.889 70.4786 43.339C70.0106 43.771 69.4436 44.131 68.7776 44.419C68.1116 44.707 67.3376 44.851 66.4556 44.851C65.6455 44.851 64.8985 44.707 64.2145 44.419C63.5305 44.131 62.9815 43.708 62.5675 43.15C62.1715 42.592 61.9735 41.89 61.9735 41.044V39.694C61.9735 38.614 62.3515 37.777 63.1075 37.183C63.8815 36.571 64.9255 36.265 66.2395 36.265H73.7186Z" fill="#004571"/>
<path d="M95.4263 31.0809C96.5243 31.0809 97.0823 31.6389 97.1003 32.7549L97.4513 44.5H93.0233L92.6723 34.645H92.3213L90.7282 41.152C90.6382 41.638 90.4312 42.016 90.1072 42.286C89.8012 42.538 89.3962 42.664 88.8922 42.664H86.7322C86.2282 42.664 85.8142 42.538 85.4902 42.286C85.1842 42.016 84.9862 41.638 84.8962 41.152L83.2492 34.645H82.9252L82.6552 44.5H78.2272L78.5512 32.7549C78.5692 31.6389 79.1362 31.0809 80.2522 31.0809H84.3832C84.8872 31.0809 85.2922 31.2069 85.5982 31.4589C85.9222 31.7109 86.1202 32.0979 86.1922 32.6199L87.4072 37.588C87.4972 37.912 87.5602 38.245 87.5962 38.587C87.6322 38.911 87.6592 39.244 87.6772 39.586H87.9202C87.9562 39.244 87.9832 38.911 88.0012 38.587C88.0372 38.245 88.1002 37.912 88.1902 37.588L89.3782 32.6199C89.5402 31.5939 90.1522 31.0809 91.2142 31.0809H95.4263Z" fill="#004571"/>
<path d="M113.724 31.0539V44.5H108.945V31.0539H113.724ZM104.895 31.0539V44.5H100.116V31.0539H104.895ZM109.215 31.0539L109.188 34.3209H104.733V31.0539H109.215Z" fill="#004571"/>
<path d="M130.932 31.0809L126.423 44.365C126.099 45.463 125.703 46.354 125.235 47.038C124.767 47.722 124.236 48.262 123.642 48.658C123.066 49.072 122.418 49.405 121.698 49.657C120.906 49.945 120.033 50.089 119.079 50.089C118.143 50.107 117.216 50.026 116.298 49.846L116.676 46.714C117.54 46.732 118.278 46.696 118.89 46.606C119.52 46.516 120.051 46.354 120.483 46.12C120.807 45.922 121.104 45.643 121.374 45.283C121.644 44.923 121.869 44.536 122.049 44.122L122.832 42.313C123.012 41.863 123.174 41.323 123.318 40.693C123.48 40.063 123.606 39.523 123.696 39.073L125.721 31.0809H130.932ZM120.456 31.0809L122.481 39.073C122.553 39.451 122.616 39.838 122.67 40.234C122.742 40.63 122.805 41.017 122.859 41.395H123.642L122.103 44.5H120.996C120.618 44.5 120.285 44.392 119.997 44.176C119.727 43.96 119.538 43.681 119.43 43.339L115.245 31.0809H120.456Z" fill="#004571"/>
<path d="M138.605 30.7029C139.127 30.7029 139.703 30.7299 140.333 30.7839C140.963 30.8379 141.593 30.9369 142.223 31.0809C142.853 31.2069 143.429 31.3869 143.951 31.6209L143.438 34.672C142.628 34.672 141.899 34.672 141.251 34.672C140.603 34.6539 140 34.645 139.442 34.645C138.776 34.645 138.245 34.735 137.849 34.915C137.453 35.095 137.165 35.41 136.985 35.86C136.823 36.292 136.742 36.931 136.742 37.777C136.742 38.605 136.823 39.253 136.985 39.721C137.165 40.171 137.453 40.486 137.849 40.666C138.245 40.828 138.776 40.909 139.442 40.909C139.748 40.909 140.126 40.909 140.576 40.909C141.044 40.891 141.548 40.873 142.088 40.855C142.628 40.819 143.168 40.774 143.708 40.72L144.14 43.798C143.384 44.176 142.511 44.437 141.521 44.581C140.531 44.743 139.55 44.824 138.578 44.824C136.868 44.824 135.5 44.599 134.474 44.149C133.448 43.681 132.71 42.934 132.26 41.908C131.828 40.864 131.612 39.487 131.612 37.777C131.612 36.031 131.837 34.6449 132.287 33.6189C132.737 32.5929 133.475 31.8549 134.501 31.4049C135.545 30.9369 136.913 30.7029 138.605 30.7029Z" fill="#004571"/>
<path d="M149 31C149 28.7909 150.791 27 153 27H189C191.209 27 193 28.7909 193 31V44C193 46.2091 191.209 48 189 48H153C150.791 48 149 46.2091 149 44V31Z" fill="#004571"/>
<path d="M160.352 34.952C160.971 34.952 161.461 35.08 161.824 35.336C162.187 35.592 162.421 36.0293 162.528 36.648C162.645 37.256 162.629 38.088 162.48 39.144C162.363 39.9227 162.203 40.5733 162 41.096C161.797 41.6187 161.536 42.0347 161.216 42.344C160.907 42.6533 160.523 42.872 160.064 43C159.616 43.1387 159.083 43.208 158.464 43.208C158.165 43.208 157.835 43.192 157.472 43.16C157.12 43.1387 156.757 43.1013 156.384 43.048C156.021 42.9947 155.675 42.9307 155.344 42.856C155.013 42.7813 154.715 42.696 154.448 42.6L155.712 41.592C156.011 41.624 156.309 41.6507 156.608 41.672C156.917 41.6933 157.2 41.7147 157.456 41.736C157.712 41.7467 157.915 41.7467 158.064 41.736C158.501 41.736 158.859 41.704 159.136 41.64C159.413 41.5653 159.637 41.432 159.808 41.24C159.979 41.048 160.117 40.7707 160.224 40.408C160.331 40.0453 160.421 39.5813 160.496 39.016C160.603 38.3333 160.645 37.816 160.624 37.464C160.603 37.1013 160.517 36.856 160.368 36.728C160.219 36.6 159.995 36.536 159.696 36.536C159.301 36.536 158.843 36.6907 158.32 37C157.808 37.2987 157.253 37.72 156.656 38.264L156.336 37.512C156.549 37.2133 156.805 36.9147 157.104 36.616C157.403 36.3067 157.728 36.0293 158.08 35.784C158.443 35.528 158.816 35.3253 159.2 35.176C159.584 35.0267 159.968 34.952 160.352 34.952ZM157.888 31.8L157.52 34.664C157.467 35.0373 157.403 35.3893 157.328 35.72C157.253 36.04 157.152 36.376 157.024 36.728L157.2 36.904L156.368 42.696L154.448 42.6L155.968 31.8H157.888Z" fill="white"/>
<path d="M168.431 34.952C169.338 34.952 170.037 35.0533 170.527 35.256C171.029 35.448 171.365 35.7413 171.535 36.136C171.706 36.52 171.743 37 171.647 37.576C171.562 38.0773 171.397 38.472 171.151 38.76C170.917 39.048 170.586 39.2667 170.159 39.416C169.743 39.5547 169.21 39.6507 168.559 39.704L164.623 40.04L164.799 38.856L168.287 38.52C168.607 38.488 168.863 38.44 169.055 38.376C169.258 38.3013 169.413 38.1893 169.519 38.04C169.637 37.8907 169.717 37.6773 169.759 37.4C169.813 37.0907 169.791 36.8613 169.695 36.712C169.599 36.5627 169.439 36.472 169.215 36.44C168.991 36.3973 168.693 36.376 168.319 36.376C167.957 36.376 167.647 36.4133 167.391 36.488C167.135 36.552 166.922 36.6747 166.751 36.856C166.581 37.0373 166.437 37.2933 166.319 37.624C166.213 37.944 166.117 38.3707 166.031 38.904C165.914 39.672 165.898 40.2533 165.983 40.648C166.079 41.032 166.271 41.2933 166.559 41.432C166.858 41.56 167.253 41.624 167.743 41.624C168.01 41.624 168.319 41.6187 168.671 41.608C169.023 41.5867 169.375 41.5653 169.727 41.544C170.09 41.512 170.421 41.48 170.719 41.448L170.847 42.68C170.559 42.808 170.213 42.9093 169.807 42.984C169.413 43.0587 169.013 43.112 168.607 43.144C168.213 43.176 167.839 43.192 167.487 43.192C166.506 43.192 165.738 43.0373 165.183 42.728C164.639 42.4187 164.277 41.9493 164.095 41.32C163.914 40.68 163.882 39.88 163.999 38.92C164.106 38.1307 164.266 37.48 164.479 36.968C164.703 36.4453 164.991 36.04 165.343 35.752C165.695 35.4533 166.127 35.2453 166.639 35.128C167.151 35.0107 167.749 34.952 168.431 34.952Z" fill="white"/>
<path d="M176.62 32.904L175.516 40.68C175.473 41 175.505 41.224 175.611 41.352C175.718 41.48 175.937 41.544 176.268 41.544H177.404L177.499 42.904C177.307 42.968 177.078 43.016 176.811 43.048C176.555 43.0907 176.305 43.1173 176.059 43.128C175.825 43.1493 175.633 43.16 175.484 43.16C174.769 43.16 174.241 42.968 173.9 42.584C173.558 42.2 173.436 41.6667 173.531 40.984L174.699 32.904H176.62ZM178.62 35.144L178.428 36.488H172.779L172.939 35.224L174.475 35.144H178.62Z" fill="white"/>
<path d="M183.476 34.952C183.753 34.952 184.057 34.9627 184.388 34.984C184.729 35.0053 185.071 35.0373 185.412 35.08C185.753 35.112 186.079 35.1547 186.388 35.208C186.708 35.2507 186.98 35.2987 187.204 35.352L186.02 36.456C185.529 36.4347 185.081 36.4187 184.676 36.408C184.281 36.3973 183.94 36.392 183.652 36.392C183.225 36.392 182.868 36.424 182.58 36.488C182.303 36.5413 182.073 36.6587 181.892 36.84C181.711 37.0107 181.561 37.272 181.444 37.624C181.337 37.9653 181.241 38.424 181.156 39C181.06 39.7147 181.012 40.2587 181.012 40.632C181.012 41.0053 181.087 41.2613 181.236 41.4C181.385 41.5387 181.615 41.608 181.924 41.608C182.255 41.5973 182.591 41.5067 182.932 41.336C183.273 41.1653 183.62 40.92 183.972 40.6C184.324 40.28 184.676 39.9067 185.028 39.48L185.38 40.2C185.145 40.7653 184.825 41.272 184.42 41.72C184.015 42.168 183.551 42.5253 183.028 42.792C182.505 43.048 181.935 43.1813 181.316 43.192C180.655 43.2027 180.143 43.0693 179.78 42.792C179.428 42.504 179.204 42.0453 179.108 41.416C179.023 40.776 179.049 39.9547 179.188 38.952C179.327 38.056 179.513 37.3413 179.748 36.808C179.983 36.264 180.276 35.864 180.628 35.608C180.98 35.3413 181.391 35.1653 181.86 35.08C182.34 34.9947 182.879 34.952 183.476 34.952ZM185.284 35.272L187.204 35.352L186.132 43H184.628L184.692 41.192L184.468 41.016L185.284 35.272Z" fill="white"/>
</svg>
