<svg viewBox="0 0 544 256" xmlns="http://www.w3.org/2000/svg" style="width: 100%; height: 100%; max-width: 544px; max-height: 256px;">
    <path d="M95.5 45L42.1 165.6C40.7 169 40.7 171.7 42.1 173.7C43.7 175.5 46 176.4 49 176.4H169.6V200.1L143.2 203.7H23.8C18.2 203.7 13.4 202.2 9.4 199.2C5.6 196 3.1 192 1.9 187.2C0.7 182.2 1.2 177.2 3.4 172.2L59.5 45H95.5ZM143.5 84.9V252H108.7V118.5L115 84.9H143.5ZM273.079 41.1C292.079 41.1 307.079 44.7 318.079 51.9C329.279 58.9 337.279 70.3 342.079 86.1C347.079 101.9 349.579 122.7 349.579 148.5C349.579 174.3 347.079 195.1 342.079 210.9C337.279 226.7 329.279 238.2 318.079 245.4C307.079 252.4 292.079 255.9 273.079 255.9C254.279 255.9 239.279 252.4 228.079 245.4C217.079 238.2 209.079 226.7 204.079 210.9C199.279 195.1 196.879 174.3 196.879 148.5C196.879 122.7 199.279 101.9 204.079 86.1C209.079 70.3 217.079 58.9 228.079 51.9C239.279 44.7 254.279 41.1 273.079 41.1ZM273.079 71.4C265.479 71.4 259.179 72.7 254.179 75.3C249.179 77.9 245.179 82.1 242.179 87.9C239.179 93.7 237.079 101.6 235.879 111.6C234.679 121.4 234.079 133.7 234.079 148.5C234.079 163.1 234.679 175.4 235.879 185.4C237.079 195.4 239.179 203.3 242.179 209.1C245.179 214.9 249.179 219.1 254.179 221.7C259.179 224.3 265.479 225.6 273.079 225.6C280.479 225.6 286.779 224.3 291.979 221.7C297.179 219.1 301.279 214.9 304.279 209.1C307.279 203.3 309.379 195.4 310.579 185.4C311.779 175.4 312.379 163.1 312.379 148.5C312.379 133.7 311.779 121.4 310.579 111.6C309.379 101.6 307.279 93.7 304.279 87.9C301.279 82.1 297.179 77.9 291.979 75.3C286.779 72.7 280.479 71.4 273.079 71.4ZM469.621 45L416.221 165.6C414.821 169 414.821 171.7 416.221 173.7C417.821 175.5 420.121 176.4 423.121 176.4H543.721V200.1L517.321 203.7H397.921C392.321 203.7 387.521 202.2 383.521 199.2C379.721 196 377.221 192 376.021 187.2C374.821 182.2 375.321 177.2 377.521 172.2L433.621 45H469.621ZM517.621 84.9V252H482.821V118.5L489.121 84.9H517.621Z" fill="#E4E9F2"/>
    <path opacity="0.75" d="M238.7 0.0999973C257.7 0.0999973 272.7 3.69999 283.7 10.9C294.9 17.9 302.9 29.3 307.7 45.1C312.7 60.9 315.2 81.7 315.2 107.5C315.2 133.3 312.7 154.1 307.7 169.9C302.9 185.7 294.9 197.2 283.7 204.4C272.7 211.4 257.7 214.9 238.7 214.9C219.9 214.9 204.9 211.4 193.7 204.4C182.7 197.2 174.7 185.7 169.7 169.9C164.9 154.1 162.5 133.3 162.5 107.5C162.5 81.7 164.9 60.9 169.7 45.1C174.7 29.3 182.7 17.9 193.7 10.9C204.9 3.69999 219.9 0.0999973 238.7 0.0999973ZM238.7 30.4C231.1 30.4 224.8 31.7 219.8 34.3C214.8 36.9 210.8 41.1 207.8 46.9C204.8 52.7 202.7 60.6 201.5 70.6C200.3 80.4 199.7 92.7 199.7 107.5C199.7 122.1 200.3 134.4 201.5 144.4C202.7 154.4 204.8 162.3 207.8 168.1C210.8 173.9 214.8 178.1 219.8 180.7C224.8 183.3 231.1 184.6 238.7 184.6C246.1 184.6 252.4 183.3 257.6 180.7C262.8 178.1 266.9 173.9 269.9 168.1C272.9 162.3 275 154.4 276.2 144.4C277.4 134.4 278 122.1 278 107.5C278 92.7 277.4 80.4 276.2 70.6C275 60.6 272.9 52.7 269.9 46.9C266.9 41.1 262.8 36.9 257.6 34.3C252.4 31.7 246.1 30.4 238.7 30.4Z" fill="#006DB3"/>
</svg>
