<svg width="132" height="162" viewBox="0 0 132 162" fill="none" xmlns="http://www.w3.org/2000/svg">
<path d="M163.875 125.875C162.847 125.104 161.597 124.688 160.312 124.688H154.375V47.5C154.375 41.2011 151.873 35.1602 147.419 30.7062C142.965 26.2522 136.924 23.75 130.625 23.75H29.6875C23.3886 23.75 17.3477 26.2522 12.8937 30.7062C8.43973 35.1602 5.9375 41.2011 5.9375 47.5C5.9375 57.6012 13.3965 63.4867 14.25 64.125C15.2749 64.9012 16.5268 65.3185 17.8125 65.3125C19.05 65.3091 20.2554 64.9192 21.2605 64.1972C22.2655 63.4752 23.0198 62.4572 23.418 61.2855C23.8162 60.1139 23.8383 58.8471 23.4813 57.6622C23.1244 56.4774 22.4061 55.4336 21.427 54.677C21.3973 54.6398 17.8125 51.7602 17.8125 47.5C17.8125 44.3506 19.0636 41.3301 21.2906 39.1031C23.5176 36.8761 26.5381 35.625 29.6875 35.625C32.8369 35.625 35.8574 36.8761 38.0844 39.1031C40.3114 41.3301 41.5625 44.3506 41.5625 47.5V142.5C41.5625 148.799 44.0647 154.84 48.5187 159.294C52.9727 163.748 59.0136 166.25 65.3125 166.25H148.438C154.736 166.25 160.777 163.748 165.231 159.294C169.685 154.84 172.188 148.799 172.188 142.5C172.188 132.399 164.766 126.513 163.875 125.875ZM77.1875 71.25H124.688C126.262 71.25 127.772 71.8756 128.886 72.9891C129.999 74.1026 130.625 75.6128 130.625 77.1875C130.625 78.7622 129.999 80.2724 128.886 81.3859C127.772 82.4994 126.262 83.125 124.688 83.125H77.1875C75.6128 83.125 74.1026 82.4994 72.9891 81.3859C71.8756 80.2724 71.25 78.7622 71.25 77.1875C71.25 75.6128 71.8756 74.1026 72.9891 72.9891C74.1026 71.8756 75.6128 71.25 77.1875 71.25ZM71.25 100.938C71.25 99.3628 71.8756 97.8525 72.9891 96.7391C74.1026 95.6255 75.6128 95 77.1875 95H124.688C126.262 95 127.772 95.6255 128.886 96.7391C129.999 97.8525 130.625 99.3628 130.625 100.938C130.625 102.512 129.999 104.022 128.886 105.136C127.772 106.249 126.262 106.875 124.688 106.875H77.1875C75.6128 106.875 74.1026 106.249 72.9891 105.136C71.8756 104.022 71.25 102.512 71.25 100.938ZM148.438 154.375H79.941C82.0321 150.767 83.1307 146.67 83.125 142.5C83.1265 140.487 82.8237 138.485 82.227 136.562H157.93C159.404 138.197 160.253 140.3 160.327 142.5C160.327 144.061 160.02 145.606 159.422 147.048C158.824 148.49 157.948 149.799 156.844 150.902C155.74 152.005 154.429 152.879 152.986 153.475C151.544 154.071 149.998 154.377 148.438 154.375Z" fill="#EEEEF7"/>
</svg>
